<svg id="Ebene_1" data-name="Ebene 1" xmlns="http://www.w3.org/2000/svg" xmlns:xlink="http://www.w3.org/1999/xlink" width="850" height="580" viewBox="0 0 850 580"><defs><style>.cls-1,.cls-2,.cls-3{opacity:0.5;}.cls-1,.cls-10,.cls-2,.cls-3,.cls-9{isolation:isolate;}.cls-1{fill:url(#Unbenannter_Verlauf_12);}.cls-2{fill:url(#Unbenannter_Verlauf_12-2);}.cls-3{fill:url(#Unbenannter_Verlauf_12-3);}.cls-4{fill:#f5f3f6;}.cls-5{fill:#fafafa;}.cls-6{fill:#ebedee;}.cls-7{fill:#d4d3d3;}.cls-10,.cls-8,.cls-9{fill:#fff;}.cls-9{opacity:0.41;}.cls-10{opacity:0.59;}.cls-11{fill:#a8b8d8;}.cls-12{fill:#7998c7;}.cls-13{fill:#274da0;}.cls-14{fill:#6b85bd;}.cls-15{fill:#19217b;}.cls-16{fill:#192d90;}.cls-17{fill:url(#Unbenannter_Verlauf_128);}.cls-18{fill:url(#Unbenannter_Verlauf_128-2);}.cls-19{fill:url(#Unbenannter_Verlauf_122);}.cls-20{fill:url(#Unbenannter_Verlauf_122-2);}.cls-21{fill:url(#Unbenannter_Verlauf_102);}.cls-22{fill:url(#Unbenannter_Verlauf_122-3);}.cls-23{fill:#1c2c70;}.cls-24{fill:url(#Unbenannter_Verlauf_128-3);}.cls-25{fill:url(#Unbenannter_Verlauf_128-4);}.cls-26{fill:url(#Unbenannter_Verlauf_127);}.cls-27{fill:url(#Unbenannter_Verlauf_123);}.cls-28{fill:url(#Unbenannter_Verlauf_102-2);}.cls-29{fill:url(#Unbenannter_Verlauf_122-4);}.cls-30{fill:#263b95;}.cls-31{fill:url(#Unbenannter_Verlauf_102-3);}.cls-32{fill:url(#Unbenannter_Verlauf_124);}.cls-33{fill:url(#Unbenannter_Verlauf_102-4);}.cls-34{fill:url(#Unbenannter_Verlauf_102-5);}.cls-35{fill:url(#Unbenannter_Verlauf_102-6);}.cls-36{fill:url(#Unbenannter_Verlauf_102-7);}.cls-37{fill:url(#Unbenannter_Verlauf_124-2);}.cls-38{fill:url(#Unbenannter_Verlauf_125);}.cls-39{fill:#1f307a;}.cls-40{fill:url(#Unbenannter_Verlauf_123-2);}.cls-41{fill:url(#Unbenannter_Verlauf_124-3);}.cls-42{fill:url(#Unbenannter_Verlauf_102-8);}.cls-43{fill:url(#Unbenannter_Verlauf_123-3);}.cls-44{fill:url(#Unbenannter_Verlauf_102-9);}.cls-45{fill:url(#Unbenannter_Verlauf_122-5);}.cls-46{fill:url(#Unbenannter_Verlauf_18);}.cls-47{fill:url(#Unbenannter_Verlauf_25);}.cls-48{fill:url(#Unbenannter_Verlauf_121);}.cls-49{fill:url(#Unbenannter_Verlauf_24);}.cls-50{fill:url(#Unbenannter_Verlauf_25-2);}.cls-51{fill:none;}.cls-52{fill:#f0f0f0;}.cls-53{fill:url(#Unbenannter_Verlauf_42);}.cls-54{fill:url(#Unbenannter_Verlauf_42-2);}.cls-55{fill:url(#Unbenannter_Verlauf_42-3);}.cls-56{fill:url(#Unbenannter_Verlauf_42-4);}.cls-57{fill:url(#Unbenannter_Verlauf_42-5);}.cls-58{fill:#37a5cb;}.cls-59{fill:url(#Unbenannter_Verlauf_42-6);}.cls-60{fill:url(#Unbenannter_Verlauf_42-7);}.cls-61{fill:url(#Unbenannter_Verlauf_42-8);}.cls-62{fill:url(#Unbenannter_Verlauf_42-9);}.cls-63{fill:url(#Unbenannter_Verlauf_42-10);}</style><linearGradient id="Unbenannter_Verlauf_12" x1="824.09" y1="-144.6" x2="689.22" y2="-223.7" gradientTransform="translate(0 747.89)" gradientUnits="userSpaceOnUse"><stop offset="0" stop-color="#378abd"/><stop offset="1" stop-color="#c5e9f0"/></linearGradient><linearGradient id="Unbenannter_Verlauf_12-2" x1="433.37" y1="-120.25" x2="239.7" y2="-233.83" xlink:href="#Unbenannter_Verlauf_12"/><linearGradient id="Unbenannter_Verlauf_12-3" x1="636.96" y1="-126.04" x2="442.55" y2="-240.05" xlink:href="#Unbenannter_Verlauf_12"/><linearGradient id="Unbenannter_Verlauf_128" x1="472.62" y1="449.8" x2="472.62" y2="434.18" gradientTransform="translate(0 77.86)" gradientUnits="userSpaceOnUse"><stop offset="0" stop-color="#575ea9"/><stop offset="1" stop-color="#4966ad"/></linearGradient><linearGradient id="Unbenannter_Verlauf_128-2" x1="-6812.27" y1="449.8" x2="-6812.27" y2="434.18" gradientTransform="matrix(-1, 0, 0, 1, -6322, 77.86)" xlink:href="#Unbenannter_Verlauf_128"/><linearGradient id="Unbenannter_Verlauf_122" x1="468.57" y1="436.82" x2="468.57" y2="326.78" gradientTransform="translate(0 77.86)" gradientUnits="userSpaceOnUse"><stop offset="0" stop-color="#65a5cc"/><stop offset="1" stop-color="#73c9df"/></linearGradient><linearGradient id="Unbenannter_Verlauf_122-2" x1="494.32" y1="436.64" x2="494.32" y2="326.6" xlink:href="#Unbenannter_Verlauf_122"/><linearGradient id="Unbenannter_Verlauf_102" x1="338.71" y1="274.76" x2="358.29" y2="274.76" gradientTransform="translate(0 77.86)" gradientUnits="userSpaceOnUse"><stop offset="0" stop-color="#f0a186"/><stop offset="1" stop-color="#ecb3b3"/></linearGradient><linearGradient id="Unbenannter_Verlauf_122-3" x1="243.15" y1="247.21" x2="364.72" y2="277.14" xlink:href="#Unbenannter_Verlauf_122"/><linearGradient id="Unbenannter_Verlauf_128-3" x1="266.36" y1="439.15" x2="304.82" y2="439.15" xlink:href="#Unbenannter_Verlauf_128"/><linearGradient id="Unbenannter_Verlauf_128-4" x1="298.42" y1="386.88" x2="335.45" y2="386.88" xlink:href="#Unbenannter_Verlauf_128"/><linearGradient id="Unbenannter_Verlauf_127" x1="263.74" y1="340.43" x2="330.87" y2="340.43" gradientTransform="translate(0 77.86)" gradientUnits="userSpaceOnUse"><stop offset="0" stop-color="#621e8a"/><stop offset="1" stop-color="#89419c"/></linearGradient><linearGradient id="Unbenannter_Verlauf_123" x1="-5920.4" y1="101.23" x2="-5874.75" y2="101.23" gradientTransform="matrix(-1, 0, 0, 0.77, -5630.09, 373.16)" gradientUnits="userSpaceOnUse"><stop offset="0" stop-color="#89419c"/><stop offset="1" stop-color="#621e8a"/></linearGradient><linearGradient id="Unbenannter_Verlauf_102-2" x1="253.31" y1="221.68" x2="282.45" y2="221.68" xlink:href="#Unbenannter_Verlauf_102"/><linearGradient id="Unbenannter_Verlauf_122-4" x1="237.09" y1="271.84" x2="358.65" y2="301.77" xlink:href="#Unbenannter_Verlauf_122"/><linearGradient id="Unbenannter_Verlauf_102-3" x1="-478.7" y1="3079.49" x2="-458.69" y2="3079.49" gradientTransform="translate(-1400.36 -1977.55) rotate(-50.27)" xlink:href="#Unbenannter_Verlauf_102"/><linearGradient id="Unbenannter_Verlauf_124" x1="668.36" y1="263.68" x2="688" y2="249.97" gradientTransform="translate(0 77.86)" gradientUnits="userSpaceOnUse"><stop offset="0" stop-color="#4966ad"/><stop offset="1" stop-color="#444a86"/></linearGradient><linearGradient id="Unbenannter_Verlauf_102-4" x1="613.02" y1="247.57" x2="633.05" y2="247.57" xlink:href="#Unbenannter_Verlauf_102"/><linearGradient id="Unbenannter_Verlauf_102-5" x1="707.71" y1="409.11" x2="744.8" y2="399.14" xlink:href="#Unbenannter_Verlauf_102"/><linearGradient id="Unbenannter_Verlauf_102-6" x1="682.9" y1="410.51" x2="714.08" y2="412.39" xlink:href="#Unbenannter_Verlauf_102"/><linearGradient id="Unbenannter_Verlauf_102-7" x1="691.75" y1="192.81" x2="721.49" y2="192.81" xlink:href="#Unbenannter_Verlauf_102"/><linearGradient id="Unbenannter_Verlauf_124-2" x1="641.97" y1="224.39" x2="742.35" y2="261.17" xlink:href="#Unbenannter_Verlauf_124"/><linearGradient id="Unbenannter_Verlauf_125" x1="688.43" y1="330.29" x2="740.14" y2="330.29" gradientTransform="translate(0 77.86)" gradientUnits="userSpaceOnUse"><stop offset="0" stop-color="#73c9df"/><stop offset="1" stop-color="#65a5cc"/></linearGradient><linearGradient id="Unbenannter_Verlauf_123-2" x1="683.89" y1="459.22" x2="715.12" y2="459.22" gradientTransform="translate(0 77.86)" xlink:href="#Unbenannter_Verlauf_123"/><linearGradient id="Unbenannter_Verlauf_124-3" x1="640.62" y1="228.09" x2="740.99" y2="264.87" xlink:href="#Unbenannter_Verlauf_124"/><linearGradient id="Unbenannter_Verlauf_102-8" x1="680.16" y1="456.23" x2="711.33" y2="458.1" xlink:href="#Unbenannter_Verlauf_102"/><linearGradient id="Unbenannter_Verlauf_123-3" x1="553.98" y1="1851.04" x2="585.19" y2="1851.04" gradientTransform="translate(-516.5 -950.74) rotate(-22.97)" xlink:href="#Unbenannter_Verlauf_123"/><linearGradient id="Unbenannter_Verlauf_102-9" x1="560.68" y1="1854.16" x2="597.77" y2="1844.19" gradientTransform="translate(-516.5 -950.74) rotate(-22.97)" xlink:href="#Unbenannter_Verlauf_102"/><linearGradient id="Unbenannter_Verlauf_122-5" x1="479.88" y1="335" x2="479.88" y2="302.58" xlink:href="#Unbenannter_Verlauf_122"/><linearGradient id="Unbenannter_Verlauf_18" x1="434.27" y1="267.08" x2="466.98" y2="267.08" gradientTransform="translate(0 77.86)" gradientUnits="userSpaceOnUse"><stop offset="0" stop-color="#4d64a3"/><stop offset="1" stop-color="#34266f"/></linearGradient><linearGradient id="Unbenannter_Verlauf_25" x1="491.17" y1="265.46" x2="523.88" y2="265.46" gradientTransform="translate(0 77.86)" gradientUnits="userSpaceOnUse"><stop offset="0" stop-color="#34266f"/><stop offset="1" stop-color="#4d64a3"/></linearGradient><linearGradient id="Unbenannter_Verlauf_121" x1="479.89" y1="220.18" x2="479.89" y2="239.96" gradientTransform="translate(0 77.86)" gradientUnits="userSpaceOnUse"><stop offset="0" stop-color="#c78656"/><stop offset="1" stop-color="#f7b96b"/></linearGradient><linearGradient id="Unbenannter_Verlauf_24" x1="477.28" y1="237.93" x2="481.65" y2="317.42" gradientTransform="translate(0 77.86)" gradientUnits="userSpaceOnUse"><stop offset="0" stop-color="#4a77b5"/><stop offset="1" stop-color="#443c99"/></linearGradient><linearGradient id="Unbenannter_Verlauf_25-2" x1="468.27" y1="221.47" x2="506.85" y2="174.41" xlink:href="#Unbenannter_Verlauf_25"/><linearGradient id="Unbenannter_Verlauf_42" x1="585.69" y1="436.36" x2="678.56" y2="436.36" gradientTransform="matrix(1, 0, 0, -1, 0, 652)" gradientUnits="userSpaceOnUse"><stop offset="0" stop-color="#f5897c"/><stop offset="1" stop-color="#f2a287"/></linearGradient><linearGradient id="Unbenannter_Verlauf_42-2" x1="591.11" y1="414.17" x2="616.83" y2="414.17" xlink:href="#Unbenannter_Verlauf_42"/><linearGradient id="Unbenannter_Verlauf_42-3" x1="647.22" y1="414.16" x2="673" y2="414.16" xlink:href="#Unbenannter_Verlauf_42"/><linearGradient id="Unbenannter_Verlauf_42-4" x1="647.22" y1="458.59" x2="672.88" y2="458.59" xlink:href="#Unbenannter_Verlauf_42"/><linearGradient id="Unbenannter_Verlauf_42-5" x1="591.1" y1="458.59" x2="616.83" y2="458.59" xlink:href="#Unbenannter_Verlauf_42"/><linearGradient id="Unbenannter_Verlauf_42-6" x1="363.11" y1="402.65" x2="455.98" y2="402.65" xlink:href="#Unbenannter_Verlauf_42"/><linearGradient id="Unbenannter_Verlauf_42-7" x1="368.53" y1="380.47" x2="394.25" y2="380.47" xlink:href="#Unbenannter_Verlauf_42"/><linearGradient id="Unbenannter_Verlauf_42-8" x1="424.64" y1="380.46" x2="450.42" y2="380.46" xlink:href="#Unbenannter_Verlauf_42"/><linearGradient id="Unbenannter_Verlauf_42-9" x1="424.64" y1="424.88" x2="450.3" y2="424.88" xlink:href="#Unbenannter_Verlauf_42"/><linearGradient id="Unbenannter_Verlauf_42-10" x1="368.52" y1="424.91" x2="394.25" y2="424.91" xlink:href="#Unbenannter_Verlauf_42"/></defs><title>firmenkurse</title><ellipse class="cls-1" cx="715.62" cy="539.67" rx="57.38" ry="6.28"/><ellipse class="cls-2" cx="277.6" cy="536.29" rx="82.4" ry="9.01"/><ellipse class="cls-3" cx="480.6" cy="530.15" rx="82.4" ry="15.15"/><g id="Ebene_2" data-name="Ebene 2"><g id="Ebene_1-2" data-name="Ebene 1-2"><g id="Objects"><g id="Objects-2" data-name="Objects"><rect class="cls-4" x="356.82" y="84.93" width="477.18" height="347.45"/><rect class="cls-5" x="361.62" y="89.23" width="467.65" height="338.84"/><polygon class="cls-6" points="830.7 252.76 820.41 252.76 820.41 243.16 801.77 243.16 801.77 262.8 796.34 262.8 796.34 224.46 780.7 206.63 780.7 271.4 771.59 273.27 771.59 226.26 766.42 219.16 745.22 219.16 740.23 223.77 740.23 252.7 734.62 252.7 725.96 252.7 725.96 245.22 721.65 238.36 698.84 238.36 692.66 244.16 692.66 260.8 688.92 260.8 688.92 272.96 672.15 272.96 672.15 265.29 672.15 247.52 666.92 247.52 666.92 243.22 647.59 243.22 647.59 247.52 644.29 247.52 644.29 265.85 626.83 266.35 626.83 249.96 626.83 226.58 606.88 226.58 606.88 252.76 592.79 252.76 592.79 243.16 574.15 243.16 574.15 262.8 568.72 262.8 568.72 224.46 553.01 206.63 553.01 271.4 543.91 273.27 543.91 226.26 538.74 219.16 517.6 219.16 512.61 223.77 512.61 252.7 506.94 252.7 498.34 252.7 498.34 245.22 494.04 238.36 471.22 238.36 465.05 244.16 465.05 260.8 461.31 260.8 461.31 273.71 431.25 273.71 431.25 260.12 413.92 260.12 413.92 247.52 408.69 247.52 408.69 243.22 389.42 243.22 389.42 247.52 386.06 247.52 386.06 265.85 368.6 266.35 368.6 249.96 368.6 226.58 361.62 226.58 361.62 378.38 404.7 378.38 413.92 378.38 423.34 378.38 431.25 378.38 461.31 378.38 467.54 378.38 491.36 378.38 498.34 378.38 512.61 378.38 520.35 378.38 657.75 378.38 672.15 378.38 688.92 378.38 696.28 378.38 719.04 378.38 725.96 378.38 740.23 378.38 747.97 378.38 830.7 378.38 830.7 252.76"/><polygon class="cls-7" points="830.7 300.02 822.65 300.02 822.65 334.74 813.12 334.74 813.12 267.04 785.37 235.43 785.37 350.08 769.29 353.38 769.29 270.15 760.12 257.56 722.65 257.56 713.86 265.79 713.86 316.98 703.89 316.98 688.61 316.98 688.61 303.76 680.94 291.54 640.54 291.54 629.63 301.89 629.63 331.25 620.91 331.25 620.91 298.65 606.75 298.65 606.75 309.68 570.72 309.68 570.72 268.85 543.41 288.55 543.41 349.58 529.76 349.58 529.76 309.18 524.83 303.57 501.89 303.57 495.91 308.25 495.91 329.38 478.45 329.38 478.45 298.65 452.26 298.65 452.26 333.12 433.69 333.12 433.69 320.47 409.12 320.47 409.12 346.28 402.02 346.28 402.02 314.86 387.3 291.35 387.3 363.17 383.75 360.12 383.75 320.47 376.89 311.05 361.62 311.05 361.62 428.07 830.7 428.07 830.7 300.02"/><rect class="cls-8" x="486.37" y="89.23" width="3.99" height="338.84"/><rect class="cls-8" x="619.54" y="89.23" width="3.99" height="338.84"/><rect class="cls-8" x="752.7" y="89.23" width="3.99" height="338.84"/><rect class="cls-8" x="361.62" y="131.75" width="470.83" height="3.99"/><rect class="cls-8" x="361.62" y="282.13" width="470.83" height="3.99"/><polygon class="cls-9" points="467.04 428.07 431.13 428.07 594.53 89.23 630.38 89.23 467.04 428.07"/><polygon class="cls-10" points="588.86 428.07 492.54 428.07 655.94 89.23 752.2 89.23 588.86 428.07"/><rect class="cls-6" x="208.82" y="203.2" width="83.04" height="22.07"/><rect class="cls-4" x="208.82" y="225.27" width="83.04" height="74.88"/><rect class="cls-8" x="208.82" y="225.27" width="83.04" height="2.12"/><path class="cls-8" d="M214.12,230.44v65h72.56v-65Zm72.19,8.85h-11v-8.47h11ZM238.18,254.2h12v14.22h-12Zm-.37,14.22h-12V254.2h12Zm12.4-14.59h-12V239.61h12Zm.31-14.15h12v14.21h-12Zm-.31,29.11V283h-12V268.79Zm.31,0h12V283h-12Zm0-.37V254.2h12v14.22Zm12.41-14.22h12v14.22h-12Zm0-.37V239.61h12v14.22Zm0-14.53v-8.48h12v8.48Zm-.37,0h-12v-8.48h12Zm-12.35,0h-12v-8.48h12Zm-12.4,0h-12v-8.48h12Zm0,.38v14.21h-12V239.68Zm-12.35,14.15h-11V239.61h11Zm0,.37v14.22h-11V254.2Zm0,14.59V283h-11V268.79Zm.38,0h12V283h-12Zm12,14.53V295h-12V283.32Zm.37,0h12V295h-12Zm12.34,0h12V295h-12Zm12.41,0h12V295h-12Zm0-.32V268.79h12V283Zm12.35-14.21h11V283h-11Zm0-.37V254.2h11v14.22Zm0-14.59V239.61h11v14.22Zm-49.82-23.07v8.48h-11v-8.48Zm-11,52.56h11V295h-11ZM275.28,295V283.32h11V295Z"/><path class="cls-7" d="M272.91,203.14l-21.33-16.4c0-.06.07-.13.07-.19a1.06,1.06,0,0,0-1.05-1.06h0a1.09,1.09,0,0,0-1.06,1.06L228,203.2l.56.31,21.19-16.33a1,1,0,0,0,.88.49,1,1,0,0,0,.81-.37l21,16.15Z"/><path class="cls-11" d="M85.06,285.49c8.79-3.05,13.41-3.36,22.63-4.36,7.61-.81,17.83-2.93,27.44-3.74-8.61-1.19-17.27-2.18-25.88-1.31S91.86,279.69,85.06,285.49Z"/><path class="cls-11" d="M56.76,315.23c1.68.25,3.36.5,5.11.69A20.1,20.1,0,0,0,56.76,315.23Z"/><path class="cls-11" d="M169,328.76c1.49,1.12,2.93,2.24,4.42,3.37a61.43,61.43,0,0,0-12.09-14.22c-2.74-2.37-4.74-3-8.29-3.3a62.43,62.43,0,0,0-9.67,0,40.09,40.09,0,0,0-7.23.93c-2.18.56-4.3,1.5-6.54,1.5-2.06,0-4-.87-6-1.19s-3,.38-4.8.69a69.2,69.2,0,0,1-10.16.87.57.57,0,0,0,.12-.25,1.07,1.07,0,0,1-.25.31c-1.24.07-2.43.13-3.67.25,1.55-1.24,3.11-2.55,4.73-3.8-1,.19-2,.31-3,.5,9.1-1.62,16.83-8,25.13-12.47,4.17-2.18,8.54-3.93,12.59-6.36l-19.76,5.8,21.69-12.72Q127,294.19,108,300.83c-5.68,2-11.54,4.11-16.34,8a10,10,0,0,0-2.62,2.74c-.18-2.36-.37-5-.75-7.73,8.48-4.11,18.46-3.49,27.12-7.23,4.74-2.06,9-5.3,13.35-8.17s9.1-5.42,14.21-5.86c-3-.06-6.17-.25-9.16-.31A69.69,69.69,0,0,0,145,274.83c-4.62,3.68-10.42,5.18-16.15,5.86s-11.47.75-17.15,2c-8.85,1.93-16.89,6.85-24.75,11.72a119.5,119.5,0,0,0-4.61-18c7.42-1.49,13.59-6.73,19.58-11.59,6.48-5.3,13.15-10.35,19.82-15.4a7.81,7.81,0,0,0-5.36,1.62c-1.62,1.12-3.06,2.43-4.68,3.43-2.61,1.62-5.61,2.3-8.41,3.55A43.41,43.41,0,0,0,95,263.3c-4.93,3.61-10.1,7.42-12.72,13.09a76.46,76.46,0,0,0-3.18-7.67,44.72,44.72,0,0,1,12-11.78c2-1.31,4.11-2.56,5.42-4.55.63-.94.94-2.37.06-3a1.93,1.93,0,0,0-1.43-.24c-5.11.74-8,7-12.78,9a8.2,8.2,0,0,0-2.68,1.37c-1.19,1.12-1.37,3-1.19,4.61a30.16,30.16,0,0,1,.44,4.12,55,55,0,0,0-4.3-7.49c2.8-4.73,5.61-9.53,8.42-14.27a17.35,17.35,0,0,0,2.18-4.87c.18-1,.06-2.3-.81-2.74s-2,.5-2.75,1.31a39.27,39.27,0,0,0-6.36,9.85,19.23,19.23,0,0,0-1.55,9.35,39.41,39.41,0,0,0-6.3-6.92,36.68,36.68,0,0,1,4.86,6.24c-.12-.07-.18-.13-.25-.13-2.87-1.31-5.67-2.62-8.54-3.93,1.37.13,2.74.25,4.12.32l2.49.87a31,31,0,0,0-7.67-4,10.51,10.51,0,0,1,2.43-.31,5.13,5.13,0,0,1,4.74,2.55A12.44,12.44,0,0,0,63.43,243a16.49,16.49,0,0,0-12.53-1.38,18,18,0,0,1,11.28,7.8c-3.49-1.5-7.23-2.75-11-2.62-5.55.19-10.6,3.3-16,4.67,3.43.69,6.92,1.38,10.41,1.75l-17.77,3a32.24,32.24,0,0,0,14-.12,14,14,0,0,1-10.29,2,76.38,76.38,0,0,0,14.22,1.62c8.54.44,17.14.81,25.68,1.25.69.06,1.56-.06,1.81-.75.25.45.52.89.81,1.31v.06c.94,1.63,1.93,3.5,2.93,5.62-8.6-2.62-17.27-5.3-26.18-6.43-9.29-1.18-19-.81-27.62-4.67a12.82,12.82,0,0,0,7.23,4.42,10.38,10.38,0,0,0-3.74,4.12c1.81-1.06,3.74-2.18,5.8-2.31,2.37-.06,4.49,1.19,6.54,2.37,3.62,2.06,7.48,4.12,11.6,4.24,3.12.06,6.17-.93,9.23-1.31,5.73-.75,11.47.44,17.2-.25,1.19,2.43,2.31,5.24,3.49,8.42A186.58,186.58,0,0,0,61.06,271c-3.3-.57-6.73-1-10-.25-2.36.56-4.55,1.74-6.85,2.43-3.37.93-6.86.81-10.23,1.49a22.68,22.68,0,0,0-9.29,4.24c5.55-1.37,11.23-1.49,16.9-1.68l39.09-1.12c.81,2.37,1.62,4.86,2.43,7.67l-25.25-4.12c-3.74-.62-7.54-1.25-11.35-.75-3.05.38-6,1.44-9,1.81-2.61.31-5.3.06-7.91.44s-5.3,1.43-6.8,3.74c2.68-.38,5.36-.69,8-.87a24.09,24.09,0,0,0-6.48,3.42q30.1,1.59,60.16,4.43a170.71,170.71,0,0,0-29.8-8.17c9.48.25,19,.69,28.49.25a151.22,151.22,0,0,1,4.87,30.93,12.31,12.31,0,0,1-7.67-7.67l6.85,1.31c-4.36-2.68-8.79-5.36-13.15-8a91,91,0,0,1,12.34.87C72.91,299.59,60.56,290.74,46.91,291c-9.42.19-18.27,4.74-26.69,9.23a41.11,41.11,0,0,1,27.56-1.37,41.72,41.72,0,0,0-23.19,4.55,118.75,118.75,0,0,1,20-.93c-1.37.43-2.74.81-4.12,1.24a21.93,21.93,0,0,1,13.28,3.62,46.76,46.76,0,0,0-14.46.25,79.4,79.4,0,0,1,42,11c-6.49-.87-12.91-1.81-19.39-2.68,9,2.18,17.21,8.85,26.56,9.91.12,6.05.12,11.79.06,17.15-.94.5-1.81,1.06-2.68,1.62-1.06.68-2.06,1.43-3.12,2.12-1.37-.63-2.74-1.19-4.11-1.81a27.23,27.23,0,0,0,4-10.91,10.19,10.19,0,0,0-.31-5.11,4.53,4.53,0,0,0-3.49-3.18c-1.63,4.67-3.25,9.35-4.87,14.09A30.37,30.37,0,0,0,68,320.66c-1.56-.31-3.05-.62-4.61-.87,1.56.68,3.24,1.43,4.18,2.93a7.78,7.78,0,0,1,.93,3.3c.62,4.55,1,9.23,1.31,13.84.19,2.31.31,4.62.5,6.92h-.13q-.85-.94-1.8-1.8c-.07-.25-.13-.44-.19-.69a8.7,8.7,0,0,1,.37-3.55c.44-1.94.69-4.31-.56-5.8-.62-4.87-1.74-9.92-4.74-13.72s-8.35-5.86-12.59-3.55l6.42.93a119.18,119.18,0,0,1,8.61,23.94c-.5-.37-.94-.81-1.44-1.18a11.12,11.12,0,0,1-1.24-3.43c-.44-2-.5-4.11-1.13-6.05-1.43-4.67-5.42-8-9.54-10.28a20.15,20.15,0,0,0-7.23-2.68,9.2,9.2,0,0,0-7.23,2.18,16.4,16.4,0,0,1,7.36-.69c2.43.5,4.74,2.43,4.92,5-5.73-1.25-11.78,1.56-17.52.31a21.08,21.08,0,0,0-21,8c3-1.31,6-2.55,9-3.61-.74.5-1.49,1.06-2.18,1.56a32,32,0,0,0-5.24,4.42,12.79,12.79,0,0,0-3.24,6.11,27.87,27.87,0,0,1,8.67-7,4.16,4.16,0,0,0-1.87,2.68,55.92,55.92,0,0,1,9.91-5.74c-3.18,1.5-5.11,4.93-6.55,8.23s-2.49,6.92-4.67,9.73A62.31,62.31,0,0,0,28.2,336.8,32,32,0,0,1,24.4,350a85.71,85.71,0,0,0,6.24-7.86,63.56,63.56,0,0,0-3.43,10,36.15,36.15,0,0,0,5.92-9.23A8.49,8.49,0,0,1,31,348.83c2.93-2.24,5.86-4.42,8.79-6.67-2.43,3.68-3.31,8.23-4,12.6,3.55-3.68,7.11-7.42,10.66-11.1-2,5.49-4,11.41-2.81,17.08.32-3.55,2.37-6.61,4-9.72a61.54,61.54,0,0,0,5.61-17.27c.13.06.19.12.32.18,1.31.75,2.55,1.5,3.8,2.37a.77.77,0,0,0-.31.31,18.55,18.55,0,0,0-4.3,8.17,16.82,16.82,0,0,0-.44,5.61,14.16,14.16,0,0,0,.5,2.81,22.21,22.21,0,0,1,.75,2.8,8.59,8.59,0,0,1-.63,4.31c3.87-2.93,6.55-7.3,9.11-11.54a96.3,96.3,0,0,1-4.81,15.09c3.31-4.36,8.48-7.42,10.17-12.72a29.27,29.27,0,0,1-4.24,12.22,71.06,71.06,0,0,1,9.54-9.85A123.52,123.52,0,0,1,79,366.73s3.8,17.08,1.18,42.27c-.56,4.67-1.12,9.29-1.68,14-.32,2.56-2.37,10.1-.5,11.72,2.18,2,10.35,1.37,13.28,1.75,0,0-1.87-25.31-3.24-35.6-.07-4.36.31-9.41,2-13.53.75-1.81,1.5-3.62,2.31-5.42a6.94,6.94,0,0,1,.44,1.62c.74,3.49-.44,7.23.49,10.66a18.85,18.85,0,0,1,2.75-7.92c1.43-2.24,2.74-4,2.62-6.92,0-.93-.32-2.8,1.24-2.8a1.37,1.37,0,0,1,1.19,1.05,5.44,5.44,0,0,1,.18,1.75,20.56,20.56,0,0,0,4.31,12.28,40.78,40.78,0,0,0-.56-12.9,4.33,4.33,0,0,1-.13-1.56,1.2,1.2,0,0,1,.94-1.06,22.51,22.51,0,0,0,5.36,9.54,9,9,0,0,0-1.94-7.67l.75-1.12a4.14,4.14,0,0,1,2.31.5,12.91,12.91,0,0,1,3.12,2.49c2.24,2.24,4.49,4.49,5.86,7.36-.5-1.62-1-3.25-1.44-4.87a35.45,35.45,0,0,1,5.18,7.92c-.44-1.31-.81-2.68-1.25-4,1.31.87,2.56,1.81,3.87,2.68-.38-3.55-3.25-6.05-5.93-8.23-1.37-1.06-2.68-2.18-4-3.24a28.75,28.75,0,0,1,11.16,8,20.64,20.64,0,0,0-6.61-6.73c2.62,1.56,5.18,3.05,7.8,4.61A41.15,41.15,0,0,0,119.79,376a18.09,18.09,0,0,1,10.1,6.3c-1.75-4.61-6-7.79-10.54-9.1a23.73,23.73,0,0,0-5.92-.87c.93-1.31,1.87-2.69,2.74-4.12a105.19,105.19,0,0,1,10.29,4c1.31.56,2.56,1.19,3.86,1.81,0,.19.07.37.07.56,0-.19.06-.31.06-.5.37.19.81.38,1.18.56l10,4.8c-.87-1-1.74-2-2.68-3a16.65,16.65,0,0,1,7.54,5.05,15.4,15.4,0,0,0-3.55-7.73,21,21,0,0,0-3.62-3.43,27,27,0,0,0-3-6.86,22.31,22.31,0,0,1,8.17,9.29c0-4.11-2.25-7.85-5.18-10.47s-6.54-4.3-10-6a64.14,64.14,0,0,0-10.85-4.3c-3.74-.93-7.48.5-11.35.5a60.24,60.24,0,0,0-8.91.44,34.09,34.09,0,0,1,1.68-3.3c7.61-9.29,18.95-20.14,18.95-20.14a22.24,22.24,0,0,1,5.3-1.49,23.67,23.67,0,0,1,20.45,7,11.11,11.11,0,0,0-5.24-4.8,14.48,14.48,0,0,1,10.23,6.55,35.82,35.82,0,0,0-9-9.67,34.69,34.69,0,0,1,19.89,13c-2.56-6.73-8.85-11.22-15.46-13.15s-13.66-1.69-20.58-1.44a27.5,27.5,0,0,1,16.15-3.24c5.49.44,10.91,2,16.27,3.49a29.37,29.37,0,0,0-12-5.55,31.26,31.26,0,0,1,9.29,1.12,11.82,11.82,0,0,1,7.17,5.86c-.25-1.3-.44-2.61-.69-3.92a18.37,18.37,0,0,1,6.55,9.78,12.69,12.69,0,0,0-2.31-6.35c2.12,1.87,4.24,3.8,6.36,5.67A7.29,7.29,0,0,0,169,328.76ZM87.12,295.47a140,140,0,0,1,20.76-5.36c-7.36,2.86-13.59,8.23-19.58,13.59-.31-2.62-.74-5.36-1.18-8.23ZM88,314.92c.07.68.07,1.31.13,2a4.23,4.23,0,0,0-.81-.93,11.77,11.77,0,0,0-4.06-2ZM82.26,318a14.54,14.54,0,0,1,6,1.87v.25c0,.56.06,1.12.06,1.68a15.5,15.5,0,0,1-6-3.8ZM28.89,329.26a28.11,28.11,0,0,0-3.18,0,14.58,14.58,0,0,1,2.62-1c.62-.12,1.25-.19,1.81-.25a5.7,5.7,0,0,0-1.25,1.25Zm.31,4.86a12.36,12.36,0,0,1,1.5-3.05c.75-.25,1.49-.5,2.24-.69a16.39,16.39,0,0,1-3.74,3.74Zm4.49-1.43.37-2.62a14.05,14.05,0,0,1,1.56-.25,12.67,12.67,0,0,0-1.93,2.87Zm4.86-.81-.18-2.25a13.56,13.56,0,0,1,1.56.06c.31,0,.68.07,1,.07a10.85,10.85,0,0,0-2.37,2.12ZM42.86,334c.18-1.25.37-2.56.49-3.81,1.25.25,2.5.63,3.74,1A7.85,7.85,0,0,0,42.86,334Zm5.29,1,1.13-3c1,.44,2,.87,3,1.37-1.37.56-2.74,1.12-4.12,1.62ZM139,369.78c-.81-.56-1.62-1.12-2.49-1.62a5.87,5.87,0,0,0-.88-.5,14.82,14.82,0,0,0-3.86-6,23.19,23.19,0,0,1,7.23,8.1Zm-7.23-4.11c-.69-.31-1.31-.56-2-.81-.25-.81-.56-1.62-.87-2.43a17.35,17.35,0,0,1,2.87,3.24Zm-13.22-3.61a6.65,6.65,0,0,1,.25-1,16.13,16.13,0,0,1,5.55,2A47.48,47.48,0,0,0,118.54,362.06Zm3.62-2.56a18.9,18.9,0,0,0-3.12-1,11.12,11.12,0,0,0-.62-4.24c1.24,1.81,2.49,3.49,3.74,5.24ZM108,372.4c-.94.13-1.87.25-2.81.44l2.87-3.62C108,370.28,108,371.34,108,372.4Zm.56-9.35c-.07.56-.13,1.12-.19,1.74-.31,0-.62.07-1,.07A18.21,18.21,0,0,1,108.57,363.05Zm-1.5,2.43,1.31-.37c-.06.93-.19,1.93-.19,2.86-.93.38-1.81.75-2.68,1.13A15.29,15.29,0,0,1,107.07,365.48Zm-17.64-40.4v-.31c3.55-2,8-1,12-1.06a18.82,18.82,0,0,0,2-.13c-2,2.62-3.92,5.37-4.3,6.86S96.91,336.12,95,340.6a23.36,23.36,0,0,0-5.3,1.81C89.55,334.18,89.43,325.08,89.43,325.08ZM88,356.81a7.09,7.09,0,0,0-3.49-3,7.68,7.68,0,0,1,3.56.69C88.06,355.26,88,356,88,356.81Zm.38-10.22c-.07,1.31-.07,2.62-.13,3.87a25.19,25.19,0,0,0-2.18-1.38C86.81,348.21,87.56,347.4,88.37,346.59ZM72,348.9c-.12-.19-.31-.38-.44-.56a25.4,25.4,0,0,1,5.3-.13,2.06,2.06,0,0,0,.56-1.68,6.45,6.45,0,0,0,3.18,1.74,2.45,2.45,0,0,0-1.12.63,1.16,1.16,0,0,0-.25,1.24c.19.38.69.44,1.06.5,1.93.31,3.87.63,5.74,1-2.56.75-5.18-.5-7.61-1.56C76.33,349.21,74,348.4,72,348.9Zm8.85,15.21a4.68,4.68,0,0,1-.43.75c-.07-.19-.19-.38-.25-.56a92.79,92.79,0,0,0-6.42-12.85,62.71,62.71,0,0,1,9.47,8.36C82.38,361.24,81.63,362.68,80.82,364.11Zm4.43,22.38c.06-1.93.25-3.8.19-5.74-.13-3.86-1.44-7.48-2.06-11.28a16.66,16.66,0,0,1,.56-8.92c.37.44.75.82,1.06,1.25-.06.13-.12.31-.19.44a11,11,0,0,0,.88,9,11,11,0,0,1,1.18-7.05l.56.75C86.87,373.46,86.06,380.69,85.25,386.49Zm5.11-34.41a4.24,4.24,0,0,0-.62-.5c0-1.69-.06-3.81-.06-6.17a27.28,27.28,0,0,1,4.48-3.06c-1.49,3.55-3,7.17-3.8,9.73Zm2,7.17c.06,0,.12.06.18.06h0c-.06.06-.18.12-.25.19C92.29,359.37,92.29,359.31,92.36,359.25Zm-2.5,22.38s1.69-7.36,2.93-13.16l.19-.75a8.84,8.84,0,0,1,4.49,1.87C94.66,372.09,92,375.89,89.86,381.63Zm7.92-15.83a17.9,17.9,0,0,0-1.25-1.87,12.89,12.89,0,0,0-2-2.12,9.27,9.27,0,0,1,.44-1.25c1.06.81,2.12,1.75,3.18,2.62A17.79,17.79,0,0,0,97.78,365.8Zm0,1.12A12,12,0,0,0,98,369c-.19.18-.44.37-.62.56a44,44,0,0,1-3.87-4.43c.13-.37.19-.68.31-1.06a15.42,15.42,0,0,1,3.93,2.86Zm-2,7.73a26.22,26.22,0,0,1,2.8-3.74,9.41,9.41,0,0,0,.69,1.43c-1.19.75-2.37,1.49-3.49,2.3Zm6.85-12.53c.13,0,.32.06.44.06-.12-.06-.19-.18-.31-.25a18,18,0,0,1,2.24-2.62,18.63,18.63,0,0,0-2.49,6.92,16.7,16.7,0,0,0-2.43,1.31,21.55,21.55,0,0,1,2.55-5.43Zm-.25,5.55a23.87,23.87,0,0,0,0,2.93c-1.06.56-2,1.12-3,1.74a14.43,14.43,0,0,1,.25-2.36A19.31,19.31,0,0,1,102.39,367.67ZM101,357.94a11.65,11.65,0,0,0-1.06,1.37,5.39,5.39,0,0,0-1-.62c-.12-.06-.18-.12-.31-.19a17.73,17.73,0,0,1,2.37-.56Zm-2,3.12a8.31,8.31,0,0,0-.5,1.37c-.88-.93-1.81-1.87-2.68-2.8.06,0,.12-.07.18-.07a18.22,18.22,0,0,0,3,1.49ZM112.24,331a19.16,19.16,0,0,1,4.93-9.35c-6.92,2.8-11.91,10.35-12.09,18.08a168,168,0,0,0-9.86,13.71c-.56.19-1.12.31-1.68.56.75-3,1.75-6.42,3-10.16.32-.93.69-1.93,1.06-2.93a24,24,0,0,1,2.87-.81c-.87,0-1.74.06-2.62.12,2.25-5.86,5.36-12.28,7.67-16.89,7-1.25,14-4.68,20.95-3.31-4.74,3.61-9.48,7.29-14.22,11Z"/><path class="cls-12" d="M97.84,340.17c2.25-5.74,5.24-12.1,7.55-16.65-.81.19-1.56.44-2.43.63-1.87,2.43-3.5,4.92-3.87,6.29s-2.12,5.36-4,9.73c1.37.31,2.49.68,2.49.68a28.42,28.42,0,0,1,2.87-.81A17.69,17.69,0,0,0,97.84,340.17Z"/><path class="cls-12" d="M169,328.76c1.49,1.12,2.93,2.24,4.42,3.37a61.43,61.43,0,0,0-12.09-14.22c-2.74-2.37-4.74-3-8.29-3.3a62.43,62.43,0,0,0-9.67,0,40.09,40.09,0,0,0-7.23.93c-2.18.56-4.3,1.5-6.54,1.5l5.61,2.87h-8.67c-4.74,3.67-9.41,7.35-14.15,11a19.15,19.15,0,0,1,4.92-9.35c-6.92,2.8-11.9,10.35-12.09,18.08a167.91,167.91,0,0,0-9.85,13.71c-.56.19-1.12.31-1.68.56.74-3,1.74-6.42,3-10.16.31-.93.68-1.93,1.06-2.93-3.18.5-4.61,1.56-5.3,2.62l1.87-1.12c-1,2.24-1.93,4.55-2.68,6.54a87.17,87.17,0,0,0-3.37,10.1c-.68,3.37-2.87,27.5-2.87,27.5l-.62,15.77,3.31-.93s-.32-9.92,2-14.53v.37c.19-.37.31-.81.5-1.18h0c.56-1.37,1.18-2.81,1.81-4.24a6.92,6.92,0,0,1,.43,1.62c.75,3.49-.43,7.23.5,10.66A18.85,18.85,0,0,1,96,386.05c1.43-2.24,2.74-4,2.61-6.92,0-.93-.31-2.8,1.25-2.8a1.4,1.4,0,0,1,1.19,1.06,5.7,5.7,0,0,1,.18,1.74,20.63,20.63,0,0,0,4.3,12.29,40.83,40.83,0,0,0-.56-12.91,4.56,4.56,0,0,1-.12-1.56,1.19,1.19,0,0,1,.93-1.06,22.62,22.62,0,0,0,5.36,9.54,9,9,0,0,0-1.93-7.67l.75-1.12a4.14,4.14,0,0,1,2.31.5,13.16,13.16,0,0,1,3.11,2.49c2.25,2.25,4.49,4.49,5.86,7.36-.49-1.62-1-3.24-1.43-4.86A35.5,35.5,0,0,1,125,390c-.44-1.31-.82-2.68-1.25-4,1.31.88,2.55,1.81,3.86,2.68-.37-3.55-3.24-6-5.92-8.22-1.37-1.06-2.68-2.19-4-3.25a28.85,28.85,0,0,1,11.16,8,20.83,20.83,0,0,0-6.61-6.73l7.79,4.61a40.88,40.88,0,0,0-10.28-7.35,18.09,18.09,0,0,1,10.1,6.3c-1.75-4.61-6-7.79-10.54-9.1a24.22,24.22,0,0,0-5.92-.88c.93-1.3,1.87-2.68,2.74-4.11a105.19,105.19,0,0,1,10.29,4c1.31.56,2.55,1.18,3.86,1.81,0,.19.06.37.06.56,0-.19.07-.31.07-.5.37.19.81.37,1.18.56l10,4.8c-.87-1-1.75-2-2.68-3a16.65,16.65,0,0,1,7.54,5.05,15.48,15.48,0,0,0-3.55-7.73,21,21,0,0,0-3.62-3.43,27,27,0,0,0-3-6.86,22.38,22.38,0,0,1,8.17,9.29c0-4.11-2.25-7.85-5.18-10.47s-6.54-4.3-10-6a63.71,63.71,0,0,0-10.84-4.3c-3.74-.93-7.48.5-11.35.5a60.24,60.24,0,0,0-8.91.44,31.14,31.14,0,0,1,1.68-3.31,274.57,274.57,0,0,1,19-20.14,22.72,22.72,0,0,1,5.3-1.49,23.71,23.71,0,0,1,20.45,7,11.25,11.25,0,0,0-5.24-4.8,14.56,14.56,0,0,1,10.23,6.55,35.79,35.79,0,0,0-9-9.66,34.63,34.63,0,0,1,19.89,13c-2.56-6.73-8.86-11.22-15.46-13.15s-13.66-1.69-20.58-1.44c4.86-2.86,10.66-3.67,16.15-3.24s10.91,2,16.27,3.49a29.56,29.56,0,0,0-12-5.55,31.27,31.27,0,0,1,9.29,1.13,11.78,11.78,0,0,1,7.17,5.86c-.25-1.31-.44-2.62-.69-3.93a18.4,18.4,0,0,1,6.55,9.79,12.7,12.7,0,0,0-2.31-6.36c2.12,1.87,4.24,3.8,6.36,5.67A7,7,0,0,0,169,328.76Zm-30,41c-.81-.56-1.62-1.12-2.49-1.62a5.87,5.87,0,0,0-.88-.5,14.82,14.82,0,0,0-3.86-6,23.19,23.19,0,0,1,7.23,8.1Zm-7.23-4.11c-.69-.31-1.31-.56-2-.81-.25-.81-.56-1.62-.87-2.43a17.35,17.35,0,0,1,2.87,3.24Zm-13.22-3.61a6.65,6.65,0,0,1,.25-1,16.13,16.13,0,0,1,5.55,2A47.48,47.48,0,0,0,118.54,362.06Zm3.62-2.56a18.9,18.9,0,0,0-3.12-1,11.12,11.12,0,0,0-.62-4.24c1.24,1.81,2.49,3.49,3.74,5.24ZM95,360.62c1.06.81,2.12,1.75,3.18,2.62a12.94,12.94,0,0,0-.38,2.62A19.54,19.54,0,0,0,96.6,364a13.39,13.39,0,0,0-2-2.12,6.87,6.87,0,0,1,.44-1.25Zm-1.12,3.43a17.8,17.8,0,0,1,3.92,2.87,12,12,0,0,0,.25,2.06c-.18.18-.43.37-.62.56a44,44,0,0,1-3.87-4.43,9.93,9.93,0,0,1,.32-1.06Zm-1.56-4.8c.06,0,.12.06.18.06h0a2.35,2.35,0,0,1-.25.19c0-.13,0-.19.07-.25ZM90.55,369c-.13,3.43-.25,6.86-.38,9.73a93.18,93.18,0,0,1,.38-9.74Zm-.31,11.66v-.56c.56-2.43,1.68-7.42,2.55-11.66l.19-.75a8.67,8.67,0,0,1,4.49,1.87,28.11,28.11,0,0,0-7.23,11.09Zm5.55-6.05a26.22,26.22,0,0,1,2.8-3.74,9.41,9.41,0,0,0,.69,1.43c-1.19.75-2.37,1.49-3.49,2.3Zm3.55-2.31a14.43,14.43,0,0,1,.25-2.36,25.07,25.07,0,0,1,2.8-2.25,23.87,23.87,0,0,0,0,2.93,34.32,34.32,0,0,0-3,1.68Zm9.23-9.29c-.07.57-.13,1.13-.19,1.75-.31,0-.62.06-1,.06a19.45,19.45,0,0,1,1.19-1.81Zm-1.5,2.44,1.31-.38c-.06.94-.19,1.93-.19,2.87-.93.37-1.81.75-2.68,1.12a15.47,15.47,0,0,1,1.56-3.62Zm1,3.67c-.06,1.06-.06,2.12-.06,3.18-.94.13-1.87.25-2.81.44.94-1.19,1.93-2.37,2.87-3.62Zm-5.24-7.23a18.74,18.74,0,0,1,2.25-2.62,18.47,18.47,0,0,0-2.5,6.92,16.7,16.7,0,0,0-2.43,1.31,18.5,18.5,0,0,1,2.56-5.36c.12,0,.31.06.43.06a1.3,1.3,0,0,0-.31-.31Zm-1.87-4a11.65,11.65,0,0,0-1.06,1.37,5.39,5.39,0,0,0-1-.62c-.12-.06-.18-.12-.31-.19a17.73,17.73,0,0,1,2.37-.56Zm-2,3.12a8.31,8.31,0,0,0-.5,1.37c-.88-.93-1.81-1.87-2.68-2.8.06,0,.12-.07.18-.07a18.22,18.22,0,0,0,3,1.49Z"/><path class="cls-13" d="M56.76,315.23c1.68.25,3.36.5,5.11.69A20.1,20.1,0,0,0,56.76,315.23Z"/><path class="cls-14" d="M79.26,369c.44-1.31.75-2.62,1.06-3.93v-.31c-.06-.12-.12-.31-.18-.43a86.18,86.18,0,0,0-6.24-12.54c-.43-.62-2-2.8-2-2.8-.13-.19-.31-.38-.44-.56a19.31,19.31,0,0,1,4.62-.13,1.31,1.31,0,0,1,.68,0,2,2,0,0,0,.5-1.62l.25.25.93-1.81.32-.5h0c.06-.06.06-.12.12-.18l.31-.5h0a25.74,25.74,0,0,0,3.31-9.73,10.19,10.19,0,0,0-.32-5.11,4.53,4.53,0,0,0-3.49-3.18c-1.62,4.68-3.24,9.35-4.86,14.09A30.43,30.43,0,0,0,68,320.9c-1.56-.31-3-.62-4.61-.87,1.56.69,3.24,1.43,4.17,2.93a7.7,7.7,0,0,1,.94,3.31c.62,4.55,1,9.22,1.31,13.84.19,2.3.31,4.61.5,6.92h-.13a22.08,22.08,0,0,0-1.81-1.81c-.06-.25-.12-.44-.18-.69a8.53,8.53,0,0,1,.37-3.55c.44-1.93.69-4.3-.56-5.8-.62-4.86-1.75-9.91-4.74-13.72s-8.35-5.86-12.59-3.55l6.42.94a118.92,118.92,0,0,1,8.6,23.94c-.5-.38-.93-.81-1.43-1.19A11.3,11.3,0,0,1,63,338.17c-.43-2-.5-4.11-1.12-6-1.43-4.68-5.42-8-9.54-10.29a20.15,20.15,0,0,0-7.23-2.68,9.24,9.24,0,0,0-7.23,2.18,16.64,16.64,0,0,1,7.35-.69c2.44.5,4.74,2.44,4.93,5.05-5.74-1.24-11.78,1.56-17.52.32a21,21,0,0,0-21,8c3-1.31,6-2.56,9-3.62-.75.5-1.5,1.06-2.18,1.56a32.1,32.1,0,0,0-5.24,4.43A12.66,12.66,0,0,0,10,342.48a27.79,27.79,0,0,1,8.67-7.05,4.16,4.16,0,0,0-1.87,2.68,55.87,55.87,0,0,1,9.91-5.73c-3.18,1.49-5.11,4.92-6.55,8.22s-2.49,6.92-4.67,9.73a62.26,62.26,0,0,0,12.65-13.28,32,32,0,0,1-3.8,13.16,84.14,84.14,0,0,0,6.23-7.85,64.48,64.48,0,0,0-3.43,10,35.69,35.69,0,0,0,5.93-9.22,8.49,8.49,0,0,1-2.18,5.92c2.93-2.24,5.86-4.43,8.79-6.67-2.44,3.68-3.31,8.23-4,12.59,3.55-3.68,7.1-7.42,10.66-11.09-2,5.48-4,11.4-2.81,17.08.31-3.56,2.37-6.61,4-9.73A61.33,61.33,0,0,0,53.14,334c.13.06.19.13.31.19,1.31.75,2.56,1.5,3.81,2.37a.71.71,0,0,0-.31.31A18.36,18.36,0,0,0,52.64,345a17.08,17.08,0,0,0-.43,5.61,13.93,13.93,0,0,0,.5,2.8,21.13,21.13,0,0,1,.74,2.81,8.46,8.46,0,0,1-.62,4.3c3.87-2.93,6.55-7.29,9.1-11.53a95.81,95.81,0,0,1-4.8,15.08c3.31-4.36,8.48-7.41,10.16-12.71a29.3,29.3,0,0,1-4.23,12.22,71,71,0,0,1,9.53-9.85A121.49,121.49,0,0,1,79,367C78.83,366.66,79,367.48,79.26,369ZM25.71,329.2a14.58,14.58,0,0,1,2.62-1,18.2,18.2,0,0,1,1.81-.25,11.58,11.58,0,0,0-1.31,1.31A16.27,16.27,0,0,0,25.71,329.2Zm3.49,4.92a12.36,12.36,0,0,1,1.5-3.05c.75-.25,1.49-.5,2.24-.69A16.39,16.39,0,0,1,29.2,334.12Zm4.49-1.43.37-2.62a14.05,14.05,0,0,1,1.56-.25A12.67,12.67,0,0,0,33.69,332.69Zm4.86-.81-.18-2.25a13.56,13.56,0,0,1,1.56.06c.31,0,.68.07,1,.07a10.85,10.85,0,0,0-2.37,2.12ZM42.86,334c.18-1.25.37-2.56.49-3.81,1.25.25,2.5.63,3.74,1A7.85,7.85,0,0,0,42.86,334Zm5.29,1,1.13-3c1,.44,2,.87,3,1.37-1.37.56-2.74,1.12-4.12,1.62Z"/><polygon class="cls-15" points="87.93 409.56 59.25 409.56 63.43 458.69 87.93 458.69 112.43 458.69 116.61 409.56 87.93 409.56"/><rect class="cls-16" x="54.14" y="399.15" width="67.52" height="10.41"/><rect class="cls-16" x="250.9" y="344.84" width="395.7" height="7.86"/><polygon class="cls-11" points="254.45 497.71 247.41 497.71 279.33 352.7 286.37 352.7 254.45 497.71"/><polygon class="cls-11" points="639.62 497.71 646.66 497.71 614.68 352.7 607.7 352.7 639.62 497.71"/><path class="cls-16" d="M294.1,408.25H242.17c-5.67,0-10.29,4.92-10.29,11h72.51C304.39,413.18,299.78,408.25,294.1,408.25Z"/><path class="cls-14" d="M242.36,419.28,224.09,536.05c-.25,1.63.62,3.18,1.81,3.18.81,0,1.56-.74,1.81-1.87l24.12-118.08Z"/><path class="cls-14" d="M295.41,419.28l18.27,116.77c.25,1.63-.62,3.18-1.81,3.18-.81,0-1.56-.74-1.81-1.87L285.94,419.28Z"/><path class="cls-17" d="M469.48,517.1l.62-4.05s-3.93-.75-4.67,2.8,4.48,11.54,7.23,12.35a12.2,12.2,0,0,0,4,.37,3.36,3.36,0,0,0,3.24-3.36V517.1Z"/><path class="cls-18" d="M493.42,517.1l-.62-4.05s3.92-.75,4.67,2.8-4.49,11.54-7.23,12.35a12.2,12.2,0,0,1-4,.37,3.36,3.36,0,0,1-3.24-3.36V517.1Z"/><path class="cls-19" d="M457.32,411l12.16,107.42a2.94,2.94,0,0,0,2.87,2.62h4.55a2.93,2.93,0,0,0,2.93-2.92h0V412.86Z"/><path class="cls-20" d="M483.07,412.67V517.92a2.93,2.93,0,0,0,2.92,2.93h4.56a2.87,2.87,0,0,0,2.87-2.62l12.16-107.42Z"/><path class="cls-16" d="M505,408.25H453.08c-5.67,0-10.29,4.92-10.29,11h72.45C515.3,413.18,510.69,408.25,505,408.25Z"/><path class="cls-14" d="M453.27,419.28,435,536.05c-.25,1.63.63,3.18,1.81,3.18.81,0,1.56-.74,1.81-1.87l24.13-118.08Z"/><path class="cls-14" d="M506.32,419.28l18.27,116.77c.25,1.63-.62,3.18-1.81,3.18-.81,0-1.56-.74-1.81-1.87L496.85,419.28Z"/><path class="cls-21" d="M338.74,356.45v-7.17c1.19,0,1.87.06,2,.06.93.31,5.61-3.24,7.23-3.49s-1.06,4.11-1.06,4.11l11,3.87s1.87,4.42-2.74,5.42-13.22-3.05-15.15-2.87A3.41,3.41,0,0,0,338.74,356.45Z"/><path class="cls-22" d="M340.61,347.72c-31.36,1.93-52.87-24.81-52.87-24.81l-12.46,12.21c20.2,26.13,65.39,21.39,65.39,21.39C341.61,354.07,340.61,347.72,340.61,347.72Z"/><path class="cls-23" d="M272.91,294.84s22,35.79-16.65,54.06-2.06-46.2-2.06-46.2Z"/><path class="cls-24" d="M299.53,518.29,282,513.86l-2.18-4-11.66.06-1.81,14.22,38.47-.18C303.89,521,301.9,518.85,299.53,518.29Z"/><path class="cls-25" d="M332,469.53l-15.65-9-1-4.42L304.08,453l-5.61,13.21,37,10.23C335.38,473.34,334.07,470.78,332,469.53Z"/><path class="cls-26" d="M303.46,454l11.47,2.8c.37-1.18,17.52-55.42,15.83-67.58s-32-9.09-32-9.09l-27.18,3.49-7.86,33.17a31.3,31.3,0,0,0,16.15-2.12c23.75-9.42,30.11-12.91,30.11-12.91S299.22,417.85,303.46,454Z"/><path class="cls-27" d="M281.88,393.91s8.3,32.67,7.8,38.28-8.86,78.8-8.86,78.8l-12.22.06s-4.05-77-4.05-79.61-23.69-20.76-20.13-40.27Z"/><path class="cls-28" d="M257.38,296.46c-1.24,2.25-3,10.67-4.11,16.46.06-.06.18-.12.25-.18s1.37,6.11,14,5.11a9.25,9.25,0,0,0-.56-3.12l.38-7.11,13.34-1.37-.69-8.6,2.44-.69-3.75-15.83C252.33,284.68,259.32,293,257.38,296.46Z"/><path class="cls-29" d="M265.36,312.74a22.34,22.34,0,0,0-26,17.94l-.09.51a74.28,74.28,0,0,0,1.56,28c3.3,11.79,3.12,36.23,3.12,36.23l37.9-1.5c-3.36-10.85-2.31-23.38-1.43-34.48.43-5.11,1-10.16,1.68-15.27s.69-11,2.68-15.9c.13-.37,2.87-5.42,2.93-5.36C282,317,272.78,314.17,265.36,312.74Z"/><path class="cls-30" d="M269.35,269.53s-23.63-9.79-27.3,31.8c-1.19,13.46-5.55,27.93-13.22,39.21-3.93,5.8-7,13.47-2.31,19.7,8.42,11.29,26.19,9.35,35.85.5a28.64,28.64,0,0,0,8.85-23.19,214.39,214.39,0,0,0-4.55-29.49,93,93,0,0,0-2.74-10.1s-3.43-5.36-.56-7.42a2.25,2.25,0,0,1,3.8,1.19l.25-.25a23.23,23.23,0,0,1,6.73-5.3,9.39,9.39,0,0,0,4.62-5C280,277.57,276.52,271.59,269.35,269.53Z"/><path class="cls-31" d="M680.89,348.4l-5.61-4.74a12.26,12.26,0,0,0-1.25,1.62c-.37.94-6.17,2.24-7.48,3.37s3.93,1.87,3.93,1.87l-4.24,11.16s2.24,4.42,6,1.43,6.3-12.34,7.74-13.71C680,349.15,680.39,348.83,680.89,348.4Z"/><path class="cls-32" d="M682.38,349.64c-3.49-1.55-7-3.17-10.59-4.8,24.56-14.9,30.17-45.07,30.17-45.07l17.15,5C715.43,326.76,695.48,341.91,682.38,349.64Z"/><path class="cls-33" d="M633,329.38V322c-1.19,0-1.93.06-2.06.06-.93.31-5.74-3.31-7.42-3.56s1.12,4.18,1.12,4.18l-11.28,3.93s-1.93,4.55,2.8,5.55,13.47-3.12,15.47-2.93C631.89,329.32,632.32,329.32,633,329.38Z"/><path class="cls-34" d="M724.16,449.89l2.12-3.18H699.47s-.31,2.62,1.68,6.49,28,61.84,31.36,69.58l8.73-2.44S734.94,478.2,724.16,449.89Z"/><path class="cls-35" d="M693.11,448.59s-2.31-.94-1.31,3.3,10.78,71.13,12.28,79.43h9.48s4.73-50.57.74-80.55l1-2.12H693.11Z"/><path class="cls-36" d="M693.67,277.7l.68-9L691.8,268l3.86-16.52c27.56,3.68,20.27,12.35,22.32,16,1.06,1.87,2.43,11.29,3.56,18.08-1.13,1.81-4.43,5-14.09,4.3a9.9,9.9,0,0,1,.56-3.24l-.38-7.42Z"/><path class="cls-37" d="M720.23,283.5s-23.88.19-35.1,11.72c0,0,2.8,5.12,3,5.49,2.06,5.11,2.06,11.16,2.81,16.58.68,5.12,1.24,10.23,1.68,15.4.93,11.35,2,24-1.43,35.1H729s.81-23.5,4.11-35.53S738.87,288.3,720.23,283.5Z"/><path class="cls-38" d="M728.89,367.72H691.11s-2.68,26.63-2.68,41.28,1.31,39.59,1.31,39.59h37.35s.12-6.55,8.22-29.93S741.36,384.5,728.89,367.72Z"/><path class="cls-39" d="M704,242c-19.08,3.24-14,21.13,4.11,19.63,4-.31,10.35,5.55,5.68,9.23-1.94,1.56-4.68,1.62-7,2.5a11.07,11.07,0,0,0-6.17,14.15c2,4.67,3.8,6.86,2.49,11.91-1.18,4.73-1.56,9.28,2,13.21a18.18,18.18,0,0,0,2.24,2.06,30.54,30.54,0,0,0,9.48,5.92c9,3.24,22.32-2.74,29.3-8.41s11.66-16.34,6.55-23.82c-2.81-4.18-8.23-6.67-9.42-11.53-.93-3.93,1.25-8,1.12-12-.18-4.8-3.61-8.79-6.85-12.35C727.4,241.41,718.54,239.54,704,242Z"/><path class="cls-40" d="M688.12,538.24l14.21-3.68,1.75-3.24h9.48l1.49,11.53H683.82A6.81,6.81,0,0,1,688.12,538.24Z"/><path class="cls-41" d="M631.08,320.53c32,2,54-25.37,54-25.37l12.78,12.53c-20.64,26.68-66.77,21.88-66.77,21.88C630.08,327.08,631.08,320.53,631.08,320.53Z"/><path class="cls-42" d="M702.33,534.56l-12.65,3.24c1,1.12,3.05,2.18,7.11,1.93,8.23-.5,17.83,0,17.83,0l-.38-2.68-.75-5.73H704Z"/><path class="cls-43" d="M720.1,535.18l11.66-8.85.38-3.68,8.72-3.68,5.86,10L718,541.1A6.53,6.53,0,0,1,720.1,535.18Z"/><path class="cls-44" d="M731.76,526.33l-10.41,7.92c1.37.62,3.62.81,7.29-1,7.42-3.62,16.46-6.92,16.46-6.92L743.73,524l-2.93-5-9,2.5Z"/><path class="cls-45" d="M502.33,385.43l-22.44-3.12-22.44,3.12s-3,12.47-2.56,16.52-1.18,12.78,25,12.78,24.63-8.73,25-12.78S502.33,385.43,502.33,385.43Z"/><path class="cls-46" d="M460.44,319.16s-11.22,4.67-18.08,22.75S433,364.36,434.88,367a8.79,8.79,0,0,0,8.66,3.55c3.43-.62,16-10,16.9-11.84S467,344,467,344Z"/><path class="cls-47" d="M497.72,317.54s11.22,4.67,18.08,22.75,9.35,22.45,7.48,25.13-9,4.17-12.47,3.55-12.15-10-13.09-11.84-6.55-14.72-6.55-14.72Z"/><path class="cls-48" d="M494.1,280.94l-14.21-1.18L465.68,281s-2.06,22.07,7.79,28.68a55,55,0,0,1,.06,7.91h12.78a56.28,56.28,0,0,1,.06-7.91C496.16,303,494.1,280.94,494.1,280.94Z"/><path class="cls-49" d="M455.26,387.8s5-19.14,1.69-37.84-3.93-30.74,8.91-32.61,34.92-3.24,37.22,5.11-.18,21.89-1.87,30.61,1.87,29.8,3.74,33.36C504.89,386.49,481.26,401.08,455.26,387.8Z"/><path class="cls-50" d="M468.17,269.66a2.75,2.75,0,0,1-1.5,1.62,6.51,6.51,0,0,1-1.24.18,7,7,0,0,0-2.68.82c-.07,1.12-.13,2.31-.19,3.43a2.63,2.63,0,0,1-.44,1.68c-.62.69-1.87.63-2.49,1.31-.94,1.06-.5,4.12-.19,5.43.25,1.12.81,2.24.62,3.43a23,23,0,0,1-1,2.68,3.8,3.8,0,0,0,1.24,3.8c.5.37,1.06.62,1.56,1,1.56,1.24,1.81,3.36,2.56,5a10.2,10.2,0,0,0,3.93,4.05,2.79,2.79,0,0,0,1.06.37c1.06.07,1.87-1,3-1.24,1.37-.25,2.55.93,3.8,1.62a5.12,5.12,0,0,0,5.24-.38,8.45,8.45,0,0,1,1.93-1.37c1.87-.75,3.8,1,5.86,1.31,4,.56,4.68-3.74,6.86-5.92a9.21,9.21,0,0,0,2.18-2.56c.56-1.37.13-2.93.75-4.24.5-1,1.56-1.74,1.68-2.8.19-1.62-1.74-2.81-2.12-4.43s.81-3.12,1.25-4.74a4.86,4.86,0,0,0-2.18-5.23c-1-.63-2.25-.81-3.18-1.5-1.87-1.31-2.74-4.12-5.05-4.49a21.58,21.58,0,0,0-2.93.13c-1.81-.07-3.37-1.13-5.05-1.69a12.86,12.86,0,0,0-4.86-.25c-2.69.07-6.68-.81-7.92,2.31C468.42,269.1,468.29,269.41,468.17,269.66Z"/><polygon class="cls-14" points="419.29 302.82 426.58 308 426.58 344.84 363.62 344.84 363.62 302.82 419.29 302.82"/><polygon class="cls-11" points="389.93 323.27 419.29 323.27 419.29 302.82 363.62 302.82 363.62 312.61 378.08 312.61 363.62 314.11 363.62 344.84 419.29 344.84 419.29 325.08 389.93 323.27"/><path class="cls-51" d="M675.83,200.43a46.39,46.39,0,0,0-87.67,0h0a46.64,46.64,0,0,0,.3,31.17h0A46.38,46.38,0,0,0,632.09,262a47,47,0,0,0,21.5-5.23A25.48,25.48,0,0,0,664,262.17h9.89l.42-.13c-5.22-1.5-8.51-7.92-10.3-12.84a46.73,46.73,0,0,0,11.64-17.6h0a47.32,47.32,0,0,0,2.84-16,44,44,0,0,0-2.69-15.23Z"/><path id="Verlauf" class="cls-52" d="M675.7,231.64h0a47.32,47.32,0,0,0,2.84-16,43.49,43.49,0,0,0-2.69-15.23h0a46.39,46.39,0,0,0-87.67,0h0a46.58,46.58,0,0,0,.3,31.17h0A46.38,46.38,0,0,0,632.08,262a47,47,0,0,0,21.5-5.23c10.6,8.81,20.76,5.23,20.76,5.23-5.22-1.5-8.51-7.92-10.3-12.84A46.83,46.83,0,0,0,675.7,231.64Z"/><path class="cls-53" d="M640.76,170a47,47,0,0,0-17.45,0v36.82H586.52a46.38,46.38,0,0,0,0,17.47h36.79v36.89a46.38,46.38,0,0,0,17.47,0v-36.9h37a45.92,45.92,0,0,0,.83-8.68,44.6,44.6,0,0,0-.86-8.78H640.78Z"/><path class="cls-54" d="M595.18,243.85l21.66-12H601.37l-10.25,5.7A46.73,46.73,0,0,0,595.18,243.85Z"/><path class="cls-55" d="M662.68,231.81H647.22l21.69,12.05a45.74,45.74,0,0,0,4.1-6.31Z"/><path class="cls-56" d="M647.22,199.41h15.46l10.2-5.67a45.71,45.71,0,0,0-4.08-6.32Z"/><path class="cls-57" d="M595.19,187.38a45.42,45.42,0,0,0-4.08,6.35l10.26,5.7h15.47Z"/><path class="cls-58" d="M669.64,231.81l4.86,2.71c.4-.89.78-1.79,1.13-2.71Z"/><path class="cls-58" d="M647.22,171.78v23.76l19.39-10.77A46.4,46.4,0,0,0,647.22,171.78Z"/><path class="cls-58" d="M647.22,259.56a49.18,49.18,0,0,0,6.39-2.71c10.59,8.81,20.76,5.23,20.76,5.23-5.21-1.49-8.49-7.88-10.29-12.8l-16.83-9.36Z"/><path class="cls-58" d="M616.84,259.51V235.68L597.37,246.5A46.67,46.67,0,0,0,616.84,259.51Z"/><path class="cls-58" d="M616.84,171.78A46.13,46.13,0,0,0,600.05,182l16.79,9.35Z"/><path class="cls-58" d="M594.42,199.41l-4.8-2.67c-.39.88-.75,1.76-1.09,2.67Z"/><path class="cls-51" d="M453.24,234.13a46.39,46.39,0,0,0-87.66,0h0a46.73,46.73,0,0,0,.31,31.18h0a46.38,46.38,0,0,0,43.59,30.43A47.16,47.16,0,0,0,431,290.52a25.54,25.54,0,0,0,10.44,5.35h9.9l.42-.13c-5.23-1.49-8.51-7.92-10.3-12.84a46.63,46.63,0,0,0,11.63-17.59h0a47.37,47.37,0,0,0,2.84-16,43.45,43.45,0,0,0-2.69-15.23Z"/><path id="Verlauf-2" class="cls-52" d="M453.12,265.34h0a47.32,47.32,0,0,0,2.84-16,43.53,43.53,0,0,0-2.69-15.23h0a46.38,46.38,0,0,0-87.66,0h0a46.79,46.79,0,0,0,.3,31.18h0a46.39,46.39,0,0,0,43.6,30.43A47.19,47.19,0,0,0,431,290.52c10.6,8.81,20.76,5.22,20.76,5.22-5.23-1.49-8.51-7.92-10.3-12.84A46.61,46.61,0,0,0,453.12,265.34Z"/><path class="cls-59" d="M418.18,203.75a46.6,46.6,0,0,0-17.46,0v36.82H363.94a46.93,46.93,0,0,0,0,17.47h36.78v36.9a47.45,47.45,0,0,0,8.81.83,46.52,46.52,0,0,0,8.66-.81V258.05h37a46,46,0,0,0,.83-8.69,45.37,45.37,0,0,0-.86-8.78H418.18Z"/><path class="cls-60" d="M372.6,277.55l21.65-12H378.79l-10.25,5.7A47.25,47.25,0,0,0,372.6,277.55Z"/><path class="cls-61" d="M440.11,265.52H424.64l21.69,12.05a45.25,45.25,0,0,0,4.1-6.32Z"/><path class="cls-62" d="M424.64,233.11h15.47l10.2-5.67a47.36,47.36,0,0,0-4.09-6.32Z"/><path class="cls-63" d="M372.61,221.08a46.62,46.62,0,0,0-4.09,6.31l10.27,5.71h15.46Z"/><path class="cls-58" d="M447.06,265.52l4.86,2.7c.4-.88.78-1.79,1.13-2.7Z"/><path class="cls-58" d="M424.64,205.49v23.77L444,218.47A46.32,46.32,0,0,0,424.64,205.49Z"/><path class="cls-58" d="M424.64,293.26a47.84,47.84,0,0,0,6.39-2.71c10.6,8.81,20.76,5.23,20.76,5.23-5.21-1.49-8.5-7.88-10.29-12.8l-16.83-9.35Z"/><path class="cls-58" d="M394.25,293.21V269.38L374.79,280.2A46.58,46.58,0,0,0,394.25,293.21Z"/><path class="cls-58" d="M394.25,205.48a46.57,46.57,0,0,0-16.79,10.21L394.25,225Z"/><path class="cls-58" d="M371.83,233.11,367,230.44c-.39.88-.75,1.77-1.09,2.67Z"/></g></g></g></g></svg>