<svg id="Ebene_1" data-name="Ebene 1" xmlns="http://www.w3.org/2000/svg" xmlns:xlink="http://www.w3.org/1999/xlink" width="850" height="580" viewBox="0 0 850 580"><defs><style>.cls-1,.cls-2,.cls-3,.cls-4{opacity:0.5;isolation:isolate;}.cls-1{fill:url(#Unbenannter_Verlauf_12);}.cls-2{fill:url(#Unbenannter_Verlauf_12-2);}.cls-3{fill:url(#Unbenannter_Verlauf_12-3);}.cls-4{fill:url(#Unbenannter_Verlauf_12-4);}.cls-5{fill:url(#Unbenannter_Verlauf_40);}.cls-6{fill:url(#Unbenannter_Verlauf_40-2);}.cls-7{fill:url(#Unbenannter_Verlauf_40-3);}.cls-8{fill:url(#Unbenannter_Verlauf_40-4);}.cls-9{fill:url(#Unbenannter_Verlauf_40-5);}.cls-10{fill:url(#Unbenannter_Verlauf_40-6);}.cls-11{fill:url(#Unbenannter_Verlauf_6);}.cls-12{fill:url(#Unbenannter_Verlauf_7);}.cls-13{fill:url(#Unbenannter_Verlauf_5);}.cls-14{fill:url(#Unbenannter_Verlauf_49);}.cls-15{fill:#e7e3d3;}.cls-16{fill:url(#Unbenannter_Verlauf_9);}.cls-17{fill:url(#Unbenannter_Verlauf_7-2);}.cls-18{fill:url(#Unbenannter_Verlauf_49-2);}.cls-19{fill:url(#Unbenannter_Verlauf_6-2);}.cls-20{fill:url(#Unbenannter_Verlauf_6-3);}.cls-21{fill:url(#Unbenannter_Verlauf_6-4);}.cls-22{fill:url(#Unbenannter_Verlauf_6-5);}.cls-23{fill:url(#Unbenannter_Verlauf_7-3);}.cls-24{fill:#8c0c81;}.cls-25{fill:url(#Unbenannter_Verlauf_7-4);}.cls-26{fill:url(#Unbenannter_Verlauf_5-2);}.cls-27{fill:#8552a5;}.cls-28{fill:url(#Unbenannter_Verlauf_7-5);}.cls-29{fill:url(#Unbenannter_Verlauf_7-6);}.cls-30{fill:url(#Unbenannter_Verlauf_5-3);}.cls-31{fill:url(#Unbenannter_Verlauf_5-4);}.cls-32{fill:url(#Unbenannter_Verlauf_5-5);}.cls-33{fill:url(#Unbenannter_Verlauf_5-6);}.cls-34{fill:url(#Unbenannter_Verlauf_40-7);}.cls-35{fill:url(#Unbenannter_Verlauf_40-8);}.cls-36{fill:url(#Unbenannter_Verlauf_6-6);}.cls-37{fill:url(#Unbenannter_Verlauf_6-7);}.cls-38{fill:url(#Unbenannter_Verlauf_49-3);}.cls-39{fill:url(#Unbenannter_Verlauf_6-8);}.cls-40{fill:url(#Unbenannter_Verlauf_6-9);}.cls-41{fill:#351586;}.cls-42{fill:url(#Unbenannter_Verlauf_9-2);}.cls-43{fill:url(#Unbenannter_Verlauf_7-7);}.cls-44{fill:url(#Unbenannter_Verlauf_40-9);}.cls-45{fill:#6a3346;}.cls-46{fill:url(#Unbenannter_Verlauf_6-10);}.cls-47{fill:url(#Unbenannter_Verlauf_6-11);}.cls-48{fill:url(#Unbenannter_Verlauf_49-4);}.cls-49{fill:url(#Unbenannter_Verlauf_5-7);}.cls-50{fill:url(#Unbenannter_Verlauf_49-5);}.cls-51{fill:url(#Unbenannter_Verlauf_49-6);}.cls-52{fill:url(#Unbenannter_Verlauf_5-8);}.cls-53{fill:url(#Unbenannter_Verlauf_49-7);}.cls-54{fill:url(#Unbenannter_Verlauf_49-8);}</style><linearGradient id="Unbenannter_Verlauf_12" x1="653.38" y1="-153.82" x2="570.06" y2="-202.68" gradientTransform="translate(0 747.89)" gradientUnits="userSpaceOnUse"><stop offset="0" stop-color="#378abd"/><stop offset="1" stop-color="#c5e9f0"/></linearGradient><linearGradient id="Unbenannter_Verlauf_12-2" x1="517.75" y1="-152.59" x2="434.43" y2="-201.45" xlink:href="#Unbenannter_Verlauf_12"/><linearGradient id="Unbenannter_Verlauf_12-3" x1="393.35" y1="-139.47" x2="310.03" y2="-188.33" xlink:href="#Unbenannter_Verlauf_12"/><linearGradient id="Unbenannter_Verlauf_12-4" x1="437.38" y1="-106.29" x2="209.83" y2="-239.74" xlink:href="#Unbenannter_Verlauf_12"/><linearGradient id="Unbenannter_Verlauf_40" x1="604.71" y1="-540.39" x2="528.82" y2="-388.11" gradientTransform="translate(0 747.89)" gradientUnits="userSpaceOnUse"><stop offset="0" stop-color="#c5e9f0"/><stop offset="1" stop-color="#378abd"/></linearGradient><linearGradient id="Unbenannter_Verlauf_40-2" x1="-571.96" y1="-609.57" x2="-681.71" y2="-389.34" gradientTransform="matrix(-1, 0, 0, 1, -328.69, 747.89)" xlink:href="#Unbenannter_Verlauf_40"/><linearGradient id="Unbenannter_Verlauf_40-3" x1="519.86" y1="-738.2" x2="448.2" y2="-498.16" xlink:href="#Unbenannter_Verlauf_40"/><linearGradient id="Unbenannter_Verlauf_40-4" x1="501.03" y1="-544.95" x2="352.1" y2="-46.12" xlink:href="#Unbenannter_Verlauf_40"/><linearGradient id="Unbenannter_Verlauf_40-5" x1="682.74" y1="-366.88" x2="441.78" y2="-210.74" xlink:href="#Unbenannter_Verlauf_40"/><linearGradient id="Unbenannter_Verlauf_40-6" x1="360.88" y1="-567.08" x2="280.88" y2="-299.13" xlink:href="#Unbenannter_Verlauf_40"/><linearGradient id="Unbenannter_Verlauf_6" x1="648.64" y1="-512.46" x2="538.23" y2="-359.75" gradientTransform="matrix(0.98, -0.18, 0.18, 0.98, -5.94, 826.86)" gradientUnits="userSpaceOnUse"><stop offset="0" stop-color="#f7de5b"/><stop offset="0.99" stop-color="#ee4d70"/></linearGradient><linearGradient id="Unbenannter_Verlauf_7" x1="565.46" y1="-356.23" x2="484.84" y2="-202.55" gradientTransform="translate(0 747.89)" gradientUnits="userSpaceOnUse"><stop offset="0" stop-color="#f76d82"/><stop offset="0.99" stop-color="#b54aa2"/></linearGradient><linearGradient id="Unbenannter_Verlauf_5" x1="-942.02" y1="-85.54" x2="-1022.64" y2="68.14" gradientTransform="translate(301.68 1388.82) rotate(90)" gradientUnits="userSpaceOnUse"><stop offset="0" stop-color="#924ea3"/><stop offset="0.99" stop-color="#48258e"/></linearGradient><linearGradient id="Unbenannter_Verlauf_49" x1="-1023.12" y1="784.66" x2="-1103.74" y2="938.34" gradientTransform="translate(-729.08 1091.28) rotate(180)" gradientUnits="userSpaceOnUse"><stop offset="0.01" stop-color="#223b98"/><stop offset="1" stop-color="#2b73b2"/></linearGradient><linearGradient id="Unbenannter_Verlauf_9" x1="337.49" y1="-276.93" x2="311.18" y2="-292.9" gradientTransform="translate(0 747.89)" gradientUnits="userSpaceOnUse"><stop offset="0.01" stop-color="#ee4d70"/><stop offset="1" stop-color="#f7de5b"/></linearGradient><linearGradient id="Unbenannter_Verlauf_7-2" x1="256.32" y1="-309.84" x2="339.95" y2="-309.84" xlink:href="#Unbenannter_Verlauf_7"/><linearGradient id="Unbenannter_Verlauf_49-2" x1="195.02" y1="-187.06" x2="261.15" y2="-386.05" gradientTransform="translate(0 747.89)" xlink:href="#Unbenannter_Verlauf_49"/><linearGradient id="Unbenannter_Verlauf_6-2" x1="243.7" y1="-411.17" x2="272.66" y2="-346.52" gradientTransform="translate(0 747.89)" xlink:href="#Unbenannter_Verlauf_6"/><linearGradient id="Unbenannter_Verlauf_6-3" x1="266.86" y1="-421.55" x2="295.83" y2="-356.9" gradientTransform="translate(0 747.89)" xlink:href="#Unbenannter_Verlauf_6"/><linearGradient id="Unbenannter_Verlauf_6-4" x1="271.21" y1="-423.5" x2="300.18" y2="-358.85" gradientTransform="translate(0 747.89)" xlink:href="#Unbenannter_Verlauf_6"/><linearGradient id="Unbenannter_Verlauf_6-5" x1="254.85" y1="-416.17" x2="283.82" y2="-351.52" gradientTransform="translate(0 747.89)" xlink:href="#Unbenannter_Verlauf_6"/><linearGradient id="Unbenannter_Verlauf_7-3" x1="257.7" y1="-443.77" x2="282.89" y2="-397.45" xlink:href="#Unbenannter_Verlauf_7"/><linearGradient id="Unbenannter_Verlauf_7-4" x1="489.72" y1="-241.33" x2="514.91" y2="-195.01" gradientTransform="translate(-63.55 730.68) rotate(-25.65)" xlink:href="#Unbenannter_Verlauf_7"/><linearGradient id="Unbenannter_Verlauf_5-2" x1="543.17" y1="-589.55" x2="559.51" y2="-589.55" gradientTransform="translate(0 747.89)" xlink:href="#Unbenannter_Verlauf_5"/><linearGradient id="Unbenannter_Verlauf_7-5" x1="506.82" y1="-591.94" x2="537.85" y2="-591.94" xlink:href="#Unbenannter_Verlauf_7"/><linearGradient id="Unbenannter_Verlauf_7-6" x1="503.75" y1="-573.81" x2="548.02" y2="-573.81" xlink:href="#Unbenannter_Verlauf_7"/><linearGradient id="Unbenannter_Verlauf_5-3" x1="473.62" y1="-573.2" x2="506.85" y2="-573.2" gradientTransform="translate(0 747.89)" xlink:href="#Unbenannter_Verlauf_5"/><linearGradient id="Unbenannter_Verlauf_5-4" x1="517.83" y1="-615.38" x2="533.32" y2="-615.38" gradientTransform="translate(0 747.89)" xlink:href="#Unbenannter_Verlauf_5"/><linearGradient id="Unbenannter_Verlauf_5-5" x1="477.65" y1="-553.14" x2="501.87" y2="-553.14" gradientTransform="translate(0 747.89)" xlink:href="#Unbenannter_Verlauf_5"/><linearGradient id="Unbenannter_Verlauf_5-6" x1="476.66" y1="-551.46" x2="494.62" y2="-551.46" gradientTransform="translate(0 747.89)" xlink:href="#Unbenannter_Verlauf_5"/><linearGradient id="Unbenannter_Verlauf_40-7" x1="489.17" y1="-577.19" x2="500.63" y2="-577.19" xlink:href="#Unbenannter_Verlauf_40"/><linearGradient id="Unbenannter_Verlauf_40-8" x1="457.78" y1="-585.97" x2="469.25" y2="-585.97" gradientTransform="translate(-18.06 710.35) rotate(5.29)" xlink:href="#Unbenannter_Verlauf_40"/><linearGradient id="Unbenannter_Verlauf_6-6" x1="340.01" y1="-192.57" x2="365.35" y2="-162.78" gradientTransform="translate(0 747.89)" xlink:href="#Unbenannter_Verlauf_6"/><linearGradient id="Unbenannter_Verlauf_6-7" x1="329.23" y1="-303.96" x2="350.53" y2="-250.78" gradientTransform="translate(0 747.89)" xlink:href="#Unbenannter_Verlauf_6"/><linearGradient id="Unbenannter_Verlauf_49-3" x1="332.89" y1="-237.24" x2="354.06" y2="-237.24" gradientTransform="translate(0 747.89)" xlink:href="#Unbenannter_Verlauf_49"/><linearGradient id="Unbenannter_Verlauf_6-8" x1="331.52" y1="-185.35" x2="356.85" y2="-155.56" gradientTransform="translate(0 747.89)" xlink:href="#Unbenannter_Verlauf_6"/><linearGradient id="Unbenannter_Verlauf_6-9" x1="321.32" y1="-300.79" x2="342.62" y2="-247.61" gradientTransform="translate(0 747.89)" xlink:href="#Unbenannter_Verlauf_6"/><linearGradient id="Unbenannter_Verlauf_9-2" x1="235.46" y1="-410.81" x2="194.11" y2="-465.95" xlink:href="#Unbenannter_Verlauf_9"/><linearGradient id="Unbenannter_Verlauf_7-7" x1="484.39" y1="-504.9" x2="383.74" y2="-639.09" xlink:href="#Unbenannter_Verlauf_7"/><linearGradient id="Unbenannter_Verlauf_40-9" x1="845.55" y1="955.83" x2="795.23" y2="888.73" gradientTransform="translate(1423.86 1255.62) rotate(180)" xlink:href="#Unbenannter_Verlauf_40"/><linearGradient id="Unbenannter_Verlauf_6-10" x1="585.4" y1="-304.78" x2="624.87" y2="-210.82" gradientTransform="translate(0 747.89)" xlink:href="#Unbenannter_Verlauf_6"/><linearGradient id="Unbenannter_Verlauf_6-11" x1="578.59" y1="-301.92" x2="618.05" y2="-207.96" gradientTransform="translate(0 747.89)" xlink:href="#Unbenannter_Verlauf_6"/><linearGradient id="Unbenannter_Verlauf_49-4" x1="596.57" y1="-281.42" x2="619.65" y2="-281.42" gradientTransform="translate(0 747.89)" xlink:href="#Unbenannter_Verlauf_49"/><linearGradient id="Unbenannter_Verlauf_5-7" x1="474.42" y1="-277.89" x2="451.25" y2="-201.46" gradientTransform="translate(0 747.89)" xlink:href="#Unbenannter_Verlauf_5"/><linearGradient id="Unbenannter_Verlauf_49-5" x1="461.57" y1="-193.37" x2="476.66" y2="-193.37" gradientTransform="translate(0 747.89)" xlink:href="#Unbenannter_Verlauf_49"/><linearGradient id="Unbenannter_Verlauf_49-6" x1="451.14" y1="-191.92" x2="467.11" y2="-191.92" gradientTransform="translate(0 747.89)" xlink:href="#Unbenannter_Verlauf_49"/><linearGradient id="Unbenannter_Verlauf_5-8" x1="468.51" y1="-279.68" x2="445.34" y2="-203.26" gradientTransform="translate(0 747.89)" xlink:href="#Unbenannter_Verlauf_5"/><linearGradient id="Unbenannter_Verlauf_49-7" x1="446.35" y1="-241.35" x2="467.65" y2="-316.52" gradientTransform="translate(0 747.89)" xlink:href="#Unbenannter_Verlauf_49"/><linearGradient id="Unbenannter_Verlauf_49-8" x1="900.98" y1="-26.11" x2="922.28" y2="-101.28" gradientTransform="matrix(0.82, -0.57, 0.57, 0.82, -241.45, 1033.7)" xlink:href="#Unbenannter_Verlauf_49"/></defs><title>kursmodelle</title><g id="Objects"><ellipse class="cls-1" cx="586.37" cy="554.77" rx="35.45" ry="3.88"/><ellipse class="cls-2" cx="450.77" cy="556.02" rx="35.45" ry="3.88"/><ellipse class="cls-3" cx="326.34" cy="569.12" rx="35.45" ry="3.88"/><ellipse class="cls-4" cx="254.38" cy="534.28" rx="96.92" ry="3.88"/><path class="cls-5" d="M623.71,223.94a13,13,0,0,0-3.6.51,25.64,25.64,0,0,0,.37-4.25A23.85,23.85,0,0,0,573,216.78,17.22,17.22,0,1,0,564.49,249h59.17a12.51,12.51,0,1,0,.05-25Z"/><path class="cls-6" d="M215.89,162.05a17.78,17.78,0,0,1,5.22.78,33.23,33.23,0,0,1-.56-6.14,34.47,34.47,0,0,1,68.59-4.89,24.92,24.92,0,1,1,12.32,46.57H215.89a18.16,18.16,0,0,1,0-36.32Z"/><rect class="cls-7" x="492.63" width="2.54" height="193.29"/><path class="cls-8" d="M624.35,394.85h0A48.44,48.44,0,0,1,576,345.32c0-1,.05-1.94.05-2.9.18-89-71.59-162.1-160.57-163.44a163.05,163.05,0,0,0-165.6,163.07,159.59,159.59,0,0,0,1.24,20h-4.06a80,80,0,0,0-80,80h0a80,80,0,0,0,80,80H624.4a63.61,63.61,0,0,0,63.6-63.6h0A63.67,63.67,0,0,0,624.35,394.85Z"/><rect class="cls-9" x="432.03" y="442.06" width="189.55" height="79.98"/><path class="cls-10" d="M376.78,183A163.16,163.16,0,0,0,251.11,322v40.11H376.78Z"/><path class="cls-11" d="M553,196.71,439.28,217.48a8.91,8.91,0,0,0-7.16,10.34l6.65,36.41a3.6,3.6,0,0,0,5.86,2.12,20.3,20.3,0,1,1,6.42,34.71,3.63,3.63,0,0,0-4.8,4.06l6.64,36.42a8.9,8.9,0,0,0,10.34,7.15l37.85-6.92a2.89,2.89,0,0,1,3.18,4,20.34,20.34,0,1,0,33.32-6.05,2.87,2.87,0,0,1,1.57-4.84L577,327.92a8.9,8.9,0,0,0,7.15-10.34L563.38,203.86A9,9,0,0,0,553,196.71Z"/><path class="cls-12" d="M601,515.68V400.11a8.86,8.86,0,0,0-8.86-8.86h-37A3.58,3.58,0,0,0,552,396.6,20.09,20.09,0,0,1,554.62,408a20.33,20.33,0,1,1-38-11.3,3.62,3.62,0,0,0-3.14-5.45h-37a8.86,8.86,0,0,0-8.86,8.86v38.45a2.88,2.88,0,0,1-4.48,2.4,20.31,20.31,0,1,0,0,33.87,2.88,2.88,0,0,1,4.48,2.4v38.45a8.86,8.86,0,0,0,8.86,8.86H592.09A8.75,8.75,0,0,0,601,515.68Z"/><path class="cls-13" d="M263.2,482.35H378.82a8.86,8.86,0,0,0,8.86-8.86v-37a3.59,3.59,0,0,0-5.36-3.14A20.08,20.08,0,0,1,371,436a20.33,20.33,0,1,1,11.31-38,3.61,3.61,0,0,0,5.44-3.13v-37a8.86,8.86,0,0,0-8.86-8.86H340.42a2.88,2.88,0,0,1-2.4-4.48,20.31,20.31,0,1,0-33.88,0,2.87,2.87,0,0,1-2.4,4.48H263.29a8.86,8.86,0,0,0-8.86,8.86V473.45A8.74,8.74,0,0,0,263.2,482.35Z"/><path class="cls-14" d="M258.49,182.58V298.2a8.86,8.86,0,0,0,8.86,8.86h37a3.58,3.58,0,0,0,3.14-5.35,20.12,20.12,0,0,1-2.63-11.36,20.33,20.33,0,1,1,38,11.31,3.62,3.62,0,0,0,3.14,5.45h37a8.86,8.86,0,0,0,8.86-8.86V259.8a2.87,2.87,0,0,1,4.47-2.4,20.31,20.31,0,1,0,0-33.88,2.86,2.86,0,0,1-4.47-2.4V182.68a8.86,8.86,0,0,0-8.86-8.86H267.35A8.72,8.72,0,0,0,258.49,182.58Z"/><path class="cls-15" d="M316,464.86l1.2-2.77c-.46-.18-.74-.32-.78-.32-.42,0-1.62-2.17-2.17-2.54S314,461,314,461l-4.89-.36a1.55,1.55,0,0,0,.14,2.53c1.61,1.16,5.58,1,6.27,1.43C315.58,464.63,315.77,464.72,316,464.86Z"/><path class="cls-16" d="M315.91,465c-.05-1.57,0-2.82,0-4.38,9.78,6.5,21.92,3.32,21.92,3.32l1.15,7.2C330.22,473.63,321.08,468.51,315.91,465Z"/><path class="cls-17" d="M320,472.8h0l-19.94-61.48h0l-22.53-69.46H256.32l18.74,57.79h0L295,461.08h0l23.72,73.15h1.62l-1.94-6h18l1.94,6H340ZM258.68,344.08h18l4.1,12.6h-18Zm5,15.32h18l4.11,12.6h-18Zm5,15.32h18l4.1,12.6h-18Zm4.93,15.33h18l3.1,9.55h0l1,3h-18Zm6.88,21.23h0l-1.84-5.77h18l4.1,12.6h-18Zm3.14,9.6h18l4.11,12.6h-18Zm4.94,15.32h18l4.11,12.6h-18Zm5,15.32h18l3.1,9.56h0l1,3h-18Zm6.88,21.28h0L298.55,467h18l4.11,12.6h-18Zm3.09,9.55h18L325.6,495h-18Zm5,15.33h18l4.1,12.6h-18Zm9,27.92-4.1-12.6h18l4.1,12.6Z"/><path class="cls-18" d="M258.91,399.6l18.74-57.78H256.42l-22.53,69.46h0L214,472.75h0L194,534.23h1.61l1.94-6h18l-1.94,6h1.62L239,461.08h0l19.89-61.48Zm-1.62-55.52h18l-4.11,12.6h-18Zm-4.94,15.32h18l-4.1,12.6h-18Zm-5,15.32h18l-4.11,12.6h-18ZM216.45,525.6h-18l4.1-12.6h18Zm5-15.32h-18l4.11-12.6h18Zm5-15.33h-18l4.1-12.6h18Zm7.2-22.15-2.22,6.88h-18l4.11-12.6h18l-1.89,5.72Zm2.76-8.68h-18l1-3h0l3.1-9.56h18Zm5-15.32h-18l4.11-12.6h18Zm4.94-15.32h-18l4.11-12.6h18Zm7.2-22.2-2.22,6.87h-18l4.11-12.6h18l-1.89,5.73Zm-15.19-8.63,1-3h0l3.09-9.55h18l-4.1,12.6Z"/><path class="cls-15" d="M260.52,304.38c-2.3-4.89-2.72-13.43-2.58-14.12s1.34-1.11,1.61-1.24,2-.47,2.08-1-2-.23-2-.23a35.64,35.64,0,0,1,.41-5.4c.42-2-2.68.05-3.51,1s-.73,3.18-.64,4.8c0,0-3,18,.18,20.77,2.17,1.89,9.79.74,9.79.74l.78-5.63Z"/><path class="cls-19" d="M279.31,398.35l-8.45-2.12-1.06-1.94-5.63,0-.88,6.88,18.51-.1A3.75,3.75,0,0,0,279.31,398.35Z"/><path class="cls-20" d="M294.91,372.42l-7.57-4.34-.51-2.13-5.4-1.47-2.68,6.37,17.87,4.93A3.83,3.83,0,0,0,294.91,372.42Z"/><path class="cls-21" d="M281.2,364.94l5.54,1.34c.18-.6,8.44-26.73,7.66-32.59s-14.82-5.77-14.82-5.77L267,326.26l-4.89,20.68a14.79,14.79,0,0,0,7.75-1c11.45-4.52,14.49-6.23,14.49-6.23S279.17,347.49,281.2,364.94Z"/><path class="cls-22" d="M274.23,332.63l-21.78,4.48c-1.71,9.37,9.69,18.14,9.73,19.38s2,38.36,2,38.36h5.91s4.06-35.27,4.29-38S274.23,332.63,274.23,332.63Z"/><path class="cls-23" d="M276.4,298.66s-1.66,1.52,3.74,3.23l2.44,2.91a79.67,79.67,0,0,0-8.07,31.75l-22.76,1.71s-3-13.43,7.94-29.31A33.59,33.59,0,0,1,276.4,298.66Z"/><path class="cls-15" d="M275.85,292.25c-.6,1-1.43,4.7-2,7.29.05-.05.09-.05.09-.09s.56,2.72,6.19,2.44a3.6,3.6,0,0,0-.23-1.38l.23-3.14,5.95-.46-.18-3.83,1.11-.28-1.48-7.11C273.72,286.94,276.77,290.72,275.85,292.25Z"/><path class="cls-24" d="M280.37,290.08a9.1,9.1,0,0,1,3.05-2.26,4.12,4.12,0,0,0,2.12-2.17c.69-1.85-1.16-3.79-2.59-4.62-3.69-2.12-7.75-1-10.7,1.85a16.79,16.79,0,0,0-3.56,4.89c-1,2.08-.78,4-1.34,6.14-.73,2.81-3,5-5.26,6.78s-4.94,3.23-7,5.31-3.5,5.08-2.86,7.94a8.35,8.35,0,0,0,3.09,4.57c3.47,2.72,7.34,4.61,11.68,2.4,6-3.05,7.94-10.94,9.6-16.89a50.5,50.5,0,0,0,2.08-11.08s-1.48-2.45-.19-3.32a1,1,0,0,1,1.71.55Z"/><path class="cls-15" d="M289.51,309.74c5-2.12,11-8.17,11.35-8.77s-.28-1.71-.37-2-1.15-1.66-.83-2.16,1.62,1.2,1.62,1.2a31.38,31.38,0,0,0,3.27-4.3c1-1.8,2,1.8,2,3s-1.57,2.86-2.77,4c0,0-9.83,15.37-14,15.32-2.86,0-7.76-6-7.76-6l3.19-4.71Z"/><path class="cls-25" d="M290.75,308.91s-8.9-7.85-11.81-6.28,3.88,10.39,6.6,12.23C285.54,314.82,289.92,312.74,290.75,308.91Z"/><path class="cls-26" d="M556.18,163.8l-7.2-3.32-1.84.74-4-3.24,3.32-5.35,13,10.66A3.33,3.33,0,0,1,556.18,163.8Z"/><path class="cls-15" d="M474.35,198.78l-3.46.93.05,1.06-6.69.69c-2.17-10.8,2-9.18,3.09-10.43.74-.83,4.06-2.81,6.18-4,.14-.51,2.26-1.94,2.68-2.08,1-.42,2.26.14,2.95,1.89S483,189,482,189.37c-.33.14-5.87,3.09-6.24,2.91l-2.72,1.1Z"/><path class="cls-27" d="M460,205.25a3,3,0,0,1-2.63-1.94,4.14,4.14,0,0,1-.18-1.29c-.14-2.13-.23-4.25-.37-6.37a9.34,9.34,0,0,1,.88-4.48,8.38,8.38,0,0,1,10.52-4.25,22.31,22.31,0,0,1,2.81,2l-4.1,2.44.92.93-.14.46c-1.2.28-2.17,1-2.08,2.26a16.26,16.26,0,0,1-.6,4.75c-.36,1.39-.69,3.1-1.7,4.11l-.14.14A4.26,4.26,0,0,1,460,205.25Z"/><path class="cls-28" d="M521.06,138.55l4.71-2.07c.28.5,11.86,22.57,12.05,27.92s-12.37,7.52-12.37,7.52l-11,3.51-7.71-17.72a13.87,13.87,0,0,1,7.11-.33c11,2.22,14,3.24,14,3.24S522,154.48,521.06,138.55Z"/><path class="cls-29" d="M503.75,157.62s12-3.19,17.87,7.52,7.1,13.94,7.1,13.94-.27-10.06,14.91-21.83l4.39,3.6S536.89,186,532.51,190s-15-5-15-5l-10.75-6.79Z"/><path class="cls-30" d="M473.62,187.43s2.35-1,4.93,3.51l1.76.78a72.16,72.16,0,0,1,26.54-13.52l-3.05-20.54s-12.51.05-24.37,13A28.5,28.5,0,0,0,473.62,187.43Z"/><path class="cls-31" d="M532.18,129.69,526,134.54l-.18,2-4.71,2-3.23-5.4,15.46-6.69A3.57,3.57,0,0,1,532.18,129.69Z"/><path class="cls-15" d="M502.46,216.65l-2.63-4.43s-1.66,1.56-1.66.83,1.11-3.05.88-3.42-3.1-16-3.1-16l-9.83-5.72,9-1.39c2.73,1.62,4.85,3,5,3.79.18,1,1.75,17.54,1.84,18.37s2.54,4.2,2.54,6.27A1.57,1.57,0,0,1,502.46,216.65Z"/><path class="cls-32" d="M498.82,208.62,495.22,194C489.63,191.17,481,186,477.68,184l12.92-3.14c3,2.31,8.91,7.25,9.51,7.85,1.57,1.7,1.84,18.78,1.84,18.78A3.36,3.36,0,0,1,498.82,208.62Z"/><path class="cls-33" d="M491.15,208l3.47-.65c-.1-3.88-.51-16.15-1.8-17.59-.56-.6-3.19-2.63-6.24-4.93l-9.92,4c3.28,2,5.77,3.42,11.31,6.28Z"/><polygon class="cls-34" points="500.62 180.05 498.21 181.15 489.17 161.35 491.57 160.25 500.62 180.05"/><polygon class="cls-35" points="502.32 179.45 499.83 180.32 492.63 159.78 495.12 158.91 502.32 179.45"/><path class="cls-15" d="M312.77,454.43l2-2.21c-.37-.33-.6-.51-.65-.56-.37-.18-.78-2.58-1.2-3.14s-.83,1.57-.83,1.57l-4.47-1.94a1.57,1.57,0,0,0-.7,2.45c1.16,1.62,4.9,2.82,5.45,3.42A3.92,3.92,0,0,1,312.77,454.43Z"/><path class="cls-36" d="M345.26,567.88l5.17-3,.32-1.48,3.74-1.06,1.89,4.39-12.23,3.55A2.65,2.65,0,0,1,345.26,567.88Z"/><path class="cls-15" d="M347.52,526.15l.88-1.29h-11a5,5,0,0,0,.69,2.68c.78,1.61,11.44,32.58,12.83,35.72l3.55-1S351.91,537.74,347.52,526.15Z"/><path class="cls-15" d="M334.83,525.65s-1-.37-.55,1.33,4.43,36.37,5,39.79h3.87s1.94-28,.33-40.25l.41-.87Z"/><path class="cls-15" d="M335.29,453.88l.28-4-1.11-.33,1.71-7.29c12.14,1.62,8.91,5.4,9.83,7,.46.83,1.06,4.94,1.57,7.94-.46.78-1.94,2.21-6.19,1.89a3.43,3.43,0,0,1,.28-1.43l-.18-3.28Z"/><path class="cls-37" d="M345.91,457.29s-9.74.09-14.36,4.8c0,0,1.16,2.13,1.2,2.26.83,2.08.83,4.57,1.16,6.79s.51,4.2.69,6.28c.37,4.66.78,9.83-.6,14.35h15.46s.32-9.6,1.71-14.54S353.52,459.28,345.91,457.29Z"/><path class="cls-38" d="M349.46,491.77H334s-1.11,10.89-1.11,16.89.56,20.86.56,20.86h15.27a57.89,57.89,0,0,1,3.37-16.89C355.42,503,354.54,498.6,349.46,491.77Z"/><path class="cls-39" d="M332.75,569.58l5.82-1.47.74-1.34h3.87l.6,4.71H331.05A2.66,2.66,0,0,1,332.75,569.58Z"/><path class="cls-40" d="M314.62,451.25c9,9.5,23.26,7.43,23.26,7.43l.32,7.29c-13.62,2.26-26.08-12.05-26.08-12.05A11.19,11.19,0,0,1,314.62,451.25Z"/><path class="cls-41" d="M336,446.72a11.51,11.51,0,0,1-1.52-2.49c-1.38-3.28,1.89-5.31,4.66-5.91,7.43-1.61,13.57,4.85,15.7,11.36a22.18,22.18,0,0,1,.32,11,26.59,26.59,0,0,0-.69,10c.23,2,.87,4.34.27,6.32-1.52,5.31-9.64,7.16-13.94,4.53a9.16,9.16,0,0,1-4-7.39,16.61,16.61,0,0,1,2.12-8.35,42.75,42.75,0,0,0,2.08-4.11,11.06,11.06,0,0,0-1.57-10.34C338.29,449.77,336.72,448.34,336,446.72Z"/><circle class="cls-42" cx="205.51" cy="297.14" r="11.49"/><path class="cls-43" d="M442.88,151.57,418.6,111.51a4.3,4.3,0,0,0-7.48,0l-24.27,40.06c-1.9,3.14.23,7.34,3.73,7.34h48.56C442.69,158.91,444.82,154.75,442.88,151.57Z"/><path class="cls-44" d="M599.06,345.51l12.14,20a2.17,2.17,0,0,0,3.74,0l12.14-20a2.37,2.37,0,0,0-1.9-3.65H600.91A2.35,2.35,0,0,0,599.06,345.51Z"/><path class="cls-45" d="M607.74,555.55l4.94-3,.27-1.43,3.56-1.06,1.89,4.16-11.72,3.55A2.5,2.5,0,0,1,607.74,555.55Z"/><path class="cls-15" d="M594.31,462.37c-5.31-.74-12.6-5-13.16-5.49s-.18-1.71-.18-2,.69-1.89.28-2.26S580,454.2,580,454.2a35.92,35.92,0,0,1-4.25-3.23c-1.47-1.43-1.43,2.21-1.1,3.46s2.26,2.35,3.64,3.14c0,0,13.39,12.18,17.36,11.08,2.77-.74,5.9-7.76,5.9-7.76l-4.24-3.69Z"/><path class="cls-46" d="M615.49,480.78l3.69-.5s5.13,11.12-1.66,19.38L612.08,521s5.21,16.62,4.34,30l-3.51.83-8-24.46.1-17.54Z"/><path class="cls-47" d="M617.06,480.65l-16.34,1.1s-3.78,25.71-3.18,38.73S599.2,552,599.2,552l4.11.37c5.58-27.51,3.87-34.8,3.87-34.8.19-2,6.93-19.52,6.93-19.52S621.68,490.43,617.06,480.65Z"/><path class="cls-15" d="M608.48,440c.5,1.11,1.1,5.68,1.38,8,.74.28,1.25.69,1.29,1.25.1,1.06-1.57,2.07-3.69,2.3s-4-.46-4.06-1.52a1.29,1.29,0,0,1,.6-1.15l.09-4.76-5.49-.64.51-3.56-1-.37,2-6.46C610.88,435.23,607.78,438.46,608.48,440Z"/><path class="cls-48" d="M611.66,447.46s-9,.88-9.51,1.71-5.58,7.8-5.58,7.8a14.46,14.46,0,0,0,4.06,3.92,7,7,0,0,0-.88,6c1.11,3.37,1.53,14.54.51,17.68s19.39-3.05,19.39-3.05-2.4-12.92-1.9-17.26-2.21-15.32-2.21-15.32Z"/><path class="cls-27" d="M600.35,430.89a7.26,7.26,0,0,1,1.11-2.21c6.74-9,16.8,3.55,20,9.46,1.89,3.37,2.77,7.57.42,10.94-2.59,3.64-11.73,6.55-14.26,1.38a10.77,10.77,0,0,1-.42-7.61c.51-2,.46-5.13-1.8-6.1C601.88,436.06,599.57,433.8,600.35,430.89Z"/><path class="cls-45" d="M593.34,554.77l5.58-1.43.7-1.29h3.69l.6,4.52H591.63A2.57,2.57,0,0,1,593.34,554.77Z"/><path class="cls-49" d="M467.11,485.35s2,29.17,2,30.7-2,35.63-2,35.63h-5l-2.95-30.79L451,489.69Z"/><path class="cls-50" d="M474.58,555.05l-6.87-1.76-.83-1.57h-4.57l-.74,5.59h15.09A3.13,3.13,0,0,0,474.58,555.05Z"/><path class="cls-15" d="M463.32,440l-.09-3.55,1-.23-1.2-6.55c-10.85,1-8.17,4.47-9,5.86-.6.92-1.53,4.66-2.08,7a8.65,8.65,0,0,0-1.15,3c-.1,1.06,1.75.19,3.64.33s3.23,1.8,3.32.73a12.14,12.14,0,0,0-.13-3.41l.27-2.91Z"/><path class="cls-27" d="M465.4,424.48a2.94,2.94,0,0,0-2.58-1.94,6.46,6.46,0,0,0-1.3.18c-2,.46-4.1,1-6.14,1.43a8.7,8.7,0,0,0-4,2.13,8.27,8.27,0,0,0-1.06,11.17c.14.18,2.63,2.3,2.67,2.07l1.16-4.57,1.15.65.37-.23a2.25,2.25,0,0,1,1.57-2.63,16.76,16.76,0,0,0,4.34-1.89c1.2-.74,2.72-1.53,3.41-2.82,0,0,0-.14.1-.18A3.93,3.93,0,0,0,465.4,424.48Z"/><path class="cls-51" d="M464.94,556.57l-7.25-1.89-.87-1.66H452l-.79,5.9h16A3.44,3.44,0,0,0,464.94,556.57Z"/><path class="cls-52" d="M467.2,485.4s-5.77,34.25-6.65,36.32S456.4,544,457.28,554a10.56,10.56,0,0,1-5.54,0s-3-18.32-1.71-26.08,1.39-18.64.88-21.41-5-14.17-2.08-22.11S467.2,485.4,467.2,485.4Z"/><path class="cls-53" d="M461.94,448.57a28.08,28.08,0,0,0-1.52-2.82c-1.48-2.21-3.88-4.06-6.7-3.64-2.3.37-4,2.26-5.12,4.2A16.29,16.29,0,0,0,447,456.74c1.39,9.09,4.48,17.26,3.09,23.49a35.8,35.8,0,0,1-1.84,4.48s5.54,5.07,19.1,1.24a127.18,127.18,0,0,0-1.7-25.47,46.52,46.52,0,0,0-2.13-7.9C463.09,451.29,462.54,449.91,461.94,448.57Z"/><path class="cls-15" d="M487.51,442.71l-4.71,1.06s0-2.12-.51-1.66-1.38,2.72-1.75,2.81-12.83,8.22-12.83,8.22l-10.25-3,4.85,7c2.86.83,5.21,1.34,5.81,1,.79-.5,13.06-10.1,13.71-10.61s4.52-1,5.91-2.31A1.55,1.55,0,0,0,487.51,442.71Z"/><path class="cls-54" d="M479.66,445.43l-12.28,7c-5.53-1.94-11.58-3.65-15.09-4.62l7.16,10.34c3.55.6,6.6,1.06,7.38,1.06,2.17,0,13.94-10.89,13.94-10.89A2.86,2.86,0,0,0,479.66,445.43Z"/></g></svg>