<svg id="Ebene_1" data-name="Ebene 1" xmlns="http://www.w3.org/2000/svg" xmlns:xlink="http://www.w3.org/1999/xlink" width="850" height="580" viewBox="0 0 850 580"><defs><style>.cls-1{opacity:0.84;}.cls-2{fill:#f3ecf1;}.cls-3{fill:url(#Unbenannter_Verlauf_3);}.cls-4{fill:#b2b9d9;}.cls-49,.cls-5{fill:none;stroke-miterlimit:10;}.cls-5{stroke:#775daa;}.cls-6{fill:url(#Unbenannter_Verlauf_2);}.cls-7{fill:#d0d0e6;}.cls-8{fill:url(#Unbenannter_Verlauf_4);}.cls-9{fill:url(#Unbenannter_Verlauf_4-2);}.cls-10{fill:url(#Unbenannter_Verlauf_11);}.cls-11{fill:url(#Unbenannter_Verlauf_10);}.cls-12{fill:url(#Unbenannter_Verlauf_10-2);}.cls-13{fill:url(#Unbenannter_Verlauf_8);}.cls-14{fill:url(#Unbenannter_Verlauf_38);}.cls-15{fill:url(#Unbenannter_Verlauf_10-3);}.cls-16{fill:url(#Unbenannter_Verlauf_11-2);}.cls-17{fill:url(#Unbenannter_Verlauf_14);}.cls-18{fill:url(#Unbenannter_Verlauf_38-2);}.cls-19{fill:url(#Unbenannter_Verlauf_14-2);}.cls-20{fill:url(#Unbenannter_Verlauf_38-3);}.cls-21{fill:url(#Unbenannter_Verlauf_41);}.cls-22{fill:url(#Unbenannter_Verlauf_41-2);}.cls-23{fill:#449fbc;}.cls-24{fill:url(#Unbenannter_Verlauf_18);}.cls-25{fill:url(#Unbenannter_Verlauf_25);}.cls-26{fill:url(#Unbenannter_Verlauf_24);}.cls-27{fill:url(#Unbenannter_Verlauf_21);}.cls-28{fill:url(#Unbenannter_Verlauf_22);}.cls-29{fill:url(#Unbenannter_Verlauf_23);}.cls-30{fill:url(#Unbenannter_Verlauf_24-2);}.cls-31{fill:url(#Unbenannter_Verlauf_25-2);}.cls-32{fill:url(#Unbenannter_Verlauf_37);}.cls-33{fill:url(#Unbenannter_Verlauf_27);}.cls-34{fill:url(#Unbenannter_Verlauf_37-2);}.cls-35{fill:url(#Unbenannter_Verlauf_29);}.cls-36{fill:url(#Unbenannter_Verlauf_30);}.cls-37{fill:url(#Unbenannter_Verlauf_37-3);}.cls-38{fill:url(#Unbenannter_Verlauf_34);}.cls-39{fill:url(#Unbenannter_Verlauf_37-4);}.cls-40{fill:url(#Unbenannter_Verlauf_34-2);}.cls-41{fill:url(#Unbenannter_Verlauf_35);}.cls-42{fill:url(#Unbenannter_Verlauf_36);}.cls-43{fill:url(#Unbenannter_Verlauf_37-5);}.cls-44{fill:url(#Unbenannter_Verlauf_38-4);}.cls-45{fill:url(#Unbenannter_Verlauf_39);}.cls-46{fill:url(#Unbenannter_Verlauf_42);}.cls-47{fill:url(#Unbenannter_Verlauf_41-3);}.cls-48{fill:url(#Unbenannter_Verlauf_42-2);}.cls-49{stroke-dasharray:7;stroke:url(#Unbenannter_Verlauf_43);}.cls-50{fill:url(#Unbenannter_Verlauf_46);}.cls-51{fill:url(#Unbenannter_Verlauf_45);}.cls-52{fill:url(#Unbenannter_Verlauf_46-2);}.cls-53{fill:url(#Unbenannter_Verlauf_47);}</style><linearGradient id="Unbenannter_Verlauf_3" x1="601.16" y1="347.99" x2="521.22" y2="217.36" gradientTransform="matrix(1, 0, 0, -1, 0, 364.89)" gradientUnits="userSpaceOnUse"><stop offset="0" stop-color="#e7e7ed"/><stop offset="1" stop-color="#d0d0e6"/></linearGradient><linearGradient id="Unbenannter_Verlauf_2" x1="368.02" y1="123.56" x2="415.69" y2="31.25" gradientTransform="matrix(1, 0, 0, -1, 0, 364.89)" gradientUnits="userSpaceOnUse"><stop offset="0" stop-color="#b0c3de"/><stop offset="1" stop-color="#a4b6d7"/></linearGradient><linearGradient id="Unbenannter_Verlauf_4" x1="520.14" y1="9.5" x2="546.48" y2="9.5" gradientTransform="matrix(1, 0, 0, -1, 0, 364.89)" gradientUnits="userSpaceOnUse"><stop offset="0" stop-color="#6e78b7"/><stop offset="1" stop-color="#336684"/></linearGradient><linearGradient id="Unbenannter_Verlauf_4-2" x1="435.04" y1="13.76" x2="478.44" y2="13.76" xlink:href="#Unbenannter_Verlauf_4"/><linearGradient id="Unbenannter_Verlauf_11" x1="491.02" y1="213.69" x2="486.77" y2="126.19" gradientTransform="matrix(1, 0, 0, -1, 0, 364.89)" gradientUnits="userSpaceOnUse"><stop offset="0" stop-color="#457798"/><stop offset="1" stop-color="#47437c"/></linearGradient><linearGradient id="Unbenannter_Verlauf_10" x1="362.62" y1="103.38" x2="453.75" y2="103.38" gradientTransform="matrix(1, 0, 0, -1, 0, 364.89)" gradientUnits="userSpaceOnUse"><stop offset="0" stop-color="#f4ddc4"/><stop offset="1" stop-color="#f6ede1"/></linearGradient><linearGradient id="Unbenannter_Verlauf_10-2" x1="528.48" y1="103.38" x2="619.6" y2="103.38" xlink:href="#Unbenannter_Verlauf_10"/><linearGradient id="Unbenannter_Verlauf_8" x1="492.21" y1="29.83" x2="503.88" y2="106.16" gradientTransform="matrix(1, 0, 0, -1, 0.17, 363.12)" gradientUnits="userSpaceOnUse"><stop offset="0" stop-color="#f8bb55"/><stop offset="1" stop-color="#f7ec86"/></linearGradient><linearGradient id="Unbenannter_Verlauf_38" x1="472.95" y1="146.76" x2="496.62" y2="74.76" gradientTransform="matrix(1, 0, 0, -1, 0, 364.89)" gradientUnits="userSpaceOnUse"><stop offset="0" stop-color="#f2a287"/><stop offset="1" stop-color="#f5897c"/></linearGradient><linearGradient id="Unbenannter_Verlauf_10-3" x1="479.77" y1="152.14" x2="507.77" y2="190.89" xlink:href="#Unbenannter_Verlauf_10"/><linearGradient id="Unbenannter_Verlauf_11-2" x1="494.58" y1="213.52" x2="490.33" y2="126.02" xlink:href="#Unbenannter_Verlauf_11"/><linearGradient id="Unbenannter_Verlauf_14" x1="473" y1="101.1" x2="453.37" y2="103.45" gradientTransform="matrix(1, 0, 0, -1, 0, 364.89)" gradientUnits="userSpaceOnUse"><stop offset="0" stop-color="#f2a287" stop-opacity="0"/><stop offset="0.52" stop-color="#ec877a" stop-opacity="0.52"/><stop offset="1" stop-color="#e87471"/></linearGradient><linearGradient id="Unbenannter_Verlauf_38-2" x1="443.32" y1="137.02" x2="466.99" y2="65.02" xlink:href="#Unbenannter_Verlauf_38"/><linearGradient id="Unbenannter_Verlauf_14-2" x1="512.3" y1="89.99" x2="530.46" y2="103.99" xlink:href="#Unbenannter_Verlauf_14"/><linearGradient id="Unbenannter_Verlauf_38-3" x1="517.3" y1="161.34" x2="540.97" y2="89.34" xlink:href="#Unbenannter_Verlauf_38"/><linearGradient id="Unbenannter_Verlauf_41" x1="488.38" y1="35.45" x2="579.76" y2="35.45" gradientTransform="matrix(1, 0, 0, -1, 0, 364.89)" gradientUnits="userSpaceOnUse"><stop offset="0" stop-color="#f8d774"/><stop offset="1" stop-color="#f7ec86"/></linearGradient><linearGradient id="Unbenannter_Verlauf_41-2" x1="408.16" y1="32.1" x2="513.94" y2="32.1" xlink:href="#Unbenannter_Verlauf_41"/><linearGradient id="Unbenannter_Verlauf_18" x1="327.84" y1="-148.34" x2="371.24" y2="-148.34" gradientTransform="matrix(1, 0, 0, -1, 0, 364.89)" gradientUnits="userSpaceOnUse"><stop offset="0" stop-color="#4d64a3"/><stop offset="1" stop-color="#34266f"/></linearGradient><linearGradient id="Unbenannter_Verlauf_25" x1="422.44" y1="-143.7" x2="467.24" y2="-143.7" gradientTransform="matrix(1, 0, 0, -1, 0, 364.89)" gradientUnits="userSpaceOnUse"><stop offset="0" stop-color="#34266f"/><stop offset="1" stop-color="#4d64a3"/></linearGradient><linearGradient id="Unbenannter_Verlauf_24" x1="323.47" y1="-61.76" x2="375.94" y2="-61.76" gradientTransform="matrix(1, 0, 0, -1, 0, 364.89)" gradientUnits="userSpaceOnUse"><stop offset="0" stop-color="#4a77b5"/><stop offset="1" stop-color="#443c99"/></linearGradient><linearGradient id="Unbenannter_Verlauf_21" x1="414.84" y1="-59.26" x2="467.3" y2="-59.26" gradientTransform="matrix(1, 0, 0, -1, 0, 364.89)" gradientUnits="userSpaceOnUse"><stop offset="0" stop-color="#443c99"/><stop offset="1" stop-color="#4a77b5"/></linearGradient><linearGradient id="Unbenannter_Verlauf_22" x1="396.71" y1="38.86" x2="396.96" y2="-17.64" gradientTransform="matrix(1, 0, 0, -1, 0, 364.89)" gradientUnits="userSpaceOnUse"><stop offset="0" stop-color="#63471f"/><stop offset="1" stop-color="#ce9340"/></linearGradient><linearGradient id="Unbenannter_Verlauf_23" x1="398.28" y1="-128.86" x2="394.78" y2="-203.36" gradientTransform="matrix(1, 0, 0, -1, 0, 364.89)" gradientUnits="userSpaceOnUse"><stop offset="0" stop-color="#59c0cf"/><stop offset="1" stop-color="#4a77b5"/></linearGradient><linearGradient id="Unbenannter_Verlauf_24-2" x1="392.46" y1="-15.07" x2="399.46" y2="-142.57" xlink:href="#Unbenannter_Verlauf_24"/><linearGradient id="Unbenannter_Verlauf_25-2" x1="378.1" y1="11.3" x2="439.98" y2="86.78" xlink:href="#Unbenannter_Verlauf_25"/><linearGradient id="Unbenannter_Verlauf_37" x1="625.46" y1="-168.15" x2="667.46" y2="-127.48" gradientTransform="matrix(1, 0, 0, -1, 0, 364.89)" gradientUnits="userSpaceOnUse"><stop offset="0" stop-color="#30adb6"/><stop offset="1" stop-color="#2752a3"/></linearGradient><linearGradient id="Unbenannter_Verlauf_27" x1="567.22" y1="126.43" x2="662.44" y2="126.43" gradientTransform="matrix(1, 0, 0, -1, 0, 364.89)" gradientUnits="userSpaceOnUse"><stop offset="0" stop-color="#f7cccc"/><stop offset="1" stop-color="#f5b299"/></linearGradient><linearGradient id="Unbenannter_Verlauf_37-2" x1="644.8" y1="143.3" x2="665.62" y2="143.3" xlink:href="#Unbenannter_Verlauf_37"/><linearGradient id="Unbenannter_Verlauf_29" x1="690.49" y1="-47.6" x2="733.34" y2="-47.6" gradientTransform="matrix(1, 0, 0, -1, 0, 364.89)" gradientUnits="userSpaceOnUse"><stop offset="0" stop-color="#6b3f8f"/><stop offset="1" stop-color="#5b2769"/></linearGradient><linearGradient id="Unbenannter_Verlauf_30" x1="642.8" y1="-47.91" x2="702.8" y2="-47.91" gradientTransform="matrix(1, 0, 0, -1, 0, 364.89)" gradientUnits="userSpaceOnUse"><stop offset="0" stop-color="#9257a2"/><stop offset="1" stop-color="#6e3a95"/></linearGradient><linearGradient id="Unbenannter_Verlauf_37-3" x1="700.74" y1="-148.36" x2="725.31" y2="-148.36" xlink:href="#Unbenannter_Verlauf_37"/><linearGradient id="Unbenannter_Verlauf_34" x1="742.44" y1="193.4" x2="811" y2="193.4" gradientTransform="matrix(1, 0, 0, -1, 0, 364.89)" gradientUnits="userSpaceOnUse"><stop offset="0" stop-color="#f5b299"/><stop offset="1" stop-color="#f7cccc"/></linearGradient><linearGradient id="Unbenannter_Verlauf_37-4" x1="649.39" y1="167.11" x2="743.05" y2="42.44" xlink:href="#Unbenannter_Verlauf_37"/><linearGradient id="Unbenannter_Verlauf_34-2" x1="-859.69" y1="68.06" x2="-830.91" y2="118.22" gradientTransform="translate(-165.17 350.82) rotate(173.3)" xlink:href="#Unbenannter_Verlauf_34"/><linearGradient id="Unbenannter_Verlauf_35" x1="-2274.49" y1="-345.21" x2="-2215.52" y2="-345.21" gradientTransform="translate(-1591.11 313.15) rotate(167.09)" gradientUnits="userSpaceOnUse"><stop offset="0" stop-color="#251a88"/><stop offset="1" stop-color="#2752a3"/></linearGradient><linearGradient id="Unbenannter_Verlauf_36" x1="720.15" y1="133.92" x2="723.15" y2="155.76" gradientTransform="matrix(1, 0, 0, -1, 0, 364.89)" gradientUnits="userSpaceOnUse"><stop offset="0" stop-color="#30adb6" stop-opacity="0"/><stop offset="1" stop-color="#2752a3"/></linearGradient><linearGradient id="Unbenannter_Verlauf_37-5" x1="702.4" y1="206.94" x2="796.07" y2="82.27" xlink:href="#Unbenannter_Verlauf_37"/><linearGradient id="Unbenannter_Verlauf_38-4" x1="717.34" y1="268.66" x2="738.06" y2="268.66" xlink:href="#Unbenannter_Verlauf_38"/><linearGradient id="Unbenannter_Verlauf_39" x1="256.14" y1="309.86" x2="314.84" y2="309.86" gradientTransform="matrix(1, 0, 0, -1, 0, 650.11)" gradientUnits="userSpaceOnUse"><stop offset="0" stop-color="#646363"/><stop offset="1" stop-color="#878787"/></linearGradient><linearGradient id="Unbenannter_Verlauf_42" x1="254.34" y1="3.75" x2="316.54" y2="3.75" gradientTransform="matrix(1, 0, 0, -1, 0, 364.89)" gradientUnits="userSpaceOnUse"><stop offset="0" stop-color="#f5897c"/><stop offset="1" stop-color="#f2a287"/></linearGradient><linearGradient id="Unbenannter_Verlauf_41-3" x1="256.24" y1="-17.24" x2="314.64" y2="-17.24" xlink:href="#Unbenannter_Verlauf_41"/><linearGradient id="Unbenannter_Verlauf_42-2" x1="396.6" y1="197.65" x2="376.85" y2="233.9" xlink:href="#Unbenannter_Verlauf_42"/><linearGradient id="Unbenannter_Verlauf_43" x1="510.26" y1="-80.88" x2="297.42" y2="12.97" gradientTransform="translate(649.23 174.22) rotate(-168.21)" gradientUnits="userSpaceOnUse"><stop offset="0" stop-color="#3ad1ae"/><stop offset="1" stop-color="#1b6151"/></linearGradient><linearGradient id="Unbenannter_Verlauf_46" x1="445.92" y1="1114.98" x2="518.12" y2="1114.98" gradientTransform="translate(1094.31 700.74) rotate(145.61)" gradientUnits="userSpaceOnUse"><stop offset="0" stop-color="#9a5be8" stop-opacity="0.7"/><stop offset="1" stop-color="#bf6cff"/></linearGradient><linearGradient id="Unbenannter_Verlauf_45" x1="490.21" y1="1095.1" x2="478.03" y2="1134.44" gradientTransform="translate(1094.31 700.74) rotate(145.61)" gradientUnits="userSpaceOnUse"><stop offset="0" stop-color="#9041ff"/><stop offset="1" stop-color="#bf6cff"/></linearGradient><linearGradient id="Unbenannter_Verlauf_46-2" x1="470.87" y1="1102.98" x2="518.12" y2="1102.98" xlink:href="#Unbenannter_Verlauf_46"/><linearGradient id="Unbenannter_Verlauf_47" x1="571.81" y1="-10.68" x2="548.31" y2="-13.43" gradientTransform="translate(649.23 174.22) rotate(-168.21)" gradientUnits="userSpaceOnUse"><stop offset="0" stop-color="#9a5be8"/><stop offset="1" stop-color="#bf6cff"/></linearGradient></defs><title>sprache-lernen-1</title><g id="Objects"><g class="cls-1"><path class="cls-2" d="M160.84,334.8a5.69,5.69,0,0,0,3.2-2.5c.1-.3.3-.5.3-.8,0-.9-1.1-1.4-2-1.4-3.1-.3-6.2.9-9.1,2.1-2.1.9-4.3,1.7-6.4,2.6-1.6.7-3.4,1.4-4.3,2.9,0,.5.6.7,1.1.6a7.54,7.54,0,0,0,1.3-.6c1.8-1,4.1-.6,6,0,1.3.4,2.7.9,3.8.3s1.5-1.6,2.4-2.2C158.14,335,159.54,335.2,160.84,334.8Z"/><path class="cls-2" d="M200.84,496.3c.1.2.2.5,0,.6,0,.2.3.3.5.3a.86.86,0,0,0,.6-.3,4.35,4.35,0,0,1,.7-.4,3.11,3.11,0,0,0,.9-.7c.6-.7.4-1.8.7-2.6l.3-.9a.83.83,0,0,0-.3-.8c-.1,0-.1-.1-.2,0a.1.1,0,0,0-.1.1c-.9.9-1.8,1.9-2.6,2.8a1.76,1.76,0,0,0-.4.5A1.39,1.39,0,0,0,200.84,496.3Z"/><path class="cls-2" d="M204.54,489.3c0,.1.2.2.3.2a.76.76,0,0,0,.4-.2,1.7,1.7,0,0,0,.6-.6c.1-.3.1-.7-.2-.8l-1,1C204.64,489,204.54,489.2,204.54,489.3Z"/><path class="cls-2" d="M208.64,484.8c-.2-.1-.4.1-.6.2a10,10,0,0,1-1,1.1.55.55,0,0,0,.3.5l1.1-1.1a1.38,1.38,0,0,0,.3-.4C208.84,485,208.74,484.9,208.64,484.8Z"/><path class="cls-2" d="M211.84,482.6c-.1-.1-.3-.2-.4-.1s-.3.2-.4.3a6.47,6.47,0,0,1-.9.8.55.55,0,0,0,.3.5,3,3,0,0,0,1.3-.9C211.84,482.9,211.94,482.7,211.84,482.6Z"/><path class="cls-2" d="M198.34,497.9a4.53,4.53,0,0,1-2.1,1c-.4.1-.7.1-1.1.2A5.11,5.11,0,0,0,192,501c0,.4.5.6.9.4s.6-.4,1-.6a6.65,6.65,0,0,1,2.4-.7,7,7,0,0,0,3.6-2.5.63.63,0,0,0-.8-.2C198.84,497.5,198.64,497.8,198.34,497.9Z"/><path class="cls-2" d="M85.24,456.2a4.05,4.05,0,0,0-.5-.9,2,2,0,0,0-.6-.7.62.62,0,0,0-.8-.1c-.4.2-.4.8-.3,1.3a7.84,7.84,0,0,0,.5,1.4,2.26,2.26,0,0,1,.5,1.5,3,3,0,0,1-.4.8c-.3.5-.7,1-1,1.5-.2.3-.4.5-.4.8a1,1,0,0,0,.2.9.84.84,0,0,0,.7.2,1.56,1.56,0,0,0,1.2-.6,2.83,2.83,0,0,0,.6-1.6,12.86,12.86,0,0,1,.4-1.9A11.11,11.11,0,0,0,85.24,456.2Z"/><path class="cls-2" d="M88.24,467.9c-.2-.1-.4,0-.6-.1-.6-.1-1.1-.9-1.7-.9a.37.37,0,0,0-.2.5.85.85,0,0,0,.3.5,6.42,6.42,0,0,0,1.3,1c.2.1.5.3.7.2a.65.65,0,0,0,.6-.6C88.74,468.3,88.54,468,88.24,467.9Z"/><path class="cls-2" d="M120.34,481.4c.5.3,1-.2,1.3-.7a5,5,0,0,0,0-3.4,1.48,1.48,0,0,0-.8-1.2c-.5-.1-.9.2-1.4.2-.7,0-1.3-.6-2-.3a.75.75,0,0,0-.5.7,1.41,1.41,0,0,0,.1.9c.5,1.4,1.9,2.1,2.8,3.3C120,481.1,120.14,481.3,120.34,481.4Z"/><path class="cls-2" d="M127.34,464.7a2,2,0,0,0-.5,1.5c0,.4-.1.8.1,1.1a1.44,1.44,0,0,0,1.1.7c.4.1.9.1,1.3.2a4.53,4.53,0,0,0,1.6.3,1.8,1.8,0,0,0,.9-.4c.6-.3,1.2-.7,1.9-1,.1-.1.3-.2.3-.3s-.1-.5-.2-.7a3.79,3.79,0,0,0-1.7-1.4,4.84,4.84,0,0,0-1.7,0c-.5,0-1-.2-1.5-.2A1.66,1.66,0,0,0,127.34,464.7Z"/><path class="cls-2" d="M123.74,458.5a1.39,1.39,0,0,0-.2,1.1c.1,1.1.5,2.2-.1,3.2s-2.1,1.3-2.4,2.4a2.77,2.77,0,0,0-.1.9,3,3,0,0,0,1.4,2.2,1.68,1.68,0,0,0,1.2.3,2.15,2.15,0,0,0,1.2-.9,8.33,8.33,0,0,0,.4-1.5,5.85,5.85,0,0,0,.2-1.3.91.91,0,0,1,.3-.7c.3-.4.8-.4,1.3-.4a5.29,5.29,0,0,0,3.8-1.6c.1-.1.2-.2.2-.3s-.1-.2-.1-.3a10.92,10.92,0,0,0-1.3-1.7,2.65,2.65,0,0,0-.6-.5,4.71,4.71,0,0,0-1.6-.4c-.6-.2-1.2-.5-1.8-.7A1.49,1.49,0,0,0,123.74,458.5Z"/><path class="cls-2" d="M132.24,437.9a.37.37,0,0,0-.3-.1c-.1,0-.2.1-.3.2l-1.2,1.2c-.2.2-.4.3-.5.6a.88.88,0,0,0-.1.7.55.55,0,0,0,.5.3,1.42,1.42,0,0,0,.6-.2.76.76,0,0,1,.4-.2,3.59,3.59,0,0,0,1-.7.91.91,0,0,0,.2-1.1A.56.56,0,0,0,132.24,437.9Z"/><path class="cls-2" d="M129.34,433.6c.1.1.2.3.4.3s.1,0,.2-.1a.78.78,0,0,0,.3-.7,2.35,2.35,0,0,0-.2-.8,5.64,5.64,0,0,1-.4-1.2c-.1-.5-.2-1.2-.6-1.5a.37.37,0,0,0-.3-.1.6.6,0,0,0-.4.1,2,2,0,0,0-.8,1.2,1.79,1.79,0,0,0,.4,1.4,2.65,2.65,0,0,0,.6.5A8.18,8.18,0,0,0,129.34,433.6Z"/><path class="cls-2" d="M120.64,420.1c.3-.1.3-.5.2-.7a2.36,2.36,0,0,0-1.2-1.4c-.3,0-.3.4-.3.6s.3.4.4.6C120,419.6,120.24,420,120.64,420.1Z"/><path class="cls-2" d="M112.14,413.2a.45.45,0,0,0,.5,0,.68.68,0,0,0,.4-.8,1.56,1.56,0,0,0-.6-.8l-.2-.2c-.3-.1-.7.2-.9.4s-.3.3-.2.5.1.2.2.3A1,1,0,0,0,112.14,413.2Z"/><path class="cls-2" d="M87.54,485.6a97.75,97.75,0,0,0,91.4,23.7,11.1,11.1,0,0,1,4.8-3.1,16.14,16.14,0,0,0,5.6-3.1,1.86,1.86,0,0,0-1.8-.4,8.65,8.65,0,0,0-1.7.7,18.71,18.71,0,0,1-4,1.3,9.26,9.26,0,0,1-2.3.4c-1,0-2-.3-3-.3-1.6,0-3.1.7-4.7.5-.8-.1-1.6-.5-2.4-.6-1.9-.4-3.9.1-5.7-.5a1.09,1.09,0,0,1-.6-1.9,4.3,4.3,0,0,0,.9-1,4.42,4.42,0,0,0-3.6-2.7c-.3,0-.5.2-.8.3s-.4.1-.6.3c-.3.4,0,.9,0,1.4.1.7-.6,1.4-1.4,1.6a5.45,5.45,0,0,1-2.2-.1,3.41,3.41,0,0,0-2.2.3c-.8-.6-.5-1.9-1.1-2.7-.2-.3-.6-.6-.5-.9s.7-.5,1-.3.6.6.9.9a2.7,2.7,0,0,0,2.3.4c1.2-.4.9-1,1.1-1.9a2.68,2.68,0,0,1,1-1.5.85.85,0,0,0,.3-.5c.1-.5-.6-.7-1-.6a7.46,7.46,0,0,0-1.2.7c-.8.4-1.9.1-2.8.5-.5.2-1,.6-1.5.8a5.84,5.84,0,0,1-1.9.2c-1.2,0-2.3-.1-3.5-.1a2.45,2.45,0,0,0-1.6.6c-.5.4-.8.8-1.3,1.2a5.17,5.17,0,0,1-3.3.5c-1.3-.2-2.7-.4-3.7.3a4.36,4.36,0,0,0,1.3,1.4c0,.4-.6.6-1.1.5-.8,0-1.6-.1-2.4-.1s-1.6,0-1.9.7a1.09,1.09,0,0,0,.4,1.3,3.36,3.36,0,0,0,1.4.5c2.6.4,5.5-.3,7.8,1.1a1.63,1.63,0,0,1-1.2,1.2,3.66,3.66,0,0,1-1.8,0c-1.9-.2-3.8-.4-5.8-.7-2.7-.3-5.7-.7-7.6-2.7.2-.9,1.7-.4,2.4-1-.2-.6-.8-.8-1.4-.9a4.73,4.73,0,0,1-1.7-.1,4.07,4.07,0,0,1-1.7-1.2,1.05,1.05,0,0,1,1-.8,3.4,3.4,0,0,1,1.4.2c2.4.7,5.1,1.3,7.4.3-.7-1-2.2-1.2-3.4-1.1s-2.7.1-3.6-.8l.9-.9a3,3,0,0,0-2.1-.8,26.35,26.35,0,0,0-2.8-.2,47.06,47.06,0,0,0-7.5-.3,11.48,11.48,0,0,1-1.9.1,1.94,1.94,0,0,1-1.6-.8c.4-.1.4-.8,0-1.1s-.8-.5-1-.9a1.25,1.25,0,0,1,.7-1.6,2.5,2.5,0,0,1,1.9,0,73.33,73.33,0,0,1,8.1,1.9c1,.3,1.9.6,2.9.8a29,29,0,0,0,7.8.2c1.1-.1,3.3-1.4,3-2.8a1.75,1.75,0,0,0-1.8-1.1,5.86,5.86,0,0,1-2.3-.1c-.8-.3-1.4-1.3-2.2-1.6a11,11,0,0,0-1.8-.2,5.15,5.15,0,0,1-2.9-1.3,8.08,8.08,0,0,0-1.6-1.6c-.9-.5-2-.3-2.9-.8a12.17,12.17,0,0,1-1.7-1.5c-1.1-.9-2.7-1-4.1-1.3-4.5-.7-8.9-2.6-13.4-2.1a3.6,3.6,0,0,0-2.2.9c-.1.2-.3.3-.2.5s.2.4.3.6a22.44,22.44,0,0,1,3.1,4.3,2.84,2.84,0,0,0-1.7.7,20.25,20.25,0,0,0,5.6,6.4,9.56,9.56,0,0,1,2.6,2.3,1.19,1.19,0,0,1-1.3.4,17.19,17.19,0,0,1-3.9-1c-1-.4-3.4-1.4-3.7-2.5s1.2-1.7.8-3c-.5-1.6-1.3-2.8-1.5-4.5.4-.3.2-.8-.1-1.2a10,10,0,0,0-1.1-1,2.22,2.22,0,0,1-.5-2.3,10.37,10.37,0,0,0,.4-1,2.85,2.85,0,0,0-.4-2.2,4.89,4.89,0,0,0-1.6-1.6l-3.4-2.8a13.44,13.44,0,0,0-1.4-1.1l-2.1-1.2c-.8-.4-1.7-.8-2.5-1.3a2.9,2.9,0,0,0-1.8-.5,5,5,0,0,0-1.3.5,1.09,1.09,0,0,1-1.2-.4c-.5-1.3-2.1-1.7-3.1-2.7-.4-.4-1-.8-1.5-.6a1.19,1.19,0,0,1-.5,1.6,7.64,7.64,0,0,1-1.5-2.6c0,.4-.6.6-.9.4a1.5,1.5,0,0,1-.7-.9c-.4-.8-.7-1.5-1.1-2.3l.5-.5c.6.2,1.1.5,1.6.7a3.54,3.54,0,0,1-.3-1.1.87.87,0,0,1,.6-.9c.5-.1,1,.4,1.3.9.7,1.2,1.5,2.3,2.2,3.5.6-.3.7-1.2.6-1.9-.3-2.5-1.4-5.1-.4-7.3.5.4,1.4.6,1.7.1.2-.3,0-.7-.1-1a4.19,4.19,0,0,1,.1-3.3,1.38,1.38,0,0,1,.3-.4.66.66,0,0,1,.6.1,9.41,9.41,0,0,1,2.2,1.2,7.81,7.81,0,0,0,2,1.1,4.82,4.82,0,0,0,1.2,0,15.3,15.3,0,0,0,5.2-1.3c.5-.2,1.1-.5,1.5-.2a1.09,1.09,0,0,1,.4.9,15.26,15.26,0,0,1,.3,3,.37.37,0,0,1-.1.3c-.1.2-.4.1-.6.1a17.67,17.67,0,0,1-1.7-1.2c-.6-.4-1.5-.5-1.8.1.3,1.2,1.4,1.9,2.2,2.9,1.1,1.4,1.4,3.3,2.4,4.8A7.35,7.35,0,0,0,99,465a30.83,30.83,0,0,0,6.7-.9,7.07,7.07,0,0,1,2.5-.2,12.59,12.59,0,0,0,2.7.4,3.1,3.1,0,0,0,1.8-.9,3.4,3.4,0,0,0,1.2-3.2c-.4-1.7-1.8-1.3-2.9-2-1.6-.9-.1-2.5.5-3.5a1.84,1.84,0,0,0,.2-2,1.65,1.65,0,0,0-2.1-.1,6.25,6.25,0,0,1-2,1,7.52,7.52,0,0,1-1.5,0,1.54,1.54,0,0,0-1.4.6,4.53,4.53,0,0,0-.3,1.6c-.2.9-1.2,1.4-2.1,1.8a11,11,0,0,1-3.5,1.1,2,2,0,0,1-.8-.1,1.06,1.06,0,0,1-.2-1.3,2.73,2.73,0,0,1,1.2-.9,6.54,6.54,0,0,0,2.6-1.7,2.12,2.12,0,0,0-.1-2.8,3.36,3.36,0,0,0-1.4-.5c-.5-.2-1-.5-1-1a.89.89,0,0,1,.8-1,1.52,1.52,0,0,1,1.3.3c.4.2.8.6,1.2.4a1.62,1.62,0,0,0,.5-.9,2.92,2.92,0,0,1,1.1-1.6,1.19,1.19,0,0,1,.7,1.5.67.67,0,0,0,1,.3,3.45,3.45,0,0,0,.9-.8,2.19,2.19,0,0,1,2.2-.3c1.6.7,2,3.2,3.6,3.8l1.2.3c.4.2.8.5.7.9a.76.76,0,0,1-.2.5,3.32,3.32,0,0,0-.5,1.6,2.34,2.34,0,0,0,.2,1.2,1,1,0,0,0,1,.5c1-.2.9-2,1.9-2.2.6-.1,1.1.5,1.6.9a6.8,6.8,0,0,0,4.6,1.6,27.43,27.43,0,0,1,5,.3,9.87,9.87,0,0,1,3.2,1.7c.4.3,1.6,1.3,2.2,1a.63.63,0,0,0,.3-.8,3.55,3.55,0,0,0-.4-.9,3.51,3.51,0,0,1-.5-2,1.86,1.86,0,0,1,1.2-1.6c.7-.2,1.5.2,2.1-.1.4-.2.6-.7,1-.9a1.72,1.72,0,0,1,1.4.1,5.24,5.24,0,0,1,1,1.1c.3.5.7.9,1,1.4.9,1.3,2.1,2.7,3.6,2.5,1.2-.1,2.1-1.2,3.2-1.7s2.7-.5,3.5-1.4a1,1,0,0,0,.3-1,1.79,1.79,0,0,0-.5-.7c-1.1-1.2-1.4-2.8-2-4.3s-1.5-3-3.1-3.4a4.94,4.94,0,0,0-2.7.3,18,18,0,0,0-2.1.8,4.18,4.18,0,0,1-1,.4,3.59,3.59,0,0,1-1.1-.2c-1.2-.4-2.5-1-3.7-.5a12.9,12.9,0,0,0-1.6.9c-.6.2-1.4.1-1.6-.5-.1-.3,0-.6-.1-.8-.2-.7-1.1-.9-1.9-.9-1.4,0-3.1-.2-3.7-1.4a3.81,3.81,0,0,1-.3-1c-.9-3.8-1.8-7.9-.3-11.5a5.78,5.78,0,0,0,.5-1.4,1.31,1.31,0,0,0-.6-1.2c-.5,0-.6.6-.6,1.1a3.31,3.31,0,0,1-1.4,2.1,1.57,1.57,0,0,1-.6-1.9c-.4-.2-.8.1-1,.5a2.46,2.46,0,0,0,.1,1.2c.4,1.4.7,2.8,1.1,4.1a12.76,12.76,0,0,1,.6,3.3,3.8,3.8,0,0,1-1.3,3c-.8-.5-.8-1.6-.9-2.5a18.68,18.68,0,0,0-1.5-6.6c-.4-.3-.3-1,0-1.4s.8-.7,1-1.1c.3-.8-.2-1.6-.3-2.4-.1-1.1.6-2.1,1-3.2s.3-2.5-.7-2.9c-.4.5-.8,1-1.2,1.6a1.39,1.39,0,0,0-2.2.8c-.1.6.3,1.1.5,1.7s.1,1.3-.4,1.5-1-.2-1.4-.5l-2.3-2a8.54,8.54,0,0,0,1.8-3.7,8,8,0,0,0-.6-3.7,2.73,2.73,0,0,0-.7-1.3,1.21,1.21,0,0,0-1.4-.1c-.9-.3-.8-1.7-1.5-2.4a4.45,4.45,0,0,0-2-.8c-.7-.2-1.5-.5-1.6-1.2a1.61,1.61,0,0,1,.9-1.7,10.38,10.38,0,0,0,1.7-1.2c.6-.6.7-1.5,1.3-2.1a2.66,2.66,0,0,1,2.6-.3,6,6,0,0,1,2.2,1.6c1.3,1.2,2.6,2.4,3.9,3.7a10.8,10.8,0,0,1,2.4,2.8c.6,1,.8,2.2,1.4,3.2a2.92,2.92,0,0,0,2.8,1.7c1.3-.2,2.2-1.5,3.5-1.5a1.61,1.61,0,0,1,1.1.5c1.5,1.3,1.3,3.7,1.9,5.5.6,1.6,1.8,2.9,2.4,4.5a2.42,2.42,0,0,1-.4,2.6c-.7.5-1.8.5-2.2,1.2s.1,1.7.7,2.4c1.5,1.8,3.1,3.6,4.8,5.3a9.48,9.48,0,0,0,4.3,2.8c-.2-.1-.3-.1-.5-.2a8.23,8.23,0,0,1,4.4,2.1,12.3,12.3,0,0,1,2.6,4.2,2.59,2.59,0,0,0,.7,1.1c.3.3.8.3,1.2.4a40.28,40.28,0,0,0,4.9.3,5.13,5.13,0,0,0,4-1.3c.4-.4.6-.8,1-1.2a2.92,2.92,0,0,1,3-.2c1,.4,1.8,1,2.8,1.5a12.57,12.57,0,0,0,6.4.6,35.75,35.75,0,0,0,5.7-1,3.68,3.68,0,0,0,2.3-1.2,6.71,6.71,0,0,0,.6-1.5,7.06,7.06,0,0,1,3-3.4,31.07,31.07,0,0,1,4.1-2,6.43,6.43,0,0,0,2.1-1.4c1.2-1.3,1.2-3.4,1.1-5.2-.7-.9,0-2.2.6-3.2a9.34,9.34,0,0,0,1.4-3.6,11.11,11.11,0,0,0-.1-2.6l-.6-5.1a11.08,11.08,0,0,0-.5-2.5c-.8-1.8-2.7-2.9-4-4.4-1.1-1.2-1.9-2.8-3.1-4a13.7,13.7,0,0,0-6.4-3.1c-1.2-.3-2.7-1-2.6-2.3a4.71,4.71,0,0,1,.6-1.5,3.45,3.45,0,0,0-.5-3.5c-.3-.4-.7-1-1.2-1.1s-1.3,0-1.9-.4a2.43,2.43,0,0,1-.9-1.8,3.3,3.3,0,0,1,.1-2.4c.6-1.1,2-1.3,3.1-1.7a9.45,9.45,0,0,0,2.3-1.6,3,3,0,0,0,1.1-1.4,2.77,2.77,0,0,0,.1-.9,9.7,9.7,0,0,0-.1-1.7c-.5-3.9.6-7.7,2.3-11.3a7.13,7.13,0,0,1,2.4-3c2.2-1.3,5.2-.6,7.3-2a3,3,0,0,0,.8-.8,14.88,14.88,0,0,0,2.4-6,9.12,9.12,0,0,1,.5-3.3c.8-1.4,2.7-2.2,3.1-3.7a3.79,3.79,0,0,0,0-1.5c-.2-1.6-.3-3.5.7-4.7.4-.5,1-.9,1.1-1.4a1.7,1.7,0,0,0,.1-.7,4.31,4.31,0,0,0-2.9-3.9c-1.9-.6-3.9-1.1-5.4-2.5a7,7,0,0,0-1.6-1.4,3,3,0,0,0-1.3-.2c-2.6-.2-5.2-.5-7.7-.8-1-.1-2.1-.3-2.8.3l-.9.9a2.8,2.8,0,0,1-2.2,0c-.9-.2-1.8-.5-2.8-.7a2.08,2.08,0,0,0-1.1-.1,3.51,3.51,0,0,0-.8.5c-1.1,1.1-1.8,2.4-3.4,2.8a10,10,0,0,1-3.8-.3l-2.5-.3-2.4-.3a13.4,13.4,0,0,0-2-.1,5.28,5.28,0,0,0-2.9,1.4,25,25,0,0,0-2.2,2.4c-1.6,2-2.7,4.1-4.2,6.2a8.06,8.06,0,0,1-1.2,1.4,6.09,6.09,0,0,1-3.1,1.3c-1.1.2-2.3.3-3.4.4-2.4.4-4.6,1.3-7,1.6-2.6.2-4.9,1.2-7.4,1.7l-1.3.3a5.78,5.78,0,0,0-1.4.5,25.81,25.81,0,0,0-11.1,7.5,1.19,1.19,0,0,0,.9.5h1.1a6.93,6.93,0,0,1,2,.3c1.9.5,4,1.3,5,3,.8,1.4.4,2.5.1,4a6.1,6.1,0,0,0,.1,3,22.59,22.59,0,0,1,1.1,3.7,9.22,9.22,0,0,1-.7,3.6c-.4,1-.7,2.1-1.1,3.1a55.22,55.22,0,0,0-2.1,9.8c-.3,1.8-.3,3.3-1.4,4.8-.1.1-.2.3-.4.3s-.6-.2-.7-.5c-1.1-2.7,1-5.7.8-8.6-.1-1.2-.6-2.5,0-3.6a7.63,7.63,0,0,1,.8-1.1c.8-1.3.4-3,.3-4.5a15.19,15.19,0,0,1,1.1-7.6,9,9,0,0,0,.8-2.3,2.44,2.44,0,0,0-.6-2.2,3.38,3.38,0,0,0-2-.6c-2.1-.2-4.2-.3-6.2-.5-1.4-.1-3.2-.1-3.9,1.2a2.09,2.09,0,0,1-.4.6,1.27,1.27,0,0,1-.6.1c-1.4-.1-2.7-1.7-4-1.2a3.33,3.33,0,0,0-1.1.9,12.83,12.83,0,0,1-3,1.7,11.33,11.33,0,0,0-3,2.4,2.92,2.92,0,0,0-.6,3.3,5.89,5.89,0,0,0,1,2.6,2.36,2.36,0,0,0,2.4,1.1,4.51,4.51,0,0,1,1.1-.3A1.87,1.87,0,0,1,100,385a4.22,4.22,0,0,1,.3,1.9v5.2a6.15,6.15,0,0,1-.2,1.9,1.89,1.89,0,0,1-1.3,1.3c-.9-1-.6-2.6-.7-3.9a7.33,7.33,0,0,0-1.2-3.5,3.26,3.26,0,0,0-2.7-1.7,2.15,2.15,0,0,1-.8,0c-.5-.2-.4-.9-.5-1.5a2.84,2.84,0,0,0-1.3-2.1,9.73,9.73,0,0,0-2.3-1.1,11.09,11.09,0,0,0-4-.9,1.34,1.34,0,0,1-.9-.2c-.1-.2-.1-.4-.2-.6,0-.7-.1-1.4-.1-2a1.36,1.36,0,0,0-.1-1.7c-.1-.2-.3-.4-.3-.6-.1-.7.7-1.3.8-2.1a1.31,1.31,0,0,0-.6-1.2c-.7.1-1,1-1.6,1a.88.88,0,0,1-.8-.9,2.66,2.66,0,0,1,.3-1.2c2.7-5.9,5.5-11.8,7.9-17.9.2-.4.2-.9-.1-1.1a.66.66,0,0,0-.7.2,27,27,0,0,0-5.6,5.6c-4.6,5.5-9.4,10.9-14.4,16a2.63,2.63,0,0,1-1.4.9,3.26,3.26,0,0,1,0-1.7,19.64,19.64,0,0,1,1.7-4.6,11.29,11.29,0,0,0,1.2-4.7v-.1A98.5,98.5,0,0,0,87.54,485.6Zm11.7-69.2c.6-.4,1.3,0,1.9.4a9.21,9.21,0,0,1,3,3.2c.7,1.1,1.2,2.3,2.3,3s2.3.8,3.4,1.3a1.85,1.85,0,0,1,1.2,1.5,2.53,2.53,0,0,1-1,1.7c-.4.4-.9.8-1.3,1.2A5.5,5.5,0,0,1,107,430a2,2,0,0,1-2.9-2.3c.1-.6.4-1.2.5-1.8a1.08,1.08,0,0,0-.9-1.3,1.52,1.52,0,0,0-1,.6c-.4.4-.8.9-1.2,1.3s-.7.7-1.1.7c-.8,0-1.2-1-1.9-1.4,0-.8.8-1.3,1.2-1.9a3.57,3.57,0,0,0,.5-2.5,8.47,8.47,0,0,0-.8-2.4,5.78,5.78,0,0,1-.5-1.4A.93.93,0,0,1,99.24,416.4Zm-8.3-12.2c.6-.2,1.2.4,1.7.8.7.7,1.4,1.6,1.2,2.5a4.88,4.88,0,0,1-.3.7,15.24,15.24,0,0,0-1.2,3.6,10.1,10.1,0,0,0-.3,1.7,11.48,11.48,0,0,0,.6,3.7,1.27,1.27,0,0,1,.1.6,2.09,2.09,0,0,1-.4.6,5.94,5.94,0,0,1-3.7,1.3.37.37,0,0,1-.3-.1l-.3-.3a4.67,4.67,0,0,1-.5-1c0-.1-.1-.2-.1-.3s.1-.2.2-.3c.6-.6,1.1-1.2,1.7-1.8a1.27,1.27,0,0,0,.4-.6,1.18,1.18,0,0,0-.1-.8c-.2-.6-.5-1.1-.7-1.7a2.25,2.25,0,0,1,0-1.8c.2-.5.7-.8,1-1.2a4,4,0,0,0,.4-3.2,3.81,3.81,0,0,1-.1-1.5A.83.83,0,0,1,90.94,404.2Zm-8.6,8.5c.1,0,.1.1.2.1a4.87,4.87,0,0,0-.1,1.2,2.72,2.72,0,0,1,0,.9,1.51,1.51,0,0,1-1.1,1.2,4.17,4.17,0,0,1-.6-.8,5,5,0,0,1,.2-1.2c.1-.2.1-.5.3-.7A1.9,1.9,0,0,1,82.34,412.7Z"/><path class="cls-2" d="M228.14,449.3a5.75,5.75,0,0,1,.5,2.6,18.43,18.43,0,0,0-.5,2.5c0,1.2.9,2.5.3,3.5-.1.2-.4.5-.5.7-.2.5.1,1.1,0,1.7-.2.8-1,1.2-1.7,1.6-1.4.8-2,2.1-2.8,3.4-1.3,2.2-1.5,4.7-2,7.2s-1.3,5.1-3.3,6.6a7.63,7.63,0,0,0-1.7,1.3c-1.1,1.5-.3,3.7-1,5.3-.6,1.3-2,2-2.6,3.2.1.3.5.4.8.5,1.9.4,3.7-.5,5.5-1a90.82,90.82,0,0,0,7.1-6.8,98,98,0,0,0,26.7-66.6,9.09,9.09,0,0,0-1.8,2.1c-1.1,2.2-1.2,4.8-2.7,6.8-.2.2-.4.5-.7.5-.5.1-1-.4-1.3-.8s-.6-1-1.2-1.1-1.1.3-1.6.8a26.56,26.56,0,0,0-3.7,5.1,8.58,8.58,0,0,1-1.3,2,2.33,2.33,0,0,1-1.7,1,16.41,16.41,0,0,0-6.1,2.5,7,7,0,0,0-3.1,4.8A21.15,21.15,0,0,0,228.14,449.3Z"/><path class="cls-2" d="M122.44,322.7a8.47,8.47,0,0,0-1.9,1.4l-.1.1v.1c0,.1.2.2.3.2a5.41,5.41,0,0,0,2.8-.3c.6-.2,1.2-.3,1.7-.5a4.68,4.68,0,0,1,1.7-.2h.5c.2,0,.3.1.5.2a.76.76,0,0,1,.2.4c0,.7-1.4,1.1-1.9,1.2a20.48,20.48,0,0,1-2.4.5,15.54,15.54,0,0,0-2.3.5c-.4.1-.7.3-1.1.4a1.33,1.33,0,0,0-1,.6c0,.1-.1.1-.1.2a.1.1,0,0,0,.1.1c.3.2,1-.1,1.3-.2a104.58,104.58,0,0,1,12.3-1.9,23.81,23.81,0,0,1,3.8-.1c1.3.1,2.5.5,3.8.6,2.8.3,5.7-.4,8.5-1a98.11,98.11,0,0,1,16.2-1.9c.9,0,2.3,0,3-.7.4-.4-.2-.7-.5-.9s-.4-.4-.7-.6a9.68,9.68,0,0,0-2.4-.8l-3-.6a5,5,0,0,1-2.6-1.1c-.1-.1-.1-.1-.1-.2-.2-.5,1.1-1.4,1.5-1.6a3,3,0,0,1,1-.4,98.63,98.63,0,0,0-35.8,4.2,5.5,5.5,0,0,1-.9.7A14.26,14.26,0,0,1,122.44,322.7Z"/></g><path class="cls-3" d="M653.64,29.7H481.34a10.46,10.46,0,0,0-10.4,10.4v63.5a10.46,10.46,0,0,0,10.4,10.4H551a13.84,13.84,0,0,1-3.7,9.3s11.8-.2,16-9.3h90.4a10.46,10.46,0,0,0,10.4-10.4V40.1A10.54,10.54,0,0,0,653.64,29.7Z"/><path class="cls-4" d="M541.54,53.4h-40.8a2.2,2.2,0,1,0,0,4.4h40.8a2.2,2.2,0,1,0,0-4.4Z"/><path class="cls-4" d="M643.64,68.4h-143a2.2,2.2,0,1,0,0,4.4h143a2.22,2.22,0,0,0,2.2-2.2A2.1,2.1,0,0,0,643.64,68.4Z"/><path class="cls-4" d="M643.64,81.7h-143a2.2,2.2,0,1,0,0,4.4h143a2.22,2.22,0,0,0,2.2-2.2A2.16,2.16,0,0,0,643.64,81.7Z"/><line class="cls-5" x1="595.14" y1="523.1" x2="773.84" y2="523.1"/><line class="cls-5" x1="705.34" y1="534" x2="799.84" y2="534"/><line class="cls-5" x1="316.84" y1="529.5" x2="488.54" y2="529.5"/><line class="cls-5" x1="467.74" y1="361.4" x2="579.44" y2="361.4"/><line class="cls-5" x1="567.34" y1="375" x2="604.84" y2="375"/><line class="cls-5" x1="456.74" y1="365.3" x2="492.04" y2="365.3"/><line class="cls-5" x1="298.84" y1="534" x2="337.84" y2="534"/><line class="cls-5" x1="430.04" y1="544.9" x2="519.24" y2="544.9"/><path class="cls-6" d="M433.44,215H313.74a9.71,9.71,0,0,0-9.7,9.7v55a9.71,9.71,0,0,0,9.7,9.7h13.6c4.2,9.1,16,9.3,16,9.3a13.84,13.84,0,0,1-3.7-9.3h93.9a9.71,9.71,0,0,0,9.7-9.7v-55A9.8,9.8,0,0,0,433.44,215Z"/><path class="cls-7" d="M397.54,234.6h-47.9a2.2,2.2,0,0,0,0,4.4h47.9a2.2,2.2,0,0,0,0-4.4Z"/><path class="cls-7" d="M422.24,249.7h-97.3a2.2,2.2,0,0,0,0,4.4h97.3a2.2,2.2,0,0,0,0-4.4Z"/><path class="cls-7" d="M428.34,263H318.84a2.2,2.2,0,0,0,0,4.4h109.4a2.22,2.22,0,0,0,2.2-2.2A2.07,2.07,0,0,0,428.34,263Z"/><path class="cls-8" d="M520.14,349.6v11.6l19.2-1c2.8-.1,5.5-2.1,7.2-5.2Z"/><path class="cls-9" d="M443.74,364.8l19.2-7.7,4.7,2.2,10.8-7.9-7.9-14.4L435,363C437.94,365.2,441.24,365.8,443.74,364.8Z"/><path class="cls-10" d="M548.64,211.1a59.83,59.83,0,0,1-19.3-27.9c-8.4-26-34.7-27.4-34.7-27.4s-16.5-2.4-27.9,10.4a42.59,42.59,0,0,1-16,11.5c-6.9,2.8-14.8,8.4-15.7,19.7-1.7,20.3,12.9,32.2-9.7,48.2s-18.5,67.1,46.4,48.8l-23.2-44.7,30.1-2.3s51.7,15,56.3,14,22-2.4,24.3-26.7C560.44,223.8,555,216.2,548.64,211.1Z"/><path class="cls-11" d="M429.64,269.8c-17.8-2-42.5-15.5-44.3-17s-.8-5.6-.8-6.7,2.1-6.3.6-7.6-4.1,5.3-4.1,5.3-9.4-5.7-14.5-10.4-4.5,7.6-3.3,11.6,7.7,7.6,12.5,10.1c0,0,45.7,39.3,58.9,35.3,9.1-2.8,18.9-26.3,18.9-26.3l-14.4-11.9Z"/><path class="cls-12" d="M552.54,269.8c17.8-2,42.5-15.5,44.3-17s.8-5.6.8-6.7-2.1-6.3-.6-7.6,4.1,5.3,4.1,5.3,9.4-5.7,14.5-10.4,4.5,7.6,3.3,11.6-7.7,7.6-12.5,10.1c0,0-45.7,39.3-58.9,35.3-9.1-2.8-18.9-26.3-18.9-26.3l14.5-11.9Z"/><path class="cls-13" d="M563.94,297.2c-8-.3-65.6,8.9-65.6,8.9l.1,13.7-2.8-2-22.5-3.7-45.4-8.9,2.2,16.8,8,11,15.9,4.5,27.1,10.4,20.6-.1.4-2.9,19.9-6.9s22.6-5.8,23.6-6.3S571.94,297.5,563.94,297.2Z"/><path class="cls-14" d="M525.54,276.6a21,21,0,0,0,6-19.3s-.5-34.3-7.8-35.3-24.3,0-24.3,0l-7.5,5-7.5-5s-17-1-24.3,0-7.8,35.3-7.8,35.3a21,21,0,0,0,6,19.3c8.8,8.5-2,48.8-2,48.8s9,6.5,35.5,6.5,35.5-6.5,35.5-6.5S516.84,285.1,525.54,276.6Z"/><path class="cls-15" d="M512,176.8l-20-1.7-20,1.7s-2.9,31.1,11,40.4a31.65,31.65,0,0,1,0,6.9c-1.3.7-2,1.6-2,2.5,0,2.4,4.9,4.3,11,4.3s11-1.9,11-4.3c0-.9-.7-1.8-2-2.5a39.37,39.37,0,0,1,0-6.9C514.94,207.9,512,176.8,512,176.8Z"/><path class="cls-16" d="M471.84,188.6s8.8-.8,15.8-11.5c0,0,3,9.8,12,11.5a15.29,15.29,0,0,1,11.6,8.8s12.4-16.8,6.5-26.6-16.1-17.3-29.4-14.5S459.54,172.4,471.84,188.6Z"/><path class="cls-17" d="M460.64,280.2c4.6-16,3-35.4,3-35.4l-10.8,5.1c-.3,4.3-.3,7.4-.3,7.4a21,21,0,0,0,6,19.3A9,9,0,0,1,460.64,280.2Z"/><path class="cls-18" d="M432.84,258.4s15.3-36,26.2-35.6,3.3,36.4-2.2,45.9C456.84,268.6,440.84,268.6,432.84,258.4Z"/><path class="cls-19" d="M531.54,257.4v-.7l-2.8-3.8-8.5,1.1a97.63,97.63,0,0,0,2.7,27.5,10.32,10.32,0,0,1,2.5-4.9A20.71,20.71,0,0,0,531.54,257.4Z"/><path class="cls-20" d="M549.34,258.4s-15.3-36-26.2-35.6-3.3,36.4,2.2,45.9C525.34,268.6,541.34,268.6,549.34,258.4Z"/><path class="cls-21" d="M488.34,351.4s54.3-41,61-46,15.3-13.3,24.6-3.3,6.7,17.3-5,27.7-49,31.7-49,31.7h-31.7V351.4Z"/><path class="cls-22" d="M513.94,361.2s-68.8-44.1-75.5-49.1-15.3-13.3-24.6-3.3-6.7,17.3,5,27.7,50.8,25,50.8,25H508Z"/><path class="cls-23" d="M322.24,471.5l43.9,4.6h50.3l13.7-2.3,41.6-15.6s-10.2,24.9-11.2,25.2-38.1,12-38.1,12-28.6-3-33.6-2.3-41-6.3-41-6.3l-22.3-8.3Z"/><path class="cls-24" d="M336.54,526.9l19.2-7.7,4.7,2.2,10.8-7.9-7.9-14.4-35.5,26C330.74,527.3,334,527.9,336.54,526.9Z"/><path class="cls-25" d="M459,519.5l-20.3-3.7-4.2,3.1-12.1-5.6,4.9-15.7,39.9,18.5C464.84,518.7,461.84,520,459,519.5Z"/><path class="cls-26" d="M365.44,385.3s-18,7.5-29,36.5-15,36-12,40.3a14.14,14.14,0,0,0,13.9,5.7c5.5-1,25.6-16,27.1-19s10.5-23.6,10.5-23.6Z"/><path class="cls-27" d="M425.34,382.8s18,7.5,29,36.5,15,36,12,40.3-14.5,6.7-20,5.7-19.5-16-21-19-10.5-23.6-10.5-23.6Z"/><path class="cls-28" d="M419.54,324.1l-22.8-1.9-22.8,1.9s-3.3,35.4,12.5,46a89.35,89.35,0,0,1,.1,12.7H407c-.4-3-.1-9.9.1-12.7C422.74,359.5,419.54,324.1,419.54,324.1Z"/><path class="cls-29" d="M360.84,481.8s-38.7-11-41-10.7-12.7,9.3-9.7,17.7,56.7,37.3,60.7,38.7,23.7,2,29.7,2h23.3s5-.7,12-6,44.7-39.7,48.3-45.3,7.7-11.1,0-17-11-5-20,2.4-46.7,16.7-46.7,16.7Z"/><path class="cls-30" d="M357.14,495.5s8-30.7,2.7-60.7-6.3-49.3,14.3-52.3,56-5.2,59.7,8.2-.3,35.1-3,49.1,3,47.8,6,53.5C436.84,493.3,398.84,516.8,357.14,495.5Z"/><path class="cls-31" d="M377.94,306a4.4,4.4,0,0,1-2.4,2.6,12,12,0,0,1-2,.3,11.26,11.26,0,0,0-4.3,1.3c-.1,1.8-.2,3.7-.3,5.5a4.23,4.23,0,0,1-.7,2.7c-1,1.1-3,1-4,2.1-1.5,1.7-.8,6.6-.3,8.7.4,1.8,1.3,3.6,1,5.5-.2,1.5-1.2,2.8-1.6,4.3a6.1,6.1,0,0,0,2,6.1c.8.6,1.7,1,2.5,1.6,2.5,2,2.9,5.4,4.1,8.1a16.39,16.39,0,0,0,6.3,6.5,4.92,4.92,0,0,0,1.7.6c1.7.1,3-1.6,4.8-2,2.2-.4,4.1,1.5,6.1,2.6a8.19,8.19,0,0,0,8.4-.6c1-.7,1.9-1.8,3.1-2.2,3-1.2,6.1,1.6,9.4,2.1,6.4.9,7.5-6,11-9.5,1.3-1.3,2.8-2.5,3.5-4.1.9-2.2.2-4.7,1.2-6.8.8-1.6,2.5-2.8,2.7-4.5.3-2.6-2.8-4.5-3.4-7.1s1.3-5,2-7.6a7.81,7.81,0,0,0-3.5-8.4c-1.6-1-3.6-1.3-5.1-2.4-3-2.1-4.4-6.6-8.1-7.2-1.6-.3-3.2.3-4.7.2-2.9-.1-5.4-1.8-8.1-2.7s-5.1-.5-7.8-.4c-4.3.1-10.7-1.3-12.7,3.7C378.34,305.1,378.14,305.5,377.94,306Z"/><path class="cls-32" d="M620.74,516.6l20-5.2,2.5-4.6h13.4l2.1,16.3h-44C615.84,519.7,618,517.3,620.74,516.6Z"/><path class="cls-33" d="M636.34,270.6c-3.3-.1-45.1-43-47.2-44.9s-15.6-4.6-20.2-9.8,1.5-8.7,1.5-8.7l16.2,5.1s.6-7.5,2.3-5.7,4.1,9.9,5.4,10.3,42.9,32.5,42.9,32.5l10.7-20.5,14.5,22.6S649.74,271.1,636.34,270.6Z"/><path class="cls-34" d="M663.64,191.7s-8.4-.6-18.8,36.4c0,0,2.1,14,12.4,22.3s8.3-33.5,8.3-33.5Z"/><path class="cls-35" d="M730.14,315.1s1.2,86.3,1.7,100.3c0,0,5.5,34.5-4.6,70l-4,22.5s-5.5,4.5-13.5,0c0,0-1.9-90-2.9-96s-16.4-94.5-16.4-94.5Z"/><path class="cls-36" d="M702.74,316.6s-19.1,88.6-21.2,102.4c0,0-1,34.9-17.4,68L656,508.4s-6.2,5.2-13.3-.7c0,0,14.7-90.6,14.8-96.7s1.3-95.9,1.3-95.9Z"/><path class="cls-37" d="M723.74,507.5a5.81,5.81,0,0,0-1.6-1.9c-3.9-3.2-10.4-3.1-13.2,1.8-.1.2-3.8,6.5-5.2,8.2s-3,2.8-3,7.5h24.5c.3-2.7-.4-5.5-.3-8.3C725,512.4,724.94,509.7,723.74,507.5Z"/><path class="cls-38" d="M752.44,194.8l13.3,1.3s22-47.7,23-48.7-.7-9.3,0-11.7,4.7,4,4.7,4l12-12s7,.3,5.3,7-12.3,15.3-13.3,18-18.3,59.7-21,61.7-34,0-34,0Z"/><path class="cls-39" d="M659.44,195.7c2.3-7.3,24.3-8,24.3-8h15.7c28-3.5,29.6,1.1,29.7,1.6v.1l-2,34c-7.7,35.3,7.7,95,7.7,95-31,18-78.6,3.3-78.6,3.3S657.14,203,659.44,195.7Z"/><path class="cls-40" d="M655.94,183.2l-1.3-12.7-3.7-.4,1.2-23.9c39.2-1.8,31.2,12.1,35,16.7,2.5,3.1,7.7,15.9,10.8,24a5.33,5.33,0,0,1,3.1,3.5c.9,3.8-3.8,8.1-10.4,9.6s-12.6-.4-13.5-4.2a5.17,5.17,0,0,1,.9-3.9l-2.4-10.2Z"/><path class="cls-41" d="M640.94,128.8c.9-4,4.3-7.6,8.3-8.2a18.59,18.59,0,0,1,4.7.1c7.6.7,15.1,1.5,22.7,2.2,5.9.6,10.2,2.4,15.2,5.6,12.8,8.2,16.8,26.3,9.1,39.4-.4.6-8.3,9.4-8.6,8.8l-6.4-15.8-3.8,2.8-1.5-.7c-.3-4.4-2.2-8.1-6.8-8.7a59.17,59.17,0,0,1-16.4-4.7c-4.6-2-10.4-4.2-13.6-8.4a2.09,2.09,0,0,1-.4-.6A15.86,15.86,0,0,1,640.94,128.8Z"/><path class="cls-42" d="M728.24,205.4l-10.9,2.8v4.2l9.1,14.9c.2-1.3.5-2.6.7-3.9Z"/><path class="cls-43" d="M756.34,193.6s-11.7-5.3-42.2-7.2l3.5,28s30.2,2.4,34.7,2.4C752.34,216.9,756.84,207.8,756.34,193.6Z"/><path class="cls-4" d="M779.54,95.1a31.22,31.22,0,0,1-20.7,29.3V65.8A31.22,31.22,0,0,1,779.54,95.1Z"/><path class="cls-2" d="M758.74,124.4a32,32,0,0,1-10.4,1.8,30.33,30.33,0,0,1-10.4-1.8V65.8a32,32,0,0,1,10.4-1.8,29.92,29.92,0,0,1,10.4,1.8Z"/><path class="cls-44" d="M738,65.8v58.6c-1.4-.5-2.7-1.1-4-1.7-7.1,5.9-13.9,3.5-13.9,3.5,3.5-1,5.7-5.2,6.9-8.6a31,31,0,0,1-9.7-22.5h0A31.09,31.09,0,0,1,738,65.8Z"/><path class="cls-45" d="M314.84,350.7h-58.7a31.06,31.06,0,0,1,58.7,0Z"/><path class="cls-46" d="M316.54,360.9a31.69,31.69,0,0,1-1.9,10.7h-58.4a31.26,31.26,0,0,1-.2-20.9h58.7A29.21,29.21,0,0,1,316.54,360.9Z"/><path class="cls-47" d="M306.84,383.5c1.2,3.3,3.4,7.6,6.9,8.6,0,0-6.8,2.4-13.9-3.5a31.58,31.58,0,0,1-14.4,3.5,31.06,31.06,0,0,1-29.2-20.4h58.4A31.23,31.23,0,0,1,306.84,383.5Z"/><path class="cls-2" d="M386.44,117.3a31.07,31.07,0,0,1,31.1,31.1,30.63,30.63,0,0,1-9.7,22.5c1.2,3.3,3.4,7.6,6.9,8.6,0,0-6.8,2.4-13.9-3.5a31.58,31.58,0,0,1-14.4,3.5,31.1,31.1,0,0,1,0-62.2Z"/><circle class="cls-48" cx="386.44" cy="148.6" r="12.7"/><path class="cls-49" d="M113,54.1s79.3-20.3,101.5,31.8-39.3,59.2-36.5,38.3c3.2-23.6,54.9-11.9,66.9-5.5,23.5,12.6,34.2,40.5,55.7,55.7,23.2,16.3,52.5,21,80.2,21.4"/><polygon class="cls-50" points="29.24 61.9 98.74 35.6 94.74 50.2 29.24 61.9"/><polygon class="cls-51" points="29.24 61.9 94.74 50.2 108.34 70 29.24 61.9"/><polygon class="cls-52" points="29.24 61.9 90.74 68.2 81.14 88.6 29.24 61.9"/><polygon class="cls-53" points="90.74 68.2 88.44 73 108.34 70 90.74 68.2"/></g></svg>