<svg id="Ebene_1" data-name="Ebene 1" xmlns="http://www.w3.org/2000/svg" xmlns:xlink="http://www.w3.org/1999/xlink" width="850" height="580" viewBox="0 0 850 580"><defs><style>.cls-1{fill:url(#Unbenannter_Verlauf_69);}.cls-2{fill:#79b9cc;}.cls-3{fill:url(#Unbenannter_Verlauf_71);}.cls-4{fill:url(#Unbenannter_Verlauf_95);}.cls-5{fill:url(#Unbenannter_Verlauf_80);}.cls-6{fill:url(#Unbenannter_Verlauf_79);}.cls-7{fill:url(#Unbenannter_Verlauf_78);}.cls-8{fill:url(#Unbenannter_Verlauf_71-2);}.cls-9{fill:url(#Unbenannter_Verlauf_95-2);}.cls-10{fill:url(#Unbenannter_Verlauf_77);}.cls-11{fill:url(#Unbenannter_Verlauf_76);}.cls-12{fill:url(#Unbenannter_Verlauf_75);}.cls-13{fill:url(#Unbenannter_Verlauf_71-3);}.cls-14{fill:url(#Unbenannter_Verlauf_95-3);}.cls-15{fill:url(#Unbenannter_Verlauf_74);}.cls-16{fill:url(#Unbenannter_Verlauf_73);}.cls-17{fill:url(#Unbenannter_Verlauf_72);}.cls-18{fill:url(#Unbenannter_Verlauf_71-4);}.cls-19{fill:url(#Unbenannter_Verlauf_95-4);}.cls-20{fill:url(#Unbenannter_Verlauf_71-5);}.cls-21{fill:url(#Unbenannter_Verlauf_70);}.cls-22{fill:url(#Unbenannter_Verlauf_69-2);}.cls-23{fill:url(#Unbenannter_Verlauf_68);}.cls-24{fill:#b4b7db;}.cls-25{fill:#bcbedf;}.cls-26{fill:#c3c6e2;}.cls-27{fill:#cbcde6;}.cls-28{fill:#d3d5e9;}.cls-29{fill:#dbdced;}.cls-30{fill:#e2e4f0;}.cls-31{fill:#eaebf4;}.cls-32{fill:#fff;}.cls-33{fill:url(#Unbenannter_Verlauf_67);}.cls-34{fill:url(#Unbenannter_Verlauf_95-5);}.cls-35{fill:url(#Unbenannter_Verlauf_66);}.cls-36{fill:url(#Unbenannter_Verlauf_65);}.cls-37{fill:url(#Unbenannter_Verlauf_95-6);}.cls-38{fill:url(#Unbenannter_Verlauf_137);}.cls-39{fill:url(#Unbenannter_Verlauf_98);}.cls-40{fill:url(#Unbenannter_Verlauf_132);}.cls-41{fill:url(#Unbenannter_Verlauf_63);}.cls-42{fill:#f1f2f2;}.cls-43{fill:url(#Unbenannter_Verlauf_63-2);}.cls-44{fill:url(#Unbenannter_Verlauf_76-2);}.cls-45{fill:#282a55;}.cls-46{fill:#ed9d9d;}.cls-47{fill:url(#Unbenannter_Verlauf_132-2);}.cls-48{fill:url(#Unbenannter_Verlauf_132-3);}.cls-49{fill:url(#Unbenannter_Verlauf_63-3);}.cls-50{fill:url(#Unbenannter_Verlauf_61);}.cls-51{fill:url(#Unbenannter_Verlauf_60);}.cls-52{fill:url(#Unbenannter_Verlauf_58);}.cls-53{fill:url(#Unbenannter_Verlauf_56);}.cls-54{fill:url(#Unbenannter_Verlauf_33);}.cls-55{fill:url(#Unbenannter_Verlauf_32);}.cls-56{fill:url(#Unbenannter_Verlauf_31);}.cls-57{fill:url(#Unbenannter_Verlauf_28);}.cls-58{fill:url(#Unbenannter_Verlauf_26);}.cls-59{fill:url(#Unbenannter_Verlauf_20);}.cls-60{fill:url(#Unbenannter_Verlauf_19);}.cls-61{fill:url(#Unbenannter_Verlauf_44);}.cls-62{fill:url(#Unbenannter_Verlauf_17);}.cls-63{fill:url(#Unbenannter_Verlauf_16);}.cls-64{fill:url(#Unbenannter_Verlauf_15);}.cls-65{fill:url(#Unbenannter_Verlauf_48);}.cls-66{fill:url(#Unbenannter_Verlauf_13);}.cls-67{fill:url(#Unbenannter_Verlauf_50);}.cls-68{fill:url(#Unbenannter_Verlauf_51);}.cls-69{fill:url(#Unbenannter_Verlauf_52);}.cls-70{fill:url(#Unbenannter_Verlauf_53);}.cls-71{fill:url(#Unbenannter_Verlauf_54);}.cls-72{fill:url(#Unbenannter_Verlauf_55);}.cls-73{fill:url(#Unbenannter_Verlauf_95-7);}.cls-74{fill:url(#Unbenannter_Verlauf_57);}.cls-75{opacity:0.9;}.cls-76{fill:#f8fffd;}.cls-77{fill:#f1f8f6;}.cls-78{fill:#ebf1ef;}.cls-79{fill:#e4e9e9;}.cls-80{fill:#dde2e2;}.cls-81{fill:#d7dbdb;}.cls-82{fill:#d0d4d4;}.cls-83{fill:#c9ccce;}.cls-84{fill:#c3c5c7;}.cls-85{fill:#bcbec0;}.cls-86{fill:url(#Unbenannter_Verlauf_62);}.cls-87{fill:url(#Unbenannter_Verlauf_59);}.cls-88{fill:url(#Unbenannter_Verlauf_62-2);}.cls-89{fill:url(#Unbenannter_Verlauf_62-3);}.cls-90{fill:url(#Unbenannter_Verlauf_62-4);}.cls-91{opacity:0.8;fill:url(#Unbenannter_Verlauf_83);}.cls-134,.cls-91{isolation:isolate;}.cls-92{fill:url(#Unbenannter_Verlauf_64);}.cls-93{fill:url(#Unbenannter_Verlauf_84);}.cls-94{fill:#0f152b;}.cls-95{fill:#a7a9ac;}.cls-96{fill:url(#Unbenannter_Verlauf_90);}.cls-97{fill:url(#Unbenannter_Verlauf_90-2);}.cls-98{fill:url(#Unbenannter_Verlauf_87);}.cls-99{fill:url(#Unbenannter_Verlauf_88);}.cls-100{fill:#f79a97;}.cls-101{fill:url(#Unbenannter_Verlauf_90-3);}.cls-102{fill:url(#Unbenannter_Verlauf_98-2);}.cls-103{fill:url(#Unbenannter_Verlauf_90-4);}.cls-104{fill:#f9aaaa;}.cls-105{fill:url(#Unbenannter_Verlauf_98-3);}.cls-106{fill:#e6e7e8;}.cls-107{fill:#6a4123;}.cls-108{fill:url(#Unbenannter_Verlauf_98-4);}.cls-109{fill:url(#Unbenannter_Verlauf_84-2);}.cls-110{fill:#10122b;}.cls-111{fill:url(#Unbenannter_Verlauf_90-5);}.cls-112{fill:url(#Unbenannter_Verlauf_90-6);}.cls-113{fill:url(#Unbenannter_Verlauf_87-2);}.cls-114{fill:url(#Unbenannter_Verlauf_88-2);}.cls-115{fill:url(#Unbenannter_Verlauf_90-7);}.cls-116{fill:url(#Unbenannter_Verlauf_90-8);}.cls-117{fill:url(#Unbenannter_Verlauf_82);}.cls-118{fill:url(#Unbenannter_Verlauf_83-2);}.cls-119{fill:url(#Unbenannter_Verlauf_84-3);}.cls-120{fill:url(#Unbenannter_Verlauf_90-9);}.cls-121{fill:url(#Unbenannter_Verlauf_90-10);}.cls-122{fill:url(#Unbenannter_Verlauf_87-3);}.cls-123{fill:url(#Unbenannter_Verlauf_88-3);}.cls-124{fill:url(#Unbenannter_Verlauf_90-11);}.cls-125{fill:url(#Unbenannter_Verlauf_90-12);}.cls-126{fill:url(#Unbenannter_Verlauf_91);}.cls-127{fill:url(#Unbenannter_Verlauf_95-8);}.cls-128{fill:url(#Unbenannter_Verlauf_94);}.cls-129{fill:url(#Unbenannter_Verlauf_94-2);}.cls-130{fill:url(#Unbenannter_Verlauf_95-9);}.cls-131{fill:url(#Unbenannter_Verlauf_98-5);}.cls-132{fill:url(#Unbenannter_Verlauf_98-6);}.cls-133{fill:url(#Unbenannter_Verlauf_98-7);}.cls-134{opacity:0.7;fill:url(#Unbenannter_Verlauf_99);}</style><linearGradient id="Unbenannter_Verlauf_69" x1="328.51" y1="456.76" x2="426.95" y2="286.27" gradientTransform="matrix(1, 0, 0, -1, -11.25, 652)" gradientUnits="userSpaceOnUse"><stop offset="0.02" stop-color="#e3e8f9"/><stop offset="0.1" stop-color="#e5eaf9" stop-opacity="0.95"/><stop offset="0.25" stop-color="#eaeefa" stop-opacity="0.82"/><stop offset="0.45" stop-color="#f2f4fc" stop-opacity="0.6"/><stop offset="0.69" stop-color="#fdfdff" stop-opacity="0.31"/><stop offset="0.74" stop-color="#fff" stop-opacity="0.25"/><stop offset="1" stop-color="#fff" stop-opacity="0"/></linearGradient><linearGradient id="Unbenannter_Verlauf_71" x1="192.42" y1="555.09" x2="192.43" y2="555.09" gradientTransform="matrix(1, 0, 0, -1, 0, 652)" gradientUnits="userSpaceOnUse"><stop offset="0" stop-color="#2f90d6"/><stop offset="1" stop-color="#33d1ea"/></linearGradient><linearGradient id="Unbenannter_Verlauf_95" x1="173.03" y1="446.8" x2="301.84" y2="575.61" gradientTransform="matrix(1, 0, 0, -1, 0, 652)" gradientUnits="userSpaceOnUse"><stop offset="0" stop-color="#fff"/><stop offset="1" stop-color="#daf3fd"/></linearGradient><linearGradient id="Unbenannter_Verlauf_80" x1="192.49" y1="508.52" x2="303.27" y2="508.52" gradientTransform="matrix(1, 0, 0, -1, 0, 652)" gradientUnits="userSpaceOnUse"><stop offset="0" stop-color="#b0d6e0"/><stop offset="1" stop-color="#bfe9f6"/></linearGradient><linearGradient id="Unbenannter_Verlauf_79" x1="192.45" y1="499.93" x2="305.38" y2="499.93" gradientTransform="matrix(1, 0, 0, -1, 0, 652)" gradientUnits="userSpaceOnUse"><stop offset="0" stop-color="#daf3fd"/><stop offset="0.17" stop-color="#daf3fd"/><stop offset="0.33" stop-color="#daf3fd"/><stop offset="1" stop-color="#fff"/></linearGradient><linearGradient id="Unbenannter_Verlauf_78" x1="208.32" y1="487.45" x2="294.22" y2="487.45" gradientTransform="matrix(1, 0, 0, -1, 0, 652)" gradientUnits="userSpaceOnUse"><stop offset="0" stop-color="#e4a31e"/><stop offset="1" stop-color="#f5c43d"/></linearGradient><linearGradient id="Unbenannter_Verlauf_71-2" x1="206.13" y1="528.05" x2="206.14" y2="528.05" xlink:href="#Unbenannter_Verlauf_71"/><linearGradient id="Unbenannter_Verlauf_95-2" x1="186.73" y1="419.76" x2="315.55" y2="548.58" xlink:href="#Unbenannter_Verlauf_95"/><linearGradient id="Unbenannter_Verlauf_77" x1="206.22" y1="481.46" x2="317.05" y2="481.46" gradientTransform="matrix(1, 0, 0, -1, 0, 652)" gradientUnits="userSpaceOnUse"><stop offset="0" stop-color="#f5c139"/><stop offset="1" stop-color="#fcd24a"/></linearGradient><linearGradient id="Unbenannter_Verlauf_76" x1="206.2" y1="472.86" x2="319.14" y2="472.86" gradientTransform="matrix(1, 0, 0, -1, 0, 652)" gradientUnits="userSpaceOnUse"><stop offset="0" stop-color="#fcd24a"/><stop offset="0.18" stop-color="#fcd24a"/><stop offset="0.38" stop-color="#ffe957"/><stop offset="1" stop-color="#ffe957"/></linearGradient><linearGradient id="Unbenannter_Verlauf_75" x1="251.72" y1="481.61" x2="337.63" y2="481.61" gradientTransform="matrix(1, 0, 0, -1, 0, 652)" gradientUnits="userSpaceOnUse"><stop offset="0" stop-color="#19ab53"/><stop offset="1" stop-color="#25bc6c"/></linearGradient><linearGradient id="Unbenannter_Verlauf_71-3" x1="249.57" y1="522.21" x2="249.58" y2="522.21" xlink:href="#Unbenannter_Verlauf_71"/><linearGradient id="Unbenannter_Verlauf_95-3" x1="230.16" y1="413.91" x2="358.99" y2="542.74" xlink:href="#Unbenannter_Verlauf_95"/><linearGradient id="Unbenannter_Verlauf_74" x1="249.59" y1="475.61" x2="360.33" y2="475.61" gradientTransform="matrix(1, 0, 0, -1, 0, 652)" gradientUnits="userSpaceOnUse"><stop offset="0" stop-color="#25bc6c"/><stop offset="1" stop-color="#30e695"/></linearGradient><linearGradient id="Unbenannter_Verlauf_73" x1="249.59" y1="467.05" x2="362.52" y2="467.05" gradientTransform="matrix(1, 0, 0, -1, 0, 652)" gradientUnits="userSpaceOnUse"><stop offset="0" stop-color="#30e695"/><stop offset="0.18" stop-color="#30e695"/><stop offset="0.7" stop-color="#80f3c8"/><stop offset="1" stop-color="#80f3c8"/></linearGradient><linearGradient id="Unbenannter_Verlauf_72" x1="277.48" y1="465.24" x2="363.39" y2="465.24" gradientTransform="matrix(1, 0, 0, -1, 0, 652)" gradientUnits="userSpaceOnUse"><stop offset="0" stop-color="#1d2047"/><stop offset="1" stop-color="#282a55"/></linearGradient><linearGradient id="Unbenannter_Verlauf_71-4" x1="275.33" y1="505.86" x2="275.34" y2="505.86" xlink:href="#Unbenannter_Verlauf_71"/><linearGradient id="Unbenannter_Verlauf_95-4" x1="255.93" y1="397.57" x2="384.75" y2="526.4" xlink:href="#Unbenannter_Verlauf_95"/><linearGradient id="Unbenannter_Verlauf_71-5" x1="275.37" y1="459.26" x2="386.13" y2="459.26" xlink:href="#Unbenannter_Verlauf_71"/><linearGradient id="Unbenannter_Verlauf_70" x1="275.38" y1="450.71" x2="388.28" y2="450.71" gradientTransform="matrix(1, 0, 0, -1, 0, 652)" gradientUnits="userSpaceOnUse"><stop offset="0.02" stop-color="#206197"/><stop offset="0.2" stop-color="#206197"/><stop offset="0.48" stop-color="#0e8dc9"/><stop offset="1" stop-color="#0e8dc9"/></linearGradient><linearGradient id="Unbenannter_Verlauf_69-2" x1="604.2" y1="321.97" x2="667.44" y2="212.43" xlink:href="#Unbenannter_Verlauf_69"/><linearGradient id="Unbenannter_Verlauf_68" x1="414.64" y1="448.4" x2="695.62" y2="448.4" gradientTransform="matrix(1, 0, 0, -1, -11.25, 652)" gradientUnits="userSpaceOnUse"><stop offset="0" stop-color="#daf3fd"/><stop offset="1" stop-color="#bfe9f6"/></linearGradient><linearGradient id="Unbenannter_Verlauf_67" x1="504.96" y1="339.47" x2="573.71" y2="297.38" gradientTransform="matrix(1, 0, 0, -1, -11.25, 652)" gradientUnits="userSpaceOnUse"><stop offset="0" stop-color="#fff"/><stop offset="1" stop-color="#f4f8ff"/></linearGradient><linearGradient id="Unbenannter_Verlauf_95-5" x1="504.98" y1="339.49" x2="573.72" y2="297.4" gradientTransform="matrix(1, 0, 0, -1, -11.25, 652)" xlink:href="#Unbenannter_Verlauf_95"/><linearGradient id="Unbenannter_Verlauf_66" x1="538.68" y1="303.18" x2="607.81" y2="303.18" gradientTransform="matrix(1, 0, 0, -1, -11.25, 652)" gradientUnits="userSpaceOnUse"><stop offset="0.02" stop-color="#e3e8f9"/><stop offset="0.39" stop-color="#eff2fc"/><stop offset="0.74" stop-color="#fff"/><stop offset="1" stop-color="#fff"/></linearGradient><linearGradient id="Unbenannter_Verlauf_65" x1="529.84" y1="396.91" x2="574.25" y2="396.91" gradientTransform="matrix(1, 0, 0, -1, -11.25, 652)" gradientUnits="userSpaceOnUse"><stop offset="0" stop-color="#fff"/><stop offset="0.25" stop-color="#fff"/><stop offset="0.59" stop-color="#daf3fd"/><stop offset="1" stop-color="#daf3fd"/></linearGradient><linearGradient id="Unbenannter_Verlauf_95-6" x1="414.64" y1="446.35" x2="689.44" y2="446.35" gradientTransform="matrix(1, 0, 0, -1, -11.25, 652)" xlink:href="#Unbenannter_Verlauf_95"/><linearGradient id="Unbenannter_Verlauf_137" x1="425.89" y1="446.77" x2="675.85" y2="446.77" gradientTransform="matrix(1, 0, 0, -1, -11.25, 652)" gradientUnits="userSpaceOnUse"><stop offset="0" stop-color="#6e46ae" stop-opacity="0.5"/><stop offset="1" stop-color="#6e46ae"/></linearGradient><linearGradient id="Unbenannter_Verlauf_98" x1="448.31" y1="365.89" x2="457.83" y2="365.89" gradientTransform="matrix(1, 0, 0, -1, 0, 652)" gradientUnits="userSpaceOnUse"><stop offset="0" stop-color="#33d1ea"/><stop offset="1" stop-color="#2f90d6"/></linearGradient><linearGradient id="Unbenannter_Verlauf_132" x1="425.18" y1="294.03" x2="458.85" y2="294.03" gradientUnits="userSpaceOnUse"><stop offset="0" stop-color="#f9beb8"/><stop offset="1" stop-color="#eaa5a1"/></linearGradient><linearGradient id="Unbenannter_Verlauf_63" x1="448.88" y1="414.75" x2="507.86" y2="414.75" gradientTransform="matrix(1, 0, 0, -1, 0, 652)" gradientUnits="userSpaceOnUse"><stop offset="0" stop-color="#fcd24a"/><stop offset="0.44" stop-color="#fcd24a"/><stop offset="1" stop-color="#ffe957"/></linearGradient><linearGradient id="Unbenannter_Verlauf_63-2" x1="496.37" y1="401.24" x2="570.7" y2="401.24" xlink:href="#Unbenannter_Verlauf_63"/><linearGradient id="Unbenannter_Verlauf_76-2" x1="523.74" y1="262.28" x2="570.63" y2="262.28" gradientTransform="matrix(1, 0, 0, 1, 0, 0)" xlink:href="#Unbenannter_Verlauf_76"/><linearGradient id="Unbenannter_Verlauf_132-2" x1="508.29" y1="157.2" x2="554.87" y2="157.2" xlink:href="#Unbenannter_Verlauf_132"/><linearGradient id="Unbenannter_Verlauf_132-3" x1="469.17" y1="321.25" x2="507.68" y2="321.25" xlink:href="#Unbenannter_Verlauf_132"/><linearGradient id="Unbenannter_Verlauf_63-3" x1="495.81" y1="390.85" x2="572.9" y2="390.85" xlink:href="#Unbenannter_Verlauf_63"/><linearGradient id="Unbenannter_Verlauf_61" x1="516.52" y1="465.36" x2="524.85" y2="465.36" gradientTransform="matrix(1, 0, 0, -1, 0, 652)" gradientUnits="userSpaceOnUse"><stop offset="0" stop-color="#1a2587"/><stop offset="1" stop-color="#3a52be"/></linearGradient><linearGradient id="Unbenannter_Verlauf_60" x1="523.05" y1="473.83" x2="547.83" y2="473.83" gradientTransform="matrix(1, 0, 0, -1, 0, 652)" gradientUnits="userSpaceOnUse"><stop offset="0" stop-color="#2d64c9"/><stop offset="1" stop-color="#33d1ea"/></linearGradient><linearGradient id="Unbenannter_Verlauf_58" x1="106.22" y1="310.73" x2="234.88" y2="310.73" gradientTransform="matrix(1, 0, 0, -1, 0, 652)" gradientUnits="userSpaceOnUse"><stop offset="0" stop-color="#2f90d6"/><stop offset="0.19" stop-color="#2f90d6"/><stop offset="0.75" stop-color="#33d1ea"/><stop offset="1" stop-color="#3d7cdb"/></linearGradient><linearGradient id="Unbenannter_Verlauf_56" x1="117.36" y1="310.7" x2="223.64" y2="310.7" gradientTransform="matrix(1, 0, 0, -1, 0, 652)" gradientUnits="userSpaceOnUse"><stop offset="0" stop-color="#c6c9e3"/><stop offset="1" stop-color="#c5c8e3"/></linearGradient><linearGradient id="Unbenannter_Verlauf_33" x1="117.44" y1="311.03" x2="223.64" y2="311.03" gradientTransform="matrix(1, 0, 0, -1, 0, 652)" gradientUnits="userSpaceOnUse"><stop offset="0" stop-color="#c9cbe5"/><stop offset="1" stop-color="#c8cbe5"/></linearGradient><linearGradient id="Unbenannter_Verlauf_32" x1="117.68" y1="311.33" x2="223.36" y2="311.33" gradientTransform="matrix(1, 0, 0, -1, 0, 652)" gradientUnits="userSpaceOnUse"><stop offset="0" stop-color="#cccee6"/><stop offset="1" stop-color="#cacde6"/></linearGradient><linearGradient id="Unbenannter_Verlauf_31" x1="117.62" y1="311.67" x2="223.4" y2="311.67" gradientTransform="matrix(1, 0, 0, -1, 0, 652)" gradientUnits="userSpaceOnUse"><stop offset="0" stop-color="#ced1e8"/><stop offset="1" stop-color="#ccd0e8"/></linearGradient><linearGradient id="Unbenannter_Verlauf_28" x1="117.86" y1="312.01" x2="223.22" y2="312.01" gradientTransform="matrix(1, 0, 0, -1, 0, 652)" gradientUnits="userSpaceOnUse"><stop offset="0" stop-color="#d1d4e9"/><stop offset="1" stop-color="#cfd2e9"/></linearGradient><linearGradient id="Unbenannter_Verlauf_26" x1="117.67" y1="312.3" x2="223.22" y2="312.3" gradientTransform="matrix(1, 0, 0, -1, 0, 652)" gradientUnits="userSpaceOnUse"><stop offset="0" stop-color="#d4d6ea"/><stop offset="1" stop-color="#d1d4ea"/></linearGradient><linearGradient id="Unbenannter_Verlauf_20" x1="117.91" y1="312.61" x2="223.17" y2="312.61" gradientTransform="matrix(1, 0, 0, -1, 0, 652)" gradientUnits="userSpaceOnUse"><stop offset="0" stop-color="#d7d9ec"/><stop offset="1" stop-color="#d3d7ec"/></linearGradient><linearGradient id="Unbenannter_Verlauf_19" x1="118.18" y1="312.93" x2="222.97" y2="312.93" gradientTransform="matrix(1, 0, 0, -1, 0, 652)" gradientUnits="userSpaceOnUse"><stop offset="0" stop-color="#dadced"/><stop offset="1" stop-color="#d6d9ed"/></linearGradient><linearGradient id="Unbenannter_Verlauf_44" x1="118.16" y1="313.24" x2="222.98" y2="313.24" gradientTransform="matrix(1, 0, 0, -1, 0, 652)" gradientUnits="userSpaceOnUse"><stop offset="0" stop-color="#dddeee"/><stop offset="1" stop-color="#d8dbee"/></linearGradient><linearGradient id="Unbenannter_Verlauf_17" x1="118.04" y1="313.56" x2="222.97" y2="313.56" gradientTransform="matrix(1, 0, 0, -1, 0, 652)" gradientUnits="userSpaceOnUse"><stop offset="0" stop-color="#e0e1f0"/><stop offset="1" stop-color="#dadef0"/></linearGradient><linearGradient id="Unbenannter_Verlauf_16" x1="118.34" y1="313.87" x2="222.7" y2="313.87" gradientTransform="matrix(1, 0, 0, -1, 0, 652)" gradientUnits="userSpaceOnUse"><stop offset="0" stop-color="#e2e4f1"/><stop offset="1" stop-color="#dde0f1"/></linearGradient><linearGradient id="Unbenannter_Verlauf_15" x1="118.57" y1="314.21" x2="222.51" y2="314.21" gradientTransform="matrix(1, 0, 0, -1, 0, 652)" gradientUnits="userSpaceOnUse"><stop offset="0" stop-color="#e5e7f3"/><stop offset="1" stop-color="#dfe3f3"/></linearGradient><linearGradient id="Unbenannter_Verlauf_48" x1="118.47" y1="314.52" x2="222.54" y2="314.52" gradientTransform="matrix(1, 0, 0, -1, 0, 652)" gradientUnits="userSpaceOnUse"><stop offset="0" stop-color="#e8e9f4"/><stop offset="1" stop-color="#e1e5f4"/></linearGradient><linearGradient id="Unbenannter_Verlauf_13" x1="118.62" y1="314.87" x2="222.62" y2="314.87" gradientTransform="matrix(1, 0, 0, -1, 0, 652)" gradientUnits="userSpaceOnUse"><stop offset="0" stop-color="#ebecf5"/><stop offset="1" stop-color="#e4e7f5"/></linearGradient><linearGradient id="Unbenannter_Verlauf_50" x1="118.6" y1="315.13" x2="222.44" y2="315.13" gradientTransform="matrix(1, 0, 0, -1, 0, 652)" gradientUnits="userSpaceOnUse"><stop offset="0" stop-color="#eeeff7"/><stop offset="1" stop-color="#e6eaf7"/></linearGradient><linearGradient id="Unbenannter_Verlauf_51" x1="118.85" y1="315.41" x2="222.22" y2="315.41" gradientTransform="matrix(1, 0, 0, -1, 0, 652)" gradientUnits="userSpaceOnUse"><stop offset="0" stop-color="#f1f1f8"/><stop offset="1" stop-color="#e8ecf8"/></linearGradient><linearGradient id="Unbenannter_Verlauf_52" x1="118.68" y1="315.75" x2="222.22" y2="315.75" gradientTransform="matrix(1, 0, 0, -1, 0, 652)" gradientUnits="userSpaceOnUse"><stop offset="0" stop-color="#f4f4f9"/><stop offset="1" stop-color="#ebeef9"/></linearGradient><linearGradient id="Unbenannter_Verlauf_53" x1="118.91" y1="316.07" x2="222.15" y2="316.07" gradientTransform="matrix(1, 0, 0, -1, 0, 652)" gradientUnits="userSpaceOnUse"><stop offset="0" stop-color="#f6f7fb"/><stop offset="1" stop-color="#edf1fb"/></linearGradient><linearGradient id="Unbenannter_Verlauf_54" x1="119.1" y1="316.39" x2="221.94" y2="316.39" gradientTransform="matrix(1, 0, 0, -1, 0, 652)" gradientUnits="userSpaceOnUse"><stop offset="0" stop-color="#f9fafc"/><stop offset="1" stop-color="#eff3fc"/></linearGradient><linearGradient id="Unbenannter_Verlauf_55" x1="119.16" y1="316.71" x2="221.93" y2="316.71" gradientTransform="matrix(1, 0, 0, -1, 0, 652)" gradientUnits="userSpaceOnUse"><stop offset="0" stop-color="#fcfcfe"/><stop offset="1" stop-color="#f2f6fe"/></linearGradient><linearGradient id="Unbenannter_Verlauf_95-7" x1="119.82" y1="323.63" x2="221.22" y2="323.63" xlink:href="#Unbenannter_Verlauf_95"/><linearGradient id="Unbenannter_Verlauf_57" x1="171.99" y1="303.44" x2="171.99" y2="428.87" gradientTransform="matrix(1, 0, 0, -1, 0, 652)" gradientUnits="userSpaceOnUse"><stop offset="0" stop-color="#16f7d6"/><stop offset="0.04" stop-color="#28f8d9"/><stop offset="0.19" stop-color="#61fae3"/><stop offset="0.33" stop-color="#91fbec"/><stop offset="0.48" stop-color="#b9fdf3"/><stop offset="0.62" stop-color="#d7fef8"/><stop offset="0.75" stop-color="#edfefc"/><stop offset="0.88" stop-color="#fbfffe"/><stop offset="1" stop-color="#fff"/></linearGradient><linearGradient id="Unbenannter_Verlauf_62" x1="158.08" y1="328.92" x2="182.74" y2="328.92" gradientTransform="matrix(1, 0, 0, -1, 0, 652)" gradientUnits="userSpaceOnUse"><stop offset="0" stop-color="#3e7ae8"/><stop offset="1" stop-color="#154baf"/></linearGradient><linearGradient id="Unbenannter_Verlauf_59" x1="153.27" y1="336.02" x2="187.55" y2="336.02" gradientTransform="matrix(1, 0, 0, -1, 0, 652)" gradientUnits="userSpaceOnUse"><stop offset="0" stop-color="#154baf"/><stop offset="1" stop-color="#3e7ae8"/></linearGradient><linearGradient id="Unbenannter_Verlauf_62-2" x1="153.27" y1="350.08" x2="187.55" y2="350.08" xlink:href="#Unbenannter_Verlauf_62"/><linearGradient id="Unbenannter_Verlauf_62-3" x1="153.27" y1="331.64" x2="187.54" y2="331.64" xlink:href="#Unbenannter_Verlauf_62"/><linearGradient id="Unbenannter_Verlauf_62-4" x1="153.27" y1="338.17" x2="187.54" y2="338.17" xlink:href="#Unbenannter_Verlauf_62"/><linearGradient id="Unbenannter_Verlauf_83" x1="141.22" y1="380.76" x2="199.63" y2="380.76" gradientTransform="matrix(1, 0, 0, -1, 0, 652)" gradientUnits="userSpaceOnUse"><stop offset="0" stop-color="#ffe957"/><stop offset="1" stop-color="#fcd24a"/></linearGradient><linearGradient id="Unbenannter_Verlauf_64" x1="162.09" y1="368.64" x2="178.72" y2="368.64" gradientTransform="matrix(1, 0, 0, -1, 0, 652)" gradientUnits="userSpaceOnUse"><stop offset="0" stop-color="#3a4983"/><stop offset="1" stop-color="#282a55"/></linearGradient><linearGradient id="Unbenannter_Verlauf_84" x1="260.24" y1="227.7" x2="340.56" y2="180.92" gradientTransform="matrix(1, 0, 0, -1, 0, 652)" gradientUnits="userSpaceOnUse"><stop offset="0.02" stop-color="#e3e8f9"/><stop offset="0.17" stop-color="#e9edfa" stop-opacity="0.79"/><stop offset="0.4" stop-color="#f1f3fc" stop-opacity="0.51"/><stop offset="0.6" stop-color="#f7f8fd" stop-opacity="0.29"/><stop offset="0.78" stop-color="#fbfcfe" stop-opacity="0.13"/><stop offset="0.92" stop-color="#fefeff" stop-opacity="0.04"/><stop offset="1" stop-color="#fff" stop-opacity="0"/></linearGradient><linearGradient id="Unbenannter_Verlauf_90" x1="283.82" y1="225.23" x2="283.82" y2="274.4" gradientTransform="matrix(1, 0, 0, -1, 0, 652)" gradientUnits="userSpaceOnUse"><stop offset="0" stop-color="#284c80"/><stop offset="1" stop-color="#0e8dc9"/></linearGradient><linearGradient id="Unbenannter_Verlauf_90-2" x1="267.84" y1="236.67" x2="267.84" y2="284.37" xlink:href="#Unbenannter_Verlauf_90"/><linearGradient id="Unbenannter_Verlauf_87" x1="217.86" y1="225.19" x2="285.86" y2="225.19" gradientTransform="matrix(1, 0, 0, -1, 0, 652)" gradientUnits="userSpaceOnUse"><stop offset="0" stop-color="#f6fcff"/><stop offset="0.44" stop-color="#eef9fe"/><stop offset="0.55" stop-color="#daf3fd"/><stop offset="1" stop-color="#daf3fd"/></linearGradient><linearGradient id="Unbenannter_Verlauf_88" x1="-1125.64" y1="-924.42" x2="-1086.69" y2="-890.68" gradientTransform="matrix(0.87, -0.5, -1, -0.58, 306.69, -679.99)" gradientUnits="userSpaceOnUse"><stop offset="0" stop-color="#daf3fd"/><stop offset="1" stop-color="#fff"/></linearGradient><linearGradient id="Unbenannter_Verlauf_90-3" x1="222.2" y1="55.07" x2="222.2" y2="81.87" gradientTransform="matrix(1, -0.08, -0.08, -1, 44.31, 467.53)" xlink:href="#Unbenannter_Verlauf_90"/><linearGradient id="Unbenannter_Verlauf_98-2" x1="-4555.03" y1="240.32" x2="-4555.03" y2="264.32" gradientTransform="matrix(-0.96, -0.28, -0.28, 0.96, -4060.72, -1183.9)" xlink:href="#Unbenannter_Verlauf_98"/><linearGradient id="Unbenannter_Verlauf_90-4" x1="265.71" y1="247.85" x2="265.71" y2="276.92" xlink:href="#Unbenannter_Verlauf_90"/><linearGradient id="Unbenannter_Verlauf_98-3" x1="253.14" y1="257.79" x2="253.14" y2="327.78" xlink:href="#Unbenannter_Verlauf_98"/><linearGradient id="Unbenannter_Verlauf_98-4" x1="242.6" y1="178.44" x2="242.6" y2="202.35" gradientTransform="matrix(1, -0.05, -0.05, -1, 33, 545.88)" xlink:href="#Unbenannter_Verlauf_98"/><linearGradient id="Unbenannter_Verlauf_84-2" x1="328.91" y1="187.52" x2="409.23" y2="140.75" xlink:href="#Unbenannter_Verlauf_84"/><linearGradient id="Unbenannter_Verlauf_90-5" x1="352.53" y1="186.32" x2="352.53" y2="234.2" xlink:href="#Unbenannter_Verlauf_90"/><linearGradient id="Unbenannter_Verlauf_90-6" x1="336.51" y1="196.5" x2="336.51" y2="244.19" xlink:href="#Unbenannter_Verlauf_90"/><linearGradient id="Unbenannter_Verlauf_87-2" x1="286.53" y1="185.02" x2="354.54" y2="185.02" xlink:href="#Unbenannter_Verlauf_87"/><linearGradient id="Unbenannter_Verlauf_88-2" x1="-1126.18" y1="-993.55" x2="-1087.23" y2="-959.82" xlink:href="#Unbenannter_Verlauf_88"/><linearGradient id="Unbenannter_Verlauf_90-7" x1="287.26" y1="9.22" x2="287.26" y2="36.01" gradientTransform="matrix(1, -0.08, -0.08, -1, 44.31, 467.53)" xlink:href="#Unbenannter_Verlauf_90"/><linearGradient id="Unbenannter_Verlauf_90-8" x1="334.75" y1="207.66" x2="334.75" y2="236.28" xlink:href="#Unbenannter_Verlauf_90"/><linearGradient id="Unbenannter_Verlauf_82" x1="302.99" y1="254.39" x2="335.37" y2="254.39" gradientTransform="matrix(1, 0, 0, -1, 0, 652)" gradientUnits="userSpaceOnUse"><stop offset="0" stop-color="#fcd24a"/><stop offset="1" stop-color="#ffe957"/></linearGradient><linearGradient id="Unbenannter_Verlauf_83-2" x1="-5094.04" y1="1899.21" x2="-5035.06" y2="1899.21" gradientTransform="matrix(-0.29, -0.96, 0.96, -0.29, -2956.07, -3900.41)" xlink:href="#Unbenannter_Verlauf_83"/><linearGradient id="Unbenannter_Verlauf_84-3" x1="407.93" y1="149.54" x2="488.25" y2="102.76" xlink:href="#Unbenannter_Verlauf_84"/><linearGradient id="Unbenannter_Verlauf_90-9" x1="431.56" y1="147.09" x2="431.56" y2="196.25" xlink:href="#Unbenannter_Verlauf_90"/><linearGradient id="Unbenannter_Verlauf_90-10" x1="415.55" y1="158.54" x2="415.55" y2="206.24" xlink:href="#Unbenannter_Verlauf_90"/><linearGradient id="Unbenannter_Verlauf_87-3" x1="365.57" y1="147.05" x2="433.55" y2="147.05" xlink:href="#Unbenannter_Verlauf_87"/><linearGradient id="Unbenannter_Verlauf_88-3" x1="-1118.51" y1="-1065.92" x2="-1079.56" y2="-1032.18" xlink:href="#Unbenannter_Verlauf_88"/><linearGradient id="Unbenannter_Verlauf_90-11" x1="362.77" y1="-35.28" x2="362.77" y2="-8.48" gradientTransform="matrix(1, -0.08, -0.08, -1, 44.31, 467.53)" xlink:href="#Unbenannter_Verlauf_90"/><linearGradient id="Unbenannter_Verlauf_90-12" x1="413.42" y1="169.71" x2="413.42" y2="198.78" xlink:href="#Unbenannter_Verlauf_90"/><linearGradient id="Unbenannter_Verlauf_91" x1="2815.39" y1="205.39" x2="2863.94" y2="205.39" gradientTransform="matrix(1, 0, 0, -1, -2418.72, 652)" gradientUnits="userSpaceOnUse"><stop offset="0" stop-color="#0e7384"/><stop offset="1" stop-color="#14808a"/></linearGradient><linearGradient id="Unbenannter_Verlauf_95-8" x1="-4580.04" y1="205.68" x2="-4531.49" y2="205.68" gradientTransform="translate(-4134.82 652) rotate(180)" xlink:href="#Unbenannter_Verlauf_95"/><linearGradient id="Unbenannter_Verlauf_94" x1="2824.53" y1="207.31" x2="2858.08" y2="207.31" gradientTransform="matrix(1, 0, 0, -1, -2418.72, 652)" gradientUnits="userSpaceOnUse"><stop offset="0" stop-color="#284c80"/><stop offset="1" stop-color="#1678b1"/></linearGradient><linearGradient id="Unbenannter_Verlauf_94-2" x1="2826.78" y1="202.14" x2="2836.66" y2="202.14" xlink:href="#Unbenannter_Verlauf_94"/><linearGradient id="Unbenannter_Verlauf_95-9" x1="-4584.51" y1="2398.14" x2="-4552.76" y2="2398.14" gradientTransform="matrix(-1, -0.58, 0, -1, -4134.82, 177.76)" xlink:href="#Unbenannter_Verlauf_95"/><linearGradient id="Unbenannter_Verlauf_98-5" x1="419.33" y1="222.56" x2="448.29" y2="222.56" xlink:href="#Unbenannter_Verlauf_98"/><linearGradient id="Unbenannter_Verlauf_98-6" x1="400.69" y1="179.63" x2="400.69" y2="249.64" xlink:href="#Unbenannter_Verlauf_98"/><linearGradient id="Unbenannter_Verlauf_98-7" x1="384.2" y1="88.45" x2="384.2" y2="112.35" gradientTransform="matrix(1, -0.05, -0.05, -1, 33, 545.88)" xlink:href="#Unbenannter_Verlauf_98"/><linearGradient id="Unbenannter_Verlauf_99" x1="-4641.52" y1="1774.88" x2="-4502.38" y2="1774.88" gradientTransform="matrix(-1, -0.58, 0, -1, -3938.77, -731.13)" gradientUnits="userSpaceOnUse"><stop offset="0" stop-color="#80f3c8"/><stop offset="1" stop-color="#30e695"/></linearGradient></defs><title>sprache-lernen-2</title><g id="Ebene_2" data-name="Ebene 2"><g id="illustration"><polygon class="cls-1" points="522.22 304.23 380.24 368.69 210.74 256.74 329.88 201.8 522.22 304.23"/><path class="cls-2" d="M280.48,58.06V163.73c0,5.28-3.7,11.69-8.28,14.34l-77.63,44.8V98.09l77.65-44.81c2.14-1.24,4.09-1.43,5.56-.74a1,1,0,0,1,.17.1C279.5,53.47,280.48,55.35,280.48,58.06Z"/><path class="cls-3" d="M192.42,96.88h0v0Z"/><path class="cls-4" d="M297.8,72.35,277.22,60.42h0l-.62-.34c-1.47-.66-3.39-.47-5.5.75L252.32,71.65l-58.86,34h0l1.12,121.11,76.52-41.13c4.57-2.64,8.27-9.06,8.27-14.34V83.48Z"/><path class="cls-5" d="M298.65,65.3a7.6,7.6,0,0,0-3.7,1.13L278.34,76l-60.56,35a3.52,3.52,0,0,1-1,.36,21.58,21.58,0,0,1-13.39-2.91c-6.47-3.64-8-7.81-8.41-9.56a1.41,1.41,0,0,1,.6-1.38l76.64-44.25c2.14-1.24,4.09-1.43,5.56-.74l-1.78-1-.2-.11-.17-.09c-1.47-.68-3.41-.51-5.55.72L193.22,96.43a1.42,1.42,0,0,0-.73,1.1,4.8,4.8,0,0,0,0,.65c.33,2.26,1.76,6.87,7.94,10.88,7.22,4.7,6.71,7.14,9.93,6.58L217.35,236l2.14-1.23L295,191.22c4.58-2.65,8.28-9.06,8.28-14.34V71.21a7.44,7.44,0,0,0-.78-3.56c.34-.19.78-.41.78-.41l-.63-.35-1.78-1A4.22,4.22,0,0,0,298.65,65.3Z"/><path class="cls-6" d="M302.6,66.89c-1.47-.66-3.39-.47-5.5.76L278.34,78.48s-57.08,34.24-60.88,34.9c-3.22.56-9.79.38-17-4.32-6.18-4-7.61-8.62-7.93-10.85a3.91,3.91,0,0,1-.06-.68v124.1c0,.63-.73,6.44,7,11.46a28.3,28.3,0,0,0,19.32,4.26,4.39,4.39,0,0,0,1.31-.48c7.27-4.18,77-44.44,77-44.44,4.57-2.63,8.28-9.06,8.28-14.33V72.42c0-2.47-.82-4.25-2.15-5.18Z"/><path class="cls-7" d="M294.22,85.09V190.76c0,5.28-3.7,11.7-8.28,14.34l-77.62,44.81V125.12l77.62-44.81c2.15-1.23,4.1-1.42,5.57-.73l.17.09C293.22,80.56,294.22,82.39,294.22,85.09Z"/><path class="cls-8" d="M206.13,123.91h0v0Z"/><path class="cls-9" d="M311.5,99.38,290.92,87.46h0l-.61-.35c-1.47-.66-3.39-.46-5.51.76L266,98.69l-58.87,34h0l1.12,121.11,76.51-41.13c4.57-2.64,8.28-9.06,8.28-14.34V110.56Z"/><path class="cls-10" d="M312.36,92.34a7.36,7.36,0,0,0-3.7,1.13L292,103.06l-60.55,35a3.24,3.24,0,0,1-1,.36,21.51,21.51,0,0,1-13.39-2.9c-6.48-3.64-8-7.81-8.41-9.56a1.41,1.41,0,0,1,.6-1.38l76.59-44.22c2.15-1.23,4.1-1.42,5.57-.73l-1.78-1-.2-.1-.17-.1c-1.47-.68-3.42-.5-5.56.73l-76.86,44.36a1.37,1.37,0,0,0-.66,1v.65c.34,2.26,1.77,6.87,8,10.88,7.22,4.69,6.72,7.13,9.92,6.58l7,120.38,2.14-1.23,75.49-43.57c4.57-2.65,8.27-9.07,8.27-14.34V98.25a7.48,7.48,0,0,0-.78-3.57l.78-.4-.62-.35-1.79-1A4.3,4.3,0,0,0,312.36,92.34Z"/><path class="cls-11" d="M316.31,93.93c-1.47-.66-3.39-.47-5.51.75L292,105.56S235,139.81,231.16,140.47c-3.21.56-9.78.37-17-4.32-6.18-4-7.61-8.62-7.94-10.85a3.86,3.86,0,0,1,0-.68v124.1c0,.62-.73,6.44,7,11.46a28.33,28.33,0,0,0,19.33,4.26,4.24,4.24,0,0,0,1.3-.48c7.28-4.18,77-44.44,77-44.44,4.58-2.64,8.29-9.06,8.29-14.34V99.46c0-2.48-.82-4.25-2.16-5.18Z"/><path class="cls-12" d="M337.63,90.93V196.61c0,5.27-3.71,11.69-8.28,14.33l-77.63,44.81V131l77.63-44.81c2.14-1.24,4.09-1.43,5.56-.74l.17.09C336.65,86.35,337.63,88.23,337.63,90.93Z"/><path class="cls-13" d="M249.57,129.75h0v0Z"/><path class="cls-14" d="M355,105.22,334.37,93.3h0l-.62-.35c-1.47-.65-3.39-.46-5.5.76l-18.78,10.85-58.86,34h0l1.12,121.11,76.49-41.18c4.57-2.64,8.27-9.06,8.27-14.34V116.36Z"/><path class="cls-15" d="M355.8,98.18a7.43,7.43,0,0,0-3.71,1.13l-16.6,9.58-60.56,35a3.24,3.24,0,0,1-1,.36,21.51,21.51,0,0,1-13.39-2.9c-6.47-3.64-8-7.81-8.41-9.56a1.41,1.41,0,0,1,.6-1.38l76.6-44.21c2.14-1.24,4.09-1.43,5.56-.74l-1.78-1-.2-.11-.17-.1c-1.47-.67-3.41-.5-5.55.73l-76.87,44.36a1.41,1.41,0,0,0-.73,1.1v.65c.34,2.26,1.77,6.87,8,10.88,7.22,4.69,6.71,7.13,9.93,6.58l6.94,120.38,2.14-1.23L352,224.13c4.59-2.65,8.29-9.06,8.29-14.34V104.09a7.48,7.48,0,0,0-.78-3.57c.33-.18.78-.4.78-.4l-.63-.35-1.78-1A4.25,4.25,0,0,0,355.8,98.18Z"/><path class="cls-16" d="M359.75,99.77c-1.47-.66-3.39-.47-5.5.75l-18.76,10.83s-57.08,34.21-60.89,34.91c-3.21.56-9.78.37-17-4.32-6.18-4-7.61-8.62-7.94-10.85a5.19,5.19,0,0,1,0-.68V254.5c0,.63-.73,6.45,7,11.47a28.33,28.33,0,0,0,19.33,4.26,4.66,4.66,0,0,0,1.31-.47l77-44.45c4.57-2.64,8.27-9.06,8.27-14.34V105.3c0-2.47-.81-4.25-2.14-5.18Z"/><path class="cls-17" d="M363.39,107.29V213c0,5.28-3.7,11.69-8.29,14.34l-77.62,44.8V147.32l77.62-44.76c2.14-1.23,4.1-1.43,5.56-.74a.52.52,0,0,1,.18.1C362.41,102.7,363.39,104.56,363.39,107.29Z"/><path class="cls-18" d="M275.33,146.11h0v0Z"/><path class="cls-19" d="M380.7,121.56l-20.58-11.91h0l-.61-.34c-1.48-.66-3.4-.47-5.51.75l-18.78,10.82-58.86,34h0L277.48,276,354,234.85c4.58-2.63,8.28-9.06,8.28-14.34v-87.8Z"/><path class="cls-20" d="M381.55,114.56a7.56,7.56,0,0,0-3.69,1.13l-16.64,9.56-60.55,35a3.85,3.85,0,0,1-1,.36,21.58,21.58,0,0,1-13.39-2.91c-6.47-3.64-7.95-7.81-8.41-9.56a1.39,1.39,0,0,1,.6-1.38l76.63-44.2c2.14-1.23,4.1-1.43,5.56-.74l-1.77-1-.2-.11-.18-.09c-1.47-.68-3.41-.51-5.54.72L276.1,145.66a1.42,1.42,0,0,0-.73,1.1v.66c.34,2.25,1.77,6.86,7.95,10.87,7.22,4.7,6.71,7.14,9.93,6.58l7,120.38,2.14-1.23,75.49-43.57c4.57-2.65,8.27-9.06,8.27-14.34V120.44a7.43,7.43,0,0,0-.77-3.56l.77-.41-.62-.35-1.79-1A4.17,4.17,0,0,0,381.55,114.56Z"/><path class="cls-21" d="M385.51,116.12c-1.47-.66-3.39-.47-5.5.76l-18.79,10.83s-57.07,34.24-60.88,34.9c-3.21.56-9.78.38-17-4.32-6.18-4-7.61-8.62-7.94-10.85,0-.23,0-.45,0-.68V270.85c0,.64-.73,6.45,7,11.47a28.3,28.3,0,0,0,19.26,4.24,4.24,4.24,0,0,0,1.3-.48c7.27-4.18,77.05-44.44,77.05-44.44,4.57-2.63,8.27-9.06,8.27-14.33V121.65c0-2.47-.81-4.25-2.15-5.18Z"/><polygon class="cls-22" points="730.55 396.64 629.85 453.25 518.59 372.96 590.42 336.07 730.55 396.64"/><path class="cls-23" d="M671.22,395.73l-253-153.17c-4.8-2.77-8.69-9.51-8.69-15L403.39,21.35c0-10.87,8.25-12.34,13.05-9.57L675.67,161.23c4.8,2.77,8.7,9.5,8.7,15V387.85C684.37,393.39,677,398.83,671.22,395.73Z"/><path class="cls-24" d="M596.59,356l-45.44,27.62c-5.56,3.18-14.55,3.15-20.1-.05l-60.74-35.13a11,11,0,0,1-5.86-11.93,10,10,0,0,1,4.52-6.8l46.83-20.42c5.55-3.18,14.52-3.15,20.06,0l62,27.83a10.49,10.49,0,0,1,4.73,6.71C603.52,348,602.15,352.84,596.59,356Z"/><path class="cls-25" d="M596.58,355.35,551.14,383c-5.56,3.16-14.55,3.14-20.09-.07L470.3,347.78a10.75,10.75,0,0,1-5.85-11.28,10,10,0,0,1,4.52-6.8l46.83-20.42c5.55-3.18,14.52-3.15,20.06,0l62,27.83a10.49,10.49,0,0,1,4.73,6.71C603.3,347.79,601.86,352.35,596.58,355.35Z"/><path class="cls-26" d="M596.58,354.7l-45.45,27.63c-5.56,3.17-14.55,3.15-20.09-.06l-60.75-35.13c-4.69-2.61-6.26-6.85-5.84-10.64a10,10,0,0,1,4.52-6.8l46.83-20.42c5.55-3.18,14.52-3.15,20.06,0l62,27.83a10.49,10.49,0,0,1,4.73,6.71C603.08,347.61,601.57,351.87,596.58,354.7Z"/><path class="cls-27" d="M596.57,354.06l-45.46,27.63c-5.55,3.16-14.55,3.14-20.09-.06l-60.74-35.14a10.55,10.55,0,0,1-5.83-10,10,10,0,0,1,4.52-6.8l46.83-20.42c5.55-3.18,14.52-3.15,20.06,0l62,27.83a10.49,10.49,0,0,1,4.73,6.71C602.86,347.42,601.28,351.38,596.57,354.06Z"/><path class="cls-28" d="M596.55,353.42,551.1,381.05c-5.56,3.16-14.55,3.14-20.09-.06l-60.74-35.14a10.51,10.51,0,0,1-5.82-9.35,10,10,0,0,1,4.52-6.8l46.83-20.42c5.55-3.18,14.52-3.15,20.06,0l62,27.83a10.49,10.49,0,0,1,4.73,6.71C602.63,347.23,601,350.9,596.55,353.42Z"/><path class="cls-29" d="M596.55,352.78,551.09,380.4c-5.56,3.17-14.55,3.15-20.09-.06l-60.78-35.13a10.63,10.63,0,0,1-5.81-8.71,10,10,0,0,1,4.52-6.8l46.83-20.42c5.55-3.18,14.52-3.15,20.06,0l62,27.83a10.49,10.49,0,0,1,4.73,6.71C602.41,347,600.7,350.42,596.55,352.78Z"/><path class="cls-30" d="M596.54,352.14l-45.46,27.63c-5.55,3.15-14.55,3.13-20.09-.07l-60.77-35.14a10.83,10.83,0,0,1-5.79-8.07,10,10,0,0,1,4.52-6.8l46.83-20.42c5.55-3.18,14.52-3.15,20.06,0l62,27.83a10.49,10.49,0,0,1,4.73,6.71C602.22,346.85,600.41,349.93,596.54,352.14Z"/><path class="cls-31" d="M602.55,343.85a11.53,11.53,0,0,1-6,7.63l-45.47,27.63c-5.56,3.18-14.55,3.16-20.09-.05l-60.77-35.13a11.12,11.12,0,0,1-5.78-7.43,10,10,0,0,1,4.52-6.8l46.83-20.42c5.55-3.18,14.52-3.15,20.06,0l62,27.83A10.46,10.46,0,0,1,602.55,343.85Z"/><path class="cls-32" d="M599.46,345.56a10,10,0,0,1-2.87,2.35L570.4,364.22l-19.25,11.31c-5.56,3.17-14.56,3.16-20.1,0l-60.74-35.14c-3.43-2-4.75-4.74-3.88-7.28a7.9,7.9,0,0,1,3.9-4.26l45.47-27.63c5.55-3.16,14.53-3.14,20.06.07l60.75,35.14a7.81,7.81,0,0,1,4,4.39A5.18,5.18,0,0,1,599.46,345.56Z"/><path class="cls-33" d="M600.59,340.76a8,8,0,0,1-3.93,4.22l-45.44,27.64c-5.56,3.15-14.54,3.14-20.08-.05l-60.76-35.15a7.87,7.87,0,0,1-3.94-4.37,7.9,7.9,0,0,1,3.9-4.26l45.47-27.63c5.55-3.15,14.52-3.14,20.06.06l60.75,35.15A7.89,7.89,0,0,1,600.59,340.76Z"/><path class="cls-34" d="M600.59,340.75a8,8,0,0,1-3.91,4.23l-.12.07-34.89,21.19-10.45,6.32c-5.54,3.18-14.53,3.16-20.07,0L470.4,337.4a7.88,7.88,0,0,1-3.93-4.37,7.76,7.76,0,0,1,3.88-4.26l45.47-27.64c5.56-3.14,14.52-3.13,20.06.07l60.75,35.14A8,8,0,0,1,600.59,340.75Z"/><polygon class="cls-35" points="596.56 345.05 561.67 366.24 527.43 341.53 562.5 331.4 596.56 345.05"/><path class="cls-36" d="M541.67,344.27c-12.27,0-23.08-4.48-23.08-16.76V187.65a22.21,22.21,0,0,1,44.41,0V327.56C563,339.79,553.94,344.27,541.67,344.27Z"/><path class="cls-37" d="M669.51,395,412.07,246.32c-4.79-2.77-8.68-9.51-8.68-15v-210c0-5.53,3.89-7.78,8.68-5L669.51,165c4.8,2.76,8.68,9.5,8.68,15v210C678.22,395.48,674.31,397.72,669.51,395Z"/><path class="cls-38" d="M664.59,184.56v187a6.75,6.75,0,0,1-.84,3.57,4.14,4.14,0,0,1-.75.92,6.13,6.13,0,0,1-4.6-.9l-236-135.78A17.06,17.06,0,0,1,414.66,226V39a6,6,0,0,1,1.56-4.52,3.61,3.61,0,0,1,1.17-.17h0a6.88,6.88,0,0,1,3.44,1.06l236,135.75A17.11,17.11,0,0,1,664.59,184.56Z"/><path class="cls-39" d="M448.31,281.86c0,1.82.67,6.54,6.83,9.25a1.38,1.38,0,0,0,1.28-.15,5.36,5.36,0,0,0,1.38-1.58c.48-1-4.43-8.56-8.72-8.36A.87.87,0,0,0,448.31,281.86Z"/><path class="cls-40" d="M452.75,279.29c-4.92,4.17-7.16,4.31-7.16,4.31h0a8.38,8.38,0,0,0-3.91.43c-2.92,1.21-10,1.5-8.87,4.15s6.7.74,5.89,1.78-14.42,9.89-13.48,11.6,3.13.87,3.13.87-3.18,2.91-2.37,4.35,2.53,1.2,4.23.15c0,0-.55,3.47,4.2.9,0,0,0,1.58,3.51,0,3.08-1.4,11.36-6,15.25-13.61a.27.27,0,0,0,.1-.16c.44-1.14,5.58-7,5.58-7Z"/><path class="cls-41" d="M448.88,281.06s6.58,3.19,7.54,9.9c0,0,34.49-21.54,39.3-29.08a139.18,139.18,0,0,0,7.11-14.45c.82-1.72,1.61-3.51,2.4-5.35a12.67,12.67,0,0,0-.34-4.71A33.8,33.8,0,0,1,503,208.84c4.42-11.7.82-21.07,4.84-25.3a21,21,0,0,0-2.09,1v.05c-10.13,5.75-14,24.55-15.08,31.93,0,.26-5.2,26.06-8.88,33.2C478.22,256.56,451.51,278.92,448.88,281.06Z"/><path class="cls-42" d="M504.88,237.36a12.74,12.74,0,0,1,.35,4.72c-.79,1.84-1.59,3.62-2.38,5.35.54-4.46.6-7.78,0-9.12,0,0-11-13.41-4.93-29.47,4.36-11.66,3.85-20,7.76-24.29l.06-.05a14.9,14.9,0,0,1,2.08-.94c-4,4.21-.79,14.6-5.2,26.31C496.6,226,504.88,237.36,504.88,237.36Z"/><path class="cls-43" d="M570.69,209.33a4.21,4.21,0,0,1-.09.49,3.18,3.18,0,0,1-.1.52c-.11.37-.22.75-.32,1.16-1.2,4.32-4.47,12.13-7.68,20.8-1.16,3.1-2.33,6.33-3.37,9.55-.3,1.05-.62,2.13-.94,3.23h0c-.05.21-.12.43-.17.64a26.93,26.93,0,0,0-.76,2.66h0c-.17.63-.33,1.26-.5,1.88-.47,1.85-.89,3.67-1.19,5.47,0,.23-.09.48-.11.73-.11.63-.18,1.26-.25,1.89a17.17,17.17,0,0,0-.19,2.15,25.92,25.92,0,0,0,0,5.84,6.17,6.17,0,0,1,.09.62c.06.33.11.68.16,1.06a3.23,3.23,0,0,0,.09.6c0,.2,0,.28.07.42.09.51.16,1,.26,1.57s.18,1.13.3,1.73.25,1.2.34,1.85c0,.18.08.36.13.54a4.67,4.67,0,0,0,.08.52c.19.9.37,1.86.58,2.84.13.66.25,1.33.39,2,.09.42.16.88.25,1.32.26,1.34.53,2.77.8,4.24.19.9.35,1.78.48,2.7v0c.05.29.09.59.14.87.4,2.26.83,4.64,1.27,7.16q.69,4.08,1.37,8.58c.29,1.84.57,3.71.84,5.65.19,1.36.35,2.77.54,4.22.25,1.76.46,3.53.69,5.37l-15.78-9.1-51.74-29.69c5.14-14.43,8.48-31,8.85-39.35a13.11,13.11,0,0,0-.34-4.75s-9.25-13.17-5.48-28.53c3-12.16,4.41-21.09,8.43-25.26a7,7,0,0,1,5.9-2.27c9.26.51,28.33,3,32.2,5.35,0,0,18.88,11.26,23.72,19.11v.06A5.32,5.32,0,0,1,570.69,209.33Z"/><path class="cls-44" d="M563.59,317.61c.12.9.23,1.8.34,2.72l-15.78-9.1a3.74,3.74,0,0,1-.12-.45,90.73,90.73,0,0,1-2.49-16.22c-.16.16-.29.3-.45.48L523.74,282.7c3.23-3.22,5.59-5.84,6.35-7.35,3.32-6.38,8.24-29.84,9-33.92.83-6.07,6-37.19,24.92-37.19a21.38,21.38,0,0,1,3.48.35l.25.07.19.09a11,11,0,0,1,1.68,1v.06a5.32,5.32,0,0,1,1,3.51,4.21,4.21,0,0,1-.09.49,3.18,3.18,0,0,1-.1.52l.21.14c-1.84,6.35-7.65,19.45-11.86,32.55-.23.68-.44,1.36-.66,2h0c-.05.21-.12.43-.17.64a26.93,26.93,0,0,0-.76,2.66h0c-.17.63-.33,1.26-.5,1.88-.47,1.85-.88,3.67-1.16,5.45,0,.25-.1.5-.14.75s0,.49-.09.72c0,.4-.1.78-.16,1.17a17.17,17.17,0,0,0-.19,2.15,25.92,25.92,0,0,0,0,5.84,6.17,6.17,0,0,1,.09.62c.06.33.11.68.16,1.06a3.23,3.23,0,0,0,.09.6c0,.2.05.28.07.42.09.51.16,1,.26,1.57s.22,1.1.32,1.71.25,1.21.36,1.89a3.55,3.55,0,0,0,.09.52c.21,1,.44,2.18.66,3.36.13.66.25,1.33.39,2,.09.42.16.88.25,1.32.25,1.34.51,2.77.78,4.24.17.9.35,1.78.5,2.7v.05l.15.87c.41,2.26.84,4.64,1.26,7.16q.69,4.08,1.37,8.58c.3,1.82.59,3.71.87,5.63.19,1.4.33,2.79.53,4.22Z"/><path class="cls-45" d="M508.22,157.88s-.18,40.18,4.6,40c5-.17,18.09-3.49,20.67-9.82s5.34-20.94,1.36-25.77-32.63-16-31.81-14.4S508.22,155.65,508.22,157.88Z"/><path class="cls-46" d="M526.07,187.68s1.6,10.33,2.86,11.79c3.16,3.71,18.24,2.15,21.37-5.7l-2.37-21.91Z"/><path class="cls-47" d="M526.56,122.88c-10,2.64-20.69,19.83-17.79,39.41,3.65,24.65,7.77,37.22,26,24.87,10.47-7.08,23.39-12.88,19.33-44.86C552.12,126.44,534.87,120.69,526.56,122.88Z"/><path class="cls-48" d="M502.75,305a24.49,24.49,0,0,1-11,5.39,9.75,9.75,0,0,0-4.82.39c-3.15,1.31-10.82,1.62-9.56,4.48s7.23.8,6.35,1.92-15.5,10.65-14.5,12.49,3.38.95,3.38.95-3.43,3.13-2.56,4.68,2.73,1.3,4.56.16c0,0-.59,3.74,4.52,1,0,0,.06,1.7,3.78,0,3.15-1.44,11.33-5.91,15.75-13.37a2,2,0,0,0,.34-.6h0c.15-.27.3-.55.44-.84,1.74-2.74,6-4.26,7.84-7C509.35,311.62,502.75,305,502.75,305Z"/><path class="cls-49" d="M541.67,239.74c1.3-9.69,7.69-40.8,25.14-35.49,3.72,1.14,6.33,4.06,6.07,15.11-.17,6.81-3.11,15.52-5.52,21.73a.61.61,0,0,1-.05.12c-.38,1-.73,1.86-1.07,2.69-3.53,8.76-14.52,35.64-19.3,43.15-5.14,8.06-36.14,27.24-42.72,31.26a2.78,2.78,0,0,1-2.51.1c-2-1.12-5.57-3.77-5.9-8.37a3.24,3.24,0,0,1,1.11-2.35c5.75-4.76,32-26.71,35.49-33.36C536.27,266.9,541.62,240,541.67,239.74Z"/><path class="cls-50" d="M522.39,189.34H522l-3.4-.55a2.46,2.46,0,0,1,.79-4.86l3.41.56a2.46,2.46,0,0,1-.4,4.89Z"/><path class="cls-51" d="M526.22,188a21.42,21.42,0,0,1-2.4-.11.83.83,0,0,1-.72-.9.84.84,0,0,1,.91-.73c.1,0,10.06,1.06,16.57-4.43,3.44-2.91,5.33-7.14,5.65-12.6a.83.83,0,0,1,.8-.85.82.82,0,0,1,.84.8.76.76,0,0,1,0,.15c-.33,5.92-2.43,10.55-6.23,13.76C536.5,187.35,529.73,188,526.22,188Z"/><path class="cls-45" d="M513.62,125.66c-3.62,4-9.56,10.87-10.86,18.73-.89,5.21,3.92,11.08,16,9.67,4.2-.5,7.27.64,15.33-2.75,3.36-1.4,4.1,12,4.1,16.23,0,9.07-9.18,41.38,2.92,37.54,11.47-3.64,22.34-.91,24.76-23.25s2.72-55.69-19-59.4C546.84,122.43,531.22,106.14,513.62,125.66Z"/><path class="cls-52" d="M234.88,341.28c0,5.45-2.65,10.46-7.42,14.81-8.61,7.86-24.08,13.5-43.16,15.34-.74.07-1.48.14-2.22.19l-2.24.16c-3,.2-6.12.29-9.28.29-1.61,0-3.21,0-4.8-.08s-3-.11-4.48-.21-3-.2-4.46-.35c-19-1.84-34.51-7.45-43.13-15.3h0c-4.8-4.37-7.47-9.4-7.47-14.85,0-17.57,27.66-30.81,64.34-30.81S234.88,323.71,234.88,341.28Z"/><path class="cls-26" d="M219.33,347.36h0c-5.62,8.67-23.45,18.05-48.8,18.05s-43.16-9.38-48.8-18.05h0a18.9,18.9,0,0,1-4.3-13.34v-.1h0a17.27,17.27,0,0,1,.34-2.38h0a2.93,2.93,0,0,1,.11-.53c0-.17,0-.16.06-.22s0-.07,0-.11.07-.27.11-.41.07-.27.12-.41h0a1,1,0,0,1,0-.3l.07-.21c0-.18.11-.33.16-.5v-.11a.67.67,0,0,0,.07-.18v-.06a2.29,2.29,0,0,0,.1-.23c0-.14.1-.27.16-.4v-.08c.06-.16.13-.33.2-.49h0a.19.19,0,0,1,.07-.17,23.44,23.44,0,0,1,4.15-6.38c4.51-4.82,14.81-3.06,24.63.26A94.92,94.92,0,0,1,193,321c9.78-3.3,20-5.07,24.57-.34l.08.08a23.44,23.44,0,0,1,4.15,6.35.77.77,0,0,1,.07.16h0c.08.16.15.32.22.5l.1.24v.05c.06.13.12.3.17.44h0l.07.21v.1a2.25,2.25,0,0,1,.08.24.24.24,0,0,0,.07.2c.07.23.16.47.22.73v.18c0,.05.09.31.12.46s0,.06,0,.07h0v.17c.06.21.1.41.14.62a17.27,17.27,0,0,1,.34,2.38h0a.17.17,0,0,1,0,.1A19.07,19.07,0,0,1,219.33,347.36Z"/><path class="cls-53" d="M223.64,334.5a18.7,18.7,0,0,1-4.42,12.32h0c-5.64,8.65-23.43,18-48.74,18s-43.11-9.32-48.72-18h0a18.75,18.75,0,0,1-4.4-12.32v-.58h0a17.27,17.27,0,0,1,.34-2.38h0a2.93,2.93,0,0,1,.11-.53c0-.17,0-.16.06-.22s0-.07,0-.11.07-.27.11-.41.07-.27.12-.41h0a.79.79,0,0,1,.12-.3l.07-.21c0-.18.11-.33.16-.5v-.11a.67.67,0,0,0,.07-.18v-.06a2.29,2.29,0,0,0,.1-.23c0-.14.1-.27.16-.4v-.08c.06-.16.13-.33.2-.49h0a.19.19,0,0,1,.07-.17,23.44,23.44,0,0,1,4.15-6.38c4.51-4.82,14.81-3.06,24.63.26A94.92,94.92,0,0,1,193,321c9.78-3.3,20-5.07,24.57-.34l.08.08a23.44,23.44,0,0,1,4.15,6.35.77.77,0,0,1,.07.16h0c.08.16.15.32.22.5l.1.24v.05c.06.13.12.3.17.44h0l.07.21v.1a2.25,2.25,0,0,1,.08.24.24.24,0,0,0,.07.2c.07.23.16.47.22.73v.18c0,.05.09.31.12.46s0,.06,0,.07h0v.17c.06.21.1.41.14.62a17.27,17.27,0,0,1,.34,2.38h0a.17.17,0,0,1,0,.1A.6.6,0,0,1,223.64,334.5Z"/><path class="cls-54" d="M223.64,334.5a18.18,18.18,0,0,1-4.42,11.75h0c-5.61,8.61-23.38,17.91-48.66,17.91s-43-9.3-48.65-17.91h0a18.26,18.26,0,0,1-4.47-11.75v-.58h0a17.27,17.27,0,0,1,.34-2.38h0a2.93,2.93,0,0,1,.11-.53c0-.17,0-.16.06-.22s0-.07,0-.11.07-.27.11-.41.07-.27.12-.41h0a1,1,0,0,1,0-.3l.07-.21c0-.18.11-.33.16-.5v-.11a.67.67,0,0,0,.07-.18v-.06a2.29,2.29,0,0,0,.1-.23c0-.14.1-.27.16-.4v-.08c.06-.16.13-.33.2-.49h0a.19.19,0,0,1,.07-.17,23.44,23.44,0,0,1,4.15-6.38c4.51-4.82,14.81-3.06,24.63.26A94.92,94.92,0,0,1,193,321c9.78-3.3,20-5.07,24.57-.34l.08.08a23.44,23.44,0,0,1,4.15,6.35.77.77,0,0,1,.07.16h0c.08.16.15.32.22.5l.1.24v.05c.06.13.12.3.17.44h0l.07.21v.1a2.25,2.25,0,0,1,.08.24.24.24,0,0,0,.07.2c.07.23.16.47.22.73v.18c0,.05.09.31.12.46s0,.06,0,.07h0v.17c.06.21.1.41.14.62a17.27,17.27,0,0,1,.34,2.38h0a.17.17,0,0,1,0,.1A.6.6,0,0,1,223.64,334.5Z"/><path class="cls-55" d="M223.36,334.41v.37a19.43,19.43,0,0,1-4.23,10.93h0c-5.65,8.58-23.39,17.85-48.63,17.85s-43-9.25-48.58-17.82h0a19.58,19.58,0,0,1-4.23-10.85v-.68a2.81,2.81,0,0,1,0-.41,11.61,11.61,0,0,1,.08-1.68,7.1,7.1,0,0,1,.14-1.14.29.29,0,0,1,.06-.22c.06-.06,0-.07,0-.11s.07-.27.11-.41.07-.27.12-.41h0a.82.82,0,0,1,0-.27l.07-.21c0-.18.11-.33.16-.5v-.11a.67.67,0,0,0,.07-.18v-.06a2.29,2.29,0,0,0,.1-.23c0-.14.1-.27.16-.4v-.08c.06-.16.13-.33.2-.49h0a.19.19,0,0,1,.07-.17,23.44,23.44,0,0,1,4.15-6.38c4.51-4.82,14.81-3.06,24.63.26A94.92,94.92,0,0,1,193,321c9.78-3.3,20-5.07,24.57-.34l.08.08a23.44,23.44,0,0,1,4.15,6.35.77.77,0,0,1,.07.16h0c.08.16.15.32.22.5l.1.24v.05c.06.13.12.3.17.44h0l.07.21v.1a2.25,2.25,0,0,1,.08.24.24.24,0,0,0,.07.2c.07.23.16.47.22.73v.18c0,.05.09.31.12.46s0,.06,0,.07h0v.17a.49.49,0,0,1,0,.17A18.48,18.48,0,0,1,223.36,334.41Z"/><path class="cls-56" d="M223.36,334.41v.37a18.89,18.89,0,0,1-4.29,10.37h0c-5.59,8.53-23.31,17.74-48.51,17.74s-42.91-9.21-48.5-17.74h0a19.08,19.08,0,0,1-4.29-10.29v-.68a2.81,2.81,0,0,1,0-.41,12.3,12.3,0,0,1,.11-2.27h0A2.93,2.93,0,0,1,118,331c0-.17,0-.16.06-.22s0-.07,0-.11.07-.27.11-.41.07-.27.12-.41h0a1.1,1.1,0,0,1-.06-.26l.07-.21c0-.18.11-.33.16-.5v-.11a.67.67,0,0,0,.07-.18v-.06a2.29,2.29,0,0,0,.1-.23c0-.14.1-.27.16-.4v-.08c.06-.16.13-.33.2-.49h0a.19.19,0,0,1,.07-.17,23.44,23.44,0,0,1,4.15-6.38c4.51-4.82,14.81-3.06,24.63.26A94.92,94.92,0,0,1,193,321c9.78-3.3,20-5.07,24.57-.34l.08.08a23.44,23.44,0,0,1,4.15,6.35.77.77,0,0,1,.07.16h0c.08.16.15.32.22.5l.1.24v.05c.06.13.12.3.17.44h0l.07.21v.1a2.25,2.25,0,0,1,.08.24.24.24,0,0,0,.07.2c.07.23.16.47.22.73v.18c0,.05.09.31.12.46s0,.06,0,.07h0v.17c.06.21.1.41.14.62A14.49,14.49,0,0,1,223.36,334.41Z"/><path class="cls-57" d="M223.22,332.62v.12A19.3,19.3,0,0,1,219,344.56h0c-5.58,8.48-23.28,17.65-48.44,17.65s-42.84-9.17-48.43-17.65h0a20.67,20.67,0,0,1-3.79-7.9,1.43,1.43,0,0,1-.09-.41,17.86,17.86,0,0,1-.26-5.31v-.36a1.56,1.56,0,0,1,.11-.41c0-.14.07-.27.12-.41h0a1.18,1.18,0,0,1,0-.2l.07-.21c0-.18.11-.33.16-.5v-.11a.67.67,0,0,0,.07-.18v-.06a2.29,2.29,0,0,0,.1-.23c0-.14.1-.27.16-.4v-.08c.06-.16.13-.33.2-.49h0a.19.19,0,0,1,.07-.17,23.44,23.44,0,0,1,4.15-6.38c4.51-4.82,14.81-3.06,24.63.26A94.92,94.92,0,0,1,193,321c9.78-3.3,20-5.07,24.57-.34l.08.08a23.44,23.44,0,0,1,4.15,6.35.77.77,0,0,1,.07.16h0c.08.16.15.32.22.5l.1.24v.05c.06.13.12.3.17.44h0l.07.21v.1a2.25,2.25,0,0,1,.08.24.24.24,0,0,0,.07.2c.07.23.16.47.22.73v.18c0,.05.09.31.12.46s0,.06,0,.07v.1A4.05,4.05,0,0,1,223.22,332.62Z"/><path class="cls-58" d="M223.22,332.62v.12a18.71,18.71,0,0,1-4.32,11.31h0c-5.58,8.44-23.25,17.57-48.37,17.57s-42.82-9.06-48.39-17.54h0a19.29,19.29,0,0,1-3.92-7.38,1.43,1.43,0,0,1-.09-.41,16.54,16.54,0,0,1-.45-4.2,5.81,5.81,0,0,1,0-.59h0a2.93,2.93,0,0,1,.11-.53c0-.17,0-.16.06-.22s0-.07,0-.11.07-.27.11-.41.07-.27.12-.41h0a.82.82,0,0,1,.14-.26l.07-.21c0-.18.11-.33.16-.5v-.11a.67.67,0,0,0,.07-.18v-.06a2.29,2.29,0,0,0,.1-.23c0-.14.1-.27.16-.4v-.08c.06-.16.13-.33.2-.49h0a.19.19,0,0,1,.07-.17,23.44,23.44,0,0,1,4.15-6.38c4.51-4.82,14.81-3.06,24.63.26A94.92,94.92,0,0,1,193,321c9.78-3.3,20-5.07,24.57-.34l.08.08a23.44,23.44,0,0,1,4.15,6.35.77.77,0,0,1,.07.16h0c.08.16.15.32.22.5l.1.24v.05c.06.13.12.3.17.44h0l.07.21v.1a2.25,2.25,0,0,1,.08.24.24.24,0,0,0,.07.2c.07.23.16.47.22.73v.18c0,.05.09.31.12.46s0,.06,0,.07h0v.17a.49.49,0,0,1,0,.17A2.69,2.69,0,0,1,223.22,332.62Z"/><path class="cls-59" d="M218.81,343.5h0c-5.57,8.41-23.22,17.5-48.3,17.5s-42.73-9.07-48.29-17.44h0a18.33,18.33,0,0,1-4.3-12.52v-.36s.07-.27.11-.41.07-.27.12-.41h0a1,1,0,0,1,.07-.3l.07-.21c0-.18.11-.33.16-.5v-.11a.67.67,0,0,0,.07-.18v-.06a2.29,2.29,0,0,0,.1-.23c0-.14.1-.27.16-.4v-.08c.06-.16.13-.33.2-.49h0a.19.19,0,0,1,.07-.17,23.44,23.44,0,0,1,4.15-6.38c4.51-4.82,14.81-3.06,24.63.26A94.92,94.92,0,0,1,193,321c9.78-3.3,20-5.07,24.57-.34l.08.08a23.44,23.44,0,0,1,4.15,6.35.77.77,0,0,1,.07.16h0c.08.16.15.32.22.5l.1.24v.05c.06.13.12.3.17.44h0l.07.21v.1a2.25,2.25,0,0,1,.08.24.24.24,0,0,0,.07.2c.07.23.16.47.22.73v.18c0,.05.09.31.12.46s0,.06,0,.07v.1A18.37,18.37,0,0,1,218.81,343.5Z"/><path class="cls-60" d="M223,331.11v.15a2.29,2.29,0,0,1,0,.37,19,19,0,0,1-4.19,11.31h0c-5.56,8.38-23.17,17.43-48.22,17.43s-42.65-9.05-48.22-17.43h0a20.53,20.53,0,0,1-4-9.47,11.92,11.92,0,0,1-.13-1.34v-.35a18.27,18.27,0,0,1,0-2.22l.07-.21c0-.18.11-.33.16-.5v-.11a.67.67,0,0,0,.07-.18v-.06a2.29,2.29,0,0,0,.1-.23c0-.14.1-.27.16-.4v-.08c.06-.16.13-.33.2-.49h0a.19.19,0,0,1,.07-.17,23.44,23.44,0,0,1,4.15-6.38c4.51-4.82,14.81-3.06,24.63.26A94.92,94.92,0,0,1,193,321c9.78-3.3,20-5.07,24.57-.34l.08.08a23.44,23.44,0,0,1,4.15,6.35.77.77,0,0,1,.07.16h0c.08.16.15.32.22.5l.1.24v.05c.06.13.12.3.17.44h0l.07.21v.1a2.25,2.25,0,0,1,.08.24.24.24,0,0,0,.07.2c.07.23.16.47.22.73A5.54,5.54,0,0,1,223,331.11Z"/><path class="cls-61" d="M223,330.7v.56a2.29,2.29,0,0,1,0,.37,18.29,18.29,0,0,1-4.26,10.76h0c-5.56,8.35-23.15,17.35-48.15,17.35s-42.59-9-48.14-17.35h0a20.36,20.36,0,0,1-3.85-7.83c0-.11-.06-.23-.08-.34-.13-.71-.24-1.42-.3-2.13v-.35a16.68,16.68,0,0,1,0-2h0l0-.18.07-.21c0-.18.11-.33.16-.5v-.11a.67.67,0,0,0,.07-.18v-.06a2.29,2.29,0,0,0,.1-.23c0-.14.1-.27.16-.4v-.08c.06-.16.13-.33.2-.49h0a.19.19,0,0,1,.07-.17,23.44,23.44,0,0,1,4.15-6.38c4.51-4.82,14.81-3.06,24.63.26A94.92,94.92,0,0,1,193,321c9.78-3.3,20-5.07,24.57-.34l.08.08a23.44,23.44,0,0,1,4.15,6.35.77.77,0,0,1,.07.16h0c.08.16.15.32.22.5l.1.24v.05c.06.13.12.3.17.44h0l.07.21v.1a2.25,2.25,0,0,1,.08.24.24.24,0,0,0,.07.2c.07.23.16.47.22.73v.13A4.31,4.31,0,0,1,223,330.7Z"/><path class="cls-62" d="M223,330.7v.46a17.66,17.66,0,0,1-4.37,10.67h0c-5.54,8.31-23.11,17.27-48.08,17.27s-42.52-9-48.06-17.27h0a19.05,19.05,0,0,1-3.89-7.27c0-.11-.06-.23-.08-.34a6.93,6.93,0,0,1-.17-.79,15.5,15.5,0,0,1-.28-3.26,1.28,1.28,0,0,1,.12-.41h0a.66.66,0,0,1,.06-.2l.07-.21c0-.18.11-.33.16-.5v-.11a.67.67,0,0,0,.07-.18v-.06a2.29,2.29,0,0,0,.1-.23c0-.14.1-.27.16-.4v-.08c.06-.16.13-.33.2-.49h0a.19.19,0,0,1,.07-.17,23.44,23.44,0,0,1,4.15-6.38c4.51-4.82,14.81-3.06,24.63.26A94.92,94.92,0,0,1,193,321c9.78-3.3,20-5.07,24.57-.34l.08.08a23.44,23.44,0,0,1,4.15,6.35.77.77,0,0,1,.07.16h0c.08.16.15.32.22.5l.1.24v.05c.06.13.12.3.17.44h0l.07.21v.1a2.25,2.25,0,0,1,.08.24.24.24,0,0,0,.07.2c.07.23.16.47.22.73v.18A.64.64,0,0,1,223,330.7Z"/><path class="cls-63" d="M222.69,329.23a18.45,18.45,0,0,1-4.17,12.06h0c-5.53,8.27-23.06,17.19-48,17.19s-42.45-8.92-48-17.19h0a18.59,18.59,0,0,1-4.18-11.94c0-.18.11-.33.16-.5v-.11a.67.67,0,0,0,.07-.18v-.06a2.29,2.29,0,0,0,.1-.23c0-.14.1-.27.16-.4v-.08c.06-.16.13-.33.2-.49h0a.19.19,0,0,1,.07-.17,23.44,23.44,0,0,1,4.15-6.38c4.51-4.82,14.81-3.06,24.63.26A94.92,94.92,0,0,1,193,321c9.78-3.3,20-5.07,24.57-.34l.08.08a23.44,23.44,0,0,1,4.15,6.35.77.77,0,0,1,.07.16h0c.08.16.15.32.22.5l.1.24v.05c.06.13.12.3.17.44h0l.07.21v.1a2.25,2.25,0,0,1,.08.24A.27.27,0,0,1,222.69,329.23Z"/><path class="cls-64" d="M222.51,328.69v1.36a4.91,4.91,0,0,1-.07,1v.07a20.19,20.19,0,0,1-4,9.6h0c-5.53,8.23-23,17.11-47.94,17.11s-42.4-8.88-47.92-17.11h0a19.59,19.59,0,0,1-4-10.63,2.29,2.29,0,0,1,0-.37v-1a.67.67,0,0,0,.07-.18v-.06a2.29,2.29,0,0,0,.1-.23c0-.14.1-.27.16-.4v-.08c.06-.16.13-.33.2-.49h0a.19.19,0,0,1,.07-.17,23.44,23.44,0,0,1,4.15-6.38c4.51-4.82,14.81-3.06,24.63.26a94.92,94.92,0,0,1,45.12,0c9.78-3.3,20-5.07,24.57-.34l.08.08a23.44,23.44,0,0,1,4.15,6.35.77.77,0,0,1,.07.16h0c.08.16.15.32.22.5l.1.24v0c.06.13.12.3.17.44h0Z"/><path class="cls-65" d="M222.54,328.79v1.3a14.68,14.68,0,0,1-.3,2.08,2.09,2.09,0,0,1-.08.34,19.64,19.64,0,0,1-3.73,7.68h0c-5.52,8.18-23,17-47.86,17s-42.33-8.85-47.85-17h0a18.88,18.88,0,0,1-4.1-10.08,2.29,2.29,0,0,1,0-.37v-1a.67.67,0,0,0,.07-.18v-.06a2.29,2.29,0,0,0,.1-.23c0-.14.1-.27.16-.4v-.08c.06-.16.13-.33.2-.49h0a.19.19,0,0,1,.07-.17,23.44,23.44,0,0,1,4.15-6.38c4.51-4.82,14.81-3.06,24.63.26a94.92,94.92,0,0,1,45.12,0c9.78-3.3,20-5.07,24.57-.34l.08.08a23.44,23.44,0,0,1,4.15,6.35.77.77,0,0,1,.07.16h0c.08.16.15.32.22.5l.1.24v.05c.06.13.12.3.17.44h0l.07.21Z"/><path class="cls-66" d="M222.54,328.79a2.25,2.25,0,0,1,.08.24,14.89,14.89,0,0,1-.2,2v.07c-.06.34-.13.68-.22,1a2.09,2.09,0,0,1-.08.34,18.56,18.56,0,0,1-3.81,7.12h0c-5.51,8.16-23,17-47.78,17s-42.25-8.8-47.78-17h0a19,19,0,0,1-4.08-10.29,4.68,4.68,0,0,0,0-.84,2.29,2.29,0,0,0,.1-.23c0-.14.1-.27.16-.4v-.08c.06-.16.13-.33.2-.49h0a.19.19,0,0,1,.07-.17,23.44,23.44,0,0,1,4.15-6.38c4.51-4.82,14.81-3.06,24.63.26a94.92,94.92,0,0,1,45.12,0c9.78-3.3,20-5.07,24.57-.34l.08.08a23.44,23.44,0,0,1,4.15,6.35.77.77,0,0,1,.07.16h0c.08.16.15.32.22.5l.1.24V328c.06.13.12.3.17.44h0l.07.21Z"/><path class="cls-67" d="M222.27,328c.06.13.12.3.17.44h0a18,18,0,0,1-4.22,10.6h0c-5.5,8.11-22.92,16.88-47.71,16.88s-42.2-8.77-47.7-16.88h0a18.1,18.1,0,0,1-4.15-9.74,5.12,5.12,0,0,1-.06-.78v-.06a2.29,2.29,0,0,0,.1-.23c0-.14.1-.27.16-.4v-.08c.06-.16.13-.33.2-.49h0a.19.19,0,0,1,.07-.17,23.44,23.44,0,0,1,4.15-6.38c4.51-4.82,14.81-3.06,24.63.26A94.92,94.92,0,0,1,193,321c9.78-3.3,20-5.07,24.57-.34l.08.08a23.44,23.44,0,0,1,4.15,6.35.77.77,0,0,1,.07.16h0c.08.16.15.32.22.5l.1.24Z"/><path class="cls-68" d="M222.22,328V328a18.25,18.25,0,0,1-4.06,10.52h0c-5.49,8.08-22.9,16.8-47.64,16.8s-42.15-8.73-47.65-16.8h0a21.21,21.21,0,0,1-2.92-5.32,17.12,17.12,0,0,1-1.1-5.33v-.08c.06-.16.13-.33.2-.49h0a.19.19,0,0,1,.07-.17,23.44,23.44,0,0,1,4.15-6.38c4.51-4.82,14.81-3.06,24.63.26a94.92,94.92,0,0,1,45.12,0c9.78-3.3,20-5.07,24.57-.34l.08.08a23.44,23.44,0,0,1,4.15,6.35.77.77,0,0,1,.07.16h0c.08.16.15.32.22.5Z"/><path class="cls-69" d="M222.22,328a18,18,0,0,1-4.16,10h0c-5.49,8-22.87,16.72-47.57,16.72S128.42,346,122.94,338h0a19.33,19.33,0,0,1-3-4.78,15.58,15.58,0,0,1-1.26-4.93c0-.14.1-.27.16-.4v-.08c.06-.16.13-.33.2-.49h0a.19.19,0,0,1,.07-.17,23.44,23.44,0,0,1,4.15-6.38c4.51-4.82,14.81-3.06,24.63.26A94.92,94.92,0,0,1,193,321c9.78-3.3,20-5.07,24.57-.34l.08.08a23.44,23.44,0,0,1,4.15,6.35.77.77,0,0,1,.07.16h0c.08.16.15.32.22.5Z"/><path class="cls-70" d="M221.93,327.25c.08.16.15.32.22.5a17.91,17.91,0,0,1-4.14,9.68h0c-5.48,8-22.83,16.65-47.5,16.65s-42-8.65-47.48-16.65h0a18,18,0,0,1-4.12-9.64c.06-.16.13-.33.2-.49h0a.19.19,0,0,1,.07-.17,23.44,23.44,0,0,1,4.15-6.38c4.51-4.82,14.81-3.06,24.63.26a94.92,94.92,0,0,1,45.12,0c9.78-3.3,20-5.07,24.57-.34l.08.08a23.44,23.44,0,0,1,4.15,6.35.77.77,0,0,1,.07.16Z"/><path class="cls-71" d="M221.93,327.25a18.46,18.46,0,0,1-4,9.63h0c-5.47,8-22.79,16.56-47.42,16.56s-41.93-8.61-47.41-16.56h0a18.67,18.67,0,0,1-4-9.58h0a.19.19,0,0,1,.07-.17,23.44,23.44,0,0,1,4.15-6.38c4.51-4.82,14.81-3.06,24.63.26a94.92,94.92,0,0,1,45.12,0c9.78-3.3,20-5.07,24.57-.34l.08.08a23.44,23.44,0,0,1,4.15,6.35.77.77,0,0,1,.07.16Z"/><path class="cls-72" d="M221.93,327.22a18,18,0,0,1-4.06,9.1h0c-5.47,7.92-22.76,16.49-47.35,16.49s-41.9-8.55-47.3-16.47h0a18,18,0,0,1-4.06-9h0a.19.19,0,0,1,.07-.17,23.44,23.44,0,0,1,4.15-6.38c4.51-4.82,14.81-3.06,24.63.26a94.92,94.92,0,0,1,45.12,0c9.83-3.32,20.12-5.08,24.65-.26a23.44,23.44,0,0,1,4.15,6.35Z"/><path class="cls-73" d="M221.22,328.37a9,9,0,0,1-.95,3.88c-1.49,3.15-4.67,6.47-9.31,9.46a55.17,55.17,0,0,1-11.63,5.61,75.82,75.82,0,0,1-13.53,3.44,95.31,95.31,0,0,1-15.28,1.2c-31,0-50.7-14-50.7-23.59s19.74-23.59,50.7-23.59S221.22,318.75,221.22,328.37Z"/><path class="cls-74" d="M172,223.13c-24.1,0-43.63,9.07-43.63,20.25v84.95c0,11.23,19.53,20.23,43.63,20.23s43.62-9.07,43.62-20.26V243.38C215.61,232.2,196.08,223.13,172,223.13Z"/><g class="cls-75"><path class="cls-76" d="M200.12,330c0,6-13.21,10.95-29.52,10.95s-29.51-4.9-29.51-10.95,13.21-11,29.51-11S200.12,324,200.12,330Z"/><path class="cls-77" d="M197.3,329.82c0,5.47-11.94,9.9-26.67,9.9S144,335.29,144,329.82s11.93-9.9,26.67-9.9S197.3,324.35,197.3,329.82Z"/><path class="cls-78" d="M194.48,329.61c0,4.89-10.67,8.84-23.83,8.84s-23.83-3.95-23.83-8.84,10.66-8.85,23.83-8.85S194.48,324.72,194.48,329.61Z"/><path class="cls-79" d="M191.66,329.4c0,4.3-9.4,7.79-21,7.79s-21-3.49-21-7.79,9.4-7.79,21-7.79S191.66,325.09,191.66,329.4Z"/><path class="cls-80" d="M188.84,329.18c0,3.73-8.13,6.74-18.15,6.74s-18.14-3-18.14-6.74,8.12-6.73,18.14-6.73S188.84,325.47,188.84,329.18Z"/><path class="cls-81" d="M186,329c0,3.14-6.85,5.68-15.3,5.68s-15.31-2.54-15.31-5.68,6.85-5.67,15.31-5.67S186,325.84,186,329Z"/><path class="cls-82" d="M183.22,328.76c0,2.55-5.58,4.63-12.46,4.63s-12.45-2.08-12.45-4.63,5.56-4.62,12.45-4.62S183.22,326.2,183.22,328.76Z"/><path class="cls-83" d="M180.38,328.56c0,2-4.31,3.57-9.62,3.57s-9.61-1.57-9.61-3.57,4.3-3.57,9.61-3.57S180.38,326.56,180.38,328.56Z"/><path class="cls-84" d="M177.55,328.34c0,1.39-3,2.51-6.77,2.51s-6.77-1.12-6.77-2.51,3-2.51,6.77-2.51S177.55,327,177.55,328.34Z"/><path class="cls-85" d="M174.73,328.12c0,.81-1.76,1.46-3.93,1.46s-3.93-.65-3.93-1.46,1.76-1.46,3.93-1.46S174.73,327.32,174.73,328.12Z"/><path class="cls-86" d="M158.12,313v12.58a3.84,3.84,0,0,0,0,.48c0,4,5.42,7.14,12.32,7.14S182.77,330,182.77,326V313Z"/><path class="cls-87" d="M153.32,301.92v17.51c0,.23,0,.45,0,.68,0,5.57,7.52,9.93,17.13,9.93s17.15-4.36,17.15-9.93V301.92Z"/><path class="cls-88" d="M170.4,311.85c-9.61,0-17.13-4.36-17.13-9.93S160.79,292,170.4,292s17.15,4.36,17.15,9.93S180,311.85,170.4,311.85Z"/><path class="cls-89" d="M187.54,313.82V317c0,5.55-7.53,9.91-17.14,9.91s-17.13-4.34-17.13-9.91a3.82,3.82,0,0,1,0-.68v-1.75c.67,5.17,7.93,9.15,17.08,9.15C180,323.75,187.54,319.38,187.54,313.82Z"/><path class="cls-90" d="M187.54,307.29v3.16c0,5.54-7.53,9.92-17.14,9.92s-17.13-4.38-17.13-9.92a3.82,3.82,0,0,1,0-.68v-1.71c.67,5.17,7.93,9.15,17.08,9.15C180,317.21,187.54,312.83,187.54,307.29Z"/><path class="cls-91" d="M199.62,262.56a30.48,30.48,0,0,0-8.53-21.22,28.69,28.69,0,0,0-20.59-8.91h-.18a28.79,28.79,0,0,0-20.61,8.91,30.55,30.55,0,0,0-8.49,21.22h0a27.7,27.7,0,0,0,2.47,11.08,65.06,65.06,0,0,0,5.24,9.32c3.81,5.88,4.46,8,5.39,13.66.19,1.18.4,2.41.54,3.23l.31,2.08h0c0,4.48,6.86,8.12,15.32,8.12s15.32-3.64,15.33-8.12h0l.21-2.08c.15-.82.34-2,.54-3.23.94-5.7,1.58-7.78,5.39-13.66a61.75,61.75,0,0,0,5.23-9.32,27.37,27.37,0,0,0,2.44-11.08Z"/><path class="cls-92" d="M177.82,303.15a.91.91,0,0,1-.91-.91h0V266.56L171,272.33a.92.92,0,0,1-1.27,0l-5.8-5.77v35.65a.91.91,0,0,1-1.81.19v-38a.91.91,0,0,1,.93-.89.86.86,0,0,1,.61.25l6.72,6.64,6.87-6.64a.91.91,0,0,1,1-.19.88.88,0,0,1,.55.83v37.83a.9.9,0,0,1-.89.91Z"/></g><path class="cls-93" d="M367.38,448.39l-81.7-35c-3.68,4.05-11.39,12.32-19.59,13.22-2.37.25-3.56,2.92-4.14,4.93l-2.37-.89c-3.66,4-11.77,9.18-20,10.08-3.83.41-4.61,7.18-4.61,7.18l71.71,39.71c12-4.39,28.29-10.76,35.74-18C354.57,464,365.65,456.1,367.38,448.39Z"/><path class="cls-94" d="M305.44,425.73h0a4.79,4.79,0,0,1-.35.72,11.31,11.31,0,0,1-5,3.82l-.79.32c-2.92,1.07-8.54.57-8.54.57l-.28.74c-5.68.53-6.64-1-6.64-1l.3-1.65.45-2.58,1-2.5s6-.88,11.79-1.24c2.59-.16,7.77-1.5,8.25.84A3.46,3.46,0,0,1,305.44,425.73Z"/><path class="cls-94" d="M280.46,415.07a12.62,12.62,0,0,1-1.42,3.44c-1.56,2.66-6.43,4.52-6.43,4.52v.65s-.21.69-3.16,1.38a3.85,3.85,0,0,1-4.22-1.21l.1-1.09h0l.39-5.1,5.52-2.18s6.12-5,8.26-4.33C280.8,411.56,280.93,413.23,280.46,415.07Z"/><path class="cls-95" d="M280.46,415.07a12.62,12.62,0,0,1-1.42,3.44c-1.56,2.66-6.43,4.52-6.43,4.52v.65s-.21.69-3.16,1.38a3.85,3.85,0,0,1-4.22-1.21l.1-1.09a3.59,3.59,0,0,0,3.14,1.43,4.57,4.57,0,0,0,4.14-1.81C276.22,420.61,278.3,419.94,280.46,415.07Z"/><path class="cls-96" d="M294.22,383c.43,11.44-.22,42.16-.22,42.16s-1.68,2.83-8.65.9c0,0-2.41-33.17-3.7-35.17l-8.38-9.31S293.83,371.69,294.22,383Z"/><path class="cls-97" d="M278,372.56c3.57,10-1,41.2-1,41.2s-1.69,2.83-8.66.9c0,0-1.38-31.46-2.68-33.46l-9.4-9.25S274.22,361.84,278,372.56Z"/><path class="cls-98" d="M217.86,396.13v40h0c0,1.72,1.07,3.45,3.35,4.77l25.35,14.66c4.47,2.58,11.73,2.58,16.2,0l19.78-11.42c2-1.18,3.15-2.7,3.32-4.25h0V399.34Z"/><path class="cls-99" d="M282.54,404l-19.78,11.42c-4.47,2.58-11.73,2.58-16.2,0L221.22,400.8c-4.48-2.58-4.48-6.77,0-9.35L241,380c4.48-2.58,11.73-2.58,16.2,0l25.35,14.63C287,397.24,287,401.43,282.54,404Z"/><path class="cls-100" d="M248.81,280.34c.29,1,.68,3.27,1.27,3.73.41.33.29,1.38.2,2h0c-.71,3.41-6,24.13-7.75,29s-9.87,22.79-2,23c3.08.11,7.36-12,10.08-24.85,2.58-12.2,4.18-24,4.43-26.58h0a6.29,6.29,0,0,1,.75-1.77c.92-1.44,2.18-8.14,2-10.22-.25-2.74-3.38-4.25-4.9-4.18s-2.52,8.41-2.52,8.41-.45-2.24-1.76-2.21C247.63,276.72,248.52,279.32,248.81,280.34Z"/><path class="cls-101" d="M246.51,394.89c7.28-3.37,30.15-18.51,30.84-20.66,1.43-4.4-3-9.56-11.92-7.4-10,2.42-23.44,7.78-22.82,7.73S239.44,398.18,246.51,394.89Z"/><path class="cls-102" d="M240.73,318.42c.15-.39.31-.77.43-1.11h0c6.22-1.12,8.57.54,9.42,1.6-2.3,10-2.2,20-6.93,20.73a13.47,13.47,0,0,1-4.39.12c-3.64-.55-2.9-7.75-2-11.17h0A88.27,88.27,0,0,1,240.73,318.42Z"/><path class="cls-103" d="M237.34,375.08s-.93,13.73,2.45,19.32,15.22,11.83,22.77,9.08,28.14-15.61,29.89-17c4.42-3.56-.14-11.91-7.08-10.75-10.14,1.7-25.61,7.19-25,7.19S237.34,375.08,237.34,375.08Z"/><path class="cls-104" d="M254.1,317.78a26.17,26.17,0,0,1-1.87-4.56l2.07-8.08,10-3.28s2.13,14.89-.12,17.65c-1.19,1.45-3.71,1.28-4.82,1.69l-.77,7.53-9.7-1.47.6-9.46Z"/><path class="cls-105" d="M268.82,365.9v.25c.05,9.86.07,11.47.07,15.3v6.25h0a12.46,12.46,0,0,1-5.75,5.2,2.35,2.35,0,0,1-.37.14h0a23.35,23.35,0,0,1-5.29,1.15c-10.93.55-21.16-9.14-20.8-14.7.23-3.61.26-9.62.28-14.21.11-19.86-1.55-27.61,1.18-36.32,1.27-4,8.14-4.62,8.67-4.64h0l2.12-.1s.36.69,2.79,1.39c1.94.57,7.84,1.94,7.84,1.94h.09c.72.22,5.51,1.64,7.48,3,3.92,1.68,2.23,16.12,2.23,16.15,0,7.7-.36,15.76-.5,18.43C268.84,365.56,268.84,365.74,268.82,365.9Z"/><path class="cls-106" d="M268.82,357.87V358c0,2.36,0,4.78.05,7.18V387.7h0a12.46,12.46,0,0,1-5.75,5.2,2.35,2.35,0,0,1-.37.14h0c.16-9.17,1.69-24.57,1.55-28.75-.19-6.14-2.75-17.78-2.75-21v-1.67c.51,1.08,1.91,1.2,3.05,1.31,2.65.21,2.71-.12,4.73-.33a4,4,0,0,1,0,.49v3.67C269.31,351.94,268.91,356.93,268.82,357.87Z"/><path class="cls-107" d="M264.81,299.15c-1.62-4.82-10.12-3.17-12.53-2.77-11.25,1.84-7.79,14.53-7.18,15.92,1.24,2.77,3.07,4.85,3.83,6.3s.86,1.58,5.3,1.43c3.94-.13,4.21-5.36,4.4-7.24.08-.84-.47-3,1.1-3.22s2.13,2.19,2.66,1.34a12.15,12.15,0,0,0,.57-4.4,11.63,11.63,0,0,0-.3-2.35C262.6,303.44,266.28,303.56,264.81,299.15Z"/><path class="cls-100" d="M276,389.46c-.61-.86-1.72-2.86-2.42-3.11-.5-.17-.74-1.2-.84-1.77h0c-.47-3.46-2.34-24.75-2.27-29.92s2.51-21.32-5-19c-2.94.92-4.6,8.16-2.91,21.19,1.59,12.37,4.87,26.14,5.5,28.7h0a5.64,5.64,0,0,1-.12,1.92c-.39,1.66.63,8.4,1.49,10.31,1.14,2.5,4.6,2.89,6,2.32s-.41-8.77-.41-8.77,1.17,2,2.39,1.5C278.32,392.49,276.62,390.33,276,389.46Z"/><path class="cls-108" d="M271.05,350.85V352h0c-5.5,3.12-8.27,2.33-9.42,1.6-1.15-10.22-.48-22,3.06-23.17,2.14-.69,3.16.49,4,1.21,1.57,1.43,2,4.9,2.35,8.42h0A87.63,87.63,0,0,1,271.05,350.85Z"/><path class="cls-109" d="M436.06,488.56l-81.71-35c-3.68,4-11.39,12.32-19.59,13.21-2.36.26-3.56,2.93-4.14,4.94l-2.36-.9c-3.67,4.05-11.78,9.19-20,10.09-3.83.41-4.61,7.18-4.61,7.18l71.71,39.71c12-4.39,28.3-10.76,35.74-18C423.22,504.15,434.33,496.29,436.06,488.56Z"/><path class="cls-110" d="M354.63,463.26s-.68-.12-1,4.3c-.15,2.11-.18,1.85.66,7.89,0,0,1,.45,1.45,0l1.33-5.06s3.9,5.56,6.51,5.95,12.17.5,12.22-1.22-6-3.67-7.95-5.2-5.94-7.2-5.94-7.2S355.79,462.34,354.63,463.26Z"/><path class="cls-111" d="M362.93,423.25c.42,11.43-.19,40.59-.19,40.59s-2.22,3.14-9.18,1.22c0,0-1.91-31.93-3.21-33.92L342,421.82S362.51,411.9,362.93,423.25Z"/><path class="cls-112" d="M346.69,412.73c3.58,10-1,41.2-1,41.2s-1.68,2.83-8.65.9c0,0-1.38-31.47-2.67-33.47L325,412.12S342.89,402,346.69,412.73Z"/><path class="cls-113" d="M286.53,436.32v40h0c0,1.72,1.07,3.45,3.35,4.77l25.34,14.61a17.94,17.94,0,0,0,16.21,0l19.79-11.42c2-1.18,3.15-2.7,3.32-4.25h0V439.56Z"/><path class="cls-114" d="M351.22,444.2l-19.77,11.42a17.88,17.88,0,0,1-16.21,0L289.9,441c-4.48-2.59-4.48-6.77,0-9.36l19.78-11.42c4.47-2.57,11.73-2.57,16.2,0l25.34,14.64C355.68,437.43,355.68,441.62,351.22,444.2Z"/><path class="cls-115" d="M315.22,435.08c7.28-3.38,30.15-18.51,30.85-20.66,1.42-4.41-3-9.55-11.93-7.4-10,2.41-23.44,7.78-22.81,7.73S308.11,438.37,315.22,435.08Z"/><path class="cls-116" d="M307.38,415.72s-2.3,13.28,1.09,18.87,15.21,11.83,22.75,9.08,28.15-15.6,29.91-17c4.41-3.56-.15-11.91-7.1-10.75-10.13,1.7-25.59,7.19-25,7.19S307.38,415.72,307.38,415.72Z"/><path class="cls-100" d="M341.22,428s4.7,2.71,4.14,3.53-1.71.25-1.71.25,3.14,6,3.26,7.17-1,3.51-2.27,3.35-5.5-5-6.79-7.86a9.06,9.06,0,0,1-.93-4.88S339.89,427.19,341.22,428Z"/><path class="cls-100" d="M324,343.76l-1.84,1.06c0-.38-2.19.57-2.19.57l-8-.22L308.67,368l-1.3,8.42c2.31,3.75,11.8,4.16,12.15,4.23s2.51-9.65,2.64-10.53l-.35-2.8c6.15-1.06,7.12.13,6.92-12.2C328.51,340.38,324,343.76,324,343.76Z"/><path class="cls-117" d="M335.37,422.56s-.14.21-.42.55a11.61,11.61,0,0,1-5.88,3.9c-1.73.37-3.34.81-5,1.06a18.17,18.17,0,0,1-3.3.18,2.72,2.72,0,0,1-.57,0c-7.11-.54-14.12-4.48-14.47-7.19,0,0,1.48-13.9,1-20.59s-6.89-21.36-1.77-31.4c2.39-4.69,15.09-.14,15.09-.14s8.76,1.73,11.35,4.53a10.3,10.3,0,0,1,1.7,3.43c1.78,5.24,2.86,14.37.92,17.86-1.84,3.3-3.37,3.14-3.37,3.14V398a3.91,3.91,0,0,0,.08.79C331.22,402.56,333.32,417.45,335.37,422.56Z"/><path class="cls-42" d="M330.76,398.75c.44,3.69,2.28,18.24,4.19,24.4a11.61,11.61,0,0,1-5.88,3.9c-1.73.37-3.34.81-5,1.06,3.53-2.37,4.44-14.6,3.09-21.89-1.29-7-2.55-17-2.86-21.78s2.95-9.5,2.95-9.5l5.89,2c1.78,5.24,2.86,14.37.92,17.86-1.84,3.3-3.37,3.14-3.37,3.14V398C330.69,398.06,330.71,398.35,330.76,398.75Z"/><path class="cls-118" d="M323.86,374.56s7.48-5,9.56,1.94c1.26,4.18.87,27.53,1.38,28.41,1.63,2.8,6.2,23.28,6.2,23.28s-.06,4-4.26,2.75c0,0-7.9-12.26-9.27-23.94C327.16,404.38,318.13,377.66,323.86,374.56Z"/><path class="cls-45" d="M326.75,370.1c.09,1.36-4.21,4.48-8.86,4.48-4.42,0-12.45-1.34-11.82-5.76.5-3.48.21-8.8-.17-15.34-.25-4.41,1-14.23,11.86-14.23,7.36,0,10.72,4.77,11.59,10.92a.09.09,0,0,1,0,.07c0,3.32-2,3.25-2.7,5C325.94,359.56,326.54,367.07,326.75,370.1Z"/><path class="cls-119" d="M515.1,526.56l-81.72-35c-3.66,4.05-11.38,12.32-19.59,13.22-2.35.26-3.56,2.93-4.13,4.94l-2.36-.91c-3.68,4.06-11.78,9.2-20,10.1-3.83.41-4.62,7.17-4.62,7.17L454.4,565.8c12-4.39,28.29-10.77,35.73-18C502.28,542.11,513.36,534.24,515.1,526.56Z"/><path class="cls-94" d="M453.15,503.88h0a4.84,4.84,0,0,1-.36.72,11.24,11.24,0,0,1-5,3.82,7.68,7.68,0,0,1-.79.32c-2.92,1.08-8.53.58-8.53.58l-.28.73c-5.68.54-6.64-1-6.64-1l.29-1.66.47-2.58,1-2.49s6-.89,11.78-1.24c2.6-.17,7.77-1.51,8.25.84A3.37,3.37,0,0,1,453.15,503.88Z"/><path class="cls-94" d="M428.22,493.21a13.18,13.18,0,0,1-1.43,3.45c-1.55,2.65-6.42,4.52-6.42,4.52v.64s-.22.69-3.16,1.39A3.86,3.86,0,0,1,413,502l.1-1.08h0l.39-5.11,5.52-2.17s6.12-5,8.26-4.34C428.51,489.71,428.64,491.37,428.22,493.21Z"/><path class="cls-95" d="M428.22,493.21a13.18,13.18,0,0,1-1.43,3.45c-1.55,2.65-6.42,4.52-6.42,4.52v.64s-.22.69-3.16,1.39A3.86,3.86,0,0,1,413,502l.1-1.08a3.61,3.61,0,0,0,3.13,1.43,4.62,4.62,0,0,0,4.1-1.78C423.91,498.75,426,498.08,428.22,493.21Z"/><path class="cls-120" d="M442,461.19c.43,11.43-.21,42.15-.21,42.15s-1.69,2.83-8.67.9c0,0-2.4-33.16-3.69-35.16L421,459.77S441.55,449.84,442,461.19Z"/><path class="cls-121" d="M425.73,450.68c3.58,10.05-1,41.21-1,41.21s-1.69,2.83-8.66.9c0,0-1.38-31.47-2.67-33.47L404,450.08S421.92,440,425.73,450.68Z"/><path class="cls-122" d="M365.57,474.28v40h0c-.05,1.72,1.07,3.45,3.35,4.76l25.34,14.64c4.47,2.58,11.72,2.58,16.2,0l19.76-11.44c2.06-1.19,3.16-2.71,3.33-4.25h0V477.48Z"/><path class="cls-123" d="M430.22,482.16l-19.75,11.4c-4.48,2.58-11.73,2.58-16.2,0l-25.34-14.63c-4.48-2.59-4.48-6.77,0-9.36l19.77-11.42c4.48-2.58,11.73-2.58,16.2,0l25.32,14.65C434.72,475.39,434.72,479.56,430.22,482.16Z"/><path class="cls-124" d="M394.22,473c7.28-3.38,30.15-18.51,30.84-20.66,1.43-4.41-3-9.56-11.92-7.41-10,2.42-23.45,7.78-22.82,7.74S387.15,476.32,394.22,473Z"/><path class="cls-125" d="M385.05,453.22s-.93,13.74,2.45,19.32,15.22,11.83,22.76,9.08,28.14-15.6,29.9-17c4.42-3.57-.15-11.91-7.09-10.75-10.14,1.7-25.6,7.18-25,7.18S385.05,453.22,385.05,453.22Z"/><path class="cls-126" d="M445.22,448.31h0a1.17,1.17,0,0,1-.57,1l-19.1,10.95a2.27,2.27,0,0,1-2.09,0l-26.24-15.15a1.11,1.11,0,0,1-.55-1,1.22,1.22,0,0,1,.47-1.05L416.22,433a2.35,2.35,0,0,1,2.1,0l26.41,14.38A1.12,1.12,0,0,1,445.22,448.31Z"/><path class="cls-127" d="M445.22,448.31h0a1.34,1.34,0,0,1-.43.39l-19.07,10.93a2.34,2.34,0,0,1-1.19.3,2.5,2.5,0,0,1-1.19-.3l-26.26-15.14a1.29,1.29,0,0,1-.41-.36,1.22,1.22,0,0,1,.47-1.05L416.22,433a2.35,2.35,0,0,1,2.1,0l26.41,14.38A1.12,1.12,0,0,1,445.22,448.31Z"/><path class="cls-128" d="M427.05,454.21l-20.83-12a.52.52,0,0,1-.4-.6.51.51,0,0,1,.4-.4l10.3-6a1.82,1.82,0,0,1,1.67,0l20.89,12a.5.5,0,0,1,.4.6.51.51,0,0,1-.4.4l-10.3,6A2,2,0,0,1,427.05,454.21Z"/><path class="cls-129" d="M414.3,452.65l-6.15-3.54a.17.17,0,0,1-.08-.21.15.15,0,0,1,.08-.08l3-1.75a.53.53,0,0,1,.49,0l6.16,3.55c.14.08.14.2,0,.28l-3,1.75A.55.55,0,0,1,414.3,452.65Z"/><path class="cls-130" d="M418.88,433.47l24.88,14.37a1,1,0,0,0,1.38-.32,1.09,1.09,0,0,0,.13-.34l4.38-19.72a2,2,0,0,0-.9-2.06L423.87,411a1,1,0,0,0-1.38.32,1.26,1.26,0,0,0-.13.34L418,431.42A2,2,0,0,0,418.88,433.47Z"/><path class="cls-131" d="M448.29,427.16a.62.62,0,0,0-.24-.55L423.6,412.5l-4.27,19.22a.7.7,0,0,0,.24.54L444,446.38Z"/><path class="cls-104" d="M402.88,397.56a27,27,0,0,1-.35-4.92l4.5-7h10.54s-2.64,14.8-5.65,16.72c-1.58,1-3.92.06-5.11.1l-1.74,6.91-8.43-2.81,1.86-10.46Z"/><path class="cls-132" d="M416.53,444.05v.24c.05,9.87.07,11.47.07,15.3v6.26h0a12.45,12.45,0,0,1-5.76,5.21,3,3,0,0,1-.36.14h0a24,24,0,0,1-5.3,1.15c-10.93.54-21.14-9.15-20.79-14.71.23-3.6.26-9.62.28-14.21.1-19.86-1.55-27.61,1.18-36.31,1.27-4.06,6.31-5.15,8.73-4.64.76.16,2.66.88,2.66.88.58,2.17,4.91,3.16,8.29,4.33.34.11,6.18,4,7.22,4.78,3.92,1.67,4.36,12.39,4.36,12.42,0,7.7-.34,15.77-.49,18.44A6,6,0,0,0,416.53,444.05Z"/><path class="cls-106" d="M416.53,436c0,.07-.06.14,0,.16,0,2.37,0,4.78.05,7.19v22.49h0a12.45,12.45,0,0,1-5.76,5.21,3,3,0,0,1-.36.14h0c.16-9.18,0-24.66-.18-28.84-.2-6.15-1-17.69-1-20.94v-1.66c.51,1.08,1.9,1.2,3.05,1.3,2.65.22,2.7-.12,4.74-.33v4.16C417,430.08,416.61,435.07,416.53,436Z"/><path class="cls-107" d="M418.89,383.22c0-5.09-8.63-6.18-11-6.57-11.26-1.77-11.95,11.37-11.8,12.88.31,3,1.39,5.57,1.66,7.18s.32,1.77,4.59,3c3.79,1.11,5.68-3.77,6.44-5.5.34-.78.51-3,2.06-2.71s1.34,2.74,2.1,2.11a12.22,12.22,0,0,0,1.92-4,10.32,10.32,0,0,0,.45-2.33C415.44,386.56,418.91,387.83,418.89,383.22Z"/><path class="cls-104" d="M418,447c-.09-.34,6.61.93,10.17-.16a4.13,4.13,0,0,1,1.62-1.4c1.16-.43,3.26-2.24,3.63-1.17s-1.72,2-1.21,2.07,6.72-1,6.9-.29-.65,1.08-.65,1.08,1.68,0,1.82.61-.39,1-1.16,1.16c0,0,1.08.84-.95,1.38,0,0,.41.45-1,.93s-5.4,1.45-8.69-.16c-2.38.73-11.9,4.68-14.66,3.09-4.59-2.64-7.3-24.11-5.76-28.06,0,0,6.59-1.73,8.36,1.08C416.41,427.17,418.28,448.33,418,447Z"/><path class="cls-133" d="M417.43,433v1.2h0c-5.5,3.11-8.66,2.25-9.8,1.53-1.83-10.36-.74-21.48,3.45-23.1,2.09-.82,3.15.48,4,1.2,1.57,1.43,2.06,4.9,2.36,8.42h0A89.66,89.66,0,0,1,417.43,433Z"/><path class="cls-32" d="M489.52,170.46a6.67,6.67,0,0,1-3.3-1l-52-30a14.75,14.75,0,0,1-6.79-11.68V94.37c0-3.24,1.71-5.32,4.35-5.32a6.6,6.6,0,0,1,3.29,1l52,30a14.71,14.71,0,0,1,6.81,11.68v33.38C493.88,168.37,492.22,170.46,489.52,170.46ZM431.74,90.75c-1.66,0-2.65,1.35-2.65,3.62v33.37A13.12,13.12,0,0,0,435,138l52,30a5.08,5.08,0,0,0,2.45.77c1.66,0,2.65-1.36,2.65-3.62V131.76a13.07,13.07,0,0,0-5.91-10.2l-52-30A4.87,4.87,0,0,0,431.74,90.75Z"/><path class="cls-32" d="M469,132.7a.65.65,0,0,1-.6.39l-15.47.36h0a.73.73,0,0,1-.46-.19.7.7,0,0,1-.2-.49V114.19a.67.67,0,0,1,.44-.63.68.68,0,0,1,.75.19L468.92,132A.64.64,0,0,1,469,132.7Z"/><path class="cls-32" d="M486.34,162.23a.66.66,0,0,1-.33-.09l-51.43-29.69a.67.67,0,0,1-.25-.91h0a.68.68,0,0,1,.92-.25L486.68,161a.67.67,0,0,1-.34,1.26Z"/><path class="cls-32" d="M443.38,136.75c0,1.07-.76,1.49-1.69,1a3.7,3.7,0,0,1-1.69-2.89c0-1.06.76-1.49,1.69-1A3.7,3.7,0,0,1,443.38,136.75Z"/><path class="cls-32" d="M433.06,203.38l-3.76-2.18a6.22,6.22,0,0,1-2.81-4.87v-6.59c0-1.79,1.25-2.52,2.81-1.62l3.76,2.17a6.2,6.2,0,0,1,2.82,4.87v6.59C435.88,203.56,434.62,204.27,433.06,203.38Z"/><path class="cls-32" d="M447.79,211.88,444,209.71a6.25,6.25,0,0,1-2.81-4.88v-15c0-1.79,1.26-2.52,2.81-1.62l3.77,2.17a6.25,6.25,0,0,1,2.81,4.88v15C450.6,212.05,449.34,212.78,447.79,211.88Z"/><path class="cls-32" d="M462.51,220.38l-3.76-2.17a6.26,6.26,0,0,1-2.82-4.88V192.82c0-1.8,1.26-2.52,2.82-1.63l3.76,2.18a6.2,6.2,0,0,1,2.82,4.87v20.52C465.33,220.56,464.07,221.28,462.51,220.38Z"/><path class="cls-32" d="M477.22,228.88l-3.77-2.17a6.25,6.25,0,0,1-2.81-4.88V192.38c0-1.79,1.26-2.52,2.81-1.62l3.77,2.17a6.22,6.22,0,0,1,2.81,4.88v29.45C480.05,229.05,478.79,229.78,477.22,228.88Z"/><path class="cls-32" d="M480.45,234.42a1,1,0,0,1-.37-.1l-56-32.33a.75.75,0,0,1-.18-1,.74.74,0,0,1,.91-.25l56,32.33a.74.74,0,0,1-.36,1.38Z"/><path class="cls-134" d="M563.61,158.12,613,126.82l-6.6-4.35c-3.31-1.92-6-6.72-6-10.73V81.5c0-4,2.69-5.72,6-3.8l90.33,52.15c3.31,1.91,6,6.71,6,10.73v30.23c0,4-2.69,5.72-6,3.81l-67.13-38.06Z"/><path class="cls-32" d="M614.67,96.72l73.83,42.62c.91.53,1.65.22,1.65-.7a3.44,3.44,0,0,0-1.65-2.6L614.67,93.42c-.91-.53-1.65-.22-1.65.7A3.44,3.44,0,0,0,614.67,96.72Z"/><path class="cls-32" d="M614.67,107.16l73.83,42.62c.91.53,1.65.22,1.65-.69a3.43,3.43,0,0,0-1.65-2.61l-73.83-42.62c-.91-.53-1.65-.22-1.65.7A3.44,3.44,0,0,0,614.67,107.16Z"/><path class="cls-32" d="M631.08,126.88,688.5,160c.81.47,1.46.19,1.46-.61a3,3,0,0,0-1.46-2.3L631.08,124c-.81-.46-1.46-.19-1.46.62A3,3,0,0,0,631.08,126.88Z"/><path class="cls-32" d="M588.79,195.19c.13-4.88,1.71-8.68,4.57-11a66,66,0,0,0,6.41,6.33,33.37,33.37,0,0,0-1.71,10Z"/><path class="cls-32" d="M599.85,215.66a24.64,24.64,0,0,0-5.59-.92c-3.34-6.13-5.22-12.22-5.45-17.68l9.23,5.33A56.12,56.12,0,0,0,599.85,215.66Z"/><path class="cls-32" d="M600.42,188.89a62.36,62.36,0,0,1-5.73-5.65,12.45,12.45,0,0,1,6.45-1.64,20,20,0,0,1,5.5.83C604.07,183.3,601.94,185.56,600.42,188.89Z"/><path class="cls-32" d="M605.51,229.29a58.43,58.43,0,0,1-10.29-12.83,26.41,26.41,0,0,1,5.13,1.06A49.59,49.59,0,0,0,605.51,229.29Z"/><path class="cls-32" d="M613,198a89.35,89.35,0,0,1-11.23-8c1.69-4.06,4.3-6.3,7.38-6.3a6.89,6.89,0,0,1,1.43.16c.81.37,1.62.78,2.42,1.22Z"/><path class="cls-32" d="M599.79,201.56a33.85,33.85,0,0,1,1.4-9.85A92.11,92.11,0,0,0,613,200v9.23Z"/><path class="cls-32" d="M613,221.28a64.73,64.73,0,0,0-11.22-5,54.11,54.11,0,0,1-2-12.83L613,211.08Z"/><path class="cls-32" d="M613,235.07l-1.36-.87c-3.71-3.34-7.08-9.16-9.28-16a67,67,0,0,1,10.64,5Z"/><path class="cls-32" d="M625.58,204.06a67.78,67.78,0,0,1-11-5.11V186.07c.46.28.92.57,1.37.88C619.9,190.49,623.4,196.71,625.58,204.06Z"/><path class="cls-32" d="M618.45,237.36a7.07,7.07,0,0,1-1.45-.15c-.79-.36-1.6-.77-2.4-1.22V224.1a90.06,90.06,0,0,1,10.91,7.69C623.82,235.39,621.32,237.36,618.45,237.36Z"/><path class="cls-32" d="M626.49,239.56a19.84,19.84,0,0,1-5.51-.84c2.38-.8,4.39-2.76,5.89-5.75a60.59,60.59,0,0,1,5.46,5.29A12.82,12.82,0,0,1,626.49,239.56Z"/><path class="cls-32" d="M614.6,210.09v-9.25A64.75,64.75,0,0,0,626.11,206a53.58,53.58,0,0,1,1.7,11.75Z"/><path class="cls-32" d="M626.22,230.21a91.21,91.21,0,0,0-11.57-8V212l13.18,7.61A32.66,32.66,0,0,1,626.22,230.21Z"/><path class="cls-32" d="M633,205.71a25,25,0,0,1-5.42-1,50.4,50.4,0,0,0-5.45-12.85A58.62,58.62,0,0,1,633,205.71Z"/><path class="cls-32" d="M633.73,237.37a64.74,64.74,0,0,0-6.17-6,32.12,32.12,0,0,0,2-10.8l9.28,5.35C638.68,231.13,636.93,235.07,633.73,237.37Z"/><path class="cls-32" d="M629.57,218.74A53.75,53.75,0,0,0,628,206.56a23.07,23.07,0,0,0,5.72.85h.13a40.65,40.65,0,0,1,4.93,16.69Z"/><path class="cls-32" d="M643.22,315.16v20.08c0,.45-.3.43-.67,0l-9-11.55a1.88,1.88,0,0,0-1.33-.79l-9.6.86A.69.69,0,0,1,622,323V302.89c0-.45.15-.4.38.12a8.41,8.41,0,0,0,1.28,2,7.34,7.34,0,0,0,1.88,1.54,16.33,16.33,0,0,0,1.52.73c.39.17.76.33,1,.49l.15.09a4.84,4.84,0,0,1,.69.74l.49.68a11.62,11.62,0,0,0,3.18,3.3,4,4,0,0,0,3.19.38l.5-.11a1.61,1.61,0,0,1,.69.06l.14.08a10.13,10.13,0,0,1,1,.72,16.58,16.58,0,0,0,1.52,1,4.12,4.12,0,0,0,1.89.63,1.66,1.66,0,0,0,1.26-.54C643.05,314.56,643.22,314.71,643.22,315.16Z"/><path class="cls-32" d="M646.77,306.66c.34-1.08,2.12-1.19,2.12-2.58s-1.78-3.56-2.12-5,.6-2.84-.06-4.39-2.79-2.88-3.75-4.39-1.06-3.68-2.24-5-3-1.46-4.35-2.58-2.41-3.51-3.81-4.32-2.52.32-3.8-.08-3.2-2.44-4.36-2.44-1.28,2.05-2.23,2.45-3.07-.71-3.75.07.29,3.2-.06,4.32-2.12,1.2-2.12,2.59,1.77,3.55,2.12,5-.6,2.85.06,4.39,2.49,2.69,3.52,4.07c.08.11.16.21.23.32,1,1.51,1,3.68,2.23,5s3,1.46,4.36,2.58,2.41,3.51,3.8,4.31,2.53-.31,3.81.09,3.2,2.44,4.35,2.45,1.28-2.06,2.24-2.46l.23-.07c1-.18,2.89.73,3.52,0S646.42,307.78,646.77,306.66Zm-14.21-1.57c-5.77-3.33-10.44-10.7-10.44-16.47s4.67-7.75,10.44-4.42S643,294.91,643,300.68s-4.67,7.74-10.45,4.41Z"/><path class="cls-32" d="M641.38,299.74c0,4.88-3.94,6.54-8.82,3.73s-8.82-9-8.82-13.91,4-6.54,8.82-3.73S641.38,294.87,641.38,299.74Z"/><path class="cls-32" d="M598.22,267.75a.69.69,0,0,1-.37-.1l-26.71-15.37a.74.74,0,0,1-.22-1,.72.72,0,0,1,1-.26l26.71,15.38a.71.71,0,0,1,.27,1v0A.71.71,0,0,1,598.22,267.75Z"/><path class="cls-32" d="M607.77,281.44a.92.92,0,0,1-.36-.1l-36.32-21a.74.74,0,0,1-.22-1,.72.72,0,0,1,1-.26l36.31,21a.72.72,0,0,1,.27,1h0A.76.76,0,0,1,607.77,281.44Z"/><path class="cls-32" d="M607.77,289.56a.77.77,0,0,1-.36-.09l-36.32-21a.73.73,0,0,1-.26-1h0a.71.71,0,0,1,1-.27h0l36.31,21a.71.71,0,0,1,.28,1v0A.74.74,0,0,1,607.77,289.56Z"/><path class="cls-32" d="M607.77,297.56a.92.92,0,0,1-.36-.1l-36.32-21a.74.74,0,0,1-.22-1,.72.72,0,0,1,1-.26l36.31,21a.72.72,0,0,1,.27,1h0A.76.76,0,0,1,607.77,297.56Z"/><path class="cls-32" d="M607.77,305.68a.78.78,0,0,1-.36-.1l-36.32-21a.74.74,0,0,1-.26-1,.72.72,0,0,1,1-.26l36.31,21a.74.74,0,0,1-.37,1.38Z"/><path class="cls-32" d="M607.77,313.76a.78.78,0,0,1-.36-.1l-36.32-21a.74.74,0,0,1-.26-1,.72.72,0,0,1,1-.26l36.31,21a.71.71,0,0,1,.28,1v0A.73.73,0,0,1,607.77,313.76Z"/></g></g></svg>