<svg id="Ebene_1" data-name="Ebene 1" xmlns="http://www.w3.org/2000/svg" xmlns:xlink="http://www.w3.org/1999/xlink" width="850" height="580" viewBox="0 0 850 580"><defs><style>.cls-1{fill:#6e46ae;opacity:0.26;isolation:isolate;}.cls-2{fill:url(#Unbenannter_Verlauf_81);}.cls-3{fill:url(#Unbenannter_Verlauf_81-2);}.cls-4{fill:#3d2a51;}.cls-5{fill:#503965;}.cls-6{fill:#f3f2fa;}.cls-7{fill:url(#Unbenannter_Verlauf_132);}.cls-8{fill:url(#Unbenannter_Verlauf_132-2);}.cls-9{fill:url(#Unbenannter_Verlauf_132-3);}.cls-10{fill:url(#Unbenannter_Verlauf_81-3);}.cls-11{fill:url(#Unbenannter_Verlauf_132-4);}.cls-12{fill:url(#Unbenannter_Verlauf_132-5);}.cls-13{fill:url(#Unbenannter_Verlauf_86);}.cls-14{fill:url(#Unbenannter_Verlauf_86-2);}.cls-15{fill:url(#Unbenannter_Verlauf_132-6);}.cls-16{fill:#beb2d6;}.cls-17{fill:url(#Unbenannter_Verlauf_81-4);}.cls-18{fill:url(#Unbenannter_Verlauf_81-5);}.cls-19{fill:url(#Unbenannter_Verlauf_81-6);}.cls-20{fill:url(#Unbenannter_Verlauf_132-7);}.cls-21{fill:url(#Unbenannter_Verlauf_132-8);}.cls-22{fill:url(#Unbenannter_Verlauf_85);}.cls-23{fill:url(#Unbenannter_Verlauf_132-9);}.cls-24{fill:url(#Unbenannter_Verlauf_86-3);}.cls-25{fill:url(#Unbenannter_Verlauf_86-4);}.cls-26{fill:url(#Unbenannter_Verlauf_132-10);}.cls-27{fill:url(#Unbenannter_Verlauf_81-7);}.cls-28{fill:url(#Unbenannter_Verlauf_132-11);}.cls-29{fill:url(#Unbenannter_Verlauf_81-8);}.cls-30{fill:url(#Unbenannter_Verlauf_39);}.cls-31{fill:url(#Unbenannter_Verlauf_42);}.cls-32{fill:url(#Unbenannter_Verlauf_41);}.cls-33{fill:url(#Unbenannter_Verlauf_39-2);}.cls-34{fill:url(#Unbenannter_Verlauf_42-2);}.cls-35{fill:url(#Unbenannter_Verlauf_41-2);}</style><linearGradient id="Unbenannter_Verlauf_81" x1="645" y1="313.25" x2="646.85" y2="333.36" gradientTransform="matrix(1, 0, 0, -1, 0, 652)" gradientUnits="userSpaceOnUse"><stop offset="0" stop-color="#f3f2fa"/><stop offset="1" stop-color="#dbdae5"/></linearGradient><linearGradient id="Unbenannter_Verlauf_81-2" x1="587.7" y1="317.79" x2="585.68" y2="337.84" xlink:href="#Unbenannter_Verlauf_81"/><linearGradient id="Unbenannter_Verlauf_132" x1="510.32" y1="469.9" x2="503.21" y2="441.83" gradientTransform="matrix(1, 0, 0, -1, 0, 652)" gradientUnits="userSpaceOnUse"><stop offset="0" stop-color="#f9beb8"/><stop offset="1" stop-color="#eaa5a1"/></linearGradient><linearGradient id="Unbenannter_Verlauf_132-2" x1="533.93" y1="246.67" x2="518" y2="271.49" xlink:href="#Unbenannter_Verlauf_132"/><linearGradient id="Unbenannter_Verlauf_132-3" x1="564.92" y1="219.52" x2="564.62" y2="264.75" xlink:href="#Unbenannter_Verlauf_132"/><linearGradient id="Unbenannter_Verlauf_81-3" x1="576.68" y1="351.95" x2="610.55" y2="390.89" xlink:href="#Unbenannter_Verlauf_81"/><linearGradient id="Unbenannter_Verlauf_132-4" x1="565.43" y1="500.79" x2="622.14" y2="500.79" xlink:href="#Unbenannter_Verlauf_132"/><linearGradient id="Unbenannter_Verlauf_132-5" x1="590.89" y1="529.02" x2="580.11" y2="546.56" xlink:href="#Unbenannter_Verlauf_132"/><linearGradient id="Unbenannter_Verlauf_86" x1="608.93" y1="393.92" x2="615.17" y2="428" gradientTransform="matrix(1, 0, 0, -1, 0, 652)" gradientUnits="userSpaceOnUse"><stop offset="0" stop-color="#beb2d6"/><stop offset="1" stop-color="#8877af"/></linearGradient><linearGradient id="Unbenannter_Verlauf_86-2" x1="584.06" y1="457.15" x2="601.9" y2="432.35" xlink:href="#Unbenannter_Verlauf_86"/><linearGradient id="Unbenannter_Verlauf_132-6" x1="562.83" y1="428.41" x2="525.46" y2="428.18" xlink:href="#Unbenannter_Verlauf_132"/><linearGradient id="Unbenannter_Verlauf_81-4" x1="437.09" y1="379.91" x2="436.07" y2="413.81" xlink:href="#Unbenannter_Verlauf_81"/><linearGradient id="Unbenannter_Verlauf_81-5" x1="230.84" y1="313.88" x2="232.72" y2="334.39" xlink:href="#Unbenannter_Verlauf_81"/><linearGradient id="Unbenannter_Verlauf_81-6" x1="275.32" y1="318.58" x2="273.25" y2="339.08" xlink:href="#Unbenannter_Verlauf_81"/><linearGradient id="Unbenannter_Verlauf_132-7" x1="305.32" y1="219.54" x2="305.03" y2="264.88" xlink:href="#Unbenannter_Verlauf_132"/><linearGradient id="Unbenannter_Verlauf_132-8" x1="404.85" y1="237.82" x2="382.65" y2="272.43" xlink:href="#Unbenannter_Verlauf_132"/><linearGradient id="Unbenannter_Verlauf_85" x1="278.15" y1="494.13" x2="278.04" y2="512.41" gradientTransform="matrix(1, 0, 0, -1, 0, 652)" gradientUnits="userSpaceOnUse"><stop offset="0" stop-color="#f9948a"/><stop offset="1" stop-color="#ea726c"/></linearGradient><linearGradient id="Unbenannter_Verlauf_132-9" x1="347.58" y1="504.07" x2="338.68" y2="468.91" xlink:href="#Unbenannter_Verlauf_132"/><linearGradient id="Unbenannter_Verlauf_86-3" x1="357.21" y1="358.12" x2="284.48" y2="328.72" xlink:href="#Unbenannter_Verlauf_86"/><linearGradient id="Unbenannter_Verlauf_86-4" x1="283.4" y1="351.27" x2="231.64" y2="293.97" xlink:href="#Unbenannter_Verlauf_86"/><linearGradient id="Unbenannter_Verlauf_132-10" x1="298.53" y1="526.13" x2="287.4" y2="544.23" xlink:href="#Unbenannter_Verlauf_132"/><linearGradient id="Unbenannter_Verlauf_81-7" x1="288.38" y1="460.25" x2="262.14" y2="426.63" xlink:href="#Unbenannter_Verlauf_81"/><linearGradient id="Unbenannter_Verlauf_132-11" x1="304.85" y1="428.86" x2="267.45" y2="428.62" xlink:href="#Unbenannter_Verlauf_132"/><linearGradient id="Unbenannter_Verlauf_81-8" x1="434.9" y1="414" x2="434.9" y2="433.67" xlink:href="#Unbenannter_Verlauf_81"/><linearGradient id="Unbenannter_Verlauf_39" x1="475.27" y1="-695.83" x2="543.2" y2="-695.83" gradientTransform="translate(0 756.05)" gradientUnits="userSpaceOnUse"><stop offset="0" stop-color="#646363"/><stop offset="1" stop-color="#878787"/></linearGradient><linearGradient id="Unbenannter_Verlauf_42" x1="473.19" y1="-386.42" x2="545.15" y2="-386.42" gradientTransform="translate(0 470.83)" gradientUnits="userSpaceOnUse"><stop offset="0" stop-color="#f5897c"/><stop offset="1" stop-color="#f2a287"/></linearGradient><linearGradient id="Unbenannter_Verlauf_41" x1="475.38" y1="-362.14" x2="542.94" y2="-362.14" gradientTransform="translate(0 470.83)" gradientUnits="userSpaceOnUse"><stop offset="0" stop-color="#f8d774"/><stop offset="1" stop-color="#f7ec86"/></linearGradient><linearGradient id="Unbenannter_Verlauf_39-2" x1="-4050.94" y1="-732.53" x2="-3958.14" y2="-732.53" gradientTransform="matrix(-1, 0, 0, 1, -3616.46, 756.05)" xlink:href="#Unbenannter_Verlauf_39"/><linearGradient id="Unbenannter_Verlauf_42-2" x1="-4053.78" y1="-414.26" x2="-3955.46" y2="-414.26" gradientTransform="matrix(-1, 0, 0, 1, -3616.46, 470.83)" xlink:href="#Unbenannter_Verlauf_42"/><linearGradient id="Unbenannter_Verlauf_41-2" x1="-4050.79" y1="-381.08" x2="-3958.46" y2="-381.08" gradientTransform="matrix(-1, 0, 0, 1, -3616.46, 470.83)" xlink:href="#Unbenannter_Verlauf_41"/></defs><title>sprache-lernen-3</title><path class="cls-1" d="M156.1,433.93A49,49,0,0,0,151,457a64.53,64.53,0,0,0,4,20.67c5.67,14.69,14.65,27.32,28.85,34.82,28,14.81,61.55,11.09,92,9.4,16.06-.89,32.21-1.51,48.22.31a118.64,118.64,0,0,1,25,6.66c12.49,5.61,24.1,13,36.57,18.66,8,3.63,16.17,6.92,24.79,8.77a127.1,127.1,0,0,0,26.79,2.88c32.61-.08,63.26-11.78,93.62-22.21,15.91-5.47,32.08-10.41,48.75-13a122.4,122.4,0,0,1,26.65-.3,98.77,98.77,0,0,1,20.08,5.65c11.28,5,22.24,11,34.11,14.45,12.37,3.6,26.93,4.73,39.29.45,12.62-4.36,23.82-13.11,29.28-25.55a65.32,65.32,0,0,0,5.41-20.67c.64-6.16-.06-12.21-1-18.31a77.09,77.09,0,0,0-11.75-29.44,102.64,102.64,0,0,0-22.12-24.63,143.9,143.9,0,0,0-60.5-28.27c-26.34-5.4-53.19-4.78-79.83-2.67-26.07,2.05-52.06,4.36-78.2,5.33-52.14,1.93-104.33.74-156.49.21-26.28-.26-52.56-.36-78.82.18-14.07.29-28.15.46-42.11,2.39-13.6,1.88-26.28,7.15-36.6,16.33A44.11,44.11,0,0,0,156.1,433.93Z"/><path class="cls-1" d="M186.18,405a27,27,0,0,0-9.24,6.38c-11.94,12.81-10.26,32.13-6.75,47.91a81.06,81.06,0,0,0,6.91,19c4.2,8.24,10.45,15.62,16.9,22.2a276.28,276.28,0,0,0,39.61,33,238.79,238.79,0,0,0,44.94,24.14,195,195,0,0,0,50,12.94c34.49,4.54,70.49-1.65,101-18.48,25.32-14,45.91-35.05,71.45-48.65q3.39-1.8,6.89-3.39a109.57,109.57,0,0,1,22.17-5.91c21.35-2.38,43.11-.82,64.52-.32l35.27.79c12.47.28,25.42.41,37.47-3.29,13.55-4.14,25.53-12.51,33-24.63a46.62,46.62,0,0,0,6.62-22.4c.39-7.9-2-15.28-5.3-22.26A47.77,47.77,0,0,0,691,407.8a56.41,56.41,0,0,0-14.81-10.19,79.3,79.3,0,0,0-22.84-6.49,141.25,141.25,0,0,0-19-1.25c-47.22,0-94.48.93-141.71,1.41l-142.24,1.44c-47.84.48-96.18-.77-143.51,7.35q-8.31,1.43-16.54,3.35A17.48,17.48,0,0,0,186.18,405Z"/><path class="cls-1" d="M205.6,455.78a85.18,85.18,0,0,0,4.11,9.4,73.78,73.78,0,0,0,18.75,23.36,79.91,79.91,0,0,0,32.32,16.26c11.66,2.74,23.78,3.34,35.72,3,22.55-.57,45.28-1.88,67.68-4.51,23.75-2.77,46.94-7.29,69.44-15.52,22.17-8.12,43.84-18.14,67.32-21.8,27.92-3.21,56,1.26,83.95.74,15.29-.28,31-2,45.55-6.86,9.81-3.29,18.6-7.49,24.71-16.18a25,25,0,0,0,4.24-15.47,29,29,0,0,0-8-18.06,31.24,31.24,0,0,0-15-8.66c-6.88-1.56-13.49-1.06-20.34.41-4.11.87-8.09,2.1-12.17,3-3.56.79-7.16,1.43-10.77,2-36.4,4.33-72.89-2.3-109.25-4.06-38.4-1.86-76.66,2.73-115,4A386.58,386.58,0,0,1,306,404.43c-17.57-2.47-35.31-5.64-53.1-4.88-20.07.86-47.77,5.87-54.5,28.22A28.68,28.68,0,0,0,205.6,455.78Z"/><polygon class="cls-2" points="638.68 306.88 631.9 306.88 645.71 431.67 652.5 431.67 638.68 306.88"/><polygon class="cls-3" points="594.76 306.88 580.95 431.67 587.73 431.67 601.54 306.88 594.76 306.88"/><path class="cls-4" d="M658.17,296.36V291.8a5,5,0,0,0-2.62-1.57c-6.23-7.05-22.89-12.09-42.48-12.09-24.9,0-45.08,8.16-45.08,18.22s20.18,18.22,45.08,18.22S658.17,306.42,658.17,296.36Z"/><ellipse class="cls-5" cx="613.06" cy="291.8" rx="45.09" ry="18.22"/><rect class="cls-6" x="591.24" y="354.74" width="49.59" height="7.25"/><path class="cls-7" d="M499.79,161.85c-.55-.46-23.38-9.53-25.81-6.13s5,11.89,8.31,13.31,16.27,11,23.36,10.34c0,0,23,30.21,33.41,43.59l8.66-18c-9-8.34-34-31.2-34.71-31.85-1.23-1.11-4-8.51-8.92-14.27s-5.11-11.29-6.7-10.56S500.34,162.3,499.79,161.85Z"/><path class="cls-8" d="M559.3,358.29l-19.47-8.58c-3.48,26.47-7.2,50.73-9.45,52.75,0,0-7.7,16.28-18.37,19.57s-16.74,9.71-15,12.39,30.09-4.22,49.44-9.4-2.17-20.68.41-31C548,389.5,553.54,374.68,559.3,358.29Z"/><path class="cls-9" d="M546.57,420.75c-10.61,2.47-16,11.09-9.13,12.07s55.8,4.3,57.77-4.1c1.09-4.61-2.18-10.63-5.34-15.11a39.07,39.07,0,0,1-6.57-16.46c-1.64-10.5-3.44-20.17-5.29-28.94l-25.57,3.43c9.11,19.71,17.08,36.75,17.87,39.83C572.27,419.11,557.16,418.28,546.57,420.75Z"/><path class="cls-10" d="M569.56,254.73c-5.42,2.13-14.19,3.92-23.06,5.39a93,93,0,0,0-12.56,2.65c-3,.39-5.83,2-8.35,3.37a1.68,1.68,0,0,0-.47.41,3.59,3.59,0,0,0-.79,1c-6.5,11.84-7,25.67-5.29,38.78,1.84,14.06,3.18,26.87,3.09,41.13,0,7.31,1.53,15.68-1.78,22.25a3.56,3.56,0,0,0,4,5.16c8.29-2.19,16.74,2.24,24.69,4a31.23,31.23,0,0,0,13.53.45c4.79-1.05,9-3.85,13.88-4.52a44.8,44.8,0,0,1,7.51-.21c2.39,0,4.89.28,7.23-.38,5.58-1.58,6.61-7.31,4.14-12a44.28,44.28,0,0,0-4.08-5.65q-2.21-2.93-4.33-5.93c-2.94-4.17-7.14-7.85-8.44-12.79-2.5-9.53-4.29-18.65-8.6-28.2,83-5.72,76.66-16.9,80-35.82,2.88-16.46-15.87-41.55-14.88-43.28a40,40,0,0,0,.82-6.57l-55.6,5C581.27,238.82,578.39,251.26,569.56,254.73Zm20.23,112.46-.1.08C589.79,366.88,589.83,367.13,589.79,367.19Z"/><path class="cls-5" d="M549.25,156.53a13.6,13.6,0,0,0,2.87,16.2c3.4,3.3,8.66,5.23,11.17,9.37,1.59,2.61,1.4,5.86,3.64,8.19s5.84,3.12,9,3.79c3.45.74,7,1,10.36-.36a16.29,16.29,0,0,0,6.92-6.16,48,48,0,0,0,7.2-19c1-6.07,1.64-13.49-3.53-17.94-2-1.71-5.41-3-6.45-5.6-.64-1.59-.41-3.47-.34-5.14a22.26,22.26,0,0,0-.26-5.28,10.43,10.43,0,0,0-6.35-7.42c-3.7-1.58-7.77-1.16-11.6-.25A2.51,2.51,0,0,0,570,130.2a.8.8,0,0,1,0,.15c-.47,2.81-3.58,3.83-5.82,5-2.87,1.5-5.24,3.51-6.24,6.67-.67,2.15-.5,4.44-1.36,6.39a14.46,14.46,0,0,1,.67-6.78c1.48-4.21,4.88-6.92,8.36-9.48.56-.41,0-1.38-.57-1-3.69,2.74-7.31,5.63-8.86,10.14a15.58,15.58,0,0,0-.47,8.48l-.35.37C553.15,152.28,550.66,153.79,549.25,156.53Z"/><path class="cls-11" d="M579.67,152.69c-1.43.44-2.8.83-4.11,1.19-4.19.82-7.42,2.05-8.89,3.29-4.29,3.56,4,18.54,4,18.54s13.69.27,18.18-.65,7.26-1.2,13.83-3.79,10-1.85,13.42-4.63,4.72-3,5.55-5.92,1.38-5.27-3.8-7.39a32.48,32.48,0,0,0-11.28-2.39,16.51,16.51,0,0,0-1.74,0l3.8-3.39c-1.93-.38-3.5-.68-4.49-1-5.67-1.73-3.62-19.9-3.62-19.9l-10.93,2.87-6.24,6.13S589.29,149.72,579.67,152.69Z"/><path class="cls-5" d="M546.48,425c12.32-3.29,8.07-10.8,4-18.45-6,4.51-19.11,13.71-28.59,16.08a25.29,25.29,0,0,1-12.52.28c-9,3.45-14,9-12.34,11.5C498.81,437.09,527.13,430.2,546.48,425Z"/><path class="cls-5" d="M595.21,428.73c1-4.23-1.64-9.63-4.54-14-2,3-7.17,8.55-17.92,10-14.79,2-20.72,2.46-21.71-2a14.5,14.5,0,0,0-1-2.73c-1.2.2-2.38.41-3.51.68-10.61,2.47-16,11.09-9.13,12.08S593.24,437.12,595.21,428.73Z"/><path class="cls-12" d="M574.78,139.47c13.38-.82,30.46-7.78,34.45-24.51,1.41-5.92.08-11.91-2.24-17.19-5.77-13.14-20.14-20.55-34.08-16.93-6,1.56-11.08,5-12.17,12C557.88,111.58,561.41,140.28,574.78,139.47Z"/><path class="cls-13" d="M571.18,248.54c2.73-1.67,5.89.37,8.34,1.64a36.6,36.6,0,0,0,9.76,3.54,41.88,41.88,0,0,0,10.42.75c3.59-.18,7.24-.82,10.83-.41,3.29.39,6,2.06,8.77,3.79a30.1,30.1,0,0,0,9.14,4.1c6.06,1.39,13.81.5,18.5,5.34,1.9,2,5.45-.05,4.64-2.7a151.28,151.28,0,0,0-17-36.85,2.51,2.51,0,0,0-2.55-2.47H632c-13.88.41-27.78-1.88-41.65-.51-5.94.58-12.32,1.35-16,6.59-2.78,3.91-3,9.35-6.46,12.82C565.64,246.39,568.44,250.22,571.18,248.54Z"/><path class="cls-14" d="M522.13,208.4a5.55,5.55,0,0,0,2.87,4.85,2.78,2.78,0,0,0,.54.82c2.38,8.78,5.75,15,10.44,15.31,16.53,1,32.07-40,32.07-40s-1.23,22.69,6.67,27.63c2.87,1.78,4.77,6.5,5.4,12,20.4,2.29,46.53,1.48,54.91,1.14,1.08-4.85,3.74-50.27,1.61-65-1.13-7.8-8.09-12.06-15.39-14.6-24,19-47,10.27-54.61,6.47-3.33,1.92-6.08,4.93-8.21,10.6-3.25,8.68-10.08,21.85-13.49,28.27a3.46,3.46,0,0,0-5.28-.69,7.29,7.29,0,0,0-2.28,5.21,4,4,0,0,0-3.29-1c-2.87.45-4.22,3.43-3.69,6.09a9.48,9.48,0,0,0-2-1.11A4.49,4.49,0,0,0,522.13,208.4Z"/><path class="cls-15" d="M558.7,230.14c1.81.56,24.36,2.59,44.53,3.09l-7.57-19.75c-14.53,2.53-32.19,5.81-38.18,7.78-10.81,3.54-29.26,3.13-32.36,6.84S555.49,229.16,558.7,230.14Z"/><path class="cls-16" d="M602.07,206.78c-2.93,0-7.12.78-8.82,3.46s-.3,5.17,1.93,6.45a5.21,5.21,0,0,0-.32,3.28,5.53,5.53,0,0,0,4,4,5.7,5.7,0,0,0-.82,4.08c1.23,6.81,10.48,7.88,15.6,5.23,11.09-.08,19.87-.89,21.46-3.08,3.76-5.18,4.64-54,1-67.31a11.65,11.65,0,0,0-1.86-3.83A27.59,27.59,0,0,0,622,150.89s-10.39,17.24-5.06,58.67h-5.83A15.7,15.7,0,0,0,602.07,206.78Z"/><path class="cls-5" d="M619,99.11c-2.67-9.38-10.26-16.71-19.19-20.25A37.27,37.27,0,0,0,566.43,81a3,3,0,0,0-.69.34l-.17.12,0,0a2.58,2.58,0,0,0-.57.41A26.53,26.53,0,0,0,554,105.08a2.84,2.84,0,0,0,2.05,2.68c5.78,1,11.31-.55,17.07-.41a14.7,14.7,0,0,1,5.09.88c1,3.89,2.41,8,5.81,10.4,2.88,2.05,8,2.67,11,5,.82,3.29-.74,7.27-1.74,10.19l-.21.62c-1,2.23-2.36,4.35-2.93,6.76a12.73,12.73,0,0,0,.62,7.64c1.56,3.87,4.63,5.75,7.91,7.51.91,1.17,1.56,2.52,1.06,3.92-.61,1.74-2.41,3.06-3.59,4.39a11.61,11.61,0,0,0,1.16,17.53c4.18,3.57,10.1,4.08,15.26,2.74,4.93-1.29,9.15-4.25,13.14-7.39a2.88,2.88,0,0,0,.76-.39,23.64,23.64,0,0,0,9.28-24.71c-.55-2.22-2.63-5.05-2.1-7.36.26-1.12.95-2.11,1.27-3.22a7.15,7.15,0,0,0,0-4.1,9.64,9.64,0,0,0-4.92-5.41c-.38-.19-.76-.35-1.15-.51a12.59,12.59,0,0,0-2.08-5c-1.41-2-3.32-3.51-4.87-5.37A15.08,15.08,0,0,1,619.3,117a3.85,3.85,0,0,1,0-.48C619.63,110.62,620.62,104.86,619,99.11Zm-30.13,20.57c-3-1-5.45-2.47-7.1-5.24a23,23,0,0,1-2.21-5.59c1.86,1.12,2.88,2.94,4.13,4.65a15.79,15.79,0,0,0,5.21,4.54c1.9,1,4.22,1.84,5.42,3.76l.12.21a31.93,31.93,0,0,0-5.57-2.33Zm2.82,28.37a11.65,11.65,0,0,1-.12-7.6,14.1,14.1,0,0,0,1.15,8.81,17.46,17.46,0,0,0,3.34,4.25,11.15,11.15,0,0,1-4.37-5.46Zm31.81-23.28a15.66,15.66,0,0,1,4,6.57,14,14,0,0,1-4.7-2.34c-2.7-2.36-3.46-6.09-3.56-9.63A25.32,25.32,0,0,0,623.48,124.77Z"/><path class="cls-5" d="M567.56,416.63a4,4,0,0,0,2.59,1.27,62.93,62.93,0,0,0,19.75-.6,2.74,2.74,0,0,0,1.68-1.09c-.55-.9-1.13-1.77-1.71-2.59s-1.22-1.8-1.76-2.74a57.65,57.65,0,0,1-17.88.37,1,1,0,0,1,.06.21C570.93,413.94,569.78,415.53,567.56,416.63Z"/><path class="cls-5" d="M550.28,409.47a4.91,4.91,0,0,0,1.45-.41c-1-2-2.17-4.05-3.12-6.06a31.35,31.35,0,0,1-17.08-3.21,6.78,6.78,0,0,1-1.2,2.69s-.62,1.31-1.76,3.28A37.73,37.73,0,0,0,550.28,409.47Z"/><rect class="cls-17" x="419.61" y="239.36" width="38.79" height="192.32"/><polygon class="cls-18" points="224.46 431.67 238.28 306.88 231.49 306.88 217.68 431.67 224.46 431.67"/><polygon class="cls-19" points="275.41 306.88 268.63 306.88 282.45 431.67 289.23 431.67 275.41 306.88"/><path class="cls-4" d="M212,291.8v4.56c0,10.06,20.19,18.22,45.1,18.22s45.08-8.16,45.08-18.22S282,278.14,257.12,278.14c-19.59,0-36.25,5-42.48,12.09A5,5,0,0,0,212,291.8Z"/><ellipse class="cls-5" cx="257.12" cy="291.8" rx="45.09" ry="18.22"/><rect class="cls-6" x="229.34" y="354.74" width="49.59" height="7.25"/><path class="cls-20" d="M317.75,371.65l-25.57-3.43c-1.85,8.77-3.65,18.44-5.29,28.95a38.9,38.9,0,0,1-6.57,16.45c-3.16,4.48-6.43,10.5-5.34,15.11,2,8.39,50.86,5.06,57.77,4.11s1.48-9.61-9.13-12.08-25.7-1.64-23.72-9.28C300.67,408.4,308.64,391.37,317.75,371.65Z"/><path class="cls-21" d="M392.39,430c20,1.47,49.09,3,50.33,0s-5.92-8.15-17-9.38S404,404.8,404,404.8c-2.57-1.56-10.76-24.7-19.11-50.05l-17.53,12.06c8.72,15,16.92,28.56,18.89,32.82C390.66,409.24,372.41,428.48,392.39,430Z"/><path class="cls-22" d="M266.08,146.51c-1,.3-2.55.6-4.48,1L277.85,162l16.77-8.16c-1.32-.37-2.69-.74-4.11-1.18-9.62-3-3.63-17.06-3.63-17.06l-6.24-6.13-10.92-2.87S271.76,144.79,266.08,146.51Z"/><path class="cls-23" d="M332.19,181.69l16.42,8.57c1.88-18.29,1.82-36.1,1.82-36.1,6.91-3.45,13.32-19.74,15.54-22.94s4.2-15.3,0-17-20,19.73-20.23,20.47-3.69-14.06-5.58-13.81,1.14,5.42-.09,13.55.49,16.53,0,18.25C339.81,153.66,335.68,168.82,332.19,181.69Z"/><path class="cls-24" d="M234.43,224.05a38.43,38.43,0,0,0,.82,6.57c1,1.73-17.75,26.82-14.88,43.28,3.32,19.08,3,30.73,88.14,36.4,0,0-13.09,32.09-21.62,86.85-.06.41-.13.83-.21,1.21a131.76,131.76,0,0,0,15.68,6.9c7.7-17.66,30.88-65.79,40-89.33a7.81,7.81,0,0,1,.93,2.52c1.36,8.91,15.47,33.71,27.24,53.83.3.76.6,1.52.88,2.3A96.37,96.37,0,0,1,374.86,386c.78,3.32,1.12,7,3.33,9.74,2.68,3.35,6.64,3.09,10.49,2.6q3.17-.39,6.35-.82c2.05-.27,4.05-.7,5.34-2.46,2.51-3.51-.29-7.29-2.41-10.14s-3.94-5.54-5.74-8.43c-11.71-33.56-27.51-85.43-28.69-89.13-1.73-5.43-49.09-27.14-62.91-32.56-8.83-3.47-11.72-15.91-10.58-25.73Z"/><path class="cls-25" d="M234.43,224.05a38.43,38.43,0,0,0,.82,6.57c1,1.73-17.75,26.82-14.88,43.28,3.32,19.08,3,30.73,88.14,36.4,0,0-9.08,22.25-17,61.31a73.33,73.33,0,0,1-5.13,13.67c-1.49,3-3.53,5.89-4,9.27a9.62,9.62,0,0,0,3.28,8.69c2.47,2.19,5.69,3.19,8.84,4,2.87.75,6.06,1.4,9,.5,3.18-1,5.07-3.59,6.1-6.62a77,77,0,0,0,2.38-10.63c.58-3.12,1.08-6.25,1.48-9.39,9.72-21,22.18-47.85,28.57-64.08,0,0,4.93-16.23,5.32-25.24S293.71,267.12,280,261.7c-11.09-4.4-4.26-27.95-4.05-36.14Z"/><path class="cls-5" d="M298.48,132.72a6.57,6.57,0,0,0-5.22-6.64c-4-.85-7.5,1.53-9.85,4.52-4.74,6-8.14,13.81-7.29,21.58.79,7.22,5,13.72,12.07,16.08,6.34,2.12,15.48-.37,16.83-7.82a11.14,11.14,0,0,0,.18-2.58,19.7,19.7,0,0,0-.54-10.52c-1.32-3.93-4.51-6.83-6.24-10.5a20,20,0,0,1,.2-2.31A3.59,3.59,0,0,0,298.48,132.72ZM303,146.08a18.14,18.14,0,0,1,1.54,8.32,37.93,37.93,0,0,0-3.31-6.82,21.6,21.6,0,0,1-2.71-8.41c1.5,2.3,3.37,4.38,4.5,6.91Z"/><path class="cls-5" d="M314.39,100.27a20,20,0,0,0-5.71-18.78c-2.61-2.45-6.54,1.47-3.93,3.92A14.23,14.23,0,0,1,309,98.79C308.27,102.28,313.62,103.76,314.39,100.27Z"/><path class="cls-26" d="M295.39,139.47c13.38.82,16.91-27.89,14-46.61-1.1-7-6.2-10.46-12.18-12-13.92-3.63-28.3,3.78-34.08,16.93C260.85,103,259.52,109,260.93,115,264.94,131.69,282,138.67,295.39,139.47Z"/><path class="cls-27" d="M233.52,165.26c-2.14,14.73.53,60.15,1.61,65,8.37.34,34.49,1.15,54.9-1.14.64-5.55,2.55-10.26,5.41-12.05,7.89-4.93,6.66-27.63,6.66-27.63s15.54,40.95,32.07,40c6-.35,9.77-10.32,12.16-22.88,3.85-3.58,6.08-9.35,6.65-14.22.35-3,.56-6.93-1.93-9.07s-6.16-.77-8.84-2.58c-2.46-1.64-2.94-5-5.54-6.57-2.77-1.64-6.06-.12-7.4,2.58a12.45,12.45,0,0,0-.91,5.47c-.05,2.24-.08,4.47-.12,6.71,0,1.6.29,5.07-.41,7.53a2.41,2.41,0,0,0-1.43,1.82c-2.71-5-11-20.63-14.67-30.46-2.48-6.63-5.82-9.62-10-11.5a3.21,3.21,0,0,0,1.4-2.53,3,3,0,0,0-3-3,7.55,7.55,0,0,0-5.15,1.69c-1.23.94-2.57,2.68-4.11,3.17a3.8,3.8,0,0,1-2.24-.31,14.07,14.07,0,0,0-3.75-.72c-2.41,0-4.65,1.34-7,1.31-1.93,0-3.41-2.26-5-3.14a9.68,9.68,0,0,0-3.4-1.05,10.71,10.71,0,0,1-3.14-.53c-1.58-.77-2.38-3.11-3.43-4.44a7.79,7.79,0,0,0-6.24-3.31c-3.13.05-3.69,4.07-1.64,5.46C246,151.05,235,155.26,233.52,165.26Z"/><path class="cls-28" d="M345.06,228.1c-3.09-3.7-21.55-3.29-32.35-6.84-6-2-23.67-5.25-38.19-7.78L267,233.23c20.17-.5,42.72-2.53,44.53-3.09C314.68,229.16,348.16,231.8,345.06,228.1Z"/><path class="cls-6" d="M248.23,150.9A27.69,27.69,0,0,0,236,159.11a11.27,11.27,0,0,0-1.86,3.83c-3.65,13.29-2.76,62.13,1,67.34,2.28,3.14,19.47,3.45,37,2.81a2.6,2.6,0,0,0,3,.14,5.44,5.44,0,0,0,2.31-5.34c-.27-1.94-1.46-3.6-1.05-5.62.37-1.86,1.88-2.92,2.82-4.47a5.19,5.19,0,0,0,0-5.75c-2.38-3.47-8.26-2.43-11.83-2.44l-14.05,0C258.62,168.13,248.23,150.9,248.23,150.9Z"/><path class="cls-5" d="M310.54,84.46c-3.6-10-16.87-13.61-26.49-12.71a32.86,32.86,0,0,0-25.33,16.13c-4.69,8.08-4.46,17.4-6.32,26.23-1.81,4.77-5.05,8.84-8,13-3.32,4.67-6.07,9.61-6.82,15.37a22,22,0,0,0,4.68,16.7,20.32,20.32,0,0,0,8.29,7.89,21.15,21.15,0,0,0,17.34.6,8.14,8.14,0,0,0,3.8-1.57,2.74,2.74,0,0,0,1.64-2.27,5.48,5.48,0,0,0,.35-1.49,20.62,20.62,0,0,0-.33-4.36,44.3,44.3,0,0,1,.27-12.49h0c.65-1.55,1.32-3.09,2-4.63a27,27,0,0,0,4.57-6.41c2.62-5.82,2.46-12.28,2-18.52a20.37,20.37,0,0,1,1.69-4.79c1.58-3.11,4.21-5.13,7.14-6.77,2.75-.19,5.53-.2,8.17-1.15a16.33,16.33,0,0,0,10.47-12.76.57.57,0,0,0-.07-.38,14.19,14.19,0,0,0,1-4A2.46,2.46,0,0,0,310.54,84.46Zm-60.31,36.81c-4.38,10.4-13.17,20.24-10.26,32.3a22.48,22.48,0,0,1-.56-14.6c2.06-7.32,7.54-12.84,11.39-19.19C250.63,120.28,250.44,120.78,250.23,121.27Zm27.86,14.81c-.35.56-.72,1.09-1.11,1.64a61.17,61.17,0,0,0,3.28-9.67,70.92,70.92,0,0,0,1.13-7.12c.08,5.26-.5,10.57-3.3,15.15ZM304,99a16.09,16.09,0,0,1-10.21,4.11l-.31,0c1.58-.76,3.18-1.48,4.72-2.24a26.1,26.1,0,0,0,9.57-7.46A15,15,0,0,1,304,99Z"/><path class="cls-5" d="M332.73,432.82c6.91-1,1.48-9.6-9.13-12.07-1.12-.26-2.3-.49-3.51-.69a14.11,14.11,0,0,0-.95,2.74c-1,4.44-6.91,3.95-21.71,2-10.76-1.44-15.91-7-17.92-10-2.88,4.31-5.54,9.71-4.55,14C276.94,437.12,325.83,433.79,332.73,432.82Z"/><path class="cls-5" d="M442.72,430c1.13-2.71-4.77-7.28-14.28-9A25.22,25.22,0,0,1,416.09,423c-9.76-.55-24.33-7.15-31.09-10.46-2.55,8.28-5.34,16.42,7.39,17.38C412.37,431.44,441.48,432.93,442.72,430Z"/><path class="cls-29" d="M594,239.36a4.69,4.69,0,1,0,.28-9.38H275.84a4.69,4.69,0,0,0-.27,9.38H594Z"/><path class="cls-30" d="M543.2,72.31H475.27a35.93,35.93,0,0,1,67.91,0Z"/><path class="cls-31" d="M545.14,84.12a36.53,36.53,0,0,1-2.2,12.38H475.38a36.22,36.22,0,0,1-.23-24.18h67.91A33.73,33.73,0,0,1,545.14,84.12Z"/><path class="cls-32" d="M533.92,110.26c1.39,3.81,3.94,8.79,8,9.95,0,0-7.87,2.77-16.09-4a36.55,36.55,0,0,1-16.66,4,36,36,0,0,1-33.78-23.6h67.56A36.1,36.1,0,0,1,533.92,110.26Z"/><path class="cls-33" d="M388,7a49.12,49.12,0,0,1,46.49,33.05h-92.8A49.11,49.11,0,0,1,388,7Z"/><path class="cls-34" d="M341.84,40.05h92.8a49.49,49.49,0,0,1-.32,33H342a50.1,50.1,0,0,1-3-16.92A46.17,46.17,0,0,1,341.84,40.05Z"/><path class="cls-35" d="M342,73.25h92.33a49.11,49.11,0,0,1-46.17,32.25A49.78,49.78,0,0,1,365.41,100c-11.23,9.33-22,5.54-22,5.54,5.52-1.58,9-8.38,10.89-13.58A49.49,49.49,0,0,1,342,73.25Z"/><rect class="cls-16" x="381.95" y="217.76" width="88.13" height="12.22" rx="2.16"/><rect class="cls-5" x="386.87" y="205.54" width="88.13" height="12.22" rx="2.16"/><rect class="cls-16" x="385.03" y="193.32" width="88.13" height="12.22" rx="2.16"/><rect class="cls-6" x="394.13" y="217.76" width="4.93" height="12.22"/><rect class="cls-6" x="407.82" y="205.54" width="4.93" height="12.22"/><rect class="cls-6" x="399.88" y="193.32" width="4.93" height="12.22"/></svg>