<svg id="Ebene_1" data-name="Ebene 1" xmlns="http://www.w3.org/2000/svg" xmlns:xlink="http://www.w3.org/1999/xlink" width="850" height="580" viewBox="0 0 850 580"><defs><style>.cls-1{opacity:0.26;}.cls-2{fill:#6e46ae;}.cls-3{fill:#fff;}.cls-4{fill:url(#Unbenannter_Verlauf_101);}.cls-5{fill:url(#Unbenannter_Verlauf_150);}.cls-6{fill:url(#Unbenannter_Verlauf_151);}.cls-7{fill:url(#Unbenannter_Verlauf_101-2);}.cls-8{fill:url(#Unbenannter_Verlauf_150-2);}.cls-9{fill:url(#Unbenannter_Verlauf_150-3);}.cls-10{fill:url(#Unbenannter_Verlauf_102);}.cls-11{fill:url(#Unbenannter_Verlauf_101-3);}.cls-12{fill:url(#Unbenannter_Verlauf_149);}.cls-13{fill:url(#Unbenannter_Verlauf_149-2);}.cls-14{fill:url(#Unbenannter_Verlauf_150-4);}.cls-15{fill:url(#Unbenannter_Verlauf_102-2);}.cls-16{fill:url(#Unbenannter_Verlauf_102-3);}.cls-17{fill:url(#Unbenannter_Verlauf_149-3);}.cls-18{fill:url(#Unbenannter_Verlauf_101-4);}.cls-19{fill:url(#Unbenannter_Verlauf_101-5);}.cls-20{fill:url(#Unbenannter_Verlauf_102-4);}.cls-21{fill:url(#Unbenannter_Verlauf_102-5);}.cls-22,.cls-23,.cls-24{fill:none;stroke:#1f3371;stroke-miterlimit:10;}.cls-23{stroke-dasharray:8.12 8.12;}.cls-24{stroke-dasharray:8;}.cls-25{fill:url(#Unbenannter_Verlauf_148);}.cls-26{fill:#37a5cb;}.cls-27{fill:#f17a79;}.cls-28{fill:url(#Unbenannter_Verlauf_147);}.cls-29{fill:url(#Unbenannter_Verlauf_147-2);}</style><linearGradient id="Unbenannter_Verlauf_101" x1="-1739.02" y1="4622.72" x2="-1748.87" y2="4652.88" gradientTransform="translate(-2810.54 -3225.92) rotate(-63.31)" gradientUnits="userSpaceOnUse"><stop offset="0" stop-color="#130839"/><stop offset="1" stop-color="#1f3371"/></linearGradient><linearGradient id="Unbenannter_Verlauf_150" x1="-8478.3" y1="408.56" x2="-8460.69" y2="463.78" gradientTransform="matrix(-1, 0, 0, 1, -7996.84, -99.16)" gradientUnits="userSpaceOnUse"><stop offset="0" stop-color="#6b56a6"/><stop offset="1" stop-color="#584788"/></linearGradient><linearGradient id="Unbenannter_Verlauf_151" x1="-7292.92" y1="4563.29" x2="-7310.93" y2="4577.36" gradientTransform="matrix(-0.43, 0.9, 0.9, 0.43, -6849.53, 4865.58)" gradientUnits="userSpaceOnUse"><stop offset="0.02" stop-color="#f8440d"/><stop offset="1" stop-color="#fcc622"/></linearGradient><linearGradient id="Unbenannter_Verlauf_101-2" x1="-4891.8" y1="5733.1" x2="-4901.65" y2="5763.26" gradientTransform="matrix(-0.37, -0.93, 0.93, -0.37, -6670.08, -2055.62)" xlink:href="#Unbenannter_Verlauf_101"/><linearGradient id="Unbenannter_Verlauf_150-2" x1="-8159.65" y1="-153.3" x2="-8106.59" y2="-116.6" gradientTransform="matrix(-0.99, -0.16, -0.16, 0.99, -7667.82, -810.4)" xlink:href="#Unbenannter_Verlauf_150"/><linearGradient id="Unbenannter_Verlauf_150-3" x1="-8435.38" y1="269.72" x2="-8382.19" y2="289.73" gradientTransform="matrix(-1, -0.01, -0.01, 1, -7984.5, -132.98)" xlink:href="#Unbenannter_Verlauf_150"/><linearGradient id="Unbenannter_Verlauf_102" x1="-8303.68" y1="323.08" x2="-8279.71" y2="323.08" gradientTransform="matrix(-1, -0.01, -0.01, 1, -7984.5, -132.98)" gradientUnits="userSpaceOnUse"><stop offset="0" stop-color="#f0a186"/><stop offset="1" stop-color="#ecb3b3"/></linearGradient><linearGradient id="Unbenannter_Verlauf_101-3" x1="-8421.55" y1="733.02" x2="-8402.2" y2="686.44" gradientTransform="matrix(-0.99, 0.11, 0.11, 0.99, -8126.76, 376.81)" xlink:href="#Unbenannter_Verlauf_101"/><linearGradient id="Unbenannter_Verlauf_149" x1="-8305.91" y1="294.95" x2="-8278.06" y2="294.95" gradientTransform="matrix(-1, -0.01, -0.01, 1, -7984.5, -132.98)" gradientUnits="userSpaceOnUse"><stop offset="0" stop-color="#f96666"/><stop offset="1" stop-color="#d84445"/></linearGradient><linearGradient id="Unbenannter_Verlauf_149-2" x1="-8401.44" y1="305.63" x2="-8333.32" y2="337.23" xlink:href="#Unbenannter_Verlauf_149"/><linearGradient id="Unbenannter_Verlauf_150-4" x1="-8354.6" y1="293.78" x2="-8320.37" y2="306.94" gradientTransform="matrix(-1, -0.01, -0.01, 1, -7984.5, -132.98)" xlink:href="#Unbenannter_Verlauf_150"/><linearGradient id="Unbenannter_Verlauf_102-2" x1="-8449.87" y1="690.07" x2="-8390.23" y2="690.07" gradientTransform="matrix(-0.99, 0.11, 0.11, 0.99, -8126.76, 376.81)" xlink:href="#Unbenannter_Verlauf_102"/><linearGradient id="Unbenannter_Verlauf_102-3" x1="-8390.68" y1="301.15" x2="-8331.69" y2="354.88" xlink:href="#Unbenannter_Verlauf_102"/><linearGradient id="Unbenannter_Verlauf_149-3" x1="-8380.18" y1="259.8" x2="-8312.06" y2="291.4" xlink:href="#Unbenannter_Verlauf_149"/><linearGradient id="Unbenannter_Verlauf_101-4" x1="-8496.58" y1="725.26" x2="-8469.99" y2="661.26" gradientTransform="matrix(-0.99, 0.11, 0.11, 0.99, -8126.76, 376.81)" xlink:href="#Unbenannter_Verlauf_101"/><linearGradient id="Unbenannter_Verlauf_101-5" x1="-8344.15" y1="411.82" x2="-8278.84" y2="276.28" gradientTransform="matrix(-1, -0.01, -0.01, 1, -7984.5, -132.98)" xlink:href="#Unbenannter_Verlauf_101"/><linearGradient id="Unbenannter_Verlauf_102-4" x1="-6691.11" y1="4967.56" x2="-6696.9" y2="4985.28" gradientTransform="matrix(-0.29, 0.96, 0.96, 0.29, -6418.94, 5234.44)" xlink:href="#Unbenannter_Verlauf_102"/><linearGradient id="Unbenannter_Verlauf_102-5" x1="-8243.76" y1="-548.44" x2="-8184.77" y2="-494.71" gradientTransform="matrix(-0.97, -0.23, -0.23, 0.97, -7724.73, -1091.54)" xlink:href="#Unbenannter_Verlauf_102"/><linearGradient id="Unbenannter_Verlauf_148" x1="-8662.98" y1="197.92" x2="-8621.18" y2="276.11" gradientTransform="matrix(-1, 0, 0, 1, -7996.84, -99.16)" gradientUnits="userSpaceOnUse"><stop offset="0" stop-color="#f5cbd8"/><stop offset="1" stop-color="#e1b1bc"/></linearGradient><linearGradient id="Unbenannter_Verlauf_147" x1="165.27" y1="286.19" x2="128.27" y2="206.19" gradientTransform="translate(0 -99.16)" gradientUnits="userSpaceOnUse"><stop offset="0" stop-color="#e1b1bc"/><stop offset="1" stop-color="#f5cbd8"/></linearGradient><linearGradient id="Unbenannter_Verlauf_147-2" x1="-429.62" y1="479.96" x2="-387.83" y2="558.16" gradientTransform="translate(594.06 -99.16)" xlink:href="#Unbenannter_Verlauf_147"/></defs><title>sprache-lernen-4</title><g id="Objects"><g class="cls-1"><path class="cls-2" d="M342.8,504.46a14.81,14.81,0,0,0-10.2,4.9,5.49,5.49,0,0,0-1.2,2.1c-.5,2.5,2.2,4.4,4.7,5.2,8.4,2.7,17.5,1.2,26.2-.3l19.1-3.3c4.9-.8,10.1-1.8,13.6-5.4.2-1.3-1.2-2.3-2.5-2.4s-2.5.5-3.8.8c-5.6,1.6-11.5-.8-16.5-3.7-3.2-1.8-6.8-4-10.4-3-2.9.8-5,3.5-7.8,4.7C350.4,505.46,346.5,504.26,342.8,504.46Z"/><path class="cls-2" d="M331.3,38.36c-.1-.6-.3-1.4.3-1.5a1.38,1.38,0,0,0-1.2-1.2,3.81,3.81,0,0,0-1.8.3c-.7.3-1.4.5-2.1.8a10,10,0,0,0-2.9,1.5c-2,1.7-2.2,4.6-3.6,6.8a15.92,15.92,0,0,0-1.3,2.2,2.13,2.13,0,0,0,.4,2.4c.2.1.3.2.5.2a.52.52,0,0,0,.4-.2c3-2,5.9-4.1,8.9-6.1a8.78,8.78,0,0,0,1.5-1.2A4.92,4.92,0,0,0,331.3,38.36Z"/><path class="cls-2" d="M316.9,55.06a.77.77,0,0,0-.8-.7,2,2,0,0,0-1.1.3,4.35,4.35,0,0,0-2.1,1.4,1.69,1.69,0,0,0,.1,2.3c1.1-.7,2.2-1.5,3.3-2.2C316.5,55.86,316.9,55.46,316.9,55.06Z"/><path class="cls-2" d="M302.9,65c.5.4,1.2.1,1.7-.3l3.3-2.4a2.77,2.77,0,0,0-.5-1.6c-1.2.8-2.4,1.5-3.6,2.3a3.45,3.45,0,0,0-.9.8C302.7,64.16,302.6,64.76,302.9,65Z"/><path class="cls-2" d="M292.9,69.16a1.13,1.13,0,0,0,1.1.7,3,3,0,0,0,1.3-.5c1-.6,2-1.1,3.1-1.7a2.69,2.69,0,0,0-.5-1.5,8.17,8.17,0,0,0-4.2,1.7C293.2,68.06,292.7,68.66,292.9,69.16Z"/><path class="cls-2" d="M339.1,35.16a12.23,12.23,0,0,1,6.5-1.5c1.1,0,2.1.2,3.2.2a14.75,14.75,0,0,0,9.6-3.3c.1-1.1-1.2-1.9-2.3-1.7a11.08,11.08,0,0,0-3,1.2c-2.2.9-4.7.5-7,.6a18.37,18.37,0,0,0-11.4,4.6,2,2,0,0,0,2.1,1A12,12,0,0,0,339.1,35.16Z"/><path class="cls-2" d="M623.5,218a9,9,0,0,0,.8,2.8,9.73,9.73,0,0,0,1.1,2.3,2.17,2.17,0,0,0,2.2.8c1.3-.4,1.7-2,1.6-3.3a14.53,14.53,0,0,0-.6-4.1c-.4-1.4-1-3-.4-4.4a5.17,5.17,0,0,1,1.5-1.8l3.7-3.4a6.48,6.48,0,0,0,1.7-2,2.27,2.27,0,0,0-.1-2.5,2.59,2.59,0,0,0-1.7-.9,5.09,5.09,0,0,0-3.6.8c-1.3.9-1.9,2.5-2.5,3.9-.7,1.7-1.5,3.4-2.2,5.1C624.2,213.36,623.2,215.66,623.5,218Z"/><path class="cls-2" d="M622.2,184.26a8.8,8.8,0,0,0,1.5.5c1.7.7,2.4,3.1,4.2,3.4a1.18,1.18,0,0,0,.9-1.2,3.14,3.14,0,0,0-.6-1.6,19.9,19.9,0,0,0-2.9-3.6,3.68,3.68,0,0,0-1.9-1.1,2,2,0,0,0-2,1.3A1.87,1.87,0,0,0,622.2,184.26Z"/><path class="cls-2" d="M542.5,127.76c-1.1-1-3-.2-3.9,1-2.1,2.5-2.1,6.2-2.1,9.4,0,1.4.2,3,1.4,3.7s2.6,0,3.9.2c1.9.4,3.3,2.5,5.1,2.1a2.62,2.62,0,0,0,1.8-1.6,5.33,5.33,0,0,0,.2-2.5c-.6-4-4-7-5.6-10.7A2.72,2.72,0,0,0,542.5,127.76Z"/><path class="cls-2" d="M513.4,169.16a7.11,7.11,0,0,0,2.3-3.7,5.58,5.58,0,0,0,.4-3.1,4.13,4.13,0,0,0-2.5-2.5c-1.1-.5-2.3-.7-3.4-1.2-1.4-.6-2.6-1.7-4.2-1.9a6.92,6.92,0,0,0-2.8.5c-1.9.6-3.8,1.2-5.7,1.7a2.38,2.38,0,0,0-1.1.6c-.5.6-.2,1.5.1,2.1.9,1.9,1.9,4,3.8,5,1.4.8,3.1.8,4.7,1.2,1.4.4,2.7,1.1,4.1,1.5A4.94,4.94,0,0,0,513.4,169.16Z"/><path class="cls-2" d="M519.3,188.26a4.86,4.86,0,0,0,1.3-2.9c.5-3,.1-6.4,2.1-8.6,2.2-2.4,6.5-2.4,8.1-5.2a6.61,6.61,0,0,0,.7-2.5,8.94,8.94,0,0,0-2.4-6.8,4.93,4.93,0,0,0-3-1.6,4.65,4.65,0,0,0-3.8,1.8,17.55,17.55,0,0,0-2.1,3.8c-.5,1.2-1,2.4-1.4,3.5a5.93,5.93,0,0,1-1.1,1.9c-1,.9-2.6.6-3.9.4-3.9-.7-8.3-.4-11.4,2.1a1.78,1.78,0,0,0-.7.8,1.41,1.41,0,0,0,.1.9,26.14,26.14,0,0,0,2.4,5.4,10.92,10.92,0,0,0,1.3,1.7c1.1,1,2.7,1.3,4.1,2,1.6.8,2.9,2.2,4.5,3.1C515.8,189.16,517.9,189.46,519.3,188.26Z"/><path class="cls-2" d="M483.6,239.66c.2.2.4.5.7.6s.6-.1.9-.3c1.3-.8,2.7-1.6,4-2.4a10.38,10.38,0,0,0,1.7-1.2,2.28,2.28,0,0,0,.7-1.9,1.49,1.49,0,0,0-1.3-1.2,5.54,5.54,0,0,0-1.8.2,7.37,7.37,0,0,0-1.4.4,8.52,8.52,0,0,0-3.1,1.3,3.1,3.1,0,0,0-1.3,2.9A3.67,3.67,0,0,0,483.6,239.66Z"/><path class="cls-2" d="M488.9,253.06c-.2-.4-.5-.9-1-1h-.5a2.1,2.1,0,0,0-1.3,1.7,5.5,5.5,0,0,0,.2,2.2,19.53,19.53,0,0,1,.3,3.4c0,1.5-.2,3.3.8,4.4a1.79,1.79,0,0,0,.7.5,1.67,1.67,0,0,0,1.2-.1,4.79,4.79,0,0,0,3-2.9,4.88,4.88,0,0,0-.3-4.1,9,9,0,0,0-1.5-1.9A21,21,0,0,1,488.9,253.06Z"/><path class="cls-2" d="M504.7,295.36c-.8.1-1,1.1-.9,1.9a7.4,7.4,0,0,0,2.4,4.6,1.33,1.33,0,0,0,1.1-1.6,8.36,8.36,0,0,0-.8-2C505.9,297.26,505.7,295.86,504.7,295.36Z"/><path class="cls-2" d="M523.7,319.46a2.84,2.84,0,0,0-1.3-.4,2,2,0,0,0-1.7,2,4.09,4.09,0,0,0,1.1,2.6c.2.2.3.4.5.6.8.5,1.9-.1,2.7-.7.5-.3,1-.8,1-1.3a1.14,1.14,0,0,0-.3-.8A4.81,4.81,0,0,0,523.7,319.46Z"/><path class="cls-2" d="M634.8,136.06A275,275,0,0,0,398.9,15.66c-4.2,3.3-9.7,4.6-15,5.6-6,1-12.3,1.8-17.3,5.2a5.24,5.24,0,0,0,4.5,2.2,22.78,22.78,0,0,0,5.2-1,65.39,65.39,0,0,1,11.7-1.2,29.22,29.22,0,0,1,6.6.3c2.7.6,5.2,2,7.9,2.7,4.3,1,8.9-.1,13.1,1.4,2.2.8,4.1,2.2,6.1,3.2,4.8,2.3,10.6,2.1,15.3,4.7a3.65,3.65,0,0,1,2.1,2.3,3.51,3.51,0,0,1-1.7,3.2,17.32,17.32,0,0,0-3.1,2.2,12.75,12.75,0,0,0,8.2,9.6c.8.3,1.5-.3,2.4-.3a3.29,3.29,0,0,0,1.7-.4c1.1-.8.6-2.5.7-3.8.3-2.1,2.5-3.4,4.6-3.5s4.1.8,6.1,1.5,4.2,1.3,6.2.6c1.8,2.2.3,5.6,1.4,8.1.4.9,1.2,1.9.8,2.8-.5,1.1-2.2,1-3,.2a15.67,15.67,0,0,1-2-3c-1.3-1.8-4.1-2.6-6.2-2.4-3.4.3-3,2.2-4.1,4.6-.8,1.7-2.1,2.6-3.6,3.7a2.34,2.34,0,0,0-1,1.2c-.4,1.2,1.1,2.4,2.4,2.2s2.4-.9,3.7-1.2c2.6-.6,5.3.8,7.9.4,1.6-.2,3-1.1,4.5-1.4a11.91,11.91,0,0,1,5.3.6l9.4,2.4a6.45,6.45,0,0,0,4.7-.6c1.5-.7,2.8-1.8,4.4-2.4,2.9-1.1,6.2-.4,9.2.7,3.4,1.2,7.1,2.8,10.4,1.4a14.75,14.75,0,0,0-2.7-4.7c.4-1.2,2.1-1.1,3.3-.8l6.5,1.8c2,.5,4.5.9,5.7-.8a3.49,3.49,0,0,0-.3-3.9,8.24,8.24,0,0,0-3.5-2.3c-6.9-2.7-15.3-2.6-20.6-7.8a4.58,4.58,0,0,1,4.1-2.6,12.52,12.52,0,0,1,5,1.1c5.1,1.8,10.2,3.6,15.4,5.3,7.3,2.5,15.1,5.5,19.1,12.1-1.2,2.2-4.9,0-7.1,1.4.1,1.6,1.7,2.8,3.2,3.2s3.2.5,4.7,1.2c1.8.8,3,2.6,3.9,4.3a3.09,3.09,0,0,1-3.3,1.6,10.46,10.46,0,0,1-3.7-1.4c-6.2-3.4-13.2-6.7-20.1-5.3,1.4,3.3,5.3,4.5,8.7,5.2s7.4,1.4,9.3,4.4l-3,1.8c1,1.9,3.3,2.8,5.3,3.4,2.5.8,5,1.6,7.5,2.3a158.81,158.81,0,0,0,20.2,5.5,41.73,41.73,0,0,1,5.1.8,5.52,5.52,0,0,1,3.9,3.2c-1.3,0-1.5,2-.8,3.1s1.9,1.9,2.2,3.1c.5,1.8-1.2,3.5-3,3.8s-3.6-.4-5.3-1A204.88,204.88,0,0,1,547,95.26c-2.5-1.4-4.9-2.8-7.5-4-6.6-3-14-4.1-21.2-5.2-3.2-.5-9.8,1.8-9.8,6,0,2.2,2.2,3.6,4.3,4.1s4.4.5,6.2,1.8c2.1,1.5,3,4.3,5.1,5.7,1.4.9,3.2,1.1,4.8,1.6a12.41,12.41,0,0,1,7,5.3c1.1,1.8,1.8,4,3.4,5.4,2.1,1.9,5.3,2.2,7.5,4,1.6,1.4,2.4,3.5,3.8,5.2,2.5,3.2,6.7,4.5,10.4,5.9,11.8,4.6,22.7,12.5,35.4,13.8,2.2.2,4.7.2,6.5-1.1a2.12,2.12,0,0,0,1-1.3,2.61,2.61,0,0,0-.6-1.8,56.3,56.3,0,0,1-5.8-13.6,7.9,7.9,0,0,0,5-.9,54.31,54.31,0,0,0-11.5-20.9c-2.2-2.4-4.6-4.8-5.8-7.8.9-1.1,2.5-.8,3.8-.3a39.71,39.71,0,0,1,10,5.2c2.4,1.7,8.4,5.8,8.6,9,.2,3.4-4.4,4-4,7.6.5,4.6,1.9,8.5,1.5,13.2-1.4.4-1.1,2-.5,3.3s1.8,2.3,2.5,3.6a6.69,6.69,0,0,1-.1,6.7c-.5.8-1.3,1.6-1.8,2.4a7.32,7.32,0,0,0-.2,6.3,24.41,24.41,0,0,0,3.5,5.5l7.6,9.7c1.1,1.3,2.1,2.7,3.3,3.9a52.44,52.44,0,0,0,5,4.4l6.2,5a9,9,0,0,0,4.5,2.4,26,26,0,0,0,3.9-.5c1.3-.1,2.9.6,3,1.9.5,3.9,4.8,6.1,7,9.3.9,1.4,2.2,2.9,3.8,2.7a3.59,3.59,0,0,1,2.2-4.1,20.71,20.71,0,0,1,2.5,8.1c.3-1.1,1.9-1.3,2.8-.6a4.7,4.7,0,0,1,1.4,3c.5,2.3,1.1,4.5,1.6,6.8a16.29,16.29,0,0,1-1.7,1.1c-1.4-.9-2.7-2-4-3a6.5,6.5,0,0,1,0,3.1,2.68,2.68,0,0,1-2.1,2c-1.6.1-2.5-1.7-3-3.2l-3.9-10.8c-2,.5-2.7,2.9-2.9,4.9-.7,6.9.8,14.7-3.5,20.2-1.2-1.3-3.4-2.6-4.6-1.2-.7.7-.5,1.9-.4,2.9a13.31,13.31,0,0,1-2.3,9.1,1.78,1.78,0,0,1-1.1.8,2.52,2.52,0,0,1-1.6-.5,29.85,29.85,0,0,1-5.4-4.6c-1.5-1.6-2.9-3.3-4.9-4.1a11.34,11.34,0,0,0-3.2-.6c-5-.4-10.1-.8-15,.4-1.5.4-3.2.8-4.3-.3a3.62,3.62,0,0,1-.6-2.9,75.25,75.25,0,0,1,1-8.3,1.8,1.8,0,0,1,.4-.9c.4-.4,1.1-.2,1.6.2,1.6,1.1,2.5,2.9,3.9,4.2s3.7,2.1,5.1.8c-.1-3.5-2.8-6.2-4.3-9.3-2.1-4.5-1.7-9.9-3.6-14.5-2.4-5.8-8.4-9.5-14.5-11s-12.5-1.3-18.8-1.5a23,23,0,0,1-6.9-1c-2.4-.8-4.7-2.4-7.2-2.6a9.42,9.42,0,0,0-5.4,1.3c-3,1.6-5.4,4.7-5.4,8.1.1,4.8,4.1,4.7,6.9,7.2,3.8,3.5-1.2,7-3.6,9.2-1.5,1.4-2.6,3.6-1.7,5.4s3.6,2.2,5.7,1.6,4-1.7,6.2-1.6a32,32,0,0,1,4.2,1c1.4.3,3,.3,4-.7s1.1-2.9,1.8-4.3c1.2-2.4,4.2-3.2,6.8-3.7,3.4-.7,6.8-1.4,10.3-.9a3.59,3.59,0,0,1,2.1.8c1,1,.6,2.8-.4,3.8a7.73,7.73,0,0,1-3.8,1.7c-2.9.6-5.9,1.2-8.1,3.1s-3.3,5.6-1.4,7.8c.9,1.1,2.4,1.6,3.6,2.3s2.4,1.9,2.3,3.4a2.81,2.81,0,0,1-2.8,2.3,4.52,4.52,0,0,1-3.4-1.7c-.8-.9-1.7-2.1-2.9-1.9-.9.2-1.3,1.3-1.8,2.2a7.81,7.81,0,0,1-3.9,3.7,3.12,3.12,0,0,1-1-4.4c0-1.1-1.5-1.7-2.5-1.4a16.41,16.41,0,0,0-2.9,1.6,6.2,6.2,0,0,1-6.3-.5c-4.1-3-3.4-10-7.7-12.7-1-.6-2.2-.9-3.2-1.6s-1.8-1.9-1.4-3a6,6,0,0,1,.9-1.3,11.36,11.36,0,0,0,2.4-4.1,5.7,5.7,0,0,0,.3-3.4,2.77,2.77,0,0,0-2.5-2.1c-2.8,0-3.6,5-6.4,5-1.8,0-2.8-2-3.8-3.5-2.5-3.9-7.1-6-11.6-7.2s-9.2-1.9-13.4-3.9c-3.2-1.6-5.2-4-7.7-6.5-1-1-3.7-4.4-5.3-4a2.08,2.08,0,0,0-1.4,2.1,10.89,10.89,0,0,0,.5,2.6,9.61,9.61,0,0,1,.3,5.8,4.79,4.79,0,0,1-4.3,3.5c-2,0-3.9-1.5-5.8-.9-1.2.4-2,1.4-3.2,1.8a3.81,3.81,0,0,1-3.7-1.2,12.21,12.21,0,0,1-2-3.5c-.6-1.5-1.2-2.9-1.9-4.4-1.7-4-4.1-8.6-8.4-9-3.4-.4-6.4,2-9.7,2.8-3.5.8-7.6-.3-10.5,1.8a3,3,0,0,0-1.5,2.6,4,4,0,0,0,.9,2.1c2.2,3.9,2.3,8.6,2.9,13s2.4,9.2,6.4,11.2a14.3,14.3,0,0,0,7.7.8,42.3,42.3,0,0,0,6.2-1.1,10.55,10.55,0,0,1,3.1-.4,6.36,6.36,0,0,1,2.9,1.3c3,1.9,6.2,4.1,9.7,3.6,1.7-.3,3.2-1.1,4.9-1.4s3.8.6,4,2.3a17.85,17.85,0,0,1-.2,2.3c.1,2.1,2.5,3.1,4.6,3.6,3.8,1,8.3,2.4,9.4,6.2a9.23,9.23,0,0,1,.3,2.9c.1,11,0,22.7-6.3,31.7a12.54,12.54,0,0,0-2.1,3.5,3.36,3.36,0,0,0,.9,3.7c1.3.2,1.9-1.4,2.4-2.6a8.74,8.74,0,0,1,5-4.8,4,4,0,0,1,.4,5.4c.9.8,2.3.2,2.9-.8a5.59,5.59,0,0,0,.5-3.4c-.2-4-.4-8-.5-12-.1-3.1-.3-6.3.5-9.4a11.15,11.15,0,0,1,5.3-7.5c1.8,1.9,1.3,4.9.8,7.5a53.31,53.31,0,0,0,.2,19.1c1,1,.2,3-.9,3.9s-2.7,1.3-3.5,2.5c-1.3,1.9-.4,4.4-.6,6.7-.3,3.1-2.9,5.5-4.6,8.1s-2.5,6.7.2,8.4l4.4-3.5c1.5,2.2,5.6,1.6,6.4-.9.5-1.6-.1-3.2-.2-4.9s.5-3.7,2.1-3.9c1.4-.2,2.6,1.1,3.5,2.2,1.7,2.3,3.3,4.5,5,6.8-2.9,2.6-5.9,5.3-7.2,8.9-1.2,3.3-.9,7-.5,10.5a7.74,7.74,0,0,0,1.1,4c.8,1.1,2.5,1.8,3.7,1,2.3,1.4,1.2,5.1,2.5,7.4,1,1.8,3.1,2.5,4.9,3.4s3.8,2.3,3.8,4.3-1.7,3.4-3.5,4.1-3.7,1-5.3,2.1c-1.9,1.3-2.9,3.7-4.9,4.8-2.2,1.3-5.2.7-7.3-.7a19.91,19.91,0,0,1-5.1-5.7c-2.9-4.1-5.7-8.3-8.6-12.4a31.54,31.54,0,0,1-4.9-9c-.9-3.1-.9-6.4-1.9-9.5s-3.3-6.2-6.5-6.4c-3.6-.3-7,2.9-10.4,1.9a5.61,5.61,0,0,1-2.8-2c-3.5-4.4-1.3-10.8-1.9-16.3-.5-4.8-3.2-9.1-3.7-13.9-.3-2.6.4-5.7,2.8-6.8,2.2-1,5.1-.2,6.8-1.9s.7-4.7-.4-6.8q-4.65-8.85-9.9-17.4c-2.7-4.3-5.5-7.7-9.9-10.3.4.3.8.5,1.2.8-4.5-2-8.1-4.2-10.8-8.5a36.64,36.64,0,0,1-4.7-13.2,7.33,7.33,0,0,0-1.2-3.5,6.55,6.55,0,0,0-3-1.8,87.74,87.74,0,0,0-13.3-3.8c-4-.8-8.5-1.2-11.9,1.1-1.2.8-2.2,1.9-3.5,2.6-2.6,1.3-5.9.4-8.3-1.3s-4.4-3.9-6.8-5.7c-4.9-3.6-11.1-4.8-17.1-5.5a148.39,148.39,0,0,0-16.3-.9c-2.4,0-5.1.2-7,1.8-1.2,1-1.8,2.5-2.6,3.8-2.3,3.61-6.2,6-10.2,7.5s-8.3,2.2-12.6,3.11a17.52,17.52,0,0,0-6.7,2.5c-4.1,3-5.2,8.5-6,13.49,1.3,2.8-1.4,6-3.4,8.3-2.5,2.7-4.9,5.6-6.1,9A29.45,29.45,0,0,0,305,235l-1.5,14.4a24.13,24.13,0,0,0,0,7.1c1,5.5,5.6,9.6,8.4,14.5,2.4,4.1,3.6,8.8,6.1,12.7,3.6,5.61,9.6,9.21,15.5,12.4,3.1,1.71,6.7,4.4,5.7,7.8-.4,1.4-1.6,2.5-2.5,3.7a10.37,10.37,0,0,0-.9,9.8,8.62,8.62,0,0,0,2.6,3.8c1.6,1,3.6.9,5,2.3s1.5,3.5,1.5,5.4c0,2.3-.2,4.8-1.7,6.5-2.3,2.6-6.2,2.2-9.6,2.9a27.41,27.41,0,0,0-7.3,3c-1.5.8-3.1,1.6-3.9,3.1a7.5,7.5,0,0,0-.9,2.5,35.45,35.45,0,0,0-.7,4.7c-1.1,10.9-6.4,20.8-13.1,29.4-2.2,2.9-5,5.6-8.4,6.7-6.8,2.3-14.6-1.5-21.3,1.1a6.9,6.9,0,0,0-2.7,1.7c-4.2,4.6-8.3,9-10.1,14.9-.9,3.1-1.4,6.4-3.4,8.8-3,3.5-8.6,4.3-10.7,8.4a14.48,14.48,0,0,0-1,4.1c-.6,4.6-1.2,9.7-4.8,12.6-1.4,1.1-3.1,1.8-4,3.3a7.31,7.31,0,0,0-.7,1.9,12.07,12.07,0,0,0,5.7,12.4c4.9,2.8,9.9,5.2,13.1,10.2,1.1,1.7,2,3.6,3.6,4.7a10.19,10.19,0,0,0,3.4,1.4c7,2,13.9,4.41,20.7,7,2.6,1,5.5,2,7.9.8,1.1-.5,2-1.4,3.1-1.8,2-.7,4.2.3,6.1,1.21,2.4,1.2,4.8,2.4,7.1,3.59a6.17,6.17,0,0,0,2.9.91,5.13,5.13,0,0,0,2.4-1c3.6-2.21,6.4-5.6,11-5.6,3.5,0,6.8,1.7,10.1,3q3.3,1.35,6.6,2.4c2.2.7,4.3,1.5,6.5,2.2a25.24,25.24,0,0,0,5.4,1.4,16.41,16.41,0,0,0,8.9-2,48.67,48.67,0,0,0,7.6-5.2c5.6-4.5,9.9-9.6,15.2-14.4a21.23,21.23,0,0,1,4.2-3.2,18.47,18.47,0,0,1,9.3-1.8c3.2.1,6.4.7,9.5.9,6.7.4,13.4-.9,20-.1,7.1.9,14-.2,21.2-.1H456c1.4-.1,2.8-.2,4.2-.4,12.6-1.8,25.2-5.8,34.9-13.9a3.32,3.32,0,0,0-2.3-2,28.37,28.37,0,0,0-3.1-.6,21,21,0,0,1-5.3-1.9c-5-2.4-10.1-5.9-11.8-11.2-1.5-4.4.5-7.2,2.2-11.1a18,18,0,0,0,1.6-8.2c-.1-3.6-1.3-7.2-.9-10.7s2.3-6.5,4.1-9.4c1.6-2.6,3.21-5.2,4.8-7.8,4.9-8,8.3-16.7,11.7-25.5,1.8-4.7,2.8-8.9,6.71-12.3a1.72,1.72,0,0,1,1.2-.6c.9,0,1.4,1,1.5,1.9,1.5,8.1-6.2,15-7.4,23.1-.5,3.3,0,7.1-2.1,9.8a34.46,34.46,0,0,1-2.8,2.6c-2.9,3.1-2.9,7.8-3.4,12.1a43.11,43.11,0,0,1-7.7,20.1,26.1,26.1,0,0,0-3.6,5.7c-.8,2.1-.9,4.7.4,6.5,1.2,1.6,3.2,2.2,5.1,2.8l16.8,5.1c3.79,1.2,8.6,2.1,11.39-.8.5-.5.8-1.1,1.4-1.3a2.77,2.77,0,0,1,1.8,0c3.8,1.2,6.3,6.3,10.3,5.7a10.61,10.61,0,0,0,3.7-1.8c2.8-1.6,6.1-2,9.2-2.9a28.78,28.78,0,0,0,9.6-4.8,7.77,7.77,0,0,0,2.5-2.6c1-1.8,1-3.9,1-6a20.79,20.79,0,0,0-1.1-7.8c-1-2.4-3.29-4.5-5.9-4.6a16.08,16.08,0,0,1-3.1.1c-1.79-.3-3-2-3.4-3.8a14.33,14.33,0,0,1,.4-5.4c1-4.8,2-9.5,3-14.3a16.76,16.76,0,0,1,1.71-5.1,5.5,5.5,0,0,1,4.39-2.8c1.8,3.4.21,7.4-.39,11.2a19.84,19.84,0,0,0,1,10.3c1.1,2.9,3.29,5.9,6.39,6.2a5,5,0,0,1,2.11.4c1.29.9.6,2.8.29,4.3a7.68,7.68,0,0,0,2.21,6.4,21,21,0,0,0,5.5,4.3c3.2,2.1,6.6,4.2,10.29,5,.8.2,1.8.4,2.21,1.2a2.52,2.52,0,0,1,.1,1.7c-.3,1.9-.6,3.8-.9,5.6-1.5,1.1-1.4,3.1-.9,4.8a7.34,7.34,0,0,1,.5,2c-.2,2-2.8,3.2-3.4,5.2-.4,1.3-.1,2.9,1,3.5,1.8.2,3.3-2.1,5.1-1.8,1.2.2,1.8,1.6,1.7,2.8a7.13,7.13,0,0,1-1.7,3.2c-11,14.6-22.2,29.1-32.6,44.1-.6.9-1.2,2.4-.3,3a2.25,2.25,0,0,0,2.1-.1c6.9-2.7,12.8-7.3,18.6-11.8q23.85-18.45,49.1-35a7.32,7.32,0,0,1,4.4-1.7,10.94,10.94,0,0,1-.9,4.7c-1.7,4.2-4.6,7.9-7.3,11.6s-5.3,7.7-6.3,12.1v.2A274.19,274.19,0,0,0,634.8,136.06Zm-74,182.4c-1.8.6-3.6-.7-4.9-2.1a30.6,30.6,0,0,1-6.4-10.5c-1.2-3.3-1.9-7-4.3-9.6s-5.8-3.5-8.4-5.7c-1.4-1.2-2.7-2.9-2.4-4.8s2.1-3.1,3.8-4c1.5-.9,2.9-1.7,4.4-2.6a20.47,20.47,0,0,1,5.4-2.5,6.28,6.28,0,0,1,5.6,1.2c1.8,1.6,2.1,4.5,1.1,6.8-.7,1.6-1.9,2.9-2.4,4.6s.1,3.9,1.8,4.2c1.1.2,2.2-.5,3.2-1.1l4-2.8c1-.7,2.2-1.5,3.5-1.3,2.2.4,2.7,3.4,4.3,5-.6,2.1-2.9,3-4.4,4.5a9.24,9.24,0,0,0-2.8,6.5,25.27,25.27,0,0,0,.8,7.2,11,11,0,0,1,.5,4A4.08,4.08,0,0,1,560.8,318.46Zm15.3,38.4c-1.8,0-3.1-1.7-4.1-3.3-1.4-2.3-2.9-5.2-1.7-7.6a7.49,7.49,0,0,1,1.3-1.8,49.57,49.57,0,0,0,5.4-9.1,28.82,28.82,0,0,0,1.9-4.5c1-3.4.7-7,.5-10.5a2.56,2.56,0,0,1,1.7-3,17,17,0,0,1,10.9-1.5,3.18,3.18,0,0,1,.9.3,3.88,3.88,0,0,1,.6,1.1c.3,1,.6,2.1.8,3.1a2.49,2.49,0,0,1,.1.8,1.78,1.78,0,0,1-.7.8c-1.9,1.3-3.9,2.5-5.8,3.8a4.36,4.36,0,0,0-1.4,1.3,3.71,3.71,0,0,0-.2,2.1c.2,1.7.8,3.3,1,5a6.5,6.5,0,0,1-1,4.9c-.9,1.1-2.4,1.7-3.5,2.7-2.4,2-2.9,5.4-3,8.6a12.39,12.39,0,0,1-.5,4.3A3.66,3.66,0,0,1,576.1,356.86ZM604.9,339c-.1-.2-.3-.3-.4-.5a11.91,11.91,0,0,0,1-3.2,20,20,0,0,1,.4-2.4,4,4,0,0,1,3.8-2.5,9.1,9.1,0,0,1,1.1,2.5,23.29,23.29,0,0,1-1.4,3.3,6.57,6.57,0,0,1-1.2,1.7A7.6,7.6,0,0,1,604.9,339Z"/><path class="cls-2" d="M228,150.26c-.2-2.5-.6-5,.2-7.4s2.5-4.1,3-6.5c.7-3.3-1-7.3,1.3-9.8.5-.6,1.2-1,1.7-1.7.9-1.3.4-3.1,1-4.5.9-2.1,3.5-2.6,5.7-3.2,4.2-1.2,6.8-4.5,9.8-7.7,4.8-5.1,7-12.1,9.8-18.5s6.5-13.1,12.9-16c1.8-.8,3.9-1.3,5.4-2.6,4-3.3,2.9-9.9,6.1-14,2.4-3.1,6.7-4.2,9.2-7.2-.2-.9-1.1-1.4-1.9-1.8-4.9-2.1-10.3-.9-15.7-.5q-12,6.6-23.7,14.4a274.17,274.17,0,0,0-113.5,166,20.28,20.28,0,0,0,6.1-4.8c4.4-5.2,6.1-12.5,11.4-16.9a3.57,3.57,0,0,1,2.3-1.1c1.6,0,2.6,1.6,3.1,3.1s1.1,3.2,2.5,3.8c1.6.7,3.3-.2,4.8-1.2a70.65,70.65,0,0,0,13.3-11.7,29.84,29.84,0,0,1,4.7-4.7,7.45,7.45,0,0,1,5.3-1.8,44.66,44.66,0,0,0,18.1-3.2,20.53,20.53,0,0,0,4.6-2.5c3.1-2.2,5.2-5.5,6.9-8.9A54.51,54.51,0,0,0,228,150.26Z"/><path class="cls-2" d="M440.6,560.76c1.9-.7,4.4-1.2,6-2.6l.3-.3c.1-.1.1-.2.1-.4,0-.4-.4-.6-.7-.8a15.88,15.88,0,0,0-7.8-.9,40.48,40.48,0,0,0-5,.4,12.46,12.46,0,0,1-4.7-.3l-1.3-.3a2.55,2.55,0,0,1-1.2-.8,1.79,1.79,0,0,1-.4-1.4c.4-2,4.4-2.1,5.9-2.2,2.3-.2,4.7,0,7,0a49.93,49.93,0,0,0,6.7,0c1.1-.1,2.1-.4,3.1-.5,1.2-.1,2.2-.1,3.1-1a.85.85,0,0,0,.3-.5c0-.1-.1-.3-.1-.4-.7-.9-2.8-.3-3.7-.4a311.12,311.12,0,0,1-34.8-2.2,50.73,50.73,0,0,1-10.3-2c-3.4-1.1-6.6-2.8-10-4-7.6-2.6-15.8-2.3-23.7-2.4a257.25,257.25,0,0,1-45.5-4.7c-2.6-.5-6.2-1.5-8.6,0-1.4.9.2,2.1.8,2.9a16.6,16.6,0,0,0,1.6,2.1,25.5,25.5,0,0,0,6.1,3.7c2.6,1.2,5.2,2.3,7.8,3.5,2.2,1.1,5,2.3,6.3,4.6a1.42,1.42,0,0,1,.2.6c.1,1.6-3.8,3.1-5.1,3.5a9.25,9.25,0,0,1-2.9.4,277.65,277.65,0,0,0,100.6,10.2,15.5,15.5,0,0,1,2.9-1.4C435.8,562.56,438.2,561.66,440.6,560.76Z"/></g><path class="cls-3" d="M713.7,506.16a19,19,0,0,0-16.8-10.4,17.85,17.85,0,0,0-2.3.2v-.2A30.81,30.81,0,0,0,663.8,465a31.72,31.72,0,0,0-9.3,1.4,45.79,45.79,0,0,0-84.8-5.5,34.7,34.7,0,0,0-49.3,45.2l193.3.1Z"/><path class="cls-3" d="M176.9,170.76V170a16.09,16.09,0,0,1,16.1-16.1,21.12,21.12,0,0,1,2.6.2v-.2a33.91,33.91,0,0,1,66.4-9.7,21.8,21.8,0,0,1,8.5-1.6,22.9,22.9,0,0,1,22.9,22.9,23.28,23.28,0,0,1-.6,5.3Z"/><path class="cls-4" d="M549.2,436.36l4-18.4-2.7-3.9,5.5-10.8,14.1,4.9-18,35.7A8.16,8.16,0,0,1,549.2,436.36Z"/><path class="cls-5" d="M411.1,363.16q-21.15-19.05-41.8-38.4l43.9-26.7s2.9,4.3,7.4,10.7l9.7-4.3A179.22,179.22,0,0,1,444.6,337c2.1,6.4,4.7,12.6,8.8,18.1,1.9,2.5,3.7,5.1,5.7,7.5.5.6,2.1,3.3,3.1,3.3,2.2,0,95.6,36.7,95.6,36.7s0,11.1-6.1,14.5c0,0-101.2-22.8-106.2-24.5-1.6-.5-9.8-7.5-20.3-16.8Z"/><path class="cls-6" d="M414.6,251.46s10.7-13.7,22.8,3.9,19,16.2,19,16.2-23.2,8.3-36-2.2S414.6,251.46,414.6,251.46Z"/><path class="cls-7" d="M486.2,413.86l-11-15.2-4.7-.6-4.4-11.3,13.1-7.2,14.6,37.2C490.5,417,487.7,415.86,486.2,413.86Z"/><path class="cls-8" d="M403.6,321.76a182,182,0,0,1,.6,35.5,133.93,133.93,0,0,0,3.5,42.6s13.9-7.3,60.1-13.4a13.26,13.26,0,0,1,3.7,10.5s-67.5,46.7-77.7,40.4c-7.7-4.7-24-40.3-43.4-114.5Z"/><path class="cls-9" d="M342,184a70.89,70.89,0,0,1,40.7-15.8s51.6,53.1,50.4,69.2c0,0-12.2,36.4-34.7,41.5,0,0-33.6-16.1-44.3-32.3S342,184,342,184Z"/><path class="cls-10" d="M295.8,244.66l-3,17.9,19.5.1,4.6-13.9S299.4,239.26,295.8,244.66Z"/><path class="cls-11" d="M272.2,145.36s-1.8,23.6,13.1,35.1c5.9,4.5,10.1,10.8,10,18.4-.1,6.3-2,12.1-.3,18.3,2.1,7.7,8.5,14.9,16.4,16.9,8.5,2.1,16.9-2.5,22.9-8.2,26.5-25-12.8-53.5-12.8-53.5l-26-20.8Z"/><path class="cls-12" d="M312.7,201.26s-12.7,2-17.8,22.6l-3.7,18.6s11.5,6.1,23.1,5.8S312.7,201.26,312.7,201.26Z"/><path class="cls-13" d="M312.7,201.26l32.2-16.6a22.08,22.08,0,0,1,30.4,10.9,313.5,313.5,0,0,1,15,42.6c8.3,31.7,43.9,56.1,43.9,56.1-10.9,35.8-83.2,46.4-83.2,46.4s-6-33.3-7.4-42.9-3.8-27.3-21.2-34.4-16.7-19.4-18-29-1-9.7-1.3-18.9S312.7,201.26,312.7,201.26Z"/><path class="cls-14" d="M363,180.36l8,1s-15.3,27.2-2.1,45.9,25.8,26.2,25.8,26.2l-6,8.2c-.4.5-17.3-14.5-18.8-16.1-6.1-6.4-11.3-13.8-13.2-22.6C354.2,211.76,351.3,188,363,180.36Z"/><path class="cls-15" d="M325.4,163c3.6,2.4,13.5,15.3,18.5,21.8,2.7-.5,5-.1,6.1,1.4,2.2,3-1,9.1-7.2,13.6s-12.9,5.7-15.1,2.7c-.9-1.2-.9-2.8-.2-4.6l-8.3-14.6-17.8,7.8-4.8-11.7-3.7.7-5.5-23.2C324.3,144.26,320.6,159.66,325.4,163Z"/><path class="cls-16" d="M395.3,207.26c3.4,6,6.8,12.1,10.1,18.2,6.4,11.7,15.2,22.9,2.8,33.6-6.1,5.3-12.3,10.5-18.6,15.7-1.2,1-9.7,6.2-9.8,7.9,0,0-.4,13-5,15.4s-14.6,6.9-16.9,3.7,5.7-3.5,6.8-5.2-1-6-4.5-3.5-9.8,2.4-2.6-4.2,11.8-7.6,11.8-7.6,23.9-32.9,23.9-34.6-19.8-28.2-19.8-28.2Z"/><path class="cls-17" d="M352.5,182.46c28.1-10.1,45.2,21.2,45.2,21.2s-5,9.8-21.2,20.9C337,190.86,352.5,182.46,352.5,182.46Z"/><path class="cls-18" d="M273.2,156.36c-1.4-6.4-1.7-13.2.6-19.4,7.4-20.5,39.2-21,56.8-18.3,34.1,5.4,68-16.8,100.1-6.2,28.7,9.5,50.9,44.1,28.1,70.4-32.8,37.9-68.4,18.1-73.9,13.6s-16.9-16.2-32.2-7.7-31.4-22.8-32.8-26.5-9.3-3.7-9.3-3.7c-10.1,3.6-23.1-1.6-23.1-1.6S278.7,156.56,273.2,156.36Z"/><polygon class="cls-19" points="291.11 261.67 350.61 262.06 375.7 320.06 314.11 319.56 291.11 261.67"/><path class="cls-20" d="M296.9,288.26s3.8-9.7,8.3-8.1,7.8,9.1,6.8,14.4a9,9,0,0,1-6.1,6.7S299.4,299.16,296.9,288.26Z"/><path class="cls-21" d="M363.1,295.36a3.17,3.17,0,0,0-.2-3.9l-1.2-7.2c6-2.8,9.3-2.8,9.3-2.8s2.2-1.9,5.4-4.8l5.3,7.8c-.4.3-.7.6-.7.8,0,0-3.3,12.6-8.3,13.9s-15.7,3.5-17.3-.1C353.7,295.26,361.6,296.76,363.1,295.36Z"/><path class="cls-22" d="M345.1,393.26c-.9,1-1.7,2.1-2.6,3.1"/><path class="cls-23" d="M337.1,402.36c-36.2,37.7-75.7,37-99.6,31.5"/><path class="cls-22" d="M233.6,432.86c-1.3-.4-2.6-.7-3.8-1.1"/><polyline class="cls-22" points="236.41 440.26 229.71 431.87 240.5 428.37"/><path class="cls-24" d="M479.3,276.86s26.6-71.5,64.1-57c12.8,4.9,19.6,12.6,14.4,23.2-7.1,14.3-26.4,5.5-28.1-11.1-5.9-59,45.7-77,81.1-78.3"/><polyline class="cls-22" points="597 149.76 607 153.87 599.3 162.26"/><path class="cls-25" d="M629.3,155a33.46,33.46,0,1,0-12.7-26.2v41.6Z"/><circle class="cls-3" cx="650.1" cy="128.76" r="23.7"/><path class="cls-26" d="M658,151.16v-44.7a23.71,23.71,0,0,1,0,44.7Z"/><path class="cls-3" d="M658,106.46v44.7a23,23,0,0,1-15.8,0v-44.7a23,23,0,0,1,15.8,0Z"/><path class="cls-27" d="M642.2,106.46v44.7a23.71,23.71,0,0,1,0-44.7Z"/><path class="cls-28" d="M166.7,171.36a33.46,33.46,0,1,1,12.7-26.2v41.6Z"/><circle class="cls-3" cx="145.8" cy="145.16" r="23.7"/><path class="cls-27" d="M145.8,121.46a23.69,23.69,0,0,1,23.7,23.7H122.1A23.75,23.75,0,0,1,145.8,121.46Z"/><path class="cls-29" d="M201.3,437.06a33.46,33.46,0,1,1,12.7-26.2v41.6Z"/><circle class="cls-3" cx="180.5" cy="410.86" r="23.7"/><path class="cls-26" d="M202.8,403H158.1a23.71,23.71,0,0,1,44.7,0Z"/><path class="cls-3" d="M158.1,403h44.7a23,23,0,0,1,0,15.8H158.1a23,23,0,0,1-1.4-7.9A29.76,29.76,0,0,1,158.1,403Z"/><path class="cls-27" d="M158.1,418.76h44.7a23.71,23.71,0,0,1-44.7,0Z"/><path class="cls-24" d="M278.9,290.86s-13.8-31.7-46.4-31.5S161.2,238.16,171,190"/><polyline class="cls-22" points="163.31 202.76 170.6 194.87 175.71 204.97"/></g></svg>