<?xml version="1.0" encoding="utf-8"?>
<!-- Generator: Adobe Illustrator 24.0.3, SVG Export Plug-In . SVG Version: 6.00 Build 0)  -->
<svg version="1.1" id="Ebene_1" xmlns="http://www.w3.org/2000/svg" xmlns:xlink="http://www.w3.org/1999/xlink" x="0px" y="0px"
	 viewBox="0 0 1400 1270" style="enable-background:new 0 0 1400 1270;" xml:space="preserve">
<style type="text/css">
	.st0{fill:#FFFFFF;}
	.st1{opacity:0.5;fill:url(#SVGID_1_);enable-background:new    ;}
	.st2{opacity:0.5;fill:url(#SVGID_2_);enable-background:new    ;}
	.st3{opacity:0.5;fill:url(#SVGID_3_);enable-background:new    ;}
	.st4{opacity:0.5;fill:url(#SVGID_4_);enable-background:new    ;}
	.st5{fill:url(#SVGID_5_);}
	.st6{fill:url(#SVGID_6_);}
	.st7{fill:url(#SVGID_7_);}
	.st8{fill:url(#SVGID_8_);}
	.st9{fill:url(#SVGID_9_);}
	.st10{fill:url(#SVGID_10_);}
	.st11{fill:url(#SVGID_11_);}
	.st12{fill:url(#SVGID_12_);}
	.st13{fill:url(#SVGID_13_);}
	.st14{fill:url(#SVGID_14_);}
	.st15{fill:#E7E3D3;}
	.st16{fill:url(#SVGID_15_);}
	.st17{fill:url(#SVGID_16_);}
	.st18{fill:url(#SVGID_17_);}
	.st19{fill:url(#SVGID_18_);}
	.st20{fill:url(#SVGID_19_);}
	.st21{fill:url(#SVGID_20_);}
	.st22{fill:url(#SVGID_21_);}
	.st23{fill:url(#SVGID_22_);}
	.st24{fill:#8C0C81;}
	.st25{fill:url(#SVGID_23_);}
	.st26{fill:url(#SVGID_24_);}
	.st27{fill:#8552A5;}
	.st28{fill:url(#SVGID_25_);}
	.st29{fill:url(#SVGID_26_);}
	.st30{fill:url(#SVGID_27_);}
	.st31{fill:url(#SVGID_28_);}
	.st32{fill:url(#SVGID_29_);}
	.st33{fill:url(#SVGID_30_);}
	.st34{fill:url(#SVGID_31_);}
	.st35{fill:url(#SVGID_32_);}
	.st36{fill:url(#SVGID_33_);}
	.st37{fill:url(#SVGID_34_);}
	.st38{fill:url(#SVGID_35_);}
	.st39{fill:url(#SVGID_36_);}
	.st40{fill:url(#SVGID_37_);}
	.st41{fill:#351586;}
	.st42{fill:url(#SVGID_38_);}
	.st43{fill:url(#SVGID_39_);}
	.st44{fill:url(#SVGID_40_);}
	.st45{fill:#6A3346;}
	.st46{fill:url(#SVGID_41_);}
	.st47{fill:url(#SVGID_42_);}
	.st48{fill:url(#SVGID_43_);}
	.st49{fill:url(#SVGID_44_);}
	.st50{fill:url(#SVGID_45_);}
	.st51{fill:url(#SVGID_46_);}
	.st52{fill:url(#SVGID_47_);}
	.st53{fill:url(#SVGID_48_);}
	.st54{fill:url(#SVGID_49_);}
</style>
<g id="Background">
	<rect y="0" class="st0" width="1400" height="1400"/>
	<g id="Dot_Pattern_Vector_Pack_03">
	</g>
	<g id="Dot_Pattern_Vector_Pack_12">
	</g>
</g>
<g id="Objects">
	<g id="Dot_Pattern_Vector_Pack_12_1_">
	</g>
	<g>
		
			<linearGradient id="SVGID_1_" gradientUnits="userSpaceOnUse" x1="1199.7825" y1="110.745" x2="1019.27" y2="216.6097" gradientTransform="matrix(1 0 0 -1 0 1397.8898)">
			<stop  offset="4.926108e-03" style="stop-color:#378ABD"/>
			<stop  offset="1" style="stop-color:#C5E9F0"/>
		</linearGradient>
		<ellipse class="st1" cx="1054.6" cy="1202" rx="76.8" ry="8.4"/>
		
			<linearGradient id="SVGID_2_" gradientUnits="userSpaceOnUse" x1="905.9207" y1="108.0814" x2="725.4081" y2="213.946" gradientTransform="matrix(1 0 0 -1 0 1397.8898)">
			<stop  offset="4.926108e-03" style="stop-color:#378ABD"/>
			<stop  offset="1" style="stop-color:#C5E9F0"/>
		</linearGradient>
		<ellipse class="st2" cx="760.8" cy="1204.7" rx="76.8" ry="8.4"/>
		
			<linearGradient id="SVGID_3_" gradientUnits="userSpaceOnUse" x1="636.3835" y1="79.6447" x2="455.8708" y2="185.5091" gradientTransform="matrix(1 0 0 -1 0 1397.8898)">
			<stop  offset="4.926108e-03" style="stop-color:#378ABD"/>
			<stop  offset="1" style="stop-color:#C5E9F0"/>
		</linearGradient>
		<ellipse class="st3" cx="491.2" cy="1233.1" rx="76.8" ry="8.4"/>
		
			<linearGradient id="SVGID_4_" gradientUnits="userSpaceOnUse" x1="731.7878" y1="7.7631" x2="238.7698" y2="296.9015" gradientTransform="matrix(1 0 0 -1 0 1397.8898)">
			<stop  offset="4.926108e-03" style="stop-color:#378ABD"/>
			<stop  offset="1" style="stop-color:#C5E9F0"/>
		</linearGradient>
		<ellipse class="st4" cx="335.3" cy="1157.6" rx="210" ry="8.4"/>
		
			<linearGradient id="SVGID_5_" gradientUnits="userSpaceOnUse" x1="1094.3438" y1="948.3131" x2="929.9107" y2="618.358" gradientTransform="matrix(1 0 0 -1 0 1397.8898)">
			<stop  offset="0" style="stop-color:#C5E9F0"/>
			<stop  offset="0.9951" style="stop-color:#378ABD"/>
		</linearGradient>
		<path class="st5" d="M1135.5,485.2c-2.7,0-5.3,0.4-7.8,1.1c0.5-3,0.8-6,0.8-9.2c0-28.5-23.1-51.7-51.7-51.7
			c-26,0-47.6,19.3-51.1,44.3c-5.4-3.1-11.8-4.9-18.5-4.9c-20.6,0-37.3,16.7-37.3,37.3s16.7,37.3,37.3,37.3h128.2
			c15,0,27.2-12.2,27.2-27.2C1162.7,497.3,1150.5,485.2,1135.5,485.2z"/>
		
			<linearGradient id="SVGID_6_" gradientUnits="userSpaceOnUse" x1="1158.0936" y1="1098.1956" x2="920.2971" y2="621.0278" gradientTransform="matrix(-1 0 0 -1 1469.3136 1397.8898)">
			<stop  offset="0" style="stop-color:#C5E9F0"/>
			<stop  offset="0.9951" style="stop-color:#378ABD"/>
		</linearGradient>
		<path class="st6" d="M251.9,351.1c3.9,0,7.7,0.6,11.3,1.7c-0.8-4.3-1.2-8.7-1.2-13.3c0-41.3,33.4-74.7,74.7-74.7
			c37.7,0,68.8,27.9,73.9,64.1c7.9-4.5,17-7.1,26.7-7.1c29.8,0,54,24.2,54,54s-24.2,54-54,54H251.9c-21.7,0-39.3-17.6-39.3-39.3
			C212.6,368.7,230.2,351.1,251.9,351.1z"/>
		
			<linearGradient id="SVGID_7_" gradientUnits="userSpaceOnUse" x1="910.498" y1="1376.8934" x2="755.2265" y2="856.8091" gradientTransform="matrix(1 0 0 -1 0 1397.8898)">
			<stop  offset="0" style="stop-color:#C5E9F0"/>
			<stop  offset="0.9951" style="stop-color:#378ABD"/>
		</linearGradient>
		<rect x="851.5" y="0" class="st7" width="5.5" height="418.8"/>
		<g>
			
				<linearGradient id="SVGID_8_" gradientUnits="userSpaceOnUse" x1="869.7021" y1="958.1965" x2="547.024" y2="-122.618" gradientTransform="matrix(1 0 0 -1 0 1397.8898)">
				<stop  offset="0" style="stop-color:#C5E9F0"/>
				<stop  offset="0.9951" style="stop-color:#378ABD"/>
			</linearGradient>
			<path class="st8" d="M1136.9,855.5L1136.9,855.5c-58.8,0-105.9-48.5-104.7-107.3c0-2.1,0.1-4.2,0.1-6.3
				c0.4-192.8-155.1-351.2-347.9-354.1c-197.7-3-358.8,156.3-358.8,353.3c0,14.7,0.9,29.2,2.7,43.4h-8.8
				c-95.7,0-173.3,77.6-173.3,173.3l0,0c0,95.7,77.6,173.3,173.3,173.3h3h69.2H1137c76.1,0,137.8-61.7,137.8-137.8l0,0
				C1274.7,917.2,1213,855.5,1136.9,855.5z"/>
			
				<linearGradient id="SVGID_9_" gradientUnits="userSpaceOnUse" x1="1263.4073" y1="572.3712" x2="741.3269" y2="234.0633" gradientTransform="matrix(1 0 0 -1 0 1397.8898)">
				<stop  offset="0" style="stop-color:#C5E9F0"/>
				<stop  offset="0.9951" style="stop-color:#378ABD"/>
			</linearGradient>
			<rect x="720.2" y="957.8" class="st9" width="410.7" height="173.3"/>
			
				<linearGradient id="SVGID_10_" gradientUnits="userSpaceOnUse" x1="566.0381" y1="1006.1318" x2="392.7155" y2="425.5851" gradientTransform="matrix(1 0 0 -1 0 1397.8898)">
				<stop  offset="0" style="stop-color:#C5E9F0"/>
				<stop  offset="0.9951" style="stop-color:#378ABD"/>
			</linearGradient>
			<path class="st10" d="M600.5,396.5C456.9,429,346.4,549,328.2,697.6v86.9h272.3V396.5z"/>
		</g>
		
			<linearGradient id="SVGID_11_" gradientUnits="userSpaceOnUse" x1="1027.177" y1="1013.2375" x2="787.9576" y2="682.3691" gradientTransform="matrix(0.9837 -0.1799 -0.1799 -0.9837 125.8254 1627.9771)">
			<stop  offset="0" style="stop-color:#F7DE5B"/>
			<stop  offset="0.9901" style="stop-color:#EE4D70"/>
		</linearGradient>
		<path class="st11" d="M982.3,426.2l-246.4,45c-10.4,1.9-17.4,11.9-15.5,22.4l14.4,78.9c1.1,5.9,8.1,8.5,12.7,4.6
			c6.3-5.3,14.2-9,23.2-10.1c22.2-2.7,43.1,12,48.1,33.8c5.7,24.6-10.4,48.7-35,53.2c-7.8,1.4-15.4,0.7-22.4-1.7
			c-5.7-2-11.5,2.8-10.4,8.8l14.4,78.9c1.9,10.4,11.9,17.4,22.4,15.5l82-15c4.9-0.9,8.8,4,6.9,8.6c-3.6,8.4-4.6,18-2.3,27.6
			c5.2,21.8,26.4,36.4,48.7,33.4c25-3.4,41.9-26.9,37.4-51.5c-1.6-8.8-5.8-16.6-11.6-22.6c-3.5-3.6-1.6-9.6,3.4-10.5l82-15
			c10.4-1.9,17.4-11.9,15.5-22.4l-45-246.4C1002.7,431.2,992.7,424.3,982.3,426.2z"/>
		
			<linearGradient id="SVGID_12_" gradientUnits="userSpaceOnUse" x1="1009.2941" y1="549.2838" x2="834.6243" y2="216.3196" gradientTransform="matrix(1 0 0 -1 0 1397.8898)">
			<stop  offset="0" style="stop-color:#F76D82"/>
			<stop  offset="0.9901" style="stop-color:#B54AA2"/>
		</linearGradient>
		<path class="st12" d="M1086.3,1117.3V866.9c0-10.6-8.6-19.2-19.2-19.2h-80.2c-6,0-9.8,6.5-6.8,11.6c4.1,7.2,6.3,15.6,5.7,24.6
			c-1.4,22.3-19.6,40.2-41.9,41.2c-25.3,1.2-46.1-19-46.1-44c0-7.9,2.1-15.3,5.7-21.7c3-5.3-0.7-11.8-6.8-11.8h-80.2
			c-10.6,0-19.2,8.6-19.2,19.2v83.3c0,5-5.6,8-9.7,5.2c-7.6-5-16.8-7.8-26.7-7.3c-22.4,1.2-40.5,19.4-41.6,41.9
			c-1.2,25.3,19,46.1,44,46.1c9,0,17.3-2.7,24.3-7.3c4.2-2.8,9.7,0.2,9.7,5.2v83.3c0,10.6,8.6,19.2,19.2,19.2H1067
			C1077.7,1136.6,1086.3,1128,1086.3,1117.3z"/>
		
			<linearGradient id="SVGID_13_" gradientUnits="userSpaceOnUse" x1="479.2404" y1="73.4302" x2="304.5706" y2="-259.534" gradientTransform="matrix(4.489659e-11 1 1 -4.489659e-11 549.6813 488.8192)">
			<stop  offset="0" style="stop-color:#924EA3"/>
			<stop  offset="0.9852" style="stop-color:#48258E"/>
		</linearGradient>
		<path class="st13" d="M354.4,1045.1h250.5c10.6,0,19.2-8.6,19.2-19.2v-80.2c0-6-6.5-9.8-11.6-6.8c-7.2,4.1-15.6,6.3-24.6,5.7
			c-22.3-1.4-40.2-19.6-41.2-41.9c-1.2-25.3,19-46.1,44-46.1c7.9,0,15.3,2.1,21.7,5.7c5.3,3,11.8-0.7,11.8-6.8v-80.2
			c0-10.6-8.6-19.2-19.2-19.2h-83.3c-5,0-8-5.6-5.2-9.7c5-7.6,7.8-16.8,7.3-26.7c-1.2-22.4-19.4-40.5-41.9-41.6
			c-25.3-1.2-46.1,19-46.1,44c0,9,2.7,17.3,7.3,24.3c2.8,4.2-0.2,9.7-5.2,9.7h-83.3c-10.6,0-19.2,8.6-19.2,19.2v250.5
			C335.2,1036.5,343.8,1045.1,354.4,1045.1z"/>
		
			<linearGradient id="SVGID_14_" gradientUnits="userSpaceOnUse" x1="647.6957" y1="225.0577" x2="473.026" y2="-107.9066" gradientTransform="matrix(-1 0 0 1 1068.9214 439.2793)">
			<stop  offset="9.852217e-03" style="stop-color:#223B98"/>
			<stop  offset="1" style="stop-color:#2B73B2"/>
		</linearGradient>
		<path class="st14" d="M344.2,395.6v250.5c0,10.6,8.6,19.2,19.2,19.2h80.2c6,0,9.8-6.5,6.8-11.6c-4.1-7.2-6.3-15.6-5.7-24.6
			c1.4-22.3,19.6-40.2,41.9-41.2c25.3-1.2,46.1,19,46.1,44c0,7.9-2.1,15.3-5.7,21.7c-3,5.3,0.7,11.8,6.8,11.8H614
			c10.6,0,19.2-8.6,19.2-19.2v-83.3c0-5,5.6-8,9.7-5.2c7.6,5,16.8,7.8,26.7,7.3c22.4-1.2,40.5-19.4,41.6-41.9
			c1.2-25.3-19-46.1-44-46.1c-9,0-17.3,2.7-24.3,7.3c-4.2,2.8-9.7-0.2-9.7-5.2v-83.3c0-10.6-8.6-19.2-19.2-19.2H363.4
			C352.8,376.4,344.2,385,344.2,395.6z"/>
		<g>
			<g>
				<path class="st15" d="M468.8,1007.2l2.6-6c-1-0.4-1.6-0.7-1.7-0.7c-0.9-0.1-3.5-4.7-4.7-5.5c-1.3-0.8-0.6,3.8-0.6,3.8l-10.6-0.8
					c0,0-3.2,3,0.3,5.5s12.1,2.2,13.6,3.1C467.9,1006.7,468.3,1006.9,468.8,1007.2z"/>
				
					<linearGradient id="SVGID_15_" gradientUnits="userSpaceOnUse" x1="515.355" y1="377.4746" x2="458.3481" y2="412.0857" gradientTransform="matrix(1 0 0 -1 0 1397.8898)">
					<stop  offset="9.852217e-03" style="stop-color:#EE4D70"/>
					<stop  offset="1" style="stop-color:#F7DE5B"/>
				</linearGradient>
				<path class="st16" d="M468.6,1007.5c-0.1-3.4,0.1-6.1,0-9.5c21.2,14.1,47.5,7.2,47.5,7.2l2.5,15.6
					C499.6,1026.2,479.8,1015.1,468.6,1007.5z"/>
			</g>
			
				<linearGradient id="SVGID_16_" gradientUnits="userSpaceOnUse" x1="339.5" y1="448.7898" x2="520.7" y2="448.7898" gradientTransform="matrix(1 0 0 -1 0 1397.8898)">
				<stop  offset="0" style="stop-color:#F76D82"/>
				<stop  offset="0.9901" style="stop-color:#B54AA2"/>
			</linearGradient>
			<path class="st17" d="M477.5,1024.4L477.5,1024.4l-43.2-133.2l0,0l-48.8-150.5h-46l40.6,125.2l0,0L423.3,999l0,0l51.4,158.5h3.5
				l-4.2-12.9h39l4.2,12.9h3.5L477.5,1024.4z M344.6,745.5h39l8.9,27.3h-39L344.6,745.5z M355.4,778.7h39l8.9,27.3h-39L355.4,778.7z
				 M366.2,811.9h39l8.9,27.3h-39L366.2,811.9z M376.9,845.1h39l6.7,20.7l0,0l2.1,6.6h-39L376.9,845.1z M391.8,891.1L391.8,891.1
				l-4-12.5h39l8.9,27.3h-39L391.8,891.1z M398.6,911.9h39l8.9,27.3h-39L398.6,911.9z M409.3,945.1h39l8.9,27.3h-39L409.3,945.1z
				 M420.1,978.3h39l6.7,20.7l0,0l2.1,6.6h-39L420.1,978.3z M435,1024.4L435,1024.4l-4-12.5h39l8.9,27.3h-39L435,1024.4z
				 M441.7,1045.1h39l8.9,27.3h-39L441.7,1045.1z M452.5,1078.3h39l8.9,27.3h-39L452.5,1078.3z M472.1,1138.8l-8.9-27.3h39l8.9,27.3
				H472.1z"/>
			
				<linearGradient id="SVGID_17_" gradientUnits="userSpaceOnUse" x1="206.6857" y1="182.7549" x2="349.948" y2="613.9061" gradientTransform="matrix(1 0 0 -1 0 1397.8898)">
				<stop  offset="9.852217e-03" style="stop-color:#223B98"/>
				<stop  offset="1" style="stop-color:#2B73B2"/>
			</linearGradient>
			<path class="st18" d="M345.1,865.8l40.6-125.2h-46l-48.8,150.5l0,0l-43.2,133.2l0,0l-43.2,133.2h3.5l4.2-12.9h39l-4.2,12.9h3.5
				L302,999l0,0L345.1,865.8L345.1,865.8z M341.6,745.5h39l-8.9,27.3h-39L341.6,745.5z M330.9,778.7h39L361,806h-39L330.9,778.7z
				 M320.1,811.9h39l-8.9,27.3h-39L320.1,811.9z M253.1,1138.8h-39l8.9-27.3h39L253.1,1138.8z M263.9,1105.6h-39l8.9-27.3h39
				L263.9,1105.6z M274.7,1072.4h-39l8.9-27.3h39L274.7,1072.4z M290.3,1024.4l-4.8,14.9h-39l8.9-27.3h39L290.3,1024.4L290.3,1024.4
				z M296.3,1005.6h-39l2.1-6.6l0,0l6.7-20.7h39L296.3,1005.6z M307.1,972.4h-39l8.9-27.3h39L307.1,972.4z M317.8,939.2h-39
				l8.9-27.3h39L317.8,939.2z M333.4,891.1l-4.8,14.9h-39l8.9-27.3h39L333.4,891.1L333.4,891.1z M300.5,872.4l2.1-6.6l0,0l6.7-20.7
				h39l-8.9,27.3H300.5z"/>
		</g>
		<g>
			<path class="st15" d="M348.6,659.5c-5-10.6-5.9-29.1-5.6-30.6s2.9-2.4,3.5-2.7s4.3-1,4.5-2.2c0.2-1.3-4.3-0.5-4.3-0.5
				s0-7.2,0.9-11.7c0.9-4.4-5.8,0.1-7.6,2.1s-1.6,6.9-1.4,10.4c0,0-6.4,39,0.4,45c4.7,4.1,21.2,1.6,21.2,1.6l1.7-12.2L348.6,659.5z"
				/>
			
				<linearGradient id="SVGID_18_" gradientUnits="userSpaceOnUse" x1="312.1414" y1="668.3401" x2="374.907" y2="528.2545" gradientTransform="matrix(1 0 0 -1 0 1397.8898)">
				<stop  offset="0" style="stop-color:#F7DE5B"/>
				<stop  offset="0.9901" style="stop-color:#EE4D70"/>
			</linearGradient>
			<path class="st19" d="M389.3,863.1l-18.3-4.6l-2.3-4.2l-12.2,0.1l-1.9,14.9l40.1-0.2C393.8,866,391.8,863.7,389.3,863.1z"/>
			
				<linearGradient id="SVGID_19_" gradientUnits="userSpaceOnUse" x1="362.3226" y1="690.8239" x2="425.0882" y2="550.7382" gradientTransform="matrix(1 0 0 -1 0 1397.8898)">
				<stop  offset="0" style="stop-color:#F7DE5B"/>
				<stop  offset="0.9901" style="stop-color:#EE4D70"/>
			</linearGradient>
			<path class="st20" d="M423.1,806.9l-16.4-9.4l-1.1-4.6l-11.7-3.2l-5.8,13.8l38.7,10.7C426.7,810.8,425.3,808.1,423.1,806.9z"/>
			
				<linearGradient id="SVGID_20_" gradientUnits="userSpaceOnUse" x1="371.763" y1="695.0504" x2="434.5286" y2="554.9647" gradientTransform="matrix(1 0 0 -1 0 1397.8898)">
				<stop  offset="0" style="stop-color:#F7DE5B"/>
				<stop  offset="0.9901" style="stop-color:#EE4D70"/>
			</linearGradient>
			<path class="st21" d="M393.4,790.7l12,2.9c0.4-1.3,18.3-57.9,16.6-70.6c-1.8-12.8-32.1-12.5-32.1-12.5l-27.2-3.6l-10.6,44.8
				c5,0.7,10.6,0.3,16.8-2.2c24.8-9.8,31.4-13.5,31.4-13.5S389,752.9,393.4,790.7z"/>
			
				<linearGradient id="SVGID_21_" gradientUnits="userSpaceOnUse" x1="336.3138" y1="679.1705" x2="399.0794" y2="539.085" gradientTransform="matrix(1 0 0 -1 0 1397.8898)">
				<stop  offset="0" style="stop-color:#F7DE5B"/>
				<stop  offset="0.9901" style="stop-color:#EE4D70"/>
			</linearGradient>
			<path class="st22" d="M378.3,720.7l-47.2,9.7c-3.7,20.3,21,39.3,21.1,42c0,2.8,4.3,83.1,4.3,83.1h12.8c0,0,8.8-76.4,9.3-82.3
				C378.9,767.4,378.3,720.7,378.3,720.7z"/>
			
				<linearGradient id="SVGID_22_" gradientUnits="userSpaceOnUse" x1="342.4814" y1="738.9713" x2="397.0602" y2="638.6068" gradientTransform="matrix(1 0 0 -1 0 1397.8898)">
				<stop  offset="0" style="stop-color:#F76D82"/>
				<stop  offset="0.9901" style="stop-color:#B54AA2"/>
			</linearGradient>
			<path class="st23" d="M383,647.1c0,0-3.6,3.3,8.1,7l5.3,6.3c0,0-16.3,30.4-17.5,68.8l-49.3,3.7c0,0-6.5-29.1,17.2-63.5
				C346.9,669.4,360.1,652.7,383,647.1z"/>
			<g>
				<path class="st15" d="M381.8,633.2c-1.3,2.1-3.1,10.2-4.3,15.8c0.1-0.1,0.2-0.1,0.2-0.2c0,0,1.2,5.9,13.4,5.3
					c-0.1-1.4-0.2-2.7-0.5-3l0.5-6.8l12.9-1l-0.4-8.3l2.4-0.6l-3.2-15.4C377.2,621.7,383.8,629.9,381.8,633.2z"/>
				<path class="st24" d="M391.6,628.5c1.8-2.1,4.1-3.7,6.6-4.9c1.7-0.8,3.7-2.3,4.6-4.7c1.5-4-2.5-8.2-5.6-10
					c-8-4.6-16.8-2.1-23.2,4c-3.2,3-5.8,6.7-7.7,10.6c-2.2,4.5-1.7,8.6-2.9,13.3c-1.6,6.1-6.4,10.9-11.4,14.7s-10.7,7-15.1,11.5
					s-7.6,11-6.2,17.2c0.9,4,3.5,7.4,6.7,9.9c7.5,5.9,15.9,10,25.3,5.2c13-6.6,17.2-23.7,20.8-36.6c2.2-7.8,4.1-15.9,4.5-24
					c0,0-3.2-5.3-0.4-7.2c2.8-1.9,3.7,1.2,3.7,1.2L391.6,628.5z"/>
			</g>
			<path class="st15" d="M411.4,671.1c10.8-4.6,23.8-17.7,24.6-19s-0.6-3.7-0.8-4.3c-0.2-0.7-2.5-3.6-1.8-4.7
				c0.7-1.1,3.5,2.6,3.5,2.6s4.9-5.4,7.1-9.3s4.3,3.9,4.3,6.6c0,2.7-3.4,6.2-6,8.6c0,0-21.3,33.3-30.4,33.2c-6.2,0-16.8-13-16.8-13
				l6.9-10.2L411.4,671.1z"/>
			
				<linearGradient id="SVGID_23_" gradientUnits="userSpaceOnUse" x1="518.816" y1="919.0969" x2="573.3948" y2="818.7324" gradientTransform="matrix(0.9015 -0.4328 -0.4328 -0.9015 306.7529 1705.6427)">
				<stop  offset="0" style="stop-color:#F76D82"/>
				<stop  offset="0.9901" style="stop-color:#B54AA2"/>
			</linearGradient>
			<path class="st25" d="M414.1,669.3c0,0-19.3-17-25.6-13.6c-6.3,3.3,8.4,22.5,14.3,26.5C402.8,682.1,412.3,677.6,414.1,669.3z"/>
		</g>
		<g>
			<g>
				
					<linearGradient id="SVGID_24_" gradientUnits="userSpaceOnUse" x1="961.0001" y1="1054.8196" x2="996.4001" y2="1054.8196" gradientTransform="matrix(1 0 0 -1 0 1397.8898)">
					<stop  offset="0" style="stop-color:#924EA3"/>
					<stop  offset="0.9852" style="stop-color:#48258E"/>
				</linearGradient>
				<path class="st26" d="M989.2,354.9l-15.6-7.2l-4,1.6l-8.6-7l7.2-11.6l28.2,23.1C994,355.5,991.3,355.9,989.2,354.9z"/>
				<g>
					<path class="st15" d="M811.9,430.7l-7.5,2l0.1,2.3l-14.5,1.5c-4.7-23.4,4.3-19.9,6.7-22.6c1.6-1.8,8.8-6.1,13.4-8.7
						c0.3-1.1,4.9-4.2,5.8-4.5c2.2-0.9,4.9,0.3,6.4,4.1c1.5,3.8,8.4,4.6,6.2,5.5c-0.7,0.3-12.7,6.7-13.5,6.3l-5.9,2.4L811.9,430.7z"
						/>
					<path class="st27" d="M780.7,444.7c-2.5-0.2-4.9-1.8-5.7-4.2c-0.3-0.9-0.4-1.9-0.4-2.8c-0.3-4.6-0.5-9.2-0.8-13.8
						c-0.2-3.6,0.5-6.4,1.9-9.7c3.7-8.4,14.2-12.6,22.8-9.2c0.4,0.2,6.4,4.1,6.1,4.3l-8.9,5.3l2,2l-0.3,1c-2.6,0.6-4.7,2.1-4.5,4.9
						c0.1,3.5-0.4,6.9-1.3,10.3c-0.8,3-1.5,6.7-3.7,8.9c-0.1,0.1-0.2,0.2-0.3,0.3C785.7,443.8,783.2,444.9,780.7,444.7z"/>
				</g>
				
					<linearGradient id="SVGID_25_" gradientUnits="userSpaceOnUse" x1="882.2491" y1="1059.9897" x2="949.4659" y2="1059.9897" gradientTransform="matrix(1 0 0 -1 0 1397.8898)">
					<stop  offset="0" style="stop-color:#F76D82"/>
					<stop  offset="0.9901" style="stop-color:#B54AA2"/>
				</linearGradient>
				<path class="st28" d="M913.1,300.2l10.2-4.5c0.6,1.1,25.7,48.9,26.1,60.5c0.5,11.8-26.8,16.3-26.8,16.3l-23.8,7.6l-16.7-38.4
					c4.3-1.4,9.5-1.9,15.4-0.7c23.8,4.8,30.3,7,30.3,7S915.2,334.7,913.1,300.2z"/>
				
					<linearGradient id="SVGID_26_" gradientUnits="userSpaceOnUse" x1="875.6" y1="1020.7063" x2="971.5" y2="1020.7063" gradientTransform="matrix(1 0 0 -1 0 1397.8898)">
					<stop  offset="0" style="stop-color:#F76D82"/>
					<stop  offset="0.9901" style="stop-color:#B54AA2"/>
				</linearGradient>
				<path class="st29" d="M875.6,341.5c0,0,26.1-6.9,38.7,16.3C927,381,929.7,388,929.7,388s-0.6-21.8,32.3-47.3l9.5,7.8
					c0,0-24.1,54.4-33.6,63.1s-32.4-10.9-32.4-10.9L882.2,386L875.6,341.5z"/>
				
					<linearGradient id="SVGID_27_" gradientUnits="userSpaceOnUse" x1="810.3" y1="1019.3897" x2="882.3" y2="1019.3897" gradientTransform="matrix(1 0 0 -1 0 1397.8898)">
					<stop  offset="0" style="stop-color:#924EA3"/>
					<stop  offset="0.9852" style="stop-color:#48258E"/>
				</linearGradient>
				<path class="st30" d="M810.3,406.1c0,0,5.1-2.1,10.7,7.6l3.8,1.7c0,0,23.7-20.6,57.5-29.3l-6.6-44.5c0,0-27.1,0.1-52.8,28.1
					C822.8,369.5,810.6,384.6,810.3,406.1z"/>
				
					<linearGradient id="SVGID_28_" gradientUnits="userSpaceOnUse" x1="906.1" y1="1110.7898" x2="939.6569" y2="1110.7898" gradientTransform="matrix(1 0 0 -1 0 1397.8898)">
					<stop  offset="0" style="stop-color:#924EA3"/>
					<stop  offset="0.9852" style="stop-color:#48258E"/>
				</linearGradient>
				<path class="st31" d="M937.2,281l-13.5,10.5l-0.4,4.3l-10.2,4.4l-7-11.7l33.5-14.5C939.9,276.9,939,279.6,937.2,281z"/>
				<path class="st15" d="M872.8,469.4l-5.7-9.6c0,0-3.6,3.4-3.6,1.8s2.4-6.6,1.9-7.4s-6.7-34.6-6.7-34.6l-21.3-12.4l19.5-3
					c5.9,3.5,10.5,6.6,10.8,8.2c0.4,2.1,3.8,38,4,39.8c0.2,1.9,5.5,9.1,5.5,13.6C877.3,470.4,872.8,469.4,872.8,469.4z"/>
				
					<linearGradient id="SVGID_29_" gradientUnits="userSpaceOnUse" x1="819.0339" y1="975.9359" x2="871.5146" y2="975.9359" gradientTransform="matrix(1 0 0 -1 0 1397.8898)">
					<stop  offset="0" style="stop-color:#924EA3"/>
					<stop  offset="0.9852" style="stop-color:#48258E"/>
				</linearGradient>
				<path class="st32" d="M864.9,452l-7.8-31.6c-12.1-6.2-30.9-17.5-38-21.8l28-6.8c6.6,5,19.3,15.7,20.6,17c3.4,3.7,4,40.7,4,40.7
					C868.7,452.9,864.9,452,864.9,452z"/>
				
					<linearGradient id="SVGID_30_" gradientUnits="userSpaceOnUse" x1="816.9" y1="972.2897" x2="855.8" y2="972.2897" gradientTransform="matrix(1 0 0 -1 0 1397.8898)">
					<stop  offset="0" style="stop-color:#924EA3"/>
					<stop  offset="0.9852" style="stop-color:#48258E"/>
				</linearGradient>
				<path class="st33" d="M848.3,450.7l7.5-1.4c-0.2-8.4-1.1-35-3.9-38.1c-1.2-1.3-6.9-5.7-13.5-10.7l-21.5,8.7
					c7.1,4.3,12.5,7.4,24.5,13.6L848.3,450.7z"/>
			</g>
			
				<linearGradient id="SVGID_31_" gradientUnits="userSpaceOnUse" x1="844" y1="1028.0398" x2="868.8303" y2="1028.0398" gradientTransform="matrix(1 0 0 -1 0 1397.8898)">
				<stop  offset="0" style="stop-color:#C5E9F0"/>
				<stop  offset="0.9951" style="stop-color:#378ABD"/>
			</linearGradient>
			<polygon class="st34" points="868.8,390.1 863.6,392.5 844,349.6 849.2,347.2 			"/>
			
				<linearGradient id="SVGID_32_" gradientUnits="userSpaceOnUse" x1="836.174" y1="989.6687" x2="861.0114" y2="989.6687" gradientTransform="matrix(0.9957 9.214599e-02 9.214599e-02 -0.9957 -74.1814 1274.7146)">
				<stop  offset="0" style="stop-color:#C5E9F0"/>
				<stop  offset="0.9951" style="stop-color:#378ABD"/>
			</linearGradient>
			<polygon class="st35" points="872.5,388.8 867.1,390.7 851.5,346.2 856.9,344.3 			"/>
		</g>
		<g>
			<path class="st15" d="M461.8,984.6l4.4-4.8c-0.8-0.7-1.3-1.1-1.4-1.2c-0.8-0.4-1.7-5.6-2.6-6.8s-1.8,3.4-1.8,3.4l-9.7-4.2
				c0,0-4,1.8-1.5,5.3s10.6,6.1,11.8,7.4C461.1,983.8,461.4,984.1,461.8,984.6z"/>
			
				<linearGradient id="SVGID_33_" gradientUnits="userSpaceOnUse" x1="520.831" y1="194.7049" x2="575.7265" y2="130.1574" gradientTransform="matrix(1 0 0 -1 0 1397.8898)">
				<stop  offset="0" style="stop-color:#F7DE5B"/>
				<stop  offset="0.9901" style="stop-color:#EE4D70"/>
			</linearGradient>
			<path class="st36" d="M532.2,1230.4l11.2-6.6l0.7-3.2l8.1-2.3l4.1,9.5l-26.5,7.7C529.8,1233.2,530.7,1231.3,532.2,1230.4z"/>
			<path class="st15" d="M537.1,1140l1.9-2.8h-23.8c0,0-0.3,2.3,1.5,5.8c1.7,3.5,24.8,70.6,27.8,77.4l7.7-2.2
				C552.2,1218.3,546.6,1165.1,537.1,1140z"/>
			<path class="st15" d="M509.6,1138.9c0,0-2.1-0.8-1.2,2.9c0.9,3.8,9.6,78.8,10.9,86.2h8.4c0,0,4.2-60.6,0.7-87.2l0.9-1.9H509.6z"
				/>
			<g>
				<g>
					<g>
						<path class="st15" d="M510.6,983.4l0.6-8.6l-2.4-0.7l3.7-15.8c26.3,3.5,19.3,11.7,21.3,15.2c1,1.8,2.3,10.7,3.4,17.2
							c-1,1.7-4.2,4.8-13.4,4.1c0.1-1.5,0.3-2.8,0.6-3.1l-0.4-7.1L510.6,983.4z"/>
					</g>
				</g>
			</g>
			
				<linearGradient id="SVGID_34_" gradientUnits="userSpaceOnUse" x1="497.4623" y1="436.0322" x2="543.6107" y2="320.812" gradientTransform="matrix(1 0 0 -1 0 1397.8898)">
				<stop  offset="0" style="stop-color:#F7DE5B"/>
				<stop  offset="0.9901" style="stop-color:#EE4D70"/>
			</linearGradient>
			<path class="st37" d="M533.6,990.8c0,0-21.1,0.2-31.1,10.4c0,0,2.5,4.6,2.6,4.9c1.8,4.5,1.8,9.9,2.5,14.7
				c0.6,4.5,1.1,9.1,1.5,13.6c0.8,10.1,1.7,21.3-1.3,31.1h33.5c0,0,0.7-20.8,3.7-31.5C547.9,1023.4,550.1,995.1,533.6,990.8z"/>
			
				<linearGradient id="SVGID_35_" gradientUnits="userSpaceOnUse" x1="505.4" y1="291.4898" x2="551.2725" y2="291.4898" gradientTransform="matrix(1 0 0 -1 0 1397.8898)">
				<stop  offset="9.852217e-03" style="stop-color:#223B98"/>
				<stop  offset="1" style="stop-color:#2B73B2"/>
			</linearGradient>
			<path class="st38" d="M541.3,1065.5h-33.5c0,0-2.4,23.6-2.4,36.6s1.2,45.2,1.2,45.2h33.1c0,0,0.1-16,7.3-36.6
				C554.2,1089.9,552.3,1080.3,541.3,1065.5z"/>
			
				<linearGradient id="SVGID_36_" gradientUnits="userSpaceOnUse" x1="502.4228" y1="179.0493" x2="557.3182" y2="114.5018" gradientTransform="matrix(1 0 0 -1 0 1397.8898)">
				<stop  offset="0" style="stop-color:#F7DE5B"/>
				<stop  offset="0.9901" style="stop-color:#EE4D70"/>
			</linearGradient>
			<path class="st39" d="M505.1,1234.1l12.6-3.2l1.6-2.9h8.4l1.3,10.2h-27.6C502,1236.1,503.5,1234.5,505.1,1234.1z"/>
			
				<linearGradient id="SVGID_37_" gradientUnits="userSpaceOnUse" x1="480.3192" y1="429.1659" x2="526.4675" y2="313.9458" gradientTransform="matrix(1 0 0 -1 0 1397.8898)">
				<stop  offset="0" style="stop-color:#F7DE5B"/>
				<stop  offset="0.9901" style="stop-color:#EE4D70"/>
			</linearGradient>
			<path class="st40" d="M465.8,977.7c19.6,20.6,50.4,16.1,50.4,16.1l0.7,15.8c-29.5,4.9-56.5-26.1-56.5-26.1
				C461.3,981.3,465.8,977.7,465.8,977.7z"/>
			<path class="st41" d="M512.1,967.9c-1.3-1.6-2.4-3.4-3.3-5.4c-3-7.1,4.1-11.5,10.1-12.8c16.1-3.5,29.4,10.5,34,24.6
				c2.3,7.2,2.4,16.4,0.7,23.8c-1.7,7.7-2.5,13.7-1.5,21.6c0.5,4.3,1.9,9.4,0.6,13.7c-3.3,11.5-20.9,15.5-30.2,9.8
				c-5.4-3.3-8.4-9.7-8.7-16c-0.3-6.3,1.7-12.5,4.6-18.1c1.5-2.9,3.3-5.8,4.5-8.9c2.7-7.4,1.4-16.1-3.4-22.4
				C517.1,974.5,513.7,971.4,512.1,967.9z"/>
		</g>
		
			<linearGradient id="SVGID_38_" gradientUnits="userSpaceOnUse" x1="294.306" y1="667.5485" x2="204.7073" y2="787.0133" gradientTransform="matrix(1 0 0 -1 0 1397.8898)">
			<stop  offset="9.852217e-03" style="stop-color:#EE4D70"/>
			<stop  offset="1" style="stop-color:#F7DE5B"/>
		</linearGradient>
		<circle class="st42" cx="229.4" cy="643.8" r="24.9"/>
		
			<linearGradient id="SVGID_39_" gradientUnits="userSpaceOnUse" x1="833.6407" y1="871.4048" x2="615.575" y2="1162.1589" gradientTransform="matrix(1 0 0 -1 0 1397.8898)">
			<stop  offset="0" style="stop-color:#F76D82"/>
			<stop  offset="0.9901" style="stop-color:#B54AA2"/>
		</linearGradient>
		<path class="st43" d="M743.7,328.4l-52.6-86.8c-3.8-6.3-12.4-6.3-16.2,0l-52.6,86.8c-4.1,6.8,0.5,15.9,8.1,15.9H683h52.6
			C743.3,344.3,747.9,335.3,743.7,328.4z"/>
		
			<linearGradient id="SVGID_40_" gradientUnits="userSpaceOnUse" x1="2184.7292" y1="45.9267" x2="2075.6963" y2="191.3037" gradientTransform="matrix(-1 0 0 1 3221.8564 603.6222)">
			<stop  offset="0" style="stop-color:#C5E9F0"/>
			<stop  offset="0.9951" style="stop-color:#378ABD"/>
		</linearGradient>
		<path class="st44" d="M1082.1,748.6l26.3,43.4c1.9,3.1,6.2,3.1,8.1,0l26.3-43.4c2.1-3.4-0.2-7.9-4.1-7.9h-26.3h-26.3
			C1082.3,740.6,1080,745.1,1082.1,748.6z"/>
		<g>
			<path class="st45" d="M1100.9,1203.7l10.7-6.5l0.6-3.1l7.7-2.3l4.1,9l-25.4,7.7C1098.6,1206.4,1099.4,1204.6,1100.9,1203.7z"/>
			<path class="st15" d="M1071.8,1001.8c-11.5-1.6-27.3-10.9-28.5-11.9s-0.4-3.7-0.4-4.3c0-0.7,1.5-4.1,0.6-4.9
				c-0.9-0.9-2.7,3.4-2.7,3.4s-6-3.9-9.2-7s-3.1,4.8-2.4,7.5s4.9,5.1,7.9,6.8c0,0,29,26.4,37.6,24c6-1.6,12.8-16.8,12.8-16.8l-9.2-8
				L1071.8,1001.8z"/>
			
				<linearGradient id="SVGID_41_" gradientUnits="userSpaceOnUse" x1="1052.5077" y1="437.8242" x2="1138.0137" y2="234.2386" gradientTransform="matrix(1 0 0 -1 0 1397.8898)">
				<stop  offset="0" style="stop-color:#F7DE5B"/>
				<stop  offset="0.9901" style="stop-color:#EE4D70"/>
			</linearGradient>
			<path class="st46" d="M1117.7,1041.7l8-1.1c0,0,11.1,24.1-3.6,42l-11.8,46.2c0,0,11.3,36,9.4,65.1l-7.6,1.8l-17.3-53l0.2-38
				L1117.7,1041.7z"/>
			
				<linearGradient id="SVGID_42_" gradientUnits="userSpaceOnUse" x1="1037.7462" y1="431.6244" x2="1123.2521" y2="228.0387" gradientTransform="matrix(1 0 0 -1 0 1397.8898)">
				<stop  offset="0" style="stop-color:#F7DE5B"/>
				<stop  offset="0.9901" style="stop-color:#EE4D70"/>
			</linearGradient>
			<path class="st47" d="M1121.1,1041.4l-35.4,2.4c0,0-8.2,55.7-6.9,83.9s3.6,68.3,3.6,68.3l8.9,0.8c12.1-59.6,8.4-75.4,8.4-75.4
				c0.4-4.4,15-42.3,15-42.3S1131.1,1062.6,1121.1,1041.4z"/>
			<path class="st15" d="M1102.5,953.3c1.1,2.4,2.4,12.3,3,17.3c1.6,0.6,2.7,1.5,2.8,2.7c0.2,2.3-3.4,4.5-8,5
				c-4.7,0.5-8.6-1-8.8-3.3c-0.1-0.9,0.4-1.8,1.3-2.5l0.2-10.3l-11.9-1.4l1.1-7.7l-2.2-0.8l4.3-14C1107.7,943,1101,950,1102.5,953.3
				z"/>
			
				<linearGradient id="SVGID_43_" gradientUnits="userSpaceOnUse" x1="1076.7001" y1="387.2079" x2="1126.7001" y2="387.2079" gradientTransform="matrix(1 0 0 -1 0 1397.8898)">
				<stop  offset="9.852217e-03" style="stop-color:#223B98"/>
				<stop  offset="1" style="stop-color:#2B73B2"/>
			</linearGradient>
			<path class="st48" d="M1109.4,969.5c0,0-19.6,1.9-20.6,3.7s-12.1,16.9-12.1,16.9s3.4,5.2,8.8,8.5c0,0-4.3,5.7-1.9,13
				s3.3,31.5,1.1,38.3c-2.2,6.9,42-6.6,42-6.6s-5.2-28-4.1-37.4s-4.8-33.2-4.8-33.2L1109.4,969.5z"/>
			<path class="st27" d="M1084.9,933.6c0.4-1.5,1.2-3.1,2.4-4.8c14.6-19.4,36.4,7.7,43.4,20.5c4.1,7.3,6,16.4,0.9,23.7
				c-5.6,7.9-25.4,14.2-30.9,3c-2.6-5.4-2.3-10.7-0.9-16.5c1.1-4.3,1-11.1-3.9-13.2C1088.2,944.8,1083.2,939.9,1084.9,933.6z"/>
			<path class="st45" d="M1069.7,1202l12.1-3.1l1.5-2.8h8l1.3,9.8H1066C1066.7,1203.9,1068,1202.4,1069.7,1202z"/>
		</g>
		<g>
			<g>
				
					<linearGradient id="SVGID_44_" gradientUnits="userSpaceOnUse" x1="812.0531" y1="379.5499" x2="761.8353" y2="213.9669" gradientTransform="matrix(1 0 0 -1 0 1397.8898)">
					<stop  offset="0" style="stop-color:#924EA3"/>
					<stop  offset="0.9852" style="stop-color:#48258E"/>
				</linearGradient>
				<path class="st49" d="M796.2,1051.6c0,0,4.4,63.2,4.4,66.5s-4.4,77.2-4.4,77.2h-10.8l-6.4-66.7l-17.7-67.6L796.2,1051.6z"/>
				
					<linearGradient id="SVGID_45_" gradientUnits="userSpaceOnUse" x1="784.2" y1="196.4399" x2="816.9" y2="196.4399" gradientTransform="matrix(1 0 0 -1 0 1397.8898)">
					<stop  offset="9.852217e-03" style="stop-color:#223B98"/>
					<stop  offset="1" style="stop-color:#2B73B2"/>
				</linearGradient>
				<path class="st50" d="M812.4,1202.6l-14.9-3.8l-1.8-3.4h-9.9l-1.6,12.1h32.7C816.1,1204.9,814.4,1203.1,812.4,1202.6z"/>
			</g>
			<g>
				<path class="st15" d="M788,953.3l-0.2-7.7l2.2-0.5l-2.6-14.2c-23.5,2.1-17.7,9.7-19.5,12.7c-1.3,2-3.3,10.1-4.5,15.2
					c-0.9,0.6-2.4,5.6-2.5,6.5c-0.2,2.3,3.8,0.4,7.9,0.7c4,0.4,7,3.9,7.2,1.6c0.1-0.8,0.3-6.7-0.3-7.4l0.6-6.3L788,953.3z"/>
				<path class="st27" d="M792.5,919.7c-0.9-2.3-3.1-4.2-5.6-4.2c-0.9,0-1.9,0.2-2.8,0.4c-4.4,1-8.9,2.1-13.3,3.1
					c-3.5,0.8-5.9,2.2-8.7,4.6c-7,5.9-7.9,17.1-2.3,24.2c0.3,0.4,5.7,5,5.8,4.5l2.5-9.9l2.5,1.4l0.8-0.5c-0.2-2.6,0.7-5,3.4-5.7
					c3.3-0.9,6.5-2.3,9.4-4.1c2.6-1.6,5.9-3.3,7.4-6.1c0.1-0.1,0.1-0.3,0.2-0.4C793.1,924.8,793.4,922.1,792.5,919.7z"/>
			</g>
			
				<linearGradient id="SVGID_46_" gradientUnits="userSpaceOnUse" x1="761.606" y1="193.2897" x2="796.206" y2="193.2897" gradientTransform="matrix(1 0 0 -1 0 1397.8898)">
				<stop  offset="9.852217e-03" style="stop-color:#223B98"/>
				<stop  offset="1" style="stop-color:#2B73B2"/>
			</linearGradient>
			<path class="st51" d="M791.5,1205.9l-15.7-4.1l-1.9-3.6h-10.5l-1.7,12.8h34.6C795.3,1208.3,793.6,1206.4,791.5,1205.9z"/>
			
				<linearGradient id="SVGID_47_" gradientUnits="userSpaceOnUse" x1="799.2466" y1="383.4339" x2="749.0289" y2="217.8508" gradientTransform="matrix(1 0 0 -1 0 1397.8898)">
				<stop  offset="0" style="stop-color:#924EA3"/>
				<stop  offset="0.9852" style="stop-color:#48258E"/>
			</linearGradient>
			<path class="st52" d="M796.4,1051.7c0,0-12.5,74.2-14.4,78.7s-9,48.3-7.1,70c0,0-6.7,1.9-12,0c0,0-6.4-39.7-3.7-56.5
				c2.6-16.8,3-40.4,1.9-46.4s-10.9-30.7-4.5-47.9S796.4,1051.7,796.4,1051.7z"/>
			
				<linearGradient id="SVGID_48_" gradientUnits="userSpaceOnUse" x1="751.2244" y1="300.3854" x2="797.3705" y2="463.2539" gradientTransform="matrix(1 0 0 -1 0 1397.8898)">
				<stop  offset="9.852217e-03" style="stop-color:#223B98"/>
				<stop  offset="1" style="stop-color:#2B73B2"/>
			</linearGradient>
			<path class="st53" d="M785,971.9c-1-2.1-2.1-4.2-3.3-6.1c-3.2-4.8-8.4-8.8-14.5-7.9c-5,0.8-8.7,4.9-11.1,9.1
				c-3.9,6.8-4.5,15-3.4,22.6c3,19.7,9.7,37.4,6.7,50.9c0,0-1.7,5.2-4,9.7c0,0,12,11,41.4,2.7c0.5-18.3-0.5-37.1-3.7-55.2
				c-1.1-5.8-2.5-11.6-4.6-17.1C787.5,977.8,786.3,974.8,785,971.9z"/>
			<path class="st15" d="M840.4,959.2l-10.2,2.3c0,0,0-4.6-1.1-3.6s-3,5.9-3.8,6.1c-0.8,0.2-27.8,17.8-27.8,17.8l-22.2-6.5
				l10.5,15.2c6.2,1.8,11.3,2.9,12.6,2.1c1.7-1.1,28.3-21.9,29.7-23s9.8-2.1,12.8-5C843.9,961.6,840.4,959.2,840.4,959.2z"/>
			
				<linearGradient id="SVGID_49_" gradientUnits="userSpaceOnUse" x1="1015.7392" y1="511.0205" x2="1061.8853" y2="673.889" gradientTransform="matrix(0.8219 -0.5696 -0.5696 -0.8219 289.4764 2079.8298)">
				<stop  offset="9.852217e-03" style="stop-color:#223B98"/>
				<stop  offset="1" style="stop-color:#2B73B2"/>
			</linearGradient>
			<path class="st54" d="M823.4,965.1l-26.6,15.1c-12-4.2-25.1-7.9-32.7-10l15.5,22.4c7.7,1.3,14.3,2.3,16,2.3
				c4.7-0.1,30.2-23.6,30.2-23.6C826.5,967.1,823.4,965.1,823.4,965.1z"/>
		</g>
	</g>
</g>
</svg>
