<svg xmlns="http://www.w3.org/2000/svg" xmlns:xlink="http://www.w3.org/1999/xlink" width="507.25" height="510.91" viewBox="0 0 507.25 510.91"><defs><style>.cls-1{fill:none;}.cls-2{fill:#f0f0f0;}.cls-3{fill:url(#Unbenannter_Verlauf_41);}.cls-4{fill:url(#Unbenannter_Verlauf_41-2);}.cls-5{fill:url(#Unbenannter_Verlauf_41-3);}.cls-6{fill:url(#Unbenannter_Verlauf_41-4);}.cls-7{fill:url(#Unbenannter_Verlauf_41-5);}.cls-8{fill:#37a5cb;}</style><linearGradient id="Unbenannter_Verlauf_41" y1="253.48" x2="507.25" y2="253.48" gradientUnits="userSpaceOnUse"><stop offset="0" stop-color="#f5897c"/><stop offset="1" stop-color="#f2a287"/></linearGradient><linearGradient id="Unbenannter_Verlauf_41-2" x1="29.83" y1="374.58" x2="170.26" y2="374.58" xlink:href="#Unbenannter_Verlauf_41"/><linearGradient id="Unbenannter_Verlauf_41-3" x1="336.17" y1="374.64" x2="476.97" y2="374.64" xlink:href="#Unbenannter_Verlauf_41"/><linearGradient id="Unbenannter_Verlauf_41-4" x1="336.17" y1="132.04" x2="476.31" y2="132.04" xlink:href="#Unbenannter_Verlauf_41"/><linearGradient id="Unbenannter_Verlauf_41-5" x1="29.76" y1="131.94" x2="170.26" y2="131.94" xlink:href="#Unbenannter_Verlauf_41"/></defs><title>englisch</title><g id="Ebene_2" data-name="Ebene 2"><g id="Layer_1" data-name="Layer 1"><path class="cls-1" d="M492.35,170.35C458.07,71.72,364.31,0,253.44,0A253.33,253.33,0,0,0,13.68,170.44h.15a255,255,0,0,0,1.66,170.35h.07C50.68,437.74,144.41,507,253.62,507a257.43,257.43,0,0,0,117.44-28.55c20,16.65,39.76,25.19,57,29.24h54c1.51-.41,2.32-.69,2.32-.69-28.54-8.16-46.48-43.23-56.27-70.14,28.5-26.86,49.67-59.42,63.54-96h.07c9.79-27.73,15.5-56.27,15.5-87.26a238.34,238.34,0,0,0-14.68-83.18Z"/><path id="Verlauf" class="cls-2" d="M491.68,340.79h.07c9.79-27.73,15.5-56.27,15.5-87.26a238.34,238.34,0,0,0-14.68-83.18h-.22C458.07,71.72,364.31,0,253.44,0A253.33,253.33,0,0,0,13.68,170.44h.15a255,255,0,0,0,1.66,170.35h.07C50.68,437.74,144.41,507,253.62,507a257.43,257.43,0,0,0,117.44-28.55C429,526.54,484.41,507,484.41,507c-28.54-8.16-46.48-43.23-56.27-70.14C456.64,410,477.81,377.41,491.68,340.79Z"/><path class="cls-3" d="M300.92,4.49A252.6,252.6,0,0,0,253.44,0a255.61,255.61,0,0,0-47.92,4.52v201H4.5a255.55,255.55,0,0,0-4.5,48A251.62,251.62,0,0,0,4.52,301h201V502.39a254.24,254.24,0,0,0,95.4.13V301H502.67a248.28,248.28,0,0,0,4.58-47.43,245.74,245.74,0,0,0-4.7-48H300.92Z"/><path class="cls-4" d="M52,407.42l118.22-65.68H85.81l-56,31.1A250.84,250.84,0,0,0,52,407.42Z"/><path class="cls-5" d="M420.62,341.74H336.17l118.45,65.81A254.6,254.6,0,0,0,477,373.05Z"/><path class="cls-6" d="M336.17,164.77h84.45l55.69-30.94A254.25,254.25,0,0,0,454,99.31Z"/><path class="cls-7" d="M52.07,99.11a252.47,252.47,0,0,0-22.31,34.52l56.05,31.14h84.45Z"/><path class="cls-8" d="M458.6,341.74l26.55,14.75q3.27-7.26,6.15-14.75Z"/><path class="cls-8" d="M336.17,13.93V143.68L442.05,84.85A253.51,253.51,0,0,0,336.17,13.93Z"/><path class="cls-8" d="M336.17,493.21a262.16,262.16,0,0,0,34.89-14.79C429,526.54,484.41,507,484.41,507c-28.46-8.13-46.37-43-56.18-69.9l-92.06-51.15Z"/><path class="cls-8" d="M170.26,492.94V362.84L64,421.88A254.05,254.05,0,0,0,170.26,492.94Z"/><path class="cls-8" d="M170.26,13.91A253.48,253.48,0,0,0,78.59,69.66l91.67,50.93Z"/><path class="cls-8" d="M47.83,164.77,21.65,150.22q-3.18,7.17-5.93,14.55Z"/></g></g></svg>