<svg xmlns="http://www.w3.org/2000/svg" xmlns:xlink="http://www.w3.org/1999/xlink" width="512" height="518.2" viewBox="0 0 512 518.2"><defs><style>.cls-1{fill:none;}.cls-2{clip-path:url(#clip-path);}.cls-3{fill:url(#Unbenannter_Verlauf_41);}.cls-4{fill:#6da544;}.cls-5{fill:url(#gelv);}.cls-6{fill:#fff5f4;}.cls-7{fill:#37a5cb;}.cls-8{fill:#e5646e;}</style><clipPath id="clip-path" transform="translate(0.81 4.24)"><path class="cls-1" d="M491.68,340.79h.07c9.79-27.73,15.5-56.27,15.5-87.26a238.34,238.34,0,0,0-14.68-83.18h-.22C458.07,71.72,364.31,0,253.44,0A253.33,253.33,0,0,0,13.68,170.44h.15a255,255,0,0,0,1.66,170.35h.07C50.68,437.74,144.41,507,253.62,507a257.43,257.43,0,0,0,117.44-28.55C429,526.54,484.41,507,484.41,507c-28.54-8.16-46.48-43.23-56.27-70.14C456.64,410,477.81,377.41,491.68,340.79Z"/></clipPath><linearGradient id="Unbenannter_Verlauf_41" x1="-0.81" y1="254.87" x2="511.19" y2="254.87" gradientUnits="userSpaceOnUse"><stop offset="0" stop-color="#f5897c"/><stop offset="1" stop-color="#f2a287"/></linearGradient><linearGradient id="gelv" x1="87.15" y1="256" x2="303.87" y2="256" gradientUnits="userSpaceOnUse"><stop offset="0" stop-color="#f8d774"/><stop offset="1" stop-color="#f7ec86"/></linearGradient></defs><title>portugiesisch</title><g id="Ebene_2" data-name="Ebene 2"><g id="Layer_1" data-name="Layer 1"><g class="cls-2"><path class="cls-3" d="M511.19,251.76c0,69.57-31.94,137.06-77,183.2,26.19,42.23,16.9,41.39,58.29,76.86-36.77,4.24-81.09,5.92-122.48-32.1-28.72,20.28-81.76,28-114.83,28a256.61,256.61,0,0,1-60.5-7.19C82.51,473.39-.81,372.31-.81,251.76S82.51,30.14,194.69,3a256.61,256.61,0,0,1,60.5-7.2C396.57-4.24,511.19,110.38,511.19,251.76Z" transform="translate(0.81 4.24)"/><path class="cls-4" d="M194.69,3V500.57C82.51,473.39-.81,372.31-.81,251.76S82.51,30.14,194.69,3Z" transform="translate(0.81 4.24)"/><circle class="cls-5" cx="195.51" cy="256" r="108.36"/><path class="cls-6" d="M194.7,329A56.66,56.66,0,0,1,138,272.38v-75H251.35v75A56.66,56.66,0,0,1,194.7,329Z" transform="translate(0.81 4.24)"/><path class="cls-7" d="M175.07,251.5H163.45a3.41,3.41,0,0,0-3.41,3.41v8.8a9.23,9.23,0,0,0,18.45,0v-8.8a3.42,3.42,0,0,0-3.42-3.41Z" transform="translate(0.81 4.24)"/><path class="cls-7" d="M200.5,251.5H188.89a3.42,3.42,0,0,0-3.42,3.41v8.8a9.23,9.23,0,0,0,18.45,0v-8.8a3.42,3.42,0,0,0-3.42-3.41Z" transform="translate(0.81 4.24)"/><path class="cls-7" d="M200.5,222.1H188.89a3.42,3.42,0,0,0-3.42,3.42v8.79a9.23,9.23,0,1,0,18.45,0v-8.79a3.42,3.42,0,0,0-3.42-3.42Z" transform="translate(0.81 4.24)"/><path class="cls-7" d="M200.5,280.89H188.89a3.42,3.42,0,0,0-3.42,3.42v8.79a9.23,9.23,0,1,0,18.45,0v-8.79a3.42,3.42,0,0,0-3.42-3.42Z" transform="translate(0.81 4.24)"/><path class="cls-7" d="M225.94,251.5H214.32a3.42,3.42,0,0,0-3.42,3.41v8.8a9.23,9.23,0,0,0,18.45,0v-8.8a3.41,3.41,0,0,0-3.41-3.41Z" transform="translate(0.81 4.24)"/><path class="cls-8" d="M251.35,189.55H138a7.84,7.84,0,0,0-7.85,7.85v75a64.51,64.51,0,1,0,129,0v-75a7.84,7.84,0,0,0-7.85-7.85Zm-7.85,82.83a48.81,48.81,0,0,1-97.61,0V205.25H243.5Z" transform="translate(0.81 4.24)"/></g></g></g></svg>