<svg xmlns="http://www.w3.org/2000/svg" xmlns:xlink="http://www.w3.org/1999/xlink" width="500" height="220" viewBox="0 0 500 220"><defs><style>.cls-1{isolation:isolate;}.cls-108,.cls-111,.cls-121,.cls-2,.cls-23,.cls-27,.cls-40,.cls-47,.cls-76,.cls-78,.cls-96,.cls-98{mix-blend-mode:multiply;}.cls-2{fill:url(#linear-gradient);}.cls-3{fill:#79b9cc;}.cls-4{fill:url(#linear-gradient-2);}.cls-5{fill:url(#linear-gradient-3);}.cls-6{fill:url(#linear-gradient-4);}.cls-7{fill:url(#linear-gradient-5);}.cls-8{fill:url(#linear-gradient-6);}.cls-9{fill:url(#linear-gradient-7);}.cls-10{fill:url(#linear-gradient-8);}.cls-11{fill:url(#linear-gradient-9);}.cls-12{fill:url(#linear-gradient-10);}.cls-13{fill:url(#linear-gradient-11);}.cls-14{fill:url(#linear-gradient-12);}.cls-15{fill:url(#linear-gradient-13);}.cls-16{fill:url(#linear-gradient-14);}.cls-17{fill:url(#linear-gradient-15);}.cls-18{fill:url(#linear-gradient-16);}.cls-19{fill:url(#linear-gradient-17);}.cls-20{fill:url(#linear-gradient-18);}.cls-21{fill:url(#linear-gradient-19);}.cls-22{fill:url(#linear-gradient-20);}.cls-23{fill:url(#linear-gradient-21);}.cls-24{fill:url(#linear-gradient-22);}.cls-25{fill:url(#linear-gradient-23);}.cls-26{fill:url(#linear-gradient-24);}.cls-27{fill:url(#linear-gradient-25);}.cls-28{fill:url(#linear-gradient-26);}.cls-29{fill:#b4b7db;}.cls-30{fill:#bcbedf;}.cls-31{fill:#c3c6e2;}.cls-32{fill:#cbcde6;}.cls-33{fill:#d3d5e9;}.cls-34{fill:#dbdced;}.cls-35{fill:#e2e4f0;}.cls-36{fill:#eaebf4;}.cls-37{fill:#fff;}.cls-38{fill:url(#linear-gradient-27);}.cls-39{fill:url(#linear-gradient-28);}.cls-40{fill:url(#linear-gradient-29);}.cls-41{fill:url(#linear-gradient-30);}.cls-42{fill:url(#linear-gradient-31);}.cls-43{fill:url(#linear-gradient-32);}.cls-44{fill:url(#linear-gradient-33);}.cls-45{fill:#f9aaaa;}.cls-46{fill:url(#linear-gradient-34);}.cls-47{fill:#f1f2f2;}.cls-48{fill:url(#linear-gradient-35);}.cls-49{fill:#282a55;}.cls-50{fill:#ed9d9d;}.cls-51{fill:url(#linear-gradient-36);}.cls-52{fill:url(#linear-gradient-37);}.cls-53{fill:url(#linear-gradient-38);}.cls-54{fill:url(#linear-gradient-39);}.cls-55{fill:url(#linear-gradient-40);}.cls-56{fill:url(#linear-gradient-41);}.cls-57{fill:url(#linear-gradient-42);}.cls-58{fill:url(#linear-gradient-43);}.cls-59{fill:url(#linear-gradient-44);}.cls-60{fill:url(#linear-gradient-45);}.cls-61{fill:url(#linear-gradient-46);}.cls-62{fill:url(#linear-gradient-47);}.cls-63{fill:url(#linear-gradient-48);}.cls-64{fill:url(#linear-gradient-49);}.cls-65{fill:url(#linear-gradient-50);}.cls-66{fill:url(#linear-gradient-51);}.cls-67{fill:url(#linear-gradient-52);}.cls-68{fill:url(#linear-gradient-53);}.cls-69{fill:url(#linear-gradient-54);}.cls-70{fill:url(#linear-gradient-55);}.cls-71{fill:url(#linear-gradient-56);}.cls-72{fill:url(#linear-gradient-57);}.cls-73{fill:url(#linear-gradient-58);}.cls-74{fill:url(#linear-gradient-59);}.cls-75{fill:url(#linear-gradient-60);}.cls-76{fill:url(#linear-gradient-61);}.cls-77{opacity:0.9;}.cls-79{fill:#f8fffd;}.cls-80{fill:#f1f8f6;}.cls-81{fill:#ebf1ef;}.cls-82{fill:#e4e9e9;}.cls-83{fill:#dde2e2;}.cls-84{fill:#d7dbdb;}.cls-85{fill:#d0d4d4;}.cls-86{fill:#c9ccce;}.cls-87{fill:#c3c5c7;}.cls-88{fill:#bcbec0;}.cls-89{fill:url(#linear-gradient-62);}.cls-90{fill:url(#linear-gradient-63);}.cls-91{fill:url(#linear-gradient-64);}.cls-92{fill:url(#linear-gradient-65);}.cls-93{fill:url(#linear-gradient-66);}.cls-94{opacity:0.8;fill:url(#linear-gradient-67);}.cls-95{fill:url(#linear-gradient-68);}.cls-96{fill:url(#linear-gradient-69);}.cls-97{fill:#0f152b;}.cls-98{fill:#a7a9ac;}.cls-99{fill:url(#linear-gradient-70);}.cls-100{fill:url(#linear-gradient-71);}.cls-101{fill:url(#linear-gradient-72);}.cls-102{fill:url(#linear-gradient-73);}.cls-103{fill:#f79a97;}.cls-104{fill:url(#linear-gradient-74);}.cls-105{fill:url(#linear-gradient-75);}.cls-106{fill:url(#linear-gradient-76);}.cls-107{fill:url(#linear-gradient-77);}.cls-108{fill:#e6e7e8;}.cls-109{fill:#6a4123;}.cls-110{fill:url(#linear-gradient-78);}.cls-111{fill:url(#linear-gradient-79);}.cls-112{fill:#10122b;}.cls-113{fill:url(#linear-gradient-80);}.cls-114{fill:url(#linear-gradient-81);}.cls-115{fill:url(#linear-gradient-82);}.cls-116{fill:url(#linear-gradient-83);}.cls-117{fill:url(#linear-gradient-84);}.cls-118{fill:url(#linear-gradient-85);}.cls-119{fill:url(#linear-gradient-86);}.cls-120{fill:url(#linear-gradient-87);}.cls-121{fill:url(#linear-gradient-88);}.cls-122{fill:url(#linear-gradient-89);}.cls-123{fill:url(#linear-gradient-90);}.cls-124{fill:url(#linear-gradient-91);}.cls-125{fill:url(#linear-gradient-92);}.cls-126{fill:url(#linear-gradient-93);}.cls-127{fill:url(#linear-gradient-94);}.cls-128{fill:url(#linear-gradient-95);}.cls-129{fill:url(#linear-gradient-96);}.cls-130{fill:url(#linear-gradient-97);}.cls-131{fill:url(#linear-gradient-98);}.cls-132{fill:url(#linear-gradient-99);}.cls-133{fill:url(#linear-gradient-100);}.cls-134{fill:url(#linear-gradient-101);}.cls-135{fill:url(#linear-gradient-102);}.cls-136{opacity:0.7;fill:url(#linear-gradient-103);}</style><linearGradient id="linear-gradient" x1="120.59" y1="74.95" x2="157.13" y2="138.23" gradientTransform="translate(-11.25)" gradientUnits="userSpaceOnUse"><stop offset="0.02" stop-color="#e3e8f9"/><stop offset="0.39" stop-color="#eff2fc"/><stop offset="0.74" stop-color="#fff"/><stop offset="1" stop-color="#fff"/></linearGradient><linearGradient id="linear-gradient-2" x1="63" y1="38.45" x2="63" y2="38.45" gradientUnits="userSpaceOnUse"><stop offset="0" stop-color="#2f90d6"/><stop offset="1" stop-color="#33d1ea"/></linearGradient><linearGradient id="linear-gradient-3" x1="55.79" y1="78.64" x2="103.61" y2="30.83" gradientUnits="userSpaceOnUse"><stop offset="0" stop-color="#fff"/><stop offset="1" stop-color="#daf3fd"/></linearGradient><linearGradient id="linear-gradient-4" x1="63.01" y1="55.74" x2="104.13" y2="55.74" gradientUnits="userSpaceOnUse"><stop offset="0" stop-color="#b0d6e0"/><stop offset="1" stop-color="#bfe9f6"/></linearGradient><linearGradient id="linear-gradient-5" x1="62.99" y1="58.92" x2="104.92" y2="58.92" gradientUnits="userSpaceOnUse"><stop offset="0" stop-color="#daf3fd"/><stop offset="0.17" stop-color="#daf3fd"/><stop offset="0.33" stop-color="#daf3fd"/><stop offset="1" stop-color="#fff"/></linearGradient><linearGradient id="linear-gradient-6" x1="68.88" y1="63.55" x2="100.77" y2="63.55" gradientUnits="userSpaceOnUse"><stop offset="0" stop-color="#e4a31e"/><stop offset="1" stop-color="#f5c43d"/></linearGradient><linearGradient id="linear-gradient-7" x1="68.08" y1="48.49" x2="68.09" y2="48.49" xlink:href="#linear-gradient-2"/><linearGradient id="linear-gradient-8" x1="60.88" y1="88.67" x2="108.69" y2="40.86" xlink:href="#linear-gradient-3"/><linearGradient id="linear-gradient-9" x1="68.1" y1="65.77" x2="109.21" y2="65.77" gradientUnits="userSpaceOnUse"><stop offset="0" stop-color="#f5c139"/><stop offset="1" stop-color="#fcd24a"/></linearGradient><linearGradient id="linear-gradient-10" x1="68.08" y1="68.96" x2="110.01" y2="68.96" gradientUnits="userSpaceOnUse"><stop offset="0" stop-color="#fcd24a"/><stop offset="0.18" stop-color="#fcd24a"/><stop offset="0.38" stop-color="#ffe957"/><stop offset="1" stop-color="#ffe957"/></linearGradient><linearGradient id="linear-gradient-11" x1="85.01" y1="65.72" x2="116.89" y2="65.72" gradientUnits="userSpaceOnUse"><stop offset="0" stop-color="#19ab53"/><stop offset="1" stop-color="#25bc6c"/></linearGradient><linearGradient id="linear-gradient-12" x1="84.21" y1="50.65" x2="84.21" y2="50.65" xlink:href="#linear-gradient-2"/><linearGradient id="linear-gradient-13" x1="77.01" y1="90.84" x2="124.82" y2="43.03" xlink:href="#linear-gradient-3"/><linearGradient id="linear-gradient-14" x1="84.22" y1="67.94" x2="125.34" y2="67.94" gradientUnits="userSpaceOnUse"><stop offset="0" stop-color="#25bc6c"/><stop offset="1" stop-color="#30e695"/></linearGradient><linearGradient id="linear-gradient-15" x1="84.21" y1="71.13" x2="126.13" y2="71.13" gradientUnits="userSpaceOnUse"><stop offset="0" stop-color="#30e695"/><stop offset="0.18" stop-color="#30e695"/><stop offset="0.7" stop-color="#80f3c8"/><stop offset="1" stop-color="#80f3c8"/></linearGradient><linearGradient id="linear-gradient-16" x1="94.57" y1="71.79" x2="126.46" y2="71.79" gradientUnits="userSpaceOnUse"><stop offset="0" stop-color="#1d2047"/><stop offset="1" stop-color="#282a55"/></linearGradient><linearGradient id="linear-gradient-17" x1="93.77" y1="56.72" x2="93.77" y2="56.72" xlink:href="#linear-gradient-2"/><linearGradient id="linear-gradient-18" x1="86.57" y1="96.91" x2="134.38" y2="49.1" xlink:href="#linear-gradient-3"/><linearGradient id="linear-gradient-19" x1="93.78" y1="74.01" x2="134.9" y2="74.01" xlink:href="#linear-gradient-2"/><linearGradient id="linear-gradient-20" x1="93.77" y1="77.2" x2="135.7" y2="77.2" gradientUnits="userSpaceOnUse"><stop offset="0.02" stop-color="#206197"/><stop offset="0.2" stop-color="#206197"/><stop offset="0.48" stop-color="#0e8dc9"/><stop offset="1" stop-color="#0e8dc9"/></linearGradient><linearGradient id="linear-gradient-21" x1="232.46" y1="177.68" x2="249.95" y2="207.99" xlink:href="#linear-gradient"/><linearGradient id="linear-gradient-22" x1="908.48" y1="183.64" x2="949.2" y2="183.64" gradientTransform="matrix(-1, 0, 0, 1, 1140.23, 0)" gradientUnits="userSpaceOnUse"><stop offset="0" stop-color="#33d1ea"/><stop offset="1" stop-color="#2f90d6"/></linearGradient><linearGradient id="linear-gradient-23" x1="908.48" y1="181.5" x2="948.92" y2="181.5" gradientTransform="matrix(-1, 0, 0, 1, 1140.23, 0)" gradientUnits="userSpaceOnUse"><stop offset="0" stop-color="#daf3fd"/><stop offset="1" stop-color="#fff"/></linearGradient><linearGradient id="linear-gradient-24" x1="915.12" y1="169.03" x2="921.45" y2="171.41" gradientTransform="matrix(-1, 0.01, 0.01, 1, 1138.62, -7)" xlink:href="#linear-gradient-22"/><linearGradient id="linear-gradient-25" x1="222.92" y1="124.98" x2="246.39" y2="165.64" xlink:href="#linear-gradient"/><linearGradient id="linear-gradient-26" x1="152.56" y1="78.05" x2="256.85" y2="78.05" gradientTransform="translate(-11.25)" gradientUnits="userSpaceOnUse"><stop offset="0" stop-color="#daf3fd"/><stop offset="1" stop-color="#bfe9f6"/></linearGradient><linearGradient id="linear-gradient-27" x1="186.08" y1="118.48" x2="211.6" y2="134.11" gradientTransform="translate(-11.25)" gradientUnits="userSpaceOnUse"><stop offset="0" stop-color="#fff"/><stop offset="1" stop-color="#f4f8ff"/></linearGradient><linearGradient id="linear-gradient-28" x1="186.08" y1="118.48" x2="211.6" y2="134.11" gradientTransform="translate(-11.25)" xlink:href="#linear-gradient-3"/><linearGradient id="linear-gradient-29" x1="198.6" y1="131.95" x2="224.26" y2="131.95" xlink:href="#linear-gradient"/><linearGradient id="linear-gradient-30" x1="195.32" y1="97.08" x2="211.8" y2="97.08" gradientTransform="translate(-11.25)" gradientUnits="userSpaceOnUse"><stop offset="0" stop-color="#fff"/><stop offset="0.25" stop-color="#fff"/><stop offset="0.59" stop-color="#daf3fd"/><stop offset="1" stop-color="#daf3fd"/></linearGradient><linearGradient id="linear-gradient-31" x1="152.56" y1="78.81" x2="254.56" y2="78.81" gradientTransform="translate(-11.25)" xlink:href="#linear-gradient-3"/><linearGradient id="linear-gradient-32" x1="156.75" y1="78.64" x2="249.51" y2="78.64" gradientTransform="translate(-11.25)" xlink:href="#linear-gradient-22"/><linearGradient id="linear-gradient-33" x1="157.98" y1="108.67" x2="161.51" y2="108.67" gradientTransform="matrix(1, 0, 0, 1, 0, 0)" xlink:href="#linear-gradient-22"/><linearGradient id="linear-gradient-34" x1="158.19" y1="90.54" x2="180.08" y2="90.54" gradientUnits="userSpaceOnUse"><stop offset="0" stop-color="#fcd24a"/><stop offset="0.44" stop-color="#fcd24a"/><stop offset="1" stop-color="#ffe957"/></linearGradient><linearGradient id="linear-gradient-35" x1="175.82" y1="95.57" x2="203.42" y2="95.57" xlink:href="#linear-gradient-34"/><linearGradient id="linear-gradient-36" x1="175.61" y1="99.41" x2="204.22" y2="99.41" xlink:href="#linear-gradient-34"/><linearGradient id="linear-gradient-37" x1="183.3" y1="71.74" x2="186.39" y2="71.74" gradientUnits="userSpaceOnUse"><stop offset="0" stop-color="#1a2587"/><stop offset="1" stop-color="#3a52be"/></linearGradient><linearGradient id="linear-gradient-38" x1="185.72" y1="68.63" x2="194.91" y2="68.63" gradientUnits="userSpaceOnUse"><stop offset="0" stop-color="#2d64c9"/><stop offset="1" stop-color="#33d1ea"/></linearGradient><linearGradient id="linear-gradient-39" x1="31" y1="129.15" x2="78.76" y2="129.15" gradientUnits="userSpaceOnUse"><stop offset="0" stop-color="#2f90d6"/><stop offset="0.19" stop-color="#2f90d6"/><stop offset="0.75" stop-color="#33d1ea"/><stop offset="1" stop-color="#3d7cdb"/></linearGradient><linearGradient id="linear-gradient-40" x1="35.13" y1="129.15" x2="74.59" y2="129.15" gradientUnits="userSpaceOnUse"><stop offset="0" stop-color="#c6c9e3"/><stop offset="1" stop-color="#c5c8e3"/></linearGradient><linearGradient id="linear-gradient-41" x1="35.14" y1="129.03" x2="74.59" y2="129.03" gradientUnits="userSpaceOnUse"><stop offset="0" stop-color="#c9cbe5"/><stop offset="1" stop-color="#c8cbe5"/></linearGradient><linearGradient id="linear-gradient-42" x1="35.23" y1="128.92" x2="74.48" y2="128.92" gradientUnits="userSpaceOnUse"><stop offset="0" stop-color="#cccee6"/><stop offset="1" stop-color="#cacde6"/></linearGradient><linearGradient id="linear-gradient-43" x1="35.23" y1="128.8" x2="74.49" y2="128.8" gradientUnits="userSpaceOnUse"><stop offset="0" stop-color="#ced1e8"/><stop offset="1" stop-color="#ccd0e8"/></linearGradient><linearGradient id="linear-gradient-44" x1="35.3" y1="128.68" x2="74.42" y2="128.68" gradientUnits="userSpaceOnUse"><stop offset="0" stop-color="#d1d4e9"/><stop offset="1" stop-color="#cfd2e9"/></linearGradient><linearGradient id="linear-gradient-45" x1="35.26" y1="128.57" x2="74.42" y2="128.57" gradientUnits="userSpaceOnUse"><stop offset="0" stop-color="#d4d6ea"/><stop offset="1" stop-color="#d1d4ea"/></linearGradient><linearGradient id="linear-gradient-46" x1="35.33" y1="128.45" x2="74.39" y2="128.45" gradientUnits="userSpaceOnUse"><stop offset="0" stop-color="#d7d9ec"/><stop offset="1" stop-color="#d3d7ec"/></linearGradient><linearGradient id="linear-gradient-47" x1="35.43" y1="128.33" x2="74.33" y2="128.33" gradientUnits="userSpaceOnUse"><stop offset="0" stop-color="#dadced"/><stop offset="1" stop-color="#d6d9ed"/></linearGradient><linearGradient id="linear-gradient-48" x1="35.42" y1="128.21" x2="74.34" y2="128.21" gradientUnits="userSpaceOnUse"><stop offset="0" stop-color="#dddeee"/><stop offset="1" stop-color="#d8dbee"/></linearGradient><linearGradient id="linear-gradient-49" x1="35.39" y1="128.1" x2="74.34" y2="128.1" gradientUnits="userSpaceOnUse"><stop offset="0" stop-color="#e0e1f0"/><stop offset="1" stop-color="#dadef0"/></linearGradient><linearGradient id="linear-gradient-50" x1="35.48" y1="127.98" x2="74.24" y2="127.98" gradientUnits="userSpaceOnUse"><stop offset="0" stop-color="#e2e4f1"/><stop offset="1" stop-color="#dde0f1"/></linearGradient><linearGradient id="linear-gradient-51" x1="35.56" y1="127.86" x2="74.17" y2="127.86" gradientUnits="userSpaceOnUse"><stop offset="0" stop-color="#e5e7f3"/><stop offset="1" stop-color="#dfe3f3"/></linearGradient><linearGradient id="linear-gradient-52" x1="35.55" y1="127.75" x2="74.18" y2="127.75" gradientUnits="userSpaceOnUse"><stop offset="0" stop-color="#e8e9f4"/><stop offset="1" stop-color="#e1e5f4"/></linearGradient><linearGradient id="linear-gradient-53" x1="35.59" y1="127.63" x2="74.21" y2="127.63" gradientUnits="userSpaceOnUse"><stop offset="0" stop-color="#ebecf5"/><stop offset="1" stop-color="#e4e7f5"/></linearGradient><linearGradient id="linear-gradient-54" x1="35.58" y1="127.51" x2="74.14" y2="127.51" gradientUnits="userSpaceOnUse"><stop offset="0" stop-color="#eeeff7"/><stop offset="1" stop-color="#e6eaf7"/></linearGradient><linearGradient id="linear-gradient-55" x1="35.68" y1="127.4" x2="74.07" y2="127.4" gradientUnits="userSpaceOnUse"><stop offset="0" stop-color="#f1f1f8"/><stop offset="1" stop-color="#e8ecf8"/></linearGradient><linearGradient id="linear-gradient-56" x1="35.63" y1="127.28" x2="74.07" y2="127.28" gradientUnits="userSpaceOnUse"><stop offset="0" stop-color="#f4f4f9"/><stop offset="1" stop-color="#ebeef9"/></linearGradient><linearGradient id="linear-gradient-57" x1="35.7" y1="127.16" x2="74.03" y2="127.16" gradientUnits="userSpaceOnUse"><stop offset="0" stop-color="#f6f7fb"/><stop offset="1" stop-color="#edf1fb"/></linearGradient><linearGradient id="linear-gradient-58" x1="35.77" y1="127.04" x2="73.95" y2="127.04" gradientUnits="userSpaceOnUse"><stop offset="0" stop-color="#f9fafc"/><stop offset="1" stop-color="#eff3fc"/></linearGradient><linearGradient id="linear-gradient-59" x1="35.78" y1="126.93" x2="73.95" y2="126.93" gradientUnits="userSpaceOnUse"><stop offset="0" stop-color="#fcfcfe"/><stop offset="1" stop-color="#f2f6fe"/></linearGradient><linearGradient id="linear-gradient-60" x1="36.04" y1="124.36" x2="73.68" y2="124.36" xlink:href="#linear-gradient-3"/><linearGradient id="linear-gradient-61" x1="55.41" y1="131.87" x2="55.41" y2="85.3" gradientUnits="userSpaceOnUse"><stop offset="0" stop-color="#16f7d6"/><stop offset="0.04" stop-color="#28f8d9"/><stop offset="0.19" stop-color="#61fae3"/><stop offset="0.33" stop-color="#91fbec"/><stop offset="0.48" stop-color="#b9fdf3"/><stop offset="0.62" stop-color="#d7fef8"/><stop offset="0.75" stop-color="#edfefc"/><stop offset="0.88" stop-color="#fbfffe"/><stop offset="1" stop-color="#fff"/></linearGradient><linearGradient id="linear-gradient-62" x1="50.25" y1="122.4" x2="59.4" y2="122.4" gradientUnits="userSpaceOnUse"><stop offset="0" stop-color="#3e7ae8"/><stop offset="1" stop-color="#154baf"/></linearGradient><linearGradient id="linear-gradient-63" x1="48.46" y1="119.76" x2="61.19" y2="119.76" gradientUnits="userSpaceOnUse"><stop offset="0" stop-color="#154baf"/><stop offset="1" stop-color="#3e7ae8"/></linearGradient><linearGradient id="linear-gradient-64" x1="48.46" y1="114.54" x2="61.19" y2="114.54" xlink:href="#linear-gradient-62"/><linearGradient id="linear-gradient-65" x1="48.46" y1="121.39" x2="61.19" y2="121.39" xlink:href="#linear-gradient-62"/><linearGradient id="linear-gradient-66" x1="48.46" y1="118.96" x2="61.19" y2="118.96" xlink:href="#linear-gradient-62"/><linearGradient id="linear-gradient-67" x1="43.97" y1="103.15" x2="65.67" y2="103.15" gradientUnits="userSpaceOnUse"><stop offset="0" stop-color="#ffe957"/><stop offset="1" stop-color="#fcd24a"/></linearGradient><linearGradient id="linear-gradient-68" x1="51.74" y1="107.64" x2="57.91" y2="107.64" gradientUnits="userSpaceOnUse"><stop offset="0" stop-color="#3a4983"/><stop offset="1" stop-color="#282a55"/></linearGradient><linearGradient id="linear-gradient-69" x1="88.17" y1="159.97" x2="117.98" y2="177.34" gradientUnits="userSpaceOnUse"><stop offset="0.02" stop-color="#e3e8f9"/><stop offset="0.58" stop-color="#f6f8fd"/><stop offset="1" stop-color="#fff"/></linearGradient><linearGradient id="linear-gradient-70" x1="96.93" y1="160.89" x2="96.93" y2="142.64" gradientUnits="userSpaceOnUse"><stop offset="0" stop-color="#284c80"/><stop offset="1" stop-color="#0e8dc9"/></linearGradient><linearGradient id="linear-gradient-71" x1="90.99" y1="156.63" x2="90.99" y2="138.93" xlink:href="#linear-gradient-70"/><linearGradient id="linear-gradient-72" x1="72.44" y1="160.89" x2="97.69" y2="160.89" gradientUnits="userSpaceOnUse"><stop offset="0" stop-color="#f6fcff"/><stop offset="0.44" stop-color="#eef9fe"/><stop offset="0.55" stop-color="#daf3fd"/><stop offset="1" stop-color="#daf3fd"/></linearGradient><linearGradient id="linear-gradient-73" x1="351.64" y1="-29.14" x2="366.1" y2="-41.66" gradientTransform="matrix(0.87, -0.5, 1, 0.58, -190.32, 349.98)" xlink:href="#linear-gradient-23"/><linearGradient id="linear-gradient-74" x1="96.8" y1="114.46" x2="96.8" y2="104.51" gradientTransform="translate(-17.65 42.81) rotate(-4.85)" xlink:href="#linear-gradient-70"/><linearGradient id="linear-gradient-75" x1="911.22" y1="194.58" x2="911.22" y2="185.67" gradientTransform="translate(903.91 561.01) rotate(-163.81)" xlink:href="#linear-gradient-22"/><linearGradient id="linear-gradient-76" x1="90.2" y1="152.49" x2="90.2" y2="141.7" xlink:href="#linear-gradient-70"/><linearGradient id="linear-gradient-77" x1="85.53" y1="148.82" x2="85.53" y2="122.84" gradientTransform="matrix(1, 0, 0, 1, 0, 0)" xlink:href="#linear-gradient-22"/><linearGradient id="linear-gradient-78" x1="93.61" y1="108.35" x2="93.61" y2="99.47" gradientTransform="matrix(1, -0.05, 0.05, 1, -8.84, 30.88)" xlink:href="#linear-gradient-22"/><linearGradient id="linear-gradient-79" x1="113.66" y1="174.89" x2="143.47" y2="192.25" xlink:href="#linear-gradient-69"/><linearGradient id="linear-gradient-80" x1="122.42" y1="175.33" x2="122.42" y2="157.56" xlink:href="#linear-gradient-70"/><linearGradient id="linear-gradient-81" x1="116.48" y1="171.55" x2="116.48" y2="153.85" xlink:href="#linear-gradient-70"/><linearGradient id="linear-gradient-82" x1="97.93" y1="175.81" x2="123.18" y2="175.81" xlink:href="#linear-gradient-72"/><linearGradient id="linear-gradient-83" x1="351.44" y1="-3.48" x2="365.9" y2="-16" gradientTransform="matrix(0.87, -0.5, 1, 0.58, -190.32, 349.98)" xlink:href="#linear-gradient-23"/><linearGradient id="linear-gradient-84" x1="120.94" y1="131.48" x2="120.94" y2="121.53" gradientTransform="translate(-17.65 42.81) rotate(-4.85)" xlink:href="#linear-gradient-70"/><linearGradient id="linear-gradient-85" x1="115.82" y1="167.41" x2="115.82" y2="156.78" xlink:href="#linear-gradient-70"/><linearGradient id="linear-gradient-86" x1="104.04" y1="150.07" x2="116.06" y2="150.07" gradientUnits="userSpaceOnUse"><stop offset="0" stop-color="#fcd24a"/><stop offset="1" stop-color="#ffe957"/></linearGradient><linearGradient id="linear-gradient-87" x1="-1171.38" y1="1557.37" x2="-1149.49" y2="1557.37" gradientTransform="matrix(-0.29, -0.96, -0.96, 0.29, 1274.41, -1406.64)" xlink:href="#linear-gradient-67"/><linearGradient id="linear-gradient-88" x1="142.99" y1="188.98" x2="172.81" y2="206.34" xlink:href="#linear-gradient-69"/><linearGradient id="linear-gradient-89" x1="151.76" y1="189.89" x2="151.76" y2="171.64" xlink:href="#linear-gradient-70"/><linearGradient id="linear-gradient-90" x1="145.81" y1="185.64" x2="145.81" y2="167.94" xlink:href="#linear-gradient-70"/><linearGradient id="linear-gradient-91" x1="127.27" y1="189.9" x2="152.52" y2="189.9" xlink:href="#linear-gradient-72"/><linearGradient id="linear-gradient-92" x1="354.29" y1="23.39" x2="368.75" y2="10.87" gradientTransform="matrix(0.87, -0.5, 1, 0.58, -190.32, 349.98)" xlink:href="#linear-gradient-23"/><linearGradient id="linear-gradient-93" x1="148.98" y1="147.99" x2="148.98" y2="138.05" gradientTransform="translate(-17.65 42.81) rotate(-4.85)" xlink:href="#linear-gradient-70"/><linearGradient id="linear-gradient-94" x1="145.03" y1="181.5" x2="145.03" y2="170.7" xlink:href="#linear-gradient-70"/><linearGradient id="linear-gradient-95" x1="2557.51" y1="168.25" x2="2575.54" y2="168.25" gradientTransform="translate(-2418.72)" gradientUnits="userSpaceOnUse"><stop offset="0" stop-color="#0e7384"/><stop offset="1" stop-color="#14808a"/></linearGradient><linearGradient id="linear-gradient-96" x1="1013.95" y1="168.14" x2="1031.98" y2="168.14" gradientTransform="matrix(-1, 0, 0, 1, 1170.77, 0)" xlink:href="#linear-gradient-3"/><linearGradient id="linear-gradient-97" x1="2560.93" y1="167.55" x2="2573.38" y2="167.55" gradientTransform="translate(-2418.72)" gradientUnits="userSpaceOnUse"><stop offset="0" stop-color="#284c80"/><stop offset="1" stop-color="#1678b1"/></linearGradient><linearGradient id="linear-gradient-98" x1="2561.75" y1="169.46" x2="2565.42" y2="169.46" xlink:href="#linear-gradient-97"/><linearGradient id="linear-gradient-99" x1="1012.28" y1="-312.32" x2="1024.07" y2="-312.32" gradientTransform="matrix(-1, -0.58, 0, 1, 1170.77, 1062.09)" xlink:href="#linear-gradient-3"/><linearGradient id="linear-gradient-100" x1="147.22" y1="161.88" x2="157.97" y2="161.88" gradientTransform="matrix(1, 0, 0, 1, 0, 0)" xlink:href="#linear-gradient-22"/><linearGradient id="linear-gradient-101" x1="140.29" y1="177.82" x2="140.29" y2="151.84" gradientTransform="matrix(1, 0, 0, 1, 0, 0)" xlink:href="#linear-gradient-22"/><linearGradient id="linear-gradient-102" x1="146.07" y1="141.75" x2="146.07" y2="132.87" gradientTransform="matrix(1, -0.05, 0.05, 1, -8.84, 30.88)" xlink:href="#linear-gradient-22"/><linearGradient id="linear-gradient-103" x1="1114.4" y1="561.71" x2="1166.05" y2="561.71" gradientTransform="matrix(-1, -0.58, 0, 1, 1366.82, 153.11)" gradientUnits="userSpaceOnUse"><stop offset="0" stop-color="#80f3c8"/><stop offset="1" stop-color="#30e695"/></linearGradient></defs><title>online-lernen</title><g class="cls-1"><g id="illustration"><polygon class="cls-2" points="185.41 115.4 132.71 139.33 69.8 97.77 114.02 77.38 185.41 115.4"/><path class="cls-3" d="M95.68,24V63.25a6.78,6.78,0,0,1-3.07,5.32L63.79,85.2V38.89L92.61,22.25A2.21,2.21,0,0,1,94.67,22l.07,0A2.14,2.14,0,0,1,95.68,24Z"/><path class="cls-4" d="M63,38.44h0v0Z"/><path class="cls-5" d="M102.11,29.33,94.47,24.9h0l-.23-.13a2.26,2.26,0,0,0-2,.28l-7,4L63.38,41.69h0l.41,45L92.2,71.37a6.8,6.8,0,0,0,3.07-5.32V33.46Z"/><path class="cls-6" d="M102.43,26.72a2.76,2.76,0,0,0-1.38.42l-6.16,3.55-22.48,13a1.26,1.26,0,0,1-.37.13,7.93,7.93,0,0,1-5-1.08c-2.41-1.35-3-2.9-3.12-3.54a.52.52,0,0,1,.22-.52L92.61,22.25A2.21,2.21,0,0,1,94.67,22L94,21.61l-.07,0-.07,0a2.21,2.21,0,0,0-2.06.27L63.28,38.27a.53.53,0,0,0-.27.41l0,.24a5.91,5.91,0,0,0,3,4c2.68,1.74,2.49,2.65,3.68,2.44l2.58,44.68.79-.45,28-16.18a6.78,6.78,0,0,0,3.07-5.32V28.91a2.84,2.84,0,0,0-.28-1.32l.28-.15-.23-.14-.66-.38A1.56,1.56,0,0,0,102.43,26.72Z"/><path class="cls-7" d="M103.89,27.3a2.24,2.24,0,0,0-2,.29l-7,4s-21.19,12.71-22.6,13A9.13,9.13,0,0,1,66,43a5.91,5.91,0,0,1-3-4c0-.13,0-.17,0-.25V84.74c0,.23-.27,2.39,2.6,4.26a10.57,10.57,0,0,0,7.17,1.58,1.64,1.64,0,0,0,.48-.18l28.6-16.5a6.76,6.76,0,0,0,3.07-5.32V29.36a2.21,2.21,0,0,0-.8-1.92Z"/><path class="cls-8" d="M100.77,34.06V73.29a6.82,6.82,0,0,1-3.07,5.32L68.88,95.24V48.92L97.7,32.29A2.24,2.24,0,0,1,99.76,32l.06,0A2.12,2.12,0,0,1,100.77,34.06Z"/><path class="cls-9" d="M68.08,48.47h0s0,0,0,0v0Z"/><path class="cls-10" d="M107.2,39.37l-7.64-4.43h0l-.22-.13a2.25,2.25,0,0,0-2,.28l-7,4L68.47,51.72h0l.41,45,28.4-15.27a6.79,6.79,0,0,0,3.08-5.32V43.5Z"/><path class="cls-11" d="M107.51,36.75a2.83,2.83,0,0,0-1.37.42L100,40.73l-22.47,13a1.63,1.63,0,0,1-.37.13,8,8,0,0,1-5-1.08A5.8,5.8,0,0,1,69,49.21a.53.53,0,0,1,.23-.51L97.7,32.29A2.24,2.24,0,0,1,99.76,32l-.66-.36-.07,0-.07,0a2.24,2.24,0,0,0-2.06.27L68.37,48.31a.5.5,0,0,0-.27.4l0,.25a5.92,5.92,0,0,0,2.94,4c2.68,1.75,2.5,2.65,3.69,2.45l2.58,44.68.79-.46,28-16.17a6.78,6.78,0,0,0,3.07-5.32V38.94a2.74,2.74,0,0,0-.29-1.32l.29-.15-.23-.13-.66-.38A1.6,1.6,0,0,0,107.51,36.75Z"/><path class="cls-12" d="M109,37.34a2.26,2.26,0,0,0-2,.28l-7,4s-21.18,12.71-22.59,13A9.16,9.16,0,0,1,71.06,53a5.93,5.93,0,0,1-2.94-4c0-.14,0-.17,0-.26V94.78c0,.23-.27,2.39,2.59,4.25a10.47,10.47,0,0,0,7.18,1.58,1.72,1.72,0,0,0,.48-.17l28.6-16.5A6.8,6.8,0,0,0,110,78.62V39.4a2.24,2.24,0,0,0-.8-1.93Z"/><path class="cls-13" d="M116.89,36.23V75.45a6.81,6.81,0,0,1-3.07,5.33L85,97.41V51.09l28.81-16.63a2.25,2.25,0,0,1,2.06-.28l.07,0A2.13,2.13,0,0,1,116.89,36.23Z"/><path class="cls-14" d="M84.21,50.64h0v0Z"/><path class="cls-15" d="M123.32,41.53l-7.64-4.42h0l-.23-.12a2.2,2.2,0,0,0-2,.28l-7,4L84.6,53.89h0l.42,45,28.4-15.26a6.79,6.79,0,0,0,3.07-5.33V45.67Z"/><path class="cls-16" d="M123.64,38.92a2.76,2.76,0,0,0-1.38.42L116.1,42.9l-22.48,13a1.13,1.13,0,0,1-.36.14,8,8,0,0,1-5-1.08,5.8,5.8,0,0,1-3.12-3.55.5.5,0,0,1,.22-.51l28.43-16.41a2.25,2.25,0,0,1,2.06-.28l-.65-.37-.08,0-.06,0A2.24,2.24,0,0,0,113,34L84.5,50.48a.54.54,0,0,0-.28.4l0,.24a6,6,0,0,0,3,4c2.68,1.74,2.49,2.65,3.69,2.44l2.57,44.69.8-.46,28-16.17a6.8,6.8,0,0,0,3.08-5.32V41.11a2.86,2.86,0,0,0-.29-1.32l.29-.15-.23-.13-.67-.38A1.57,1.57,0,0,0,123.64,38.92Z"/><path class="cls-17" d="M125.11,39.51a2.22,2.22,0,0,0-2,.28l-7,4s-21.19,12.71-22.6,13a9.21,9.21,0,0,1-6.31-1.61,6,6,0,0,1-3-4c0-.14,0-.18,0-.26V96.94c0,.24-.27,2.4,2.6,4.26A10.45,10.45,0,0,0,94,102.78a1.78,1.78,0,0,0,.49-.17l28.59-16.5a6.79,6.79,0,0,0,3.07-5.32V41.56a2.23,2.23,0,0,0-.79-1.92Z"/><path class="cls-18" d="M126.46,42.3V81.52a6.82,6.82,0,0,1-3.08,5.33L94.57,103.48V57.16l28.81-16.63a2.27,2.27,0,0,1,2.07-.28l.06,0A2.14,2.14,0,0,1,126.46,42.3Z"/><path class="cls-19" d="M93.77,56.71h0v0Z"/><path class="cls-20" d="M132.88,47.6l-7.64-4.42h0l-.23-.12a2.2,2.2,0,0,0-2,.28l-7,4L94.16,60h0l.42,44.95L123,89.65A6.79,6.79,0,0,0,126,84.32V51.74Z"/><path class="cls-21" d="M133.2,45a2.73,2.73,0,0,0-1.37.42L125.66,49l-22.48,13a1.13,1.13,0,0,1-.36.14,8,8,0,0,1-5-1.08,5.8,5.8,0,0,1-3.12-3.55.5.5,0,0,1,.22-.51l28.43-16.41a2.27,2.27,0,0,1,2.07-.28l-.66-.37-.08,0-.06,0a2.24,2.24,0,0,0-2.06.27L94.06,56.55a.5.5,0,0,0-.27.4v.25a6,6,0,0,0,3,4c2.68,1.74,2.49,2.65,3.69,2.44L103,108.36l.8-.46,28-16.17a6.78,6.78,0,0,0,3.07-5.32V47.18a2.74,2.74,0,0,0-.29-1.32l.29-.15-.23-.13L134,45.2A1.57,1.57,0,0,0,133.2,45Z"/><path class="cls-22" d="M134.67,45.58a2.22,2.22,0,0,0-2,.28l-7,4s-21.19,12.71-22.6,13a9.21,9.21,0,0,1-6.31-1.61,6,6,0,0,1-3-4c0-.14,0-.18,0-.26l0,46.06c0,.24-.27,2.4,2.6,4.26a10.51,10.51,0,0,0,7.17,1.58,1.45,1.45,0,0,0,.49-.18l28.59-16.49a6.8,6.8,0,0,0,3.08-5.32V47.63a2.23,2.23,0,0,0-.8-1.92Z"/><polygon class="cls-23" points="266.35 192.03 225.91 213.6 193.56 193.64 230.91 177.28 266.35 192.03"/><path class="cls-24" d="M193.56,193.64c5.68,3.29,12.88,3.36,27.34-4.95,5.57-3.2,9.3-6.74,10.47-9.78.9-2.35.28-4.41-2.19-5.83-5.7-3.29-17.26-1-27.09,4.67a32.56,32.56,0,0,0-8.78,6.95h0a11.08,11.08,0,0,0-1.93,3.2A4.37,4.37,0,0,0,193.56,193.64Z"/><path class="cls-25" d="M191.32,188.22h0v.37a4.08,4.08,0,0,0,1.55,3.25c7.79,5.65,17.71-4.19,27.45-7.85,4-1.5,8.83-3.18,11.05-5.5a5.52,5.52,0,0,0,.38-1.76,3.58,3.58,0,0,0-.33-1.37h0c-.87-2.65-10-9.51-22.64-3.64a37.72,37.72,0,0,0-15.34,12.83l-.13.14h0a11.08,11.08,0,0,0-1.93,3.2c0,.08,0,.16,0,.24Z"/><path class="cls-26" d="M219.24,174.3c.81.65,2.72.54,4.39-.11a3.78,3.78,0,0,0,1.87-1.28.68.68,0,0,0-.2-1c-.81-.65-2.67-.57-4.35.08a5.14,5.14,0,0,0-1.53.87h0a1.7,1.7,0,0,0-.37.46A.68.68,0,0,0,219.24,174.3Z"/><polygon class="cls-27" points="262.74 149.7 225.36 170.72 184.06 140.91 210.72 127.22 262.74 149.7"/><path class="cls-28" d="M240.71,149.37,146.82,92.52a7.14,7.14,0,0,1-3.23-5.59L141.3,10.4c0-4,3.07-4.58,4.85-3.55l96.22,55.47a7.14,7.14,0,0,1,3.23,5.59v78.53C245.6,148.5,242.86,150.52,240.71,149.37Z"/><path class="cls-29" d="M213,134.61l-16.87,10.26a8.3,8.3,0,0,1-7.46,0l-22.55-13a4.06,4.06,0,0,1-2.17-4.43,3.7,3.7,0,0,1,1.67-2.52L183,117.28a8.26,8.26,0,0,1,7.44,0l23,10.33a3.87,3.87,0,0,1,1.76,2.49A4,4,0,0,1,213,134.61Z"/><path class="cls-30" d="M213,134.37l-16.87,10.26a8.28,8.28,0,0,1-7.45,0l-22.55-13a4,4,0,0,1-2.17-4.19,3.7,3.7,0,0,1,1.67-2.52L183,117.28a8.26,8.26,0,0,1,7.44,0l23,10.33a3.87,3.87,0,0,1,1.76,2.49A4,4,0,0,1,213,134.37Z"/><path class="cls-31" d="M213,134.13l-16.87,10.26a8.27,8.27,0,0,1-7.46,0l-22.54-13a3.94,3.94,0,0,1-2.17-4,3.7,3.7,0,0,1,1.67-2.52L183,117.28a8.26,8.26,0,0,1,7.44,0l23,10.33a3.63,3.63,0,0,1-.46,6.51Z"/><path class="cls-32" d="M213,133.9l-16.87,10.25a8.27,8.27,0,0,1-7.46,0l-22.55-13a3.91,3.91,0,0,1-2.16-3.71,3.7,3.7,0,0,1,1.67-2.52L183,117.28a8.26,8.26,0,0,1,7.44,0l23,10.33a3.87,3.87,0,0,1,1.76,2.49A3.93,3.93,0,0,1,213,133.9Z"/><path class="cls-33" d="M213,133.66l-16.87,10.26a8.3,8.3,0,0,1-7.46,0l-22.54-13a3.89,3.89,0,0,1-2.16-3.47,3.7,3.7,0,0,1,1.67-2.52L183,117.28a8.26,8.26,0,0,1,7.44,0l23,10.33a3.87,3.87,0,0,1,1.76,2.49A4,4,0,0,1,213,133.66Z"/><path class="cls-34" d="M213,133.42l-16.87,10.25a8.27,8.27,0,0,1-7.46,0l-22.55-13a3.92,3.92,0,0,1-2.15-3.23,3.7,3.7,0,0,1,1.67-2.52L183,117.28a8.26,8.26,0,0,1,7.44,0l23,10.33a3.87,3.87,0,0,1,1.76,2.49A4,4,0,0,1,213,133.42Z"/><path class="cls-35" d="M213,133.18l-16.88,10.26a8.28,8.28,0,0,1-7.45,0l-22.55-13a4,4,0,0,1-2.15-3,3.7,3.7,0,0,1,1.67-2.52L183,117.28a8.26,8.26,0,0,1,7.44,0l23,10.33a3.87,3.87,0,0,1,1.76,2.49A4.08,4.08,0,0,1,213,133.18Z"/><path class="cls-36" d="M215.23,130.11a4.3,4.3,0,0,1-2.23,2.83L196.12,143.2a8.3,8.3,0,0,1-7.46,0l-22.54-13a4.1,4.1,0,0,1-2.15-2.76,3.7,3.7,0,0,1,1.67-2.52L183,117.28a8.26,8.26,0,0,1,7.44,0l23,10.33A3.87,3.87,0,0,1,215.23,130.11Z"/><path class="cls-37" d="M214.08,130.73a3.82,3.82,0,0,1-1.06.88l-9.72,6-7.15,4.2a8.33,8.33,0,0,1-7.46,0l-22.55-13c-1.27-.73-1.76-1.76-1.44-2.7a2.93,2.93,0,0,1,1.45-1.58L183,114.26a8.26,8.26,0,0,1,7.44,0l22.55,13A2.92,2.92,0,0,1,214.5,129,1.91,1.91,0,0,1,214.08,130.73Z"/><path class="cls-38" d="M214.5,129a3,3,0,0,1-1.46,1.57l-16.87,10.25a8.28,8.28,0,0,1-7.45,0l-22.55-13.05a2.89,2.89,0,0,1-1.46-1.62,2.87,2.87,0,0,1,1.44-1.58L183,114.26a8.29,8.29,0,0,1,7.44,0l22.55,13A2.92,2.92,0,0,1,214.5,129Z"/><path class="cls-39" d="M214.5,129a3,3,0,0,1-1.45,1.57l0,0-13,7.87-3.88,2.36a8.28,8.28,0,0,1-7.45,0l-22.55-13.05a2.86,2.86,0,0,1-1.46-1.62,2.87,2.87,0,0,1,1.44-1.58L183,114.26a8.29,8.29,0,0,1,7.44,0l22.56,13A3,3,0,0,1,214.5,129Z"/><polygon class="cls-40" points="213.01 130.55 200.06 138.42 187.35 129.25 200.36 125.49 213.01 130.55"/><path class="cls-41" d="M192.63,130.26c-4.55,0-8.57-1.66-8.57-6.22V72.13a8.25,8.25,0,0,1,16.49,0V124C200.55,128.6,197.18,130.26,192.63,130.26Z"/><path class="cls-42" d="M240.08,149.07,144.53,93.91a7.14,7.14,0,0,1-3.23-5.59V10.4c0-2.05,1.45-2.89,3.23-1.86l95.55,55.17a7.14,7.14,0,0,1,3.23,5.59v77.91C243.31,149.27,241.86,150.1,240.08,149.07Z"/><path class="cls-43" d="M238.26,71v69.41a2.48,2.48,0,0,1-.32,1.32,1.5,1.5,0,0,1-.27.34,2.3,2.3,0,0,1-1.71-.33L148.37,91.3a6.34,6.34,0,0,1-2.87-5V16.93a2.23,2.23,0,0,1,.57-1.66,1.27,1.27,0,0,1,.44-.07h0a2.59,2.59,0,0,1,1.28.4L235.38,66A6.35,6.35,0,0,1,238.26,71Z"/><path class="cls-44" d="M158,107.1a3.73,3.73,0,0,0,2.53,3.43.51.51,0,0,0,.48-.06,1.92,1.92,0,0,0,.51-.58c.18-.37-1.64-3.18-3.24-3.11A.32.32,0,0,0,158,107.1Z"/><path class="cls-45" d="M159.63,106.15c-1.83,1.54-2.66,1.59-2.66,1.59h0a3.22,3.22,0,0,0-1.45.16c-1.09.45-3.73.56-3.3,1.55s2.49.27,2.19.66-5.35,3.67-5,4.3,1.16.32,1.16.32-1.18,1.08-.88,1.62.94.44,1.57.05c0,0-.2,1.29,1.56.34,0,0,0,.58,1.3,0a12.46,12.46,0,0,0,5.66-5,.09.09,0,0,0,0-.06,25.85,25.85,0,0,1,2.07-2.61Z"/><path class="cls-46" d="M158.19,106.8a5.38,5.38,0,0,1,2.8,3.67s12.8-8,14.58-10.79a50.55,50.55,0,0,0,2.64-5.36c.31-.64.6-1.3.89-2a4.74,4.74,0,0,0-.12-1.74,12.54,12.54,0,0,1-.69-10.6c1.63-4.34.3-7.82,1.79-9.39a7.67,7.67,0,0,0-.77.36l0,0c-3.76,2.13-5.21,9.11-5.6,11.85,0,.1-1.93,9.67-3.29,12.32S159.17,106,158.19,106.8Z"/><path class="cls-47" d="M179,90.58a5,5,0,0,1,.13,1.75c-.3.69-.59,1.35-.89,2a9,9,0,0,0,0-3.39s-4.08-5-1.83-10.94c1.62-4.32,1.43-7.43,2.88-9l0,0a6.55,6.55,0,0,1,.77-.35c-1.49,1.56-.29,5.42-1.93,9.77A11.23,11.23,0,0,0,179,90.58Z"/><path class="cls-48" d="M203.4,80.18a1.35,1.35,0,0,1,0,.18,1.29,1.29,0,0,1,0,.19l-.12.43c-.44,1.61-1.66,4.5-2.85,7.72-.43,1.15-.86,2.35-1.25,3.55-.11.39-.23.79-.35,1.2h0l-.06.24a8,8,0,0,0-.28,1,0,0,0,0,0,0,0l-.18.69c-.18.69-.34,1.36-.45,2,0,.09,0,.18,0,.27,0,.24-.06.47-.09.7a5.77,5.77,0,0,0-.07.8,9.21,9.21,0,0,0,0,2.17.8.8,0,0,1,0,.23l.06.39c0,.07,0,.15,0,.22a.78.78,0,0,0,0,.16c0,.19.06.38.1.59s.07.42.11.64.09.44.13.69a1.29,1.29,0,0,0,0,.19.69.69,0,0,1,0,.2c.08.33.14.69.22,1s.09.49.15.75,0,.33.09.49c.1.5.19,1,.29,1.57.07.34.13.67.18,1a0,0,0,0,1,0,0c0,.1,0,.21,0,.32l.48,2.66q.25,1.51.51,3.18c.1.68.21,1.38.31,2.1.07.5.13,1,.2,1.56s.17,1.32.25,2L195,118l-19.22-11a60.26,60.26,0,0,0,3.28-14.61,5.11,5.11,0,0,0-.12-1.76s-3.44-4.89-2-10.59c1.11-4.51,1.64-7.83,3.13-9.37a2.63,2.63,0,0,1,2.19-.85c3.44.19,10.52,1.11,12,2,0,0,7,4.18,8.81,7.09v0A2,2,0,0,1,203.4,80.18Z"/><path class="cls-47" d="M200.77,120.37c0,.33.08.66.12,1L195,118a1.54,1.54,0,0,1,0-.17,33.38,33.38,0,0,1-.92-6l-.17.17L186,107.41a14.61,14.61,0,0,0,2.36-2.72c1.24-2.37,3.06-11.08,3.36-12.59.31-2.26,2.21-13.81,9.25-13.81a8.54,8.54,0,0,1,1.29.13l.09,0,.07,0a4,4,0,0,1,.63.37v0a2,2,0,0,1,.38,1.31,1.35,1.35,0,0,1,0,.18,1.29,1.29,0,0,1,0,.19l.08,0c-.68,2.36-2.84,7.22-4.4,12.09-.09.25-.17.5-.25.76h0l-.06.24a8,8,0,0,0-.28,1,0,0,0,0,0,0,0l-.18.69c-.18.69-.33,1.36-.44,2a2.56,2.56,0,0,1,0,.27l0,.27-.06.43a5.77,5.77,0,0,0-.07.8,9.21,9.21,0,0,0,0,2.17.8.8,0,0,1,0,.23l.06.39c0,.07,0,.15,0,.22a.78.78,0,0,0,0,.16c0,.19.06.38.1.59s.08.4.12.63.09.45.13.7a1.25,1.25,0,0,1,0,.19c.08.4.17.81.25,1.25,0,.25.09.49.15.75s0,.33.09.49c.09.5.19,1,.29,1.57.06.34.13.67.18,1a0,0,0,0,1,0,0l.06.32c.15.84.31,1.72.47,2.66s.34,2.07.51,3.18c.11.68.21,1.38.32,2.09.07.52.12,1,.19,1.57C200.69,119.7,200.73,120,200.77,120.37Z"/><path class="cls-49" d="M180.2,61.08s-.07,14.91,1.71,14.85,6.71-1.3,7.67-3.65,2-7.77.5-9.56-12.09-6-11.79-5.35S180.23,60.25,180.2,61.08Z"/><path class="cls-50" d="M186.84,72.14s.59,3.83,1.06,4.38c1.17,1.37,6.77.8,7.93-2.12L195,66.27Z"/><path class="cls-45" d="M187,48.09c-3.71,1-7.68,7.36-6.6,14.63,1.36,9.15,2.88,13.81,9.67,9.23,3.88-2.63,8.68-4.78,7.17-16.65C196.51,49.41,190.11,47.27,187,48.09Z"/><path class="cls-45" d="M178.18,115.7a9.23,9.23,0,0,1-4.06,2,3.64,3.64,0,0,0-1.79.14c-1.17.49-4,.6-3.55,1.66s2.68.3,2.36.71-5.77,4-5.4,4.64,1.26.35,1.26.35-1.28,1.17-.95,1.74,1,.48,1.69.06c0,0-.22,1.39,1.68.36,0,0,0,.63,1.4,0a13.8,13.8,0,0,0,5.85-5,.66.66,0,0,0,.12-.22h0c0-.1.11-.2.16-.31.65-1,2.22-1.58,2.91-2.6S178.18,115.7,178.18,115.7Z"/><path class="cls-51" d="M192.63,91.46c.49-3.59,2.86-15.14,9.33-13.17,1.38.42,2.35,1.51,2.25,5.61a27.06,27.06,0,0,1-2,8.07l0,0c-.14.36-.27.69-.4,1-1.31,3.25-5.39,13.23-7.16,16-1.91,3-13.42,10.11-15.86,11.6a1.05,1.05,0,0,1-.93,0,4,4,0,0,1-2.19-3.11,1.16,1.16,0,0,1,.41-.87c2.13-1.77,11.89-9.92,13.17-12.39C190.62,101.55,192.61,91.56,192.63,91.46Z"/><path class="cls-52" d="M185.48,72.76l-.15,0-1.27-.2a.92.92,0,0,1,.3-1.81l1.26.21a.92.92,0,0,1,.76,1A.93.93,0,0,1,185.48,72.76Z"/><path class="cls-53" d="M186.88,72.25a7.35,7.35,0,0,1-.89,0,.3.3,0,0,1-.27-.33.3.3,0,0,1,.34-.27s3.73.39,6.15-1.65a6.3,6.3,0,0,0,2.09-4.67.31.31,0,0,1,.32-.29.3.3,0,0,1,.29.32,6.87,6.87,0,0,1-2.31,5.11A9.06,9.06,0,0,1,186.88,72.25Z"/><path class="cls-49" d="M182.22,49.12c-1.34,1.5-3.55,4-4,7-.33,1.93,1.45,4.11,5.93,3.59,1.56-.18,2.7.24,5.69-1,1.25-.52,1.53,4.46,1.53,6,0,3.36-3.41,15.36,1.08,13.93,4.26-1.35,8.29-.34,9.19-8.63s1-20.67-7.06-22C194.55,47.92,188.75,41.87,182.22,49.12Z"/><path class="cls-54" d="M78.76,129.15a7.44,7.44,0,0,1-2.76,5.5c-3.19,2.92-8.94,5-16,5.7l-.82.07-.83.05c-1.13.08-2.28.11-3.45.11-.6,0-1.19,0-1.78,0s-1.11,0-1.66-.08-1.11-.07-1.66-.12c-7.07-.69-12.81-2.77-16-5.68v0a7.44,7.44,0,0,1-2.76-5.5c0-6.52,10.27-11.43,23.88-11.43S78.76,122.63,78.76,129.15Z"/><path class="cls-31" d="M73,131.41h0c-2.08,3.22-8.7,6.7-18.11,6.7s-16-3.48-18.11-6.7h0a7.08,7.08,0,0,1-1.6-5,.08.08,0,0,1,0,0h0a5.16,5.16,0,0,1,.13-.89h0a1.18,1.18,0,0,1,0-.2s0-.06,0-.08,0,0,0,0a.83.83,0,0,1,0-.15.75.75,0,0,1,0-.16h0l0-.09,0-.07.06-.19a.06.06,0,0,1,0,0,.14.14,0,0,0,0-.07s0,0,0,0l0-.08.06-.15s0,0,0,0a1.46,1.46,0,0,1,.07-.19h0s0,0,0-.06a8.82,8.82,0,0,1,1.54-2.37c1.68-1.79,5.5-1.14,9.15.1a35.19,35.19,0,0,1,16.74,0c3.63-1.23,7.43-1.89,9.12-.13t0,0a8.59,8.59,0,0,1,1.54,2.35l0,.07h0l.08.18a.36.36,0,0,0,0,.09v0a1.11,1.11,0,0,1,.07.16h0a.24.24,0,0,1,0,.08s0,0,0,0l0,.09a.25.25,0,0,0,0,.07,2.76,2.76,0,0,1,.08.27l0,0v0a.84.84,0,0,1,0,.17v0s0,0,0,.06,0,.16,0,.23a8.28,8.28,0,0,1,.13.89h0v0A7.06,7.06,0,0,1,73,131.41Z"/><path class="cls-55" d="M74.59,126.64A7,7,0,0,1,73,131.21h0c-2.09,3.21-8.7,6.67-18.09,6.67s-16-3.46-18.08-6.67h0a6.91,6.91,0,0,1-1.63-4.57v-.18a.08.08,0,0,1,0,0h0a5.16,5.16,0,0,1,.13-.89h0a1.18,1.18,0,0,1,0-.2s0-.06,0-.08,0,0,0,0a.83.83,0,0,1,0-.15.75.75,0,0,1,0-.16h0l0-.09,0-.07.06-.19a.06.06,0,0,1,0,0,.14.14,0,0,0,0-.07s0,0,0,0l0-.08.06-.15s0,0,0,0a1.46,1.46,0,0,1,.07-.19h0s0,0,0-.06a8.82,8.82,0,0,1,1.54-2.37c1.68-1.79,5.5-1.14,9.15.1a35.19,35.19,0,0,1,16.74,0c3.63-1.23,7.43-1.89,9.12-.13t0,0a8.59,8.59,0,0,1,1.54,2.35l0,.07h0l.08.18a.36.36,0,0,0,0,.09v0a1.11,1.11,0,0,1,.07.16h0a.24.24,0,0,1,0,.08s0,0,0,0l0,.09a.25.25,0,0,0,0,.07,2.76,2.76,0,0,1,.08.27l0,0v0a.84.84,0,0,1,0,.17v0s0,0,0,.06,0,.16,0,.23a8.28,8.28,0,0,1,.13.89h0v0C74.58,126.52,74.59,126.58,74.59,126.64Z"/><path class="cls-56" d="M74.59,126.64A6.82,6.82,0,0,1,72.93,131h0c-2.08,3.19-8.68,6.64-18.06,6.64s-16-3.45-18.06-6.64h0a6.79,6.79,0,0,1-1.65-4.36v-.18a.08.08,0,0,1,0,0h0a5.16,5.16,0,0,1,.13-.89h0a1.18,1.18,0,0,1,0-.2s0-.06,0-.08,0,0,0,0a.83.83,0,0,1,0-.15.75.75,0,0,1,0-.16h0l0-.09,0-.07.06-.19a.06.06,0,0,1,0,0,.14.14,0,0,0,0-.07s0,0,0,0l0-.08.06-.15s0,0,0,0a1.46,1.46,0,0,1,.07-.19h0s0,0,0-.06a8.82,8.82,0,0,1,1.54-2.37c1.68-1.79,5.5-1.14,9.15.1a35.19,35.19,0,0,1,16.74,0c3.63-1.23,7.43-1.89,9.12-.13t0,0a8.59,8.59,0,0,1,1.54,2.35l0,.07h0l.08.18a.36.36,0,0,0,0,.09v0a1.11,1.11,0,0,1,.07.16h0a.24.24,0,0,1,0,.08s0,0,0,0l0,.09a.25.25,0,0,0,0,.07,2.76,2.76,0,0,1,.08.27l0,0v0a.84.84,0,0,1,0,.17v0s0,0,0,.06,0,.16,0,.23a8.28,8.28,0,0,1,.13.89h0v0C74.58,126.52,74.59,126.58,74.59,126.64Z"/><path class="cls-57" d="M74.48,126.61s0,.09,0,.13a7.22,7.22,0,0,1-1.57,4.06h0c-2.08,3.18-8.66,6.62-18,6.62s-16-3.44-18-6.62h0a7.36,7.36,0,0,1-1.57-4,2.18,2.18,0,0,0,0-.25.74.74,0,0,1,0-.15c0-.22,0-.42,0-.63a3,3,0,0,1,0-.42s0-.06,0-.08,0,0,0,0a.83.83,0,0,1,0-.15.75.75,0,0,1,0-.16h0l0-.09,0-.07.06-.19a.06.06,0,0,1,0,0,.14.14,0,0,0,0-.07s0,0,0,0l0-.08.06-.15s0,0,0,0a1.46,1.46,0,0,1,.07-.19h0s0,0,0-.06a8.82,8.82,0,0,1,1.54-2.37c1.68-1.79,5.5-1.14,9.15.1a35.19,35.19,0,0,1,16.74,0c3.63-1.23,7.43-1.89,9.12-.13t0,0a8.59,8.59,0,0,1,1.54,2.35l0,.07h0l.08.18a.36.36,0,0,0,0,.09v0a1.11,1.11,0,0,1,.07.16h0a.24.24,0,0,1,0,.08s0,0,0,0l0,.09a.25.25,0,0,0,0,.07,2.76,2.76,0,0,1,.08.27l0,0v0a.84.84,0,0,1,0,.17v0s0,0,0,.06a.2.2,0,0,1,0,.07A6.38,6.38,0,0,1,74.48,126.61Z"/><path class="cls-58" d="M74.48,126.61s0,.09,0,.13a7,7,0,0,1-1.59,3.85h0c-2.08,3.16-8.66,6.58-18,6.58s-15.93-3.42-18-6.58h0a7.17,7.17,0,0,1-1.6-3.82,2.18,2.18,0,0,0,0-.25.74.74,0,0,1,0-.15,4,4,0,0,1,0-.85h0a1.18,1.18,0,0,1,0-.2s0-.06,0-.08,0,0,0,0a.83.83,0,0,1,0-.15.75.75,0,0,1,0-.16h0l0-.09,0-.07.06-.19a.06.06,0,0,1,0,0,.14.14,0,0,0,0-.07s0,0,0,0l0-.08.06-.15s0,0,0,0a1.46,1.46,0,0,1,.07-.19h0s0,0,0-.06a8.82,8.82,0,0,1,1.54-2.37c1.68-1.79,5.5-1.14,9.15.1a35.19,35.19,0,0,1,16.74,0c3.63-1.23,7.43-1.89,9.12-.13t0,0a8.59,8.59,0,0,1,1.54,2.35l0,.07h0l.08.18a.36.36,0,0,0,0,.09v0a1.11,1.11,0,0,1,.07.16h0a.24.24,0,0,1,0,.08s0,0,0,0l0,.09a.25.25,0,0,0,0,.07,2.76,2.76,0,0,1,.08.27l0,0v0a.84.84,0,0,1,0,.17v0s0,0,0,.06,0,.16,0,.23A5.61,5.61,0,0,1,74.48,126.61Z"/><path class="cls-59" d="M74.42,125.94v0a7.24,7.24,0,0,1-1.57,4.41h0c-2.07,3.14-8.64,6.55-18,6.55s-15.9-3.41-18-6.55c0,0,0,0,0,0a7.82,7.82,0,0,1-1.41-2.94s0-.09,0-.15a7,7,0,0,1-.1-2s0-.09,0-.13a.83.83,0,0,1,0-.15.75.75,0,0,1,0-.16h0l0-.09,0-.07.06-.19a.06.06,0,0,1,0,0,.14.14,0,0,0,0-.07s0,0,0,0l0-.08.06-.15s0,0,0,0a1.46,1.46,0,0,1,.07-.19h0s0,0,0-.06a8.82,8.82,0,0,1,1.54-2.37c1.68-1.79,5.5-1.14,9.15.1a35.19,35.19,0,0,1,16.74,0c3.63-1.23,7.43-1.89,9.12-.13t0,0a8.59,8.59,0,0,1,1.54,2.35l0,.07h0l.08.18a.36.36,0,0,0,0,.09v0a1.11,1.11,0,0,1,.07.16h0a.24.24,0,0,1,0,.08s0,0,0,0l0,.09a.25.25,0,0,0,0,.07,2.76,2.76,0,0,1,.08.27l0,0v0a.84.84,0,0,1,0,.17v.06A5.32,5.32,0,0,1,74.42,125.94Z"/><path class="cls-60" d="M74.42,125.94v0a6.91,6.91,0,0,1-1.6,4.2h0c-2.07,3.14-8.63,6.52-18,6.52s-15.88-3.38-18-6.52h0a7.17,7.17,0,0,1-1.44-2.73s0-.09,0-.15a5.6,5.6,0,0,1-.16-1.56,1.7,1.7,0,0,1,0-.22h0a1.18,1.18,0,0,1,0-.2s0-.06,0-.08,0,0,0,0a.83.83,0,0,1,0-.15.75.75,0,0,1,0-.16h0l0-.09,0-.07.06-.19a.06.06,0,0,1,0,0,.14.14,0,0,0,0-.07s0,0,0,0l0-.08.06-.15s0,0,0,0a1.46,1.46,0,0,1,.07-.19h0s0,0,0-.06a8.82,8.82,0,0,1,1.54-2.37c1.68-1.79,5.5-1.14,9.15.1a35.19,35.19,0,0,1,16.74,0c3.63-1.23,7.43-1.89,9.12-.13t0,0a8.59,8.59,0,0,1,1.54,2.35l0,.07h0l.08.18a.36.36,0,0,0,0,.09v0a1.11,1.11,0,0,1,.07.16h0a.24.24,0,0,1,0,.08s0,0,0,0l0,.09a.25.25,0,0,0,0,.07,2.76,2.76,0,0,1,.08.27l0,0v0a.84.84,0,0,1,0,.17v0s0,0,0,.06a.2.2,0,0,1,0,.07A5.56,5.56,0,0,1,74.42,125.94Z"/><path class="cls-61" d="M72.79,130h0c-2.07,3.12-8.62,6.49-17.93,6.49S39,133.11,36.94,130h0a6.83,6.83,0,0,1-1.6-4.65s0-.06,0-.09,0,0,0,0a.83.83,0,0,1,0-.15.75.75,0,0,1,0-.16h0l0-.09,0-.07.06-.19a.06.06,0,0,1,0,0,.14.14,0,0,0,0-.07s0,0,0,0l0-.08.06-.15s0,0,0,0a1.46,1.46,0,0,1,.07-.19h0s0,0,0-.06a8.82,8.82,0,0,1,1.54-2.37c1.68-1.79,5.5-1.14,9.15.1a35.19,35.19,0,0,1,16.74,0c3.63-1.23,7.43-1.89,9.12-.13t0,0a8.59,8.59,0,0,1,1.54,2.35l0,.07h0l.08.18a.36.36,0,0,0,0,.09v0a1.11,1.11,0,0,1,.07.16h0a.24.24,0,0,1,0,.08s0,0,0,0l0,.09a.25.25,0,0,0,0,.07,2.76,2.76,0,0,1,.08.27l0,0v0a.84.84,0,0,1,0,.17v.06A6.8,6.8,0,0,1,72.79,130Z"/><path class="cls-62" d="M74.33,125.38v.19a7.1,7.1,0,0,1-1.56,4.2h0c-2.07,3.11-8.6,6.47-17.9,6.47S39,132.89,37,129.78h0a7.58,7.58,0,0,1-1.47-3.51,4.45,4.45,0,0,1-.05-.5v-.13a7.61,7.61,0,0,1,0-.83l0-.07.06-.19a.06.06,0,0,1,0,0,.14.14,0,0,0,0-.07s0,0,0,0l0-.08.06-.15s0,0,0,0a1.46,1.46,0,0,1,.07-.19h0s0,0,0-.06a8.82,8.82,0,0,1,1.54-2.37c1.68-1.79,5.5-1.14,9.15.1a35.19,35.19,0,0,1,16.74,0c3.63-1.23,7.43-1.89,9.12-.13t0,0a8.59,8.59,0,0,1,1.54,2.35l0,.07h0l.08.18a.36.36,0,0,0,0,.09v0a1.11,1.11,0,0,1,.07.16h0a.24.24,0,0,1,0,.08s0,0,0,0l0,.09a.25.25,0,0,0,0,.07,2.76,2.76,0,0,1,.08.27C74.32,125.09,74.33,125.24,74.33,125.38Z"/><path class="cls-63" d="M74.34,125.23s0,.1,0,.15v.19a6.84,6.84,0,0,1-1.59,4h0c-2.06,3.1-8.59,6.44-17.87,6.44S39.05,132.67,37,129.57h0a7.68,7.68,0,0,1-1.4-2.89l0-.13a7.49,7.49,0,0,1-.11-.79v-.13a6.12,6.12,0,0,1,0-.74h0l0-.09,0-.07.06-.19a.06.06,0,0,1,0,0,.14.14,0,0,0,0-.07s0,0,0,0l0-.08.06-.15s0,0,0,0a1.46,1.46,0,0,1,.07-.19h0s0,0,0-.06a8.82,8.82,0,0,1,1.54-2.37c1.68-1.79,5.5-1.14,9.15.1a35.19,35.19,0,0,1,16.74,0c3.63-1.23,7.43-1.89,9.12-.13t0,0a8.59,8.59,0,0,1,1.54,2.35l0,.07h0l.08.18a.36.36,0,0,0,0,.09v0a1.11,1.11,0,0,1,.07.16h0a.24.24,0,0,1,0,.08s0,0,0,0l0,.09a.25.25,0,0,0,0,.07,2.76,2.76,0,0,1,.08.27l0,0C74.33,125.07,74.34,125.15,74.34,125.23Z"/><path class="cls-64" d="M74.34,125.23s0,.1,0,.15v0a6.49,6.49,0,0,1-1.62,4h0c-2.06,3.08-8.58,6.41-17.85,6.41S39.08,132.45,37,129.37h0a7.25,7.25,0,0,1-1.43-2.68l0-.13-.06-.29a5.65,5.65,0,0,1-.1-1.21.75.75,0,0,1,0-.16h0l0-.09,0-.07.06-.19a.06.06,0,0,1,0,0,.14.14,0,0,0,0-.07s0,0,0,0l0-.08.06-.15s0,0,0,0a1.46,1.46,0,0,1,.07-.19h0s0,0,0-.06a8.82,8.82,0,0,1,1.54-2.37c1.68-1.79,5.5-1.14,9.15.1a35.19,35.19,0,0,1,16.74,0c3.63-1.23,7.43-1.89,9.12-.13t0,0a8.59,8.59,0,0,1,1.54,2.35l0,.07h0l.08.18a.36.36,0,0,0,0,.09v0a1.11,1.11,0,0,1,.07.16h0a.24.24,0,0,1,0,.08s0,0,0,0l0,.09a.25.25,0,0,0,0,.07,2.76,2.76,0,0,1,.08.27l0,0v0A1.48,1.48,0,0,1,74.34,125.23Z"/><path class="cls-65" d="M74.23,124.68a6.87,6.87,0,0,1-1.54,4.48h0c-2.06,3.06-8.56,6.38-17.82,6.38S39.1,132.23,37,129.17h0a6.89,6.89,0,0,1-1.55-4.43l.06-.19a.06.06,0,0,1,0,0,.14.14,0,0,0,0-.07s0,0,0,0l0-.08.06-.15s0,0,0,0a1.46,1.46,0,0,1,.07-.19h0s0,0,0-.06a8.82,8.82,0,0,1,1.54-2.37c1.68-1.79,5.5-1.14,9.15.1a35.19,35.19,0,0,1,16.74,0c3.63-1.23,7.43-1.89,9.12-.13t0,0a8.59,8.59,0,0,1,1.54,2.35l0,.07h0l.08.18a.36.36,0,0,0,0,.09v0a1.11,1.11,0,0,1,.07.16h0a.24.24,0,0,1,0,.08s0,0,0,0l0,.09A.25.25,0,0,0,74.23,124.68Z"/><path class="cls-66" d="M74.16,124.48a2.54,2.54,0,0,1,0,.39V125l0,.37v0A7.47,7.47,0,0,1,72.66,129h0c-2.05,3.06-8.55,6.35-17.79,6.35S39.12,132,37.07,129h0a7.21,7.21,0,0,1-1.5-3.94.66.66,0,0,1,0-.14,2.28,2.28,0,0,1,0-.37.14.14,0,0,0,0-.07s0,0,0,0l0-.08.06-.15s0,0,0,0a1.46,1.46,0,0,1,.07-.19h0s0,0,0-.06a8.82,8.82,0,0,1,1.54-2.37c1.68-1.79,5.5-1.14,9.15.1a35.19,35.19,0,0,1,16.74,0c3.63-1.23,7.43-1.89,9.12-.13t0,0a8.59,8.59,0,0,1,1.54,2.35l0,.07h0l.08.18a.36.36,0,0,0,0,.09v0a1.11,1.11,0,0,1,.07.16h0A.24.24,0,0,1,74.16,124.48Z"/><path class="cls-67" d="M74.18,124.52c0,.11,0,.23,0,.35V125a5.34,5.34,0,0,1-.12.77s0,.09,0,.13a7.43,7.43,0,0,1-1.39,2.85h0c-2.05,3-8.53,6.32-17.76,6.32s-15.71-3.29-17.76-6.32h0A7,7,0,0,1,35.57,125a.66.66,0,0,1,0-.14c0-.11,0-.22,0-.33a.06.06,0,0,1,0,0,.14.14,0,0,0,0-.07s0,0,0,0l0-.08.06-.15s0,0,0,0a1.46,1.46,0,0,1,.07-.19h0s0,0,0-.06a8.82,8.82,0,0,1,1.54-2.37c1.68-1.79,5.5-1.14,9.15.1a35.19,35.19,0,0,1,16.74,0c3.63-1.23,7.43-1.89,9.12-.13t0,0a8.59,8.59,0,0,1,1.54,2.35l0,.07h0l.08.18a.36.36,0,0,0,0,.09v0a1.11,1.11,0,0,1,.07.16h0a.24.24,0,0,1,0,.08S74.17,124.5,74.18,124.52Z"/><path class="cls-68" d="M74.18,124.52l0,.09a7,7,0,0,1-.08.76v0a2.62,2.62,0,0,1-.09.38s0,.09,0,.13a6.94,6.94,0,0,1-1.42,2.64h0c-2,3-8.53,6.3-17.74,6.3s-15.68-3.27-17.74-6.3h0a7,7,0,0,1-1.51-3.82c0-.1,0-.21,0-.31l0-.08.06-.15s0,0,0,0a1.46,1.46,0,0,1,.07-.19h0s0,0,0-.06a8.82,8.82,0,0,1,1.54-2.37c1.68-1.79,5.5-1.14,9.15.1a35.19,35.19,0,0,1,16.74,0c3.63-1.23,7.43-1.89,9.12-.13t0,0a8.59,8.59,0,0,1,1.54,2.35l0,.07h0l.08.18a.36.36,0,0,0,0,.09v0a1.11,1.11,0,0,1,.07.16h0a.24.24,0,0,1,0,.08S74.17,124.5,74.18,124.52Z"/><path class="cls-69" d="M74.07,124.24a1.11,1.11,0,0,1,.07.16h0a6.67,6.67,0,0,1-1.57,3.94h0c-2,3-8.51,6.26-17.71,6.26s-15.66-3.25-17.71-6.26h0a6.69,6.69,0,0,1-1.54-3.62,1.43,1.43,0,0,1,0-.29s0,0,0,0l0-.08.06-.15s0,0,0,0a1.46,1.46,0,0,1,.07-.19h0s0,0,0-.06a8.82,8.82,0,0,1,1.54-2.37c1.68-1.79,5.5-1.14,9.15.1a35.19,35.19,0,0,1,16.74,0c3.63-1.23,7.43-1.89,9.12-.13t0,0a8.59,8.59,0,0,1,1.54,2.35l0,.07h0l.08.18a.36.36,0,0,0,0,.09Z"/><path class="cls-70" d="M74.07,124.22v0a6.76,6.76,0,0,1-1.52,3.89h0c-2,3-8.5,6.24-17.68,6.24s-15.64-3.24-17.68-6.24h0a7.53,7.53,0,0,1-1.09-2,6.67,6.67,0,0,1-.41-2s0,0,0,0a1.46,1.46,0,0,1,.07-.19h0s0,0,0-.06a8.82,8.82,0,0,1,1.54-2.37c1.68-1.79,5.5-1.14,9.15.1a35.19,35.19,0,0,1,16.74,0c3.63-1.23,7.43-1.89,9.12-.13t0,0a8.59,8.59,0,0,1,1.54,2.35l0,.07h0l.08.18A.36.36,0,0,0,74.07,124.22Z"/><path class="cls-71" d="M74.07,124.22a6.71,6.71,0,0,1-1.55,3.71h0c-2,3-8.49,6.2-17.66,6.2s-15.62-3.22-17.65-6.2h0a7.11,7.11,0,0,1-1.11-1.78,5.76,5.76,0,0,1-.47-1.82l.06-.15s0,0,0,0a1.46,1.46,0,0,1,.07-.19h0s0,0,0-.06a8.82,8.82,0,0,1,1.54-2.37c1.68-1.79,5.5-1.14,9.15.1a35.19,35.19,0,0,1,16.74,0c3.63-1.23,7.43-1.89,9.12-.13t0,0a8.59,8.59,0,0,1,1.54,2.35l0,.07h0l.08.18A.36.36,0,0,0,74.07,124.22Z"/><path class="cls-72" d="M74,124l.08.18a6.6,6.6,0,0,1-1.54,3.59h0c-2,3-8.47,6.18-17.63,6.18s-15.59-3.21-17.62-6.18h0a6.66,6.66,0,0,1-1.52-3.57,1.46,1.46,0,0,1,.07-.19h0s0,0,0-.06a8.82,8.82,0,0,1,1.54-2.37c1.68-1.79,5.5-1.14,9.15.1a35.19,35.19,0,0,1,16.74,0c3.63-1.23,7.43-1.89,9.12-.13t0,0a8.59,8.59,0,0,1,1.54,2.35l0,.07Z"/><path class="cls-73" d="M74,124a6.91,6.91,0,0,1-1.48,3.57h0c-2,3-8.46,6.14-17.6,6.14s-15.57-3.19-17.6-6.14h0A7,7,0,0,1,35.77,124h0s0,0,0-.06a8.82,8.82,0,0,1,1.54-2.37c1.68-1.79,5.5-1.14,9.15.1a35.19,35.19,0,0,1,16.74,0c3.63-1.23,7.43-1.89,9.12-.13t0,0a8.59,8.59,0,0,1,1.54,2.35l0,.07Z"/><path class="cls-74" d="M74,123.94a6.64,6.64,0,0,1-1.51,3.37h0c-2,2.94-8.44,6.12-17.57,6.12s-15.55-3.18-17.57-6.12h0a6.64,6.64,0,0,1-1.5-3.36h0s0,0,0-.06a8.82,8.82,0,0,1,1.54-2.37c1.68-1.79,5.5-1.14,9.15.1a35.19,35.19,0,0,1,16.74,0c3.65-1.24,7.47-1.89,9.15-.1a8.59,8.59,0,0,1,1.54,2.35Z"/><path class="cls-75" d="M73.68,124.36a3.45,3.45,0,0,1-.35,1.44,9.25,9.25,0,0,1-3.45,3.51,20.45,20.45,0,0,1-4.32,2.09,29.19,29.19,0,0,1-5,1.27,34.88,34.88,0,0,1-5.68.45c-11.49,0-18.82-5.19-18.82-8.76s7.33-8.75,18.82-8.75S73.68,120.79,73.68,124.36Z"/><path class="cls-76" d="M55.41,85.3c-8.94,0-16.19,3.36-16.19,7.52v31.53c0,4.15,7.25,7.52,16.19,7.52s16.2-3.37,16.2-7.52V92.82C71.61,88.66,64.36,85.3,55.41,85.3Z"/><g class="cls-77"><g class="cls-78"><path class="cls-79" d="M65.85,125c0,2.25-4.9,4.07-10.95,4.07s-11-1.82-11-4.07,4.91-4.07,11-4.07S65.85,122.73,65.85,125Z"/><path class="cls-80" d="M64.81,124.9c0,2-4.43,3.68-9.9,3.68S45,126.93,45,124.9s4.43-3.68,9.9-3.68S64.81,122.87,64.81,124.9Z"/><path class="cls-81" d="M63.76,124.82c0,1.82-4,3.29-8.85,3.29s-8.84-1.47-8.84-3.29,4-3.28,8.84-3.28S63.76,123,63.76,124.82Z"/><path class="cls-82" d="M62.71,124.74c0,1.6-3.49,2.89-7.79,2.89s-7.79-1.29-7.79-2.89,3.49-2.89,7.79-2.89S62.71,123.15,62.71,124.74Z"/><path class="cls-83" d="M61.67,124.66c0,1.39-3,2.5-6.74,2.5s-6.73-1.11-6.73-2.5,3-2.49,6.73-2.49S61.67,123.28,61.67,124.66Z"/><path class="cls-84" d="M60.62,124.59c0,1.16-2.54,2.1-5.68,2.1s-5.68-.94-5.68-2.1,2.54-2.11,5.68-2.11S60.62,123.42,60.62,124.59Z"/><path class="cls-85" d="M59.57,124.51c0,.94-2.07,1.71-4.62,1.71s-4.62-.77-4.62-1.71,2.06-1.72,4.62-1.72S59.57,123.56,59.57,124.51Z"/><path class="cls-86" d="M58.53,124.43c0,.73-1.6,1.32-3.57,1.32s-3.57-.59-3.57-1.32S53,123.1,55,123.1,58.53,123.7,58.53,124.43Z"/><path class="cls-87" d="M57.48,124.35c0,.52-1.13.93-2.52.93s-2.51-.41-2.51-.93,1.12-.93,2.51-.93S57.48,123.84,57.48,124.35Z"/><path class="cls-88" d="M56.43,124.27c0,.3-.65.54-1.46.54s-1.46-.24-1.46-.54.66-.54,1.46-.54S56.43,124,56.43,124.27Z"/></g><path class="cls-89" d="M50.26,118.65v4.68s0,.12,0,.18c0,1.48,2,2.65,4.57,2.65s4.58-1.17,4.58-2.65v-4.86Z"/><path class="cls-90" d="M48.48,114.54V121a2.29,2.29,0,0,0,0,.25c0,2.07,2.8,3.69,6.36,3.69s6.37-1.62,6.37-3.69v-6.75Z"/><path class="cls-91" d="M54.82,118.23c-3.56,0-6.36-1.62-6.36-3.69s2.8-3.68,6.36-3.68,6.37,1.62,6.37,3.68S58.39,118.23,54.82,118.23Z"/><path class="cls-92" d="M61.19,119v1.18c0,2.06-2.8,3.68-6.37,3.68s-6.36-1.62-6.36-3.68a2.28,2.28,0,0,1,0-.26v-.63c.25,1.92,3,3.4,6.34,3.4C58.39,122.65,61.19,121,61.19,119Z"/><path class="cls-93" d="M61.19,116.54v1.17c0,2.06-2.8,3.68-6.37,3.68s-6.36-1.62-6.36-3.68a2,2,0,0,1,0-.25v-.64c.25,1.92,3,3.4,6.34,3.4C58.39,120.22,61.19,118.6,61.19,116.54Z"/><path class="cls-94" d="M65.67,99.93a11.33,11.33,0,0,0-3.17-7.88,10.65,10.65,0,0,0-7.64-3.3h-.07a10.71,10.71,0,0,0-7.65,3.3A11.36,11.36,0,0,0,44,99.93h0a10.26,10.26,0,0,0,.92,4.11,24.12,24.12,0,0,0,1.94,3.46,10.41,10.41,0,0,1,2,5.07c.07.44.14.9.2,1.2l.11.77h0c0,1.67,2.54,3,5.69,3s5.68-1.35,5.69-3h0l.07-.77c.06-.3.13-.76.2-1.2a10.49,10.49,0,0,1,2-5.07,23.24,23.24,0,0,0,2-3.46,10.25,10.25,0,0,0,.91-4.11Z"/><path class="cls-95" d="M57.58,115a.34.34,0,0,1-.34-.34V101.42L55,103.56a.33.33,0,0,1-.47,0l-2.15-2.13v13.23a.34.34,0,1,1-.67,0v-14a.34.34,0,0,1,.57-.24l2.49,2.47,2.54-2.47a.36.36,0,0,1,.37-.07.35.35,0,0,1,.2.31v14A.34.34,0,0,1,57.58,115Z"/></g><path class="cls-96" d="M127.94,168.91l-30.33-13c-1.36,1.5-4.23,4.57-7.27,4.91-.88.09-1.32,1.08-1.54,1.83l-.87-.33a13.06,13.06,0,0,1-7.42,3.74c-1.42.15-1.71,2.67-1.71,2.67l26.62,14.73c4.44-1.62,10.5-4,13.26-6.67C123.18,174.69,127.3,171.77,127.94,168.91Z"/><path class="cls-97" d="M105,160.5h0c0,.09-.08.17-.13.26a4.15,4.15,0,0,1-1.86,1.42l-.29.12a9.64,9.64,0,0,1-3.17.21l-.1.27c-2.11.2-2.47-.38-2.47-.38l.11-.62.17-.95.37-.93s2.25-.33,4.38-.46c1-.06,2.88-.56,3.06.31A1.32,1.32,0,0,1,105,160.5Z"/><path class="cls-97" d="M95.68,156.54a5.16,5.16,0,0,1-.53,1.28,5.65,5.65,0,0,1-2.39,1.68v.24s-.08.25-1.17.51A1.43,1.43,0,0,1,90,159.8l0-.4h0l.15-1.89,2-.81s2.28-1.86,3.07-1.61C95.8,155.24,95.85,155.86,95.68,156.54Z"/><path class="cls-98" d="M95.68,156.54a5.16,5.16,0,0,1-.53,1.28,5.65,5.65,0,0,1-2.39,1.68v.24s-.08.25-1.17.51A1.43,1.43,0,0,1,90,159.8l0-.4a1.34,1.34,0,0,0,1.16.53,1.71,1.71,0,0,0,1.54-.67C94.1,158.6,94.87,158.35,95.68,156.54Z"/><path class="cls-99" d="M100.79,144.66c.16,4.24-.08,15.64-.08,15.64s-.62,1-3.21.34c0,0-.89-12.31-1.37-13.06L93,144.13S100.64,140.44,100.79,144.66Z"/><path class="cls-100" d="M94.77,140.76c1.33,3.72-.37,15.29-.37,15.29s-.63,1-3.22.33c0,0-.51-11.68-1-12.42l-3.49-3.43S93.36,136.78,94.77,140.76Z"/><path class="cls-101" d="M72.44,149.51v14.84h0a2.1,2.1,0,0,0,1.25,1.77l9.4,5.43a6.65,6.65,0,0,0,6,0l7.34-4.23a2.2,2.2,0,0,0,1.23-1.58h0v-15Z"/><path class="cls-102" d="M96.45,152.44l-7.34,4.24a6.65,6.65,0,0,1-6,0l-9.4-5.43c-1.67-1-1.67-2.52,0-3.47L81,143.54a6.63,6.63,0,0,1,6,0L96.45,149C98.11,149.93,98.11,151.48,96.45,152.44Z"/><path class="cls-103" d="M83.93,106.53c.11.38.25,1.22.47,1.39s.11.51.07.72v0c-.26,1.27-2.21,9-2.87,10.76s-3.67,8.45-.73,8.55c1.14,0,2.73-4.46,3.74-9.22,1-4.53,1.55-8.9,1.64-9.87h0a2.52,2.52,0,0,1,.28-.66,11.16,11.16,0,0,0,.74-3.79,1.91,1.91,0,0,0-1.82-1.55c-.55,0-.93,3.12-.93,3.12s-.17-.83-.65-.82S83.82,106.16,83.93,106.53Z"/><path class="cls-104" d="M83.07,149.05c2.71-1.25,11.19-6.87,11.45-7.67.53-1.63-1.12-3.54-4.42-2.74a58.28,58.28,0,0,0-8.47,2.87C81.86,141.49,80.45,150.27,83.07,149.05Z"/><path class="cls-105" d="M80.93,120.67c0-.15.11-.29.16-.41h0c2.3-.42,3.18.2,3.49.59-.85,3.73-.81,7.44-2.57,7.7a5.06,5.06,0,0,1-1.63,0c-1.35-.2-1.07-2.87-.75-4.14h0A31.16,31.16,0,0,1,80.93,120.67Z"/><path class="cls-106" d="M79.67,141.7s-.35,5.1.91,7.17,5.65,4.39,8.45,3.37,10.44-5.79,11.1-6.32c1.64-1.32-.06-4.42-2.63-4a56.16,56.16,0,0,0-9.28,2.67C88.46,144.6,79.67,141.7,79.67,141.7Z"/><path class="cls-45" d="M85.89,120.43a9.27,9.27,0,0,1-.69-1.69l.76-3,3.72-1.22s.79,5.53-.05,6.55c-.43.54-1.37.48-1.78.63l-.29,2.79L84,124l.22-3.51Z"/><path class="cls-107" d="M91.36,138.29v.09c0,3.67,0,4.26,0,5.68v.84c0,.47,0,.8,0,1v.48a4.61,4.61,0,0,1-2.13,1.93l-.14,0h0a8.5,8.5,0,0,1-2,.43c-4.06.2-7.85-3.4-7.72-5.46.08-1.34.1-3.57.1-5.27,0-7.38-.57-10.25.44-13.48.47-1.51,3-1.72,3.22-1.73h0l.79,0s.13.25,1,.51c.72.21,2.91.72,2.91.72h0a13,13,0,0,1,2.78,1.12c1.46.62.83,6,.83,6,0,2.85-.13,5.85-.19,6.84C91.36,138.15,91.36,138.23,91.36,138.29Z"/><path class="cls-108" d="M91.36,135.31s0,.05,0,.06c0,.88,0,1.78,0,2.67,0,2,0,4.21,0,6v2.34a4.61,4.61,0,0,1-2.13,1.93l-.14,0h0c.06-3.4.63-9.12.58-10.67-.07-2.28-1-6.6-1-7.8a6.17,6.17,0,0,1,0-.62c.19.4.71.44,1.13.49a6.21,6.21,0,0,0,1.76-.13v.18c0,.44,0,.89,0,1.33v0C91.54,133.11,91.39,135,91.36,135.31Z"/><path class="cls-109" d="M89.87,113.52c-.6-1.79-3.76-1.18-4.66-1-4.17.68-2.89,5.39-2.66,5.91A22.85,22.85,0,0,0,84,120.73c.29.54.32.59,2,.54,1.46,0,1.56-2,1.63-2.69,0-.31-.17-1.13.41-1.2s.79.82,1,.5a4.64,4.64,0,0,0,.21-1.63,4.89,4.89,0,0,0-.11-.88C89,115.11,90.41,115.14,89.87,113.52Z"/><path class="cls-103" d="M94,147c-.22-.32-.64-1.07-.9-1.16s-.27-.44-.31-.65v0c-.17-1.28-.86-9.19-.84-11.1s.93-7.92-1.87-7c-1.09.34-1.71,3-1.08,7.87.59,4.59,1.81,9.7,2,10.65h0a2.44,2.44,0,0,1,0,.71,11.11,11.11,0,0,0,.55,3.83,1.92,1.92,0,0,0,2.23.86c.52-.21-.15-3.25-.15-3.25s.44.72.89.55S94.25,147.36,94,147Z"/><path class="cls-110" d="M92.18,132.7c0,.16,0,.31,0,.45h0c-2,1.15-3.07.86-3.5.59-.43-3.8-.18-8.17,1.14-8.6a1.31,1.31,0,0,1,1.47.45c.58.53.76,1.82.87,3.12h0A32.73,32.73,0,0,1,92.18,132.7Z"/><path class="cls-111" d="M153.43,183.83l-30.33-13c-1.36,1.5-4.22,4.57-7.27,4.9-.88.1-1.32,1.09-1.54,1.84l-.87-.34A13.12,13.12,0,0,1,106,181c-1.42.15-1.71,2.66-1.71,2.66l26.62,14.74c4.44-1.63,10.5-4,13.26-6.68C148.67,189.61,152.79,186.69,153.43,183.83Z"/><path class="cls-112" d="M123.21,174.43s-.26,0-.37,1.6a10,10,0,0,0,.24,2.93s.38.16.54,0l.5-1.88s1.44,2.06,2.41,2.21,4.52.18,4.54-.46-2.25-1.36-2.95-1.93a21.22,21.22,0,0,1-2.21-2.67S123.64,174.09,123.21,174.43Z"/><path class="cls-113" d="M126.29,159.58c.15,4.24-.08,15.07-.08,15.07s-.82,1.16-3.4.45c0,0-.71-11.85-1.19-12.59l-3.11-3.46S126.13,155.37,126.29,159.58Z"/><path class="cls-114" d="M120.26,155.67c1.33,3.73-.38,15.3-.38,15.3s-.62,1.05-3.21.33c0,0-.51-11.68-1-12.42l-3.49-3.43S118.85,151.7,120.26,155.67Z"/><path class="cls-115" d="M97.93,164.43v14.84h0A2.11,2.11,0,0,0,99.17,181l9.41,5.43a6.65,6.65,0,0,0,6,0l7.34-4.24a2.22,2.22,0,0,0,1.23-1.57h0v-15Z"/><path class="cls-116" d="M121.94,167.36l-7.34,4.24a6.71,6.71,0,0,1-6,0l-9.41-5.44c-1.66-1-1.66-2.51,0-3.47l7.35-4.24a6.69,6.69,0,0,1,6,0l9.41,5.43C123.6,164.84,123.6,166.4,121.94,167.36Z"/><path class="cls-117" d="M108.56,164c2.71-1.25,11.19-6.87,11.45-7.67.53-1.63-1.12-3.54-4.42-2.75a59.66,59.66,0,0,0-8.47,2.87C107.35,156.4,105.94,165.19,108.56,164Z"/><path class="cls-118" d="M105.67,156.78s-.86,4.93.4,7,5.65,4.39,8.45,3.37,10.44-5.79,11.1-6.32c1.64-1.32-.06-4.42-2.64-4a56.25,56.25,0,0,0-9.27,2.67C114,159.52,105.67,156.78,105.67,156.78Z"/><path class="cls-103" d="M118.21,161.34s1.75,1,1.54,1.31-.63.09-.63.09a19.9,19.9,0,0,1,1.21,2.66c0,.43-.36,1.3-.84,1.25s-2-1.86-2.53-2.92a3.43,3.43,0,0,1-.34-1.81S117.73,161,118.21,161.34Z"/><path class="cls-103" d="M111.82,130.07l-.68.4c0-.14-.82.21-.82.21l-2.95-.08-1.21,8.46-.49,3.13c.86,1.39,4.38,1.54,4.51,1.57a31.34,31.34,0,0,0,1-3.91l-.13-1c2.29-.39,2.65.05,2.57-4.53C113.51,128.82,111.82,130.07,111.82,130.07Z"/><path class="cls-119" d="M116.06,159.34l-.16.2a4.31,4.31,0,0,1-2.18,1.45c-.65.14-1.24.3-1.87.39a6.13,6.13,0,0,1-1.23.07h-.21c-2.64-.2-5.24-1.66-5.37-2.67a64.22,64.22,0,0,0,.39-7.64c-.16-2.49-2.56-7.93-.66-11.66.89-1.74,5.61-.05,5.61-.05s3.24.64,4.21,1.68a4.11,4.11,0,0,1,.63,1.27c.66,1.95,1.06,5.34.34,6.64s-1.25,1.16-1.25,1.16v0s0,.15,0,.3C114.52,151.88,115.3,157.43,116.06,159.34Z"/><path class="cls-47" d="M114.35,150.49a71.94,71.94,0,0,0,1.55,9,4.31,4.31,0,0,1-2.18,1.45c-.65.14-1.24.3-1.87.39,1.31-.87,1.65-5.42,1.15-8.12s-1-6.29-1.06-8.09a6.28,6.28,0,0,1,1.09-3.52l2.19.72c.66,1.95,1.06,5.34.34,6.64s-1.25,1.16-1.25,1.16v0S114.33,150.34,114.35,150.49Z"/><path class="cls-120" d="M111.79,141.51s2.77-1.85,3.54.72c.47,1.55.32,10.22.51,10.54.61,1,2.3,8.64,2.3,8.64a1.08,1.08,0,0,1-1.57,1s-2.94-4.55-3.45-8.88C113,152.58,109.66,142.66,111.79,141.51Z"/><path class="cls-49" d="M112.86,139.85c0,.51-1.57,1.66-3.29,1.66s-4.62-.49-4.39-2.13a33.35,33.35,0,0,0-.06-5.7c-.1-1.64.36-5.28,4.4-5.28,2.73,0,4,1.77,4.3,4a.08.08,0,0,1,0,0c0,1.23-.74,1.21-1,1.87A29.24,29.24,0,0,0,112.86,139.85Z"/><path class="cls-121" d="M182.77,197.91l-30.33-13c-1.36,1.5-4.23,4.57-7.27,4.9-.88.1-1.33,1.09-1.54,1.84l-.88-.34a13.06,13.06,0,0,1-7.41,3.75c-1.42.15-1.72,2.66-1.72,2.66l26.62,14.74c4.45-1.63,10.51-4,13.27-6.68C178,203.7,182.12,200.78,182.77,197.91Z"/><path class="cls-97" d="M159.77,189.51h0a1.66,1.66,0,0,1-.13.27,4.27,4.27,0,0,1-1.85,1.42l-.29.11a9.75,9.75,0,0,1-3.17.22l-.1.27c-2.11.2-2.47-.39-2.47-.39l.11-.61.17-1,.37-.93s2.24-.33,4.37-.46c1-.06,2.89-.56,3.07.32A1.26,1.26,0,0,1,159.77,189.51Z"/><path class="cls-97" d="M150.5,185.55a4.62,4.62,0,0,1-.53,1.28,5.74,5.74,0,0,1-2.38,1.68v.23s-.08.26-1.18.52a1.42,1.42,0,0,1-1.56-.45l0-.41h0l.15-1.89,2.05-.81s2.27-1.87,3.06-1.61C150.63,184.25,150.68,184.87,150.5,185.55Z"/><path class="cls-98" d="M150.5,185.55a4.62,4.62,0,0,1-.53,1.28,5.74,5.74,0,0,1-2.38,1.68v.23s-.08.26-1.18.52a1.42,1.42,0,0,1-1.56-.45l0-.41a1.36,1.36,0,0,0,1.17.54,1.73,1.73,0,0,0,1.54-.68C148.92,187.61,149.7,187.36,150.5,185.55Z"/><path class="cls-122" d="M155.62,173.66c.16,4.25-.08,15.65-.08,15.65s-.63,1.05-3.21.33c0,0-.9-12.31-1.38-13l-3.11-3.46S155.47,169.45,155.62,173.66Z"/><path class="cls-123" d="M149.6,169.76c1.32,3.73-.38,15.3-.38,15.3s-.62,1.05-3.21.33c0,0-.51-11.68-1-12.42l-3.5-3.43S148.18,165.79,149.6,169.76Z"/><path class="cls-124" d="M127.27,178.52v14.84h0a2.09,2.09,0,0,0,1.24,1.77l9.41,5.43a6.63,6.63,0,0,0,6,0l7.34-4.24a2.23,2.23,0,0,0,1.24-1.58h0v-15Z"/><path class="cls-125" d="M151.27,181.45l-7.34,4.23a6.63,6.63,0,0,1-6,0l-9.41-5.43c-1.66-1-1.66-2.51,0-3.47l7.34-4.24a6.65,6.65,0,0,1,6,0l9.4,5.43C152.93,178.93,152.93,180.49,151.27,181.45Z"/><path class="cls-126" d="M137.9,178.06c2.7-1.25,11.19-6.87,11.45-7.67.53-1.64-1.13-3.55-4.43-2.75a60.18,60.18,0,0,0-8.47,2.87C136.69,170.49,135.28,179.28,137.9,178.06Z"/><path class="cls-127" d="M134.5,170.7s-.35,5.1.91,7.18,5.65,4.39,8.45,3.37,10.44-5.8,11.09-6.32c1.64-1.33,0-4.42-2.63-4a56.66,56.66,0,0,0-9.27,2.66C143.28,173.6,134.5,170.7,134.5,170.7Z"/><path class="cls-128" d="M156.82,168.88h0a.45.45,0,0,1-.21.37l-7.08,4.07a.89.89,0,0,1-.78,0L139,167.69a.4.4,0,0,1-.2-.36.45.45,0,0,1,.17-.39l7.11-3.76a.89.89,0,0,1,.78,0l9.8,5.34A.39.39,0,0,1,156.82,168.88Z"/><path class="cls-129" d="M156.82,168.88h0a.58.58,0,0,1-.16.15l-7.08,4.05a.9.9,0,0,1-.44.11.87.87,0,0,1-.44-.11L139,167.46a.38.38,0,0,1-.15-.13.45.45,0,0,1,.17-.39l7.11-3.76a.89.89,0,0,1,.78,0l9.8,5.34A.39.39,0,0,1,156.82,168.88Z"/><path class="cls-130" d="M150.09,171.07l-7.75-4.47a.19.19,0,0,1,0-.36l3.82-2.21a.68.68,0,0,1,.62,0l7.75,4.47a.19.19,0,0,1,0,.36l-3.82,2.21A.68.68,0,0,1,150.09,171.07Z"/><path class="cls-131" d="M145.36,170.49l-2.29-1.31a.06.06,0,0,1,0-.11l1.13-.65a.19.19,0,0,1,.18,0l2.28,1.32c.05,0,.05.07,0,.1l-1.12.65A.19.19,0,0,1,145.36,170.49Z"/><path class="cls-132" d="M147.05,163.37l9.24,5.34a.36.36,0,0,0,.56-.25l1.63-7.32a.74.74,0,0,0-.34-.76l-9.24-5.33a.35.35,0,0,0-.56.24l-1.62,7.32A.72.72,0,0,0,147.05,163.37Z"/><path class="cls-133" d="M158,161a.22.22,0,0,0-.09-.2l-9.07-5.24-1.59,7.13a.27.27,0,0,0,.09.21l9.07,5.24Z"/><path class="cls-45" d="M141.12,150a9.79,9.79,0,0,1-.13-1.82l1.66-2.61h3.92s-1,5.49-2.1,6.2c-.59.38-1.46,0-1.9,0l-.64,2.56-3.13-1,.69-3.89Z"/><path class="cls-134" d="M146.18,167.3v.09c0,3.66,0,4.26,0,5.68v2.32a0,0,0,0,1,0,0,4.65,4.65,0,0,1-2.14,1.94l-.13,0h0a8.64,8.64,0,0,1-2,.42c-4.06.21-7.85-3.39-7.72-5.45.08-1.34.09-3.58.1-5.28,0-7.37-.58-10.25.44-13.48a3,3,0,0,1,3.24-1.72c.28.06,1,.33,1,.33.21.8,1.82,1.17,3.07,1.6.13.05,2.3,1.51,2.68,1.78,1.46.62,1.62,4.6,1.62,4.61,0,2.86-.13,5.85-.18,6.84C146.19,167.16,146.19,167.24,146.18,167.3Z"/><path class="cls-108" d="M146.18,164.32s0,.05,0,.05c0,.88,0,1.78,0,2.67,0,2,0,4.22,0,6v2.32a0,0,0,0,1,0,0,4.65,4.65,0,0,1-2.14,1.94l-.13,0h0c.06-3.41,0-9.15-.07-10.71-.07-2.28-.38-6.56-.38-7.77,0-.2,0-.25,0-.62.19.41.71.45,1.14.49a6.28,6.28,0,0,0,1.76-.12v.18c0,.43,0,.88,0,1.33v0C146.37,162.12,146.21,164,146.18,164.32Z"/><path class="cls-109" d="M147.06,144.72c0-1.89-3.2-2.29-4.1-2.44-4.18-.65-4.43,4.22-4.38,4.78a22.3,22.3,0,0,0,.62,2.67c.1.6.11.66,1.7,1.12,1.4.41,2.11-1.4,2.39-2,.13-.29.19-1.13.76-1s.5,1,.78.79a4.34,4.34,0,0,0,.72-1.49,4.16,4.16,0,0,0,.16-.87C145.78,146,147.06,146.43,147.06,144.72Z"/><path class="cls-45" d="M146.71,168.4c0-.13,2.46.35,3.78-.06a1.54,1.54,0,0,1,.6-.52c.43-.16,1.21-.83,1.35-.44s-.64.74-.45.77,2.5-.37,2.56-.1-.24.4-.24.4.62,0,.68.22-.15.38-.43.44c0,0,.4.31-.36.51,0,0,.15.16-.36.34a4.62,4.62,0,0,1-3.23-.06c-.88.27-4.41,1.74-5.44,1.15-1.7-1-2.71-9-2.13-10.42,0,0,2.44-.64,3.1.4C146.14,161,146.83,168.89,146.71,168.4Z"/><path class="cls-135" d="M146.52,163.2c0,.16,0,.31,0,.45h0c-2,1.16-3.21.84-3.64.57-.67-3.84-.27-8,1.28-8.57a1.26,1.26,0,0,1,1.47.45c.59.53.77,1.81.88,3.12h0A34.9,34.9,0,0,1,146.52,163.2Z"/><path class="cls-37" d="M173.27,65.75a2.49,2.49,0,0,1-1.22-.37L152.73,54.23a5.48,5.48,0,0,1-2.52-4.34V37.5c0-1.2.64-2,1.62-2a2.41,2.41,0,0,1,1.22.37l19.32,11.15a5.48,5.48,0,0,1,2.52,4.34V63.77C174.89,65,174.26,65.75,173.27,65.75ZM151.83,36.16c-.62,0-1,.5-1,1.34V49.89a4.84,4.84,0,0,0,2.21,3.79l19.32,11.15a1.82,1.82,0,0,0,.9.29c.62,0,1-.51,1-1.35V51.39a4.84,4.84,0,0,0-2.21-3.79L152.73,36.45A1.82,1.82,0,0,0,151.83,36.16Z"/><path class="cls-37" d="M165.65,51.73a.24.24,0,0,1-.22.15l-5.75.13s0,0,0,0a.25.25,0,0,1-.17-.08.23.23,0,0,1-.07-.18v-6.9a.24.24,0,0,1,.16-.23.25.25,0,0,1,.28.07l5.75,6.77A.24.24,0,0,1,165.65,51.73Z"/><path class="cls-37" d="M172.09,62.7a.28.28,0,0,1-.12,0l-19.09-11a.25.25,0,0,1,.25-.43l19.09,11a.25.25,0,0,1-.13.47Z"/><path class="cls-37" d="M156.15,53.24c0,.39-.28.55-.63.35a1.39,1.39,0,0,1-.63-1.07c0-.4.29-.56.63-.36A1.37,1.37,0,0,1,156.15,53.24Z"/><path class="cls-37" d="M152.32,78l-1.4-.81a2.29,2.29,0,0,1-1-1.81V72.91c0-.67.46-.94,1-.61l1.4.81a2.31,2.31,0,0,1,1,1.81v2.44C153.36,78,152.89,78.3,152.32,78Z"/><path class="cls-37" d="M157.79,81.12l-1.41-.8a2.34,2.34,0,0,1-1-1.81V73c0-.66.47-.93,1-.6l1.41.81a2.31,2.31,0,0,1,1,1.81v5.55C158.83,81.19,158.36,81.46,157.79,81.12Z"/><path class="cls-37" d="M163.25,84.28l-1.4-.81a2.29,2.29,0,0,1-1-1.81V74.05c0-.67.46-.94,1-.61l1.4.81a2.3,2.3,0,0,1,1,1.81v7.62C164.29,84.34,163.83,84.61,163.25,84.28Z"/><path class="cls-37" d="M168.72,87.43l-1.4-.8a2.33,2.33,0,0,1-1-1.81V73.89c0-.67.47-.94,1-.61l1.4.81a2.31,2.31,0,0,1,1,1.81V86.83C169.76,87.5,169.29,87.77,168.72,87.43Z"/><path class="cls-37" d="M169.91,89.49a.25.25,0,0,1-.14,0L149,77.45a.27.27,0,1,1,.27-.47L170,89a.26.26,0,0,1,.1.37A.27.27,0,0,1,169.91,89.49Z"/><path class="cls-136" d="M200.77,61.17l18.35-11.62-2.46-1.62a5.06,5.06,0,0,1-2.22-4V32.73c0-1.49,1-2.12,2.22-1.41L250.2,50.68a5,5,0,0,1,2.22,4V65.88c0,1.49-1,2.12-2.22,1.41L225.28,53.16Z"/><path class="cls-37" d="M219.73,38.38l27.4,15.82c.34.19.61.08.61-.26a1.27,1.27,0,0,0-.61-1l-27.4-15.82c-.34-.19-.61-.08-.61.26A1.27,1.27,0,0,0,219.73,38.38Z"/><path class="cls-37" d="M219.73,42.25l27.4,15.82c.34.2.61.08.61-.26a1.27,1.27,0,0,0-.61-1L219.73,41c-.34-.2-.61-.08-.61.26A1.24,1.24,0,0,0,219.73,42.25Z"/><path class="cls-37" d="M225.82,49.57l21.31,12.31c.3.17.54.07.54-.23a1.11,1.11,0,0,0-.54-.85L225.82,48.49c-.3-.17-.54-.07-.54.23A1.11,1.11,0,0,0,225.82,49.57Z"/><path class="cls-37" d="M210.12,74.93a5.27,5.27,0,0,1,1.7-4.09,23,23,0,0,0,2.38,2.34,12.51,12.51,0,0,0-.64,3.73Z"/><path class="cls-37" d="M214.23,82.52a9.74,9.74,0,0,0-2.08-.34,15.27,15.27,0,0,1-2-6.56l3.42,2A20.66,20.66,0,0,0,214.23,82.52Z"/><path class="cls-37" d="M214.44,72.59a22.39,22.39,0,0,1-2.13-2.1,4.65,4.65,0,0,1,2.4-.61,7.67,7.67,0,0,1,2,.31A4.08,4.08,0,0,0,214.44,72.59Z"/><path class="cls-37" d="M216.33,87.58a21.1,21.1,0,0,1-3.81-4.76,10.14,10.14,0,0,1,1.9.4A17.73,17.73,0,0,0,216.33,87.58Z"/><path class="cls-37" d="M219.11,76A33.07,33.07,0,0,1,215,73c.62-1.51,1.59-2.34,2.74-2.34a2.46,2.46,0,0,1,.53.06,8.25,8.25,0,0,1,.89.45Z"/><path class="cls-37" d="M214.2,77.28a12.5,12.5,0,0,1,.52-3.65,33.73,33.73,0,0,0,4.39,3.06v3.43Z"/><path class="cls-37" d="M219.11,84.61A24.49,24.49,0,0,0,215,82.74a20.14,20.14,0,0,1-.74-4.76l4.9,2.83Z"/><path class="cls-37" d="M219.11,89.73l-.5-.32a13.8,13.8,0,0,1-3.44-6,25.87,25.87,0,0,1,3.94,1.85Z"/><path class="cls-37" d="M223.78,78.22a24.31,24.31,0,0,1-4.08-1.9V71.54l.51.33A14.13,14.13,0,0,1,223.78,78.22Z"/><path class="cls-37" d="M221.13,90.58a2.48,2.48,0,0,1-.54-.06c-.29-.13-.59-.28-.89-.45V85.66a33.74,33.74,0,0,1,4.05,2.85A3,3,0,0,1,221.13,90.58Z"/><path class="cls-37" d="M224.11,91.39a7.61,7.61,0,0,1-2-.31,4,4,0,0,0,2.18-2.14,22.56,22.56,0,0,1,2,2A4.75,4.75,0,0,1,224.11,91.39Z"/><path class="cls-37" d="M219.7,80.46V77a24.06,24.06,0,0,0,4.27,1.9,19.87,19.87,0,0,1,.63,4.36Z"/><path class="cls-37" d="M224,87.93a33.47,33.47,0,0,0-4.29-3V81.15L224.61,84A12.11,12.11,0,0,1,224,87.93Z"/><path class="cls-37" d="M226.52,78.83a9,9,0,0,1-2-.38,18.9,18.9,0,0,0-2-4.76A22.23,22.23,0,0,1,226.52,78.83Z"/><path class="cls-37" d="M226.8,90.58a25.75,25.75,0,0,0-2.29-2.22,11.79,11.79,0,0,0,.74-4l3.44,2A5.1,5.1,0,0,1,226.8,90.58Z"/><path class="cls-37" d="M225.26,83.67a20.44,20.44,0,0,0-.57-4.53,8.41,8.41,0,0,0,2.12.31h.05a15.11,15.11,0,0,1,1.83,6.2Z"/><path class="cls-37" d="M230.31,119.46v7.45c0,.17-.11.16-.24,0l-3.34-4.29a.66.66,0,0,0-.49-.29l-3.56.32a.25.25,0,0,1-.25-.28V114.9c0-.16,0-.14.14,0a3.09,3.09,0,0,0,.47.75,3,3,0,0,0,.7.57c.2.11.38.19.56.27a2.92,2.92,0,0,1,.39.18l.06,0a1.39,1.39,0,0,1,.25.27l.19.25a4.18,4.18,0,0,0,1.18,1.23,1.53,1.53,0,0,0,1.18.14l.19,0a.57.57,0,0,1,.25,0l0,0a4,4,0,0,1,.4.27c.18.13.36.26.56.38a1.5,1.5,0,0,0,.7.23.61.61,0,0,0,.47-.2C230.26,119.25,230.31,119.29,230.31,119.46Z"/><path class="cls-37" d="M231.64,116.3c.13-.4.79-.44.79-1s-.66-1.32-.79-1.87.23-1.06,0-1.63-1-1.07-1.39-1.64-.39-1.36-.83-1.86-1.13-.55-1.62-1-.89-1.3-1.41-1.61-.94.12-1.41,0-1.19-.91-1.62-.91-.47.76-.83.91-1.14-.27-1.39,0,.11,1.19,0,1.61-.79.44-.79,1,.66,1.32.79,1.86-.23,1.06,0,1.64.92,1,1.31,1.51l.08.12c.36.56.39,1.36.83,1.87s1.12.54,1.62,1,.89,1.31,1.41,1.6.94-.11,1.41,0,1.19.9,1.62.91.47-.77.83-.92l.08,0c.38-.07,1.07.27,1.31,0S231.51,116.72,231.64,116.3Zm-5.27-.58a8,8,0,0,1-3.88-6.11c0-2.14,1.74-2.88,3.88-1.64a8,8,0,0,1,3.88,6.12C230.25,116.23,228.51,117,226.37,115.72Z"/><path class="cls-37" d="M229.64,113.74c0,1.8-1.46,2.42-3.27,1.38a6.79,6.79,0,0,1-3.28-5.17c0-1.8,1.47-2.42,3.28-1.38A6.8,6.8,0,0,1,229.64,113.74Z"/><path class="cls-37" d="M213.6,101.86a.25.25,0,0,1-.14,0l-9.91-5.7a.29.29,0,0,1-.1-.38.28.28,0,0,1,.37-.1l9.92,5.71a.28.28,0,0,1,.1.37A.27.27,0,0,1,213.6,101.86Z"/><path class="cls-37" d="M217.17,106.94a.25.25,0,0,1-.14,0l-13.48-7.78a.29.29,0,0,1-.1-.38.28.28,0,0,1,.37-.1l13.48,7.79a.26.26,0,0,1,.1.37A.27.27,0,0,1,217.17,106.94Z"/><path class="cls-37" d="M217.17,109.94a.25.25,0,0,1-.14,0l-13.48-7.78a.29.29,0,0,1-.1-.38.28.28,0,0,1,.37-.1l13.48,7.79a.26.26,0,0,1,.1.37A.27.27,0,0,1,217.17,109.94Z"/><path class="cls-37" d="M217.17,112.94a.25.25,0,0,1-.14,0l-13.48-7.78a.29.29,0,0,1-.1-.38.28.28,0,0,1,.37-.1l13.48,7.79a.26.26,0,0,1,.1.37A.27.27,0,0,1,217.17,112.94Z"/><path class="cls-37" d="M217.17,115.94a.25.25,0,0,1-.14,0l-13.48-7.78a.29.29,0,0,1-.1-.38.28.28,0,0,1,.37-.1l13.48,7.79a.26.26,0,0,1,.1.37A.27.27,0,0,1,217.17,115.94Z"/><path class="cls-37" d="M217.17,118.94a.25.25,0,0,1-.14,0l-13.48-7.78a.29.29,0,0,1-.1-.38.28.28,0,0,1,.37-.1l13.48,7.79a.26.26,0,0,1,.1.37A.27.27,0,0,1,217.17,118.94Z"/></g></g></svg>