<svg id="illustration" xmlns="http://www.w3.org/2000/svg" xmlns:xlink="http://www.w3.org/1999/xlink" width="500" height="220" viewBox="0 0 500 220"><defs><style>.cls-1{opacity:0.84;}.cls-2{fill:#f5cbd8;}.cls-3{fill:#fff;}.cls-4{fill:url(#Unbenannter_Verlauf_16);}.cls-5{fill:url(#Unbenannter_Verlauf_9);}.cls-6{fill:url(#Unbenannter_Verlauf_12);}.cls-7{fill:url(#Unbenannter_Verlauf_16-2);}.cls-8{fill:url(#Unbenannter_Verlauf_9-2);}.cls-9{fill:url(#Unbenannter_Verlauf_9-3);}.cls-10{fill:url(#Unbenannter_Verlauf_6);}.cls-11{fill:url(#Unbenannter_Verlauf_16-3);}.cls-12{fill:url(#Unbenannter_Verlauf_7);}.cls-13{fill:url(#Unbenannter_Verlauf_7-2);}.cls-14{fill:url(#Unbenannter_Verlauf_9-4);}.cls-15{fill:url(#Unbenannter_Verlauf_6-2);}.cls-16{fill:url(#Unbenannter_Verlauf_6-3);}.cls-17{fill:url(#Unbenannter_Verlauf_7-3);}.cls-18{fill:url(#Unbenannter_Verlauf_16-4);}.cls-19{fill:url(#Unbenannter_Verlauf_16-5);}.cls-20{fill:url(#Unbenannter_Verlauf_6-4);}.cls-21{fill:url(#Unbenannter_Verlauf_6-5);}.cls-22,.cls-23,.cls-24{fill:none;stroke:#1f3371;stroke-miterlimit:10;}.cls-23{stroke-dasharray:8.12 8.12;}.cls-24{stroke-dasharray:8;}.cls-25{fill:url(#Unbenannter_Verlauf_19);}.cls-26{fill:#37a5cb;}.cls-27{fill:#f17a79;}.cls-28{fill:url(#Unbenannter_Verlauf_5);}.cls-29{fill:url(#Unbenannter_Verlauf_5-2);}</style><linearGradient id="Unbenannter_Verlauf_16" x1="1466.97" y1="-1229.44" x2="1463.43" y2="-1218.59" gradientTransform="translate(624.16 2014.06) rotate(-63.31)" gradientUnits="userSpaceOnUse"><stop offset="0" stop-color="#130839"/><stop offset="1" stop-color="#1f3371"/></linearGradient><linearGradient id="Unbenannter_Verlauf_9" x1="4083.59" y1="408.2" x2="4089.92" y2="428.07" gradientTransform="matrix(-1, 0, 0, 1, 4247.4, -291.05)" gradientUnits="userSpaceOnUse"><stop offset="0" stop-color="#6b56a6"/><stop offset="1" stop-color="#584788"/></linearGradient><linearGradient id="Unbenannter_Verlauf_12" x1="1687.35" y1="-1234.89" x2="1680.87" y2="-1229.82" gradientTransform="matrix(-0.43, 0.9, 0.9, 0.43, 1986.04, -884.15)" gradientUnits="userSpaceOnUse"><stop offset="0.02" stop-color="#f8440d"/><stop offset="1" stop-color="#fcc622"/></linearGradient><linearGradient id="Unbenannter_Verlauf_16-2" x1="3569.5" y1="-318.1" x2="3565.96" y2="-307.25" gradientTransform="matrix(-0.37, -0.93, 0.93, -0.37, 1756.12, 3355.53)" xlink:href="#Unbenannter_Verlauf_16"/><linearGradient id="Unbenannter_Verlauf_9-2" x1="4264.8" y1="849.71" x2="4283.9" y2="862.91" gradientTransform="matrix(-0.99, -0.16, -0.16, 0.99, 4483.7, -7.75)" xlink:href="#Unbenannter_Verlauf_9"/><linearGradient id="Unbenannter_Verlauf_9-3" x1="4104.2" y1="387.58" x2="4123.35" y2="394.79" gradientTransform="matrix(-1, -0.01, -0.01, 1, 4259.21, -278.54)" xlink:href="#Unbenannter_Verlauf_9"/><linearGradient id="Unbenannter_Verlauf_6" x1="4151.6" y1="406.79" x2="4160.22" y2="406.79" gradientTransform="matrix(-1, -0.01, -0.01, 1, 4259.21, -278.54)" gradientUnits="userSpaceOnUse"><stop offset="0" stop-color="#f0a186"/><stop offset="1" stop-color="#ecb3b3"/></linearGradient><linearGradient id="Unbenannter_Verlauf_16-3" x1="4018.38" y1="122.46" x2="4025.35" y2="105.7" gradientTransform="matrix(-0.99, 0.11, 0.11, 0.99, 4091.1, -458.9)" xlink:href="#Unbenannter_Verlauf_16"/><linearGradient id="Unbenannter_Verlauf_7" x1="4150.8" y1="396.66" x2="4160.82" y2="396.66" gradientTransform="matrix(-1, -0.01, -0.01, 1, 4259.21, -278.54)" gradientUnits="userSpaceOnUse"><stop offset="0" stop-color="#f96666"/><stop offset="1" stop-color="#d84445"/></linearGradient><linearGradient id="Unbenannter_Verlauf_7-2" x1="4116.42" y1="400.51" x2="4140.93" y2="411.88" xlink:href="#Unbenannter_Verlauf_7"/><linearGradient id="Unbenannter_Verlauf_9-4" x1="4133.27" y1="396.24" x2="4145.59" y2="400.98" gradientTransform="matrix(-1, -0.01, -0.01, 1, 4259.21, -278.54)" xlink:href="#Unbenannter_Verlauf_9"/><linearGradient id="Unbenannter_Verlauf_6-2" x1="4008.19" y1="107.01" x2="4029.66" y2="107.01" gradientTransform="matrix(-0.99, 0.11, 0.11, 0.99, 4091.1, -458.9)" xlink:href="#Unbenannter_Verlauf_6"/><linearGradient id="Unbenannter_Verlauf_6-3" x1="4120.29" y1="398.9" x2="4141.52" y2="418.23" xlink:href="#Unbenannter_Verlauf_6"/><linearGradient id="Unbenannter_Verlauf_7-3" x1="4124.07" y1="384.02" x2="4148.58" y2="395.39" xlink:href="#Unbenannter_Verlauf_7"/><linearGradient id="Unbenannter_Verlauf_16-4" x1="3991.38" y1="119.67" x2="4000.95" y2="96.64" gradientTransform="matrix(-0.99, 0.11, 0.11, 0.99, 4091.1, -458.9)" xlink:href="#Unbenannter_Verlauf_16"/><linearGradient id="Unbenannter_Verlauf_16-5" x1="4137.03" y1="438.72" x2="4160.54" y2="389.95" gradientTransform="matrix(-1, -0.01, -0.01, 1, 4259.21, -278.54)" xlink:href="#Unbenannter_Verlauf_16"/><linearGradient id="Unbenannter_Verlauf_6-4" x1="1357.98" y1="-1118.5" x2="1355.9" y2="-1112.13" gradientTransform="matrix(-0.29, 0.96, 0.96, 0.29, 1562.11, -860.51)" xlink:href="#Unbenannter_Verlauf_6"/><linearGradient id="Unbenannter_Verlauf_6-5" x1="4089.97" y1="944.8" x2="4111.2" y2="964.13" gradientTransform="matrix(-0.97, -0.23, -0.23, 0.97, 4341.4, 114.25)" xlink:href="#Unbenannter_Verlauf_6"/><linearGradient id="Unbenannter_Verlauf_19" x1="4017.13" y1="332.4" x2="4032.17" y2="360.54" gradientTransform="matrix(-1, 0, 0, 1, 4247.4, -291.05)" gradientUnits="userSpaceOnUse"><stop offset="0" stop-color="#f5cbd8"/><stop offset="1" stop-color="#e1b1bc"/></linearGradient><linearGradient id="Unbenannter_Verlauf_5" x1="50.02" y1="364.16" x2="36.71" y2="335.38" gradientTransform="translate(0 -291.05)" gradientUnits="userSpaceOnUse"><stop offset="0" stop-color="#e1b1bc"/><stop offset="1" stop-color="#f5cbd8"/></linearGradient><linearGradient id="Unbenannter_Verlauf_5-2" x1="-544.34" y1="433.89" x2="-529.29" y2="462.03" gradientTransform="translate(594.06 -291.05)" xlink:href="#Unbenannter_Verlauf_5"/></defs><title>auf-sprachreise-lernen</title><g id="Objects"><g class="cls-1"><path class="cls-2" d="M113.91,187.35a5.35,5.35,0,0,0-3.67,1.76,2,2,0,0,0-.43.76c-.18.9.79,1.58,1.69,1.87,3,1,6.3.43,9.43-.11l6.87-1.19c1.77-.29,3.64-.65,4.9-1.94.07-.47-.43-.83-.9-.86a4.78,4.78,0,0,0-1.37.28c-2,.58-4.14-.28-5.94-1.33-1.15-.65-2.44-1.44-3.74-1.08-1,.29-1.8,1.26-2.81,1.69C116.65,187.71,115.24,187.28,113.91,187.35Z"/><path class="cls-2" d="M109.77,19.62c0-.22-.1-.51.11-.54a.5.5,0,0,0-.43-.44,1.49,1.49,0,0,0-.65.11c-.25.11-.5.18-.75.29a3.6,3.6,0,0,0-1,.54c-.72.61-.79,1.65-1.29,2.45a5.15,5.15,0,0,0-.47.79.76.76,0,0,0,.14.86c.08,0,.11.07.18.07a.18.18,0,0,0,.15-.07c1.08-.72,2.12-1.47,3.2-2.19a3.34,3.34,0,0,0,.54-.44A1.76,1.76,0,0,0,109.77,19.62Z"/><path class="cls-2" d="M104.59,25.63a.28.28,0,0,0-.29-.26.74.74,0,0,0-.39.11,1.54,1.54,0,0,0-.76.51.6.6,0,0,0,0,.82c.39-.25.79-.54,1.19-.79C104.45,25.91,104.59,25.77,104.59,25.63Z"/><path class="cls-2" d="M99.55,29.19c.18.14.44,0,.62-.11l1.18-.86a1,1,0,0,0-.18-.58c-.43.29-.86.54-1.29.83a1.3,1.3,0,0,0-.33.29C99.48,28.9,99.45,29.12,99.55,29.19Z"/><path class="cls-2" d="M96,30.7a.4.4,0,0,0,.39.25,1.12,1.12,0,0,0,.47-.18c.36-.21.72-.39,1.11-.61a.94.94,0,0,0-.18-.54,2.91,2.91,0,0,0-1.51.61C96.06,30.3,95.88,30.52,96,30.7Z"/><path class="cls-2" d="M112.58,18.46a4.51,4.51,0,0,1,2.34-.54c.4,0,.76.08,1.15.08a5.37,5.37,0,0,0,3.46-1.19.68.68,0,0,0-.83-.61,3.59,3.59,0,0,0-1.08.43,7.35,7.35,0,0,1-2.52.21A6.63,6.63,0,0,0,111,18.5a.69.69,0,0,0,.75.36A3.94,3.94,0,0,0,112.58,18.46Z"/><path class="cls-2" d="M214.93,84.25a3.1,3.1,0,0,0,.28,1,3.53,3.53,0,0,0,.4.83.77.77,0,0,0,.79.29c.47-.14.61-.72.58-1.19a5,5,0,0,0-.22-1.47,2.43,2.43,0,0,1-.14-1.59,1.83,1.83,0,0,1,.54-.64l1.33-1.23a2.21,2.21,0,0,0,.61-.72.82.82,0,0,0,0-.9.94.94,0,0,0-.61-.32,1.84,1.84,0,0,0-1.29.29,3,3,0,0,0-.9,1.4c-.25.61-.54,1.22-.79,1.84A5.06,5.06,0,0,0,214.93,84.25Z"/><path class="cls-2" d="M214.46,72.12a2.85,2.85,0,0,0,.54.18c.61.25.86,1.11,1.51,1.22a.41.41,0,0,0,.32-.43,1.1,1.1,0,0,0-.21-.57,7.21,7.21,0,0,0-1.05-1.3,1.36,1.36,0,0,0-.68-.4.72.72,0,0,0-.72.47A.67.67,0,0,0,214.46,72.12Z"/><path class="cls-2" d="M185.78,51.79c-.4-.36-1.08-.07-1.41.36a5.23,5.23,0,0,0-.75,3.38,1.46,1.46,0,0,0,.5,1.33c.43.22.94,0,1.41.07.68.15,1.18.9,1.83.76a.94.94,0,0,0,.65-.58,1.84,1.84,0,0,0,.07-.9c-.22-1.44-1.44-2.52-2-3.85A.91.91,0,0,0,185.78,51.79Z"/><path class="cls-2" d="M175.3,66.69a2.52,2.52,0,0,0,.83-1.34,2,2,0,0,0,.15-1.11,1.51,1.51,0,0,0-.9-.9c-.4-.18-.83-.25-1.23-.43a5.75,5.75,0,0,0-1.51-.69,2.8,2.8,0,0,0-1,.18c-.68.22-1.36.44-2,.61a.9.9,0,0,0-.39.22c-.18.22-.07.54,0,.76a3.7,3.7,0,0,0,1.37,1.8,7.1,7.1,0,0,0,1.69.43c.51.14,1,.39,1.48.54A1.79,1.79,0,0,0,175.3,66.69Z"/><path class="cls-2" d="M177.43,73.56a1.79,1.79,0,0,0,.47-1c.18-1.08,0-2.31.75-3.1s2.34-.86,2.92-1.87a2.55,2.55,0,0,0,.25-.9A3.21,3.21,0,0,0,181,64.2a1.69,1.69,0,0,0-1.07-.57,1.67,1.67,0,0,0-1.37.64,6.31,6.31,0,0,0-.76,1.37c-.18.43-.36.87-.5,1.26a2.23,2.23,0,0,1-.4.69c-.36.32-.93.21-1.4.14a5.15,5.15,0,0,0-4.1.75.71.71,0,0,0-.26.29.54.54,0,0,0,0,.33A9.63,9.63,0,0,0,172,71a4.11,4.11,0,0,0,.47.61,6.17,6.17,0,0,0,1.48.72c.57.29,1,.79,1.62,1.12A1.58,1.58,0,0,0,177.43,73.56Z"/><path class="cls-2" d="M164.58,92.06c.07.07.15.18.25.21s.22,0,.33-.11l1.44-.86a3.72,3.72,0,0,0,.61-.43.81.81,0,0,0,.25-.69.56.56,0,0,0-.47-.43,2.44,2.44,0,0,0-.65.07,3.17,3.17,0,0,0-.5.15,2.89,2.89,0,0,0-1.11.47,1.1,1.1,0,0,0-.47,1A1.29,1.29,0,0,0,164.58,92.06Z"/><path class="cls-2" d="M166.49,96.88c-.07-.15-.18-.33-.36-.36H166a.77.77,0,0,0-.47.61,1.93,1.93,0,0,0,.07.79,7.3,7.3,0,0,1,.11,1.23,2.35,2.35,0,0,0,.29,1.58.67.67,0,0,0,.25.18.64.64,0,0,0,.43,0,1.71,1.71,0,0,0,1.08-1,1.74,1.74,0,0,0-.11-1.48,3.1,3.1,0,0,0-.54-.68A7.72,7.72,0,0,1,166.49,96.88Z"/><path class="cls-2" d="M172.17,112.1c-.28,0-.36.4-.32.68a2.69,2.69,0,0,0,.86,1.66.48.48,0,0,0,.4-.58,3.29,3.29,0,0,0-.29-.72C172.61,112.78,172.53,112.28,172.17,112.1Z"/><path class="cls-2" d="M179,120.77a1,1,0,0,0-.47-.14.7.7,0,0,0-.61.72,1.44,1.44,0,0,0,.4.93c.07.08.11.15.18.22.29.18.68,0,1-.25s.36-.29.36-.47a.42.42,0,0,0-.11-.29A1.67,1.67,0,0,0,179,120.77Z"/><path class="cls-2" d="M219,54.77A98.92,98.92,0,0,0,134.1,11.45a12.36,12.36,0,0,1-5.4,2c-2.16.36-4.42.65-6.22,1.87a1.87,1.87,0,0,0,1.62.79,7.93,7.93,0,0,0,1.87-.36,24.63,24.63,0,0,1,4.21-.43,11.08,11.08,0,0,1,2.37.11c1,.22,1.87.72,2.85,1,1.54.36,3.2,0,4.71.51a19.9,19.9,0,0,1,2.2,1.15c1.72.83,3.81.75,5.5,1.69a1.32,1.32,0,0,1,.76.83,1.27,1.27,0,0,1-.61,1.15,6.44,6.44,0,0,0-1.12.79A4.63,4.63,0,0,0,149.79,26c.29.1.54-.11.86-.11a1.19,1.19,0,0,0,.62-.15c.39-.28.21-.9.25-1.36a1.66,1.66,0,0,1,1.65-1.26,5.74,5.74,0,0,1,2.2.54,3.45,3.45,0,0,0,2.23.21c.65.79.11,2,.5,2.92.15.32.44.68.29,1s-.79.36-1.08.08a5.8,5.8,0,0,1-.72-1.08,2.61,2.61,0,0,0-2.23-.87c-1.22.11-1.08.79-1.47,1.66a3.6,3.6,0,0,1-1.3,1.33.88.88,0,0,0-.36.43c-.14.43.4.87.86.79a8.68,8.68,0,0,0,1.34-.43c.93-.21,1.9.29,2.84.15.57-.08,1.08-.4,1.62-.51a4.22,4.22,0,0,1,1.9.22l3.39.86a2.33,2.33,0,0,0,1.69-.21c.54-.26,1-.65,1.58-.87a4.88,4.88,0,0,1,3.31.25c1.23.44,2.56,1,3.75.51a5.23,5.23,0,0,0-1-1.69c.15-.44.76-.4,1.19-.29l2.34.65c.72.18,1.62.32,2.05-.29a1.26,1.26,0,0,0-.11-1.41,3,3,0,0,0-1.26-.82c-2.48-1-5.5-.94-7.41-2.81a1.65,1.65,0,0,1,1.48-.94,4.57,4.57,0,0,1,1.8.4c1.83.65,3.67,1.3,5.54,1.91,2.62.9,5.43,2,6.87,4.35-.43.79-1.76,0-2.55.51,0,.57.61,1,1.15,1.15a13.49,13.49,0,0,1,1.69.43,3.21,3.21,0,0,1,1.4,1.55,1.11,1.11,0,0,1-1.18.57,3.84,3.84,0,0,1-1.34-.5C182,31.63,179.44,30.45,177,31c.5,1.19,1.91,1.62,3.13,1.87s2.66.51,3.35,1.59l-1.08.64a3,3,0,0,0,1.91,1.23c.9.29,1.79.57,2.69.82a56.69,56.69,0,0,0,7.27,2,15.36,15.36,0,0,1,1.84.29,2,2,0,0,1,1.4,1.15c-.47,0-.54.72-.29,1.12s.69.68.8,1.11c.18.65-.44,1.26-1.08,1.37a3.86,3.86,0,0,1-1.91-.36,72.65,72.65,0,0,1-7.59-3.67c-.9-.5-1.77-1-2.7-1.44a29.09,29.09,0,0,0-7.63-1.87c-1.15-.18-3.53.65-3.53,2.16,0,.79.79,1.3,1.55,1.48a6.1,6.1,0,0,1,2.23.64c.76.54,1.08,1.55,1.84,2a6.71,6.71,0,0,0,1.72.58,4.44,4.44,0,0,1,2.52,1.91,7.61,7.61,0,0,0,1.23,1.94c.75.68,1.9.79,2.69,1.44a13.85,13.85,0,0,1,1.37,1.87c.9,1.15,2.41,1.62,3.74,2.12,4.25,1.66,8.17,4.5,12.74,5a3.53,3.53,0,0,0,2.34-.39.75.75,0,0,0,.36-.47.94.94,0,0,0-.21-.65,20.48,20.48,0,0,1-2.09-4.89,2.89,2.89,0,0,0,1.8-.33,19.5,19.5,0,0,0-4.14-7.52,10,10,0,0,1-2.09-2.81c.33-.39.9-.28,1.37-.1a14,14,0,0,1,3.6,1.87c.86.61,3,2.08,3.09,3.24s-1.58,1.43-1.44,2.73c.18,1.66.69,3.06.54,4.75-.5.14-.39.72-.18,1.19s.65.83.9,1.29a2.39,2.39,0,0,1,0,2.41c-.18.29-.47.58-.65.87a2.62,2.62,0,0,0-.07,2.27,8.68,8.68,0,0,0,1.26,2l2.73,3.5c.4.46.76,1,1.19,1.4a19.37,19.37,0,0,0,1.8,1.58l2.23,1.8a3.3,3.3,0,0,0,1.62.87,10.94,10.94,0,0,0,1.4-.18c.47,0,1.05.21,1.08.68.18,1.4,1.73,2.19,2.52,3.35.33.5.79,1,1.37,1a1.31,1.31,0,0,1,.79-1.48,7.38,7.38,0,0,1,.9,2.92c.11-.4.68-.47,1-.22a1.68,1.68,0,0,1,.5,1.08c.18.83.4,1.62.58,2.45a6.17,6.17,0,0,1-.61.39c-.51-.32-1-.72-1.44-1.08a2.36,2.36,0,0,1,0,1.12,1,1,0,0,1-.76.72c-.57,0-.9-.61-1.08-1.15L224,78.2c-.72.18-1,1-1.05,1.76-.25,2.49.29,5.29-1.25,7.27-.44-.46-1.23-.93-1.66-.43-.25.25-.18.69-.14,1a4.85,4.85,0,0,1-.83,3.27.69.69,0,0,1-.4.29.91.91,0,0,1-.57-.18,11.11,11.11,0,0,1-1.95-1.66,5.37,5.37,0,0,0-1.76-1.47,4,4,0,0,0-1.15-.22,16.85,16.85,0,0,0-5.4.15c-.54.14-1.15.28-1.55-.11a1.31,1.31,0,0,1-.21-1,26.65,26.65,0,0,1,.36-3,.59.59,0,0,1,.14-.33c.15-.14.4-.07.58.08a13.39,13.39,0,0,1,1.4,1.51c.5.46,1.33.75,1.84.28,0-1.26-1-2.23-1.55-3.34-.76-1.62-.61-3.56-1.3-5.22a7.38,7.38,0,0,0-5.22-4,32.37,32.37,0,0,0-6.76-.54,8,8,0,0,1-2.48-.36,11.84,11.84,0,0,0-2.59-.93,3.36,3.36,0,0,0-2,.46,3.5,3.5,0,0,0-1.94,2.92c0,1.73,1.47,1.69,2.48,2.59,1.37,1.26-.43,2.52-1.29,3.31a1.76,1.76,0,0,0-.62,1.94,1.73,1.73,0,0,0,2.06.58,7.07,7.07,0,0,1,2.23-.58,14.34,14.34,0,0,1,1.51.36,1.55,1.55,0,0,0,1.44-.25c.39-.39.39-1,.65-1.55a3.23,3.23,0,0,1,2.44-1.33,10.81,10.81,0,0,1,3.71-.32,1.23,1.23,0,0,1,.75.29,1,1,0,0,1-.14,1.36,2.81,2.81,0,0,1-1.37.62,6.22,6.22,0,0,0-2.91,1.11A2.09,2.09,0,0,0,197,85.4a4.88,4.88,0,0,0,1.3.83,1.44,1.44,0,0,1,.83,1.22,1,1,0,0,1-1,.83,1.6,1.6,0,0,1-1.22-.61c-.29-.33-.61-.76-1.05-.69s-.46.47-.64.79a2.81,2.81,0,0,1-1.41,1.33,1.12,1.12,0,0,1-.36-1.58c0-.39-.54-.61-.9-.5a6.2,6.2,0,0,0-1,.57,2.23,2.23,0,0,1-2.27-.18c-1.47-1.08-1.22-3.6-2.77-4.57-.36-.21-.79-.32-1.15-.57a1,1,0,0,1-.5-1.08,2,2,0,0,1,.32-.47,4,4,0,0,0,.86-1.48A2,2,0,0,0,186.1,78a1,1,0,0,0-.9-.75c-1,0-1.29,1.79-2.3,1.79-.65,0-1-.71-1.37-1.25a6.91,6.91,0,0,0-4.17-2.6,27.57,27.57,0,0,1-4.83-1.4,10.68,10.68,0,0,1-2.77-2.34c-.36-.36-1.33-1.58-1.9-1.44a.74.74,0,0,0-.51.76,3.93,3.93,0,0,0,.18.93,3.41,3.41,0,0,1,.11,2.09,1.74,1.74,0,0,1-1.55,1.26c-.72,0-1.4-.54-2.08-.32-.44.14-.72.5-1.16.64a1.36,1.36,0,0,1-1.33-.43,4.52,4.52,0,0,1-.72-1.26c-.21-.54-.43-1-.68-1.58-.61-1.44-1.48-3.1-3-3.24-1.23-.14-2.31.72-3.49,1s-2.74-.11-3.78.65a1,1,0,0,0-.54.93,1.48,1.48,0,0,0,.32.76,12.73,12.73,0,0,1,1,4.68c.26,1.58.87,3.31,2.31,4a5.17,5.17,0,0,0,2.77.28,15.07,15.07,0,0,0,2.23-.39,4.09,4.09,0,0,1,1.12-.15,2.45,2.45,0,0,1,1,.47c1.08.69,2.23,1.48,3.49,1.3.61-.11,1.15-.4,1.76-.51s1.37.22,1.44.83a5.81,5.81,0,0,1-.07.83c0,.75.9,1.11,1.66,1.29,1.36.36,3,.87,3.38,2.24a3.23,3.23,0,0,1,.11,1c0,4,0,8.17-2.27,11.41a4.51,4.51,0,0,0-.76,1.26,1.21,1.21,0,0,0,.33,1.33c.47.07.68-.51.86-.94a3.11,3.11,0,0,1,1.8-1.72,1.44,1.44,0,0,1,.14,1.94.73.73,0,0,0,1-.29,2.09,2.09,0,0,0,.18-1.22c-.07-1.44-.15-2.88-.18-4.32a11.63,11.63,0,0,1,.18-3.38,4,4,0,0,1,1.91-2.7c.64.68.46,1.76.28,2.7a19.34,19.34,0,0,0,.07,6.87c.36.36.08,1.08-.32,1.4a4.13,4.13,0,0,0-1.26.9c-.47.69-.14,1.59-.21,2.41-.11,1.12-1.05,2-1.66,2.92s-.9,2.41.07,3l1.59-1.26a1.37,1.37,0,0,0,2.3-.32,5.06,5.06,0,0,0-.07-1.77c0-.57.18-1.33.75-1.4s.94.4,1.26.79l1.8,2.45a8.64,8.64,0,0,0-2.59,3.2,8.44,8.44,0,0,0-.18,3.78,2.83,2.83,0,0,0,.4,1.44,1,1,0,0,0,1.33.36c.83.5.43,1.84.9,2.66a3.67,3.67,0,0,0,1.76,1.23c.65.32,1.37.82,1.37,1.54a1.76,1.76,0,0,1-1.26,1.48,8.55,8.55,0,0,0-1.91.76c-.68.46-1,1.33-1.76,1.72a2.58,2.58,0,0,1-2.63-.25,7.07,7.07,0,0,1-1.83-2c-1.05-1.48-2.06-3-3.1-4.46a11.34,11.34,0,0,1-1.76-3.24c-.33-1.12-.33-2.3-.69-3.42a2.93,2.93,0,0,0-2.34-2.3c-1.29-.11-2.51,1-3.74.68a2.13,2.13,0,0,1-1-.72c-1.25-1.58-.46-3.89-.68-5.86-.18-1.73-1.15-3.28-1.33-5a2.3,2.3,0,0,1,1-2.44c.79-.36,1.83-.08,2.44-.69s.26-1.69-.14-2.44c-1.12-2.13-2.3-4.22-3.56-6.27a10.29,10.29,0,0,0-3.57-3.7l.44.28a7.92,7.92,0,0,1-3.89-3,13.26,13.26,0,0,1-1.69-4.75,2.67,2.67,0,0,0-.43-1.26,2.3,2.3,0,0,0-1.08-.65,30.78,30.78,0,0,0-4.79-1.37,5.63,5.63,0,0,0-4.28.4c-.43.28-.79.68-1.26.93a3,3,0,0,1-3-.47c-.86-.57-1.58-1.4-2.44-2a12.89,12.89,0,0,0-6.16-2,54.79,54.79,0,0,0-5.86-.32,3.82,3.82,0,0,0-2.52.65A5.21,5.21,0,0,0,117,72a7.33,7.33,0,0,1-3.67,2.69,30.6,30.6,0,0,1-4.53,1.12,6.33,6.33,0,0,0-2.41.9c-1.48,1.08-1.88,3.06-2.16,4.86.46,1-.51,2.16-1.23,3a9.83,9.83,0,0,0-2.19,3.24,10.45,10.45,0,0,0-.47,2.59l-.54,5.19a8.72,8.72,0,0,0,0,2.55c.36,2,2,3.46,3,5.22.87,1.48,1.3,3.17,2.2,4.57,1.29,2,3.45,3.31,5.58,4.46,1.11.61,2.41,1.59,2.05,2.81a4.81,4.81,0,0,1-.9,1.33,3.76,3.76,0,0,0-.33,3.53,3.11,3.11,0,0,0,.94,1.36c.57.36,1.29.33,1.8.83a2.67,2.67,0,0,1,.54,2,3.47,3.47,0,0,1-.61,2.33c-.83.94-2.23.8-3.46,1.05a10.06,10.06,0,0,0-2.63,1.08,3.09,3.09,0,0,0-1.4,1.11,2.7,2.7,0,0,0-.32.9,11.66,11.66,0,0,0-.25,1.69,21,21,0,0,1-4.72,10.58,6.58,6.58,0,0,1-3,2.42c-2.45.82-5.26-.54-7.67.39a2.63,2.63,0,0,0-1,.61c-1.51,1.66-3,3.24-3.63,5.37a8.52,8.52,0,0,1-1.23,3.16c-1.08,1.26-3.09,1.55-3.85,3a5.82,5.82,0,0,0-.36,1.48c-.21,1.66-.43,3.49-1.72,4.53-.51.4-1.12.65-1.44,1.19a2.78,2.78,0,0,0-.26.69,4.35,4.35,0,0,0,2.06,4.46c1.76,1,3.56,1.87,4.71,3.67a5.65,5.65,0,0,0,1.3,1.69,3.54,3.54,0,0,0,1.22.5c2.52.72,5,1.59,7.45,2.52a3.63,3.63,0,0,0,2.84.29c.4-.18.72-.5,1.12-.65a3,3,0,0,1,2.19.43l2.56,1.3a2.18,2.18,0,0,0,1,.32,1.78,1.78,0,0,0,.86-.36c1.3-.79,2.31-2,4-2a10.3,10.3,0,0,1,3.64,1.08c.79.32,1.58.61,2.37.86s1.55.54,2.34.79a8.81,8.81,0,0,0,1.94.51,5.94,5.94,0,0,0,3.21-.72,18.07,18.07,0,0,0,2.73-1.87c2-1.62,3.56-3.46,5.47-5.19a7.84,7.84,0,0,1,1.51-1.15,6.62,6.62,0,0,1,3.35-.64c1.15,0,2.3.25,3.42.32,2.41.14,4.82-.32,7.2,0,2.55.33,5-.07,7.63,0h1.4c.5,0,1-.07,1.51-.15,4.53-.64,9.07-2.08,12.56-5a1.21,1.21,0,0,0-.83-.72,9.49,9.49,0,0,0-1.11-.21,7.55,7.55,0,0,1-1.91-.69c-1.8-.86-3.64-2.12-4.25-4-.54-1.58.18-2.59.79-4a6.33,6.33,0,0,0,.58-3,26.77,26.77,0,0,1-.32-3.85,8.54,8.54,0,0,1,1.47-3.39l1.73-2.8a55.69,55.69,0,0,0,4.21-9.18c.65-1.69,1-3.2,2.41-4.43a.66.66,0,0,1,.43-.21c.33,0,.51.36.54.68.54,2.92-2.23,5.4-2.66,8.31-.18,1.19,0,2.56-.76,3.53a12.76,12.76,0,0,1-1,.94c-1,1.11-1,2.8-1.23,4.35a15.53,15.53,0,0,1-2.77,7.23,9,9,0,0,0-1.29,2.06,2.52,2.52,0,0,0,.14,2.33,3.35,3.35,0,0,0,1.84,1l6,1.84c1.37.43,3.1.75,4.1-.29.18-.18.29-.4.51-.47a1,1,0,0,1,.64,0c1.37.43,2.27,2.27,3.71,2.05a3.59,3.59,0,0,0,1.33-.65,15.54,15.54,0,0,1,3.31-1,10.32,10.32,0,0,0,3.46-1.73,2.86,2.86,0,0,0,.9-.93,4.37,4.37,0,0,0,.36-2.16,7.49,7.49,0,0,0-.4-2.81,2.58,2.58,0,0,0-2.12-1.65,6,6,0,0,1-1.12,0,1.67,1.67,0,0,1-1.22-1.36,5.16,5.16,0,0,1,.14-1.95c.36-1.73.72-3.42,1.08-5.14a6.43,6.43,0,0,1,.61-1.84,2,2,0,0,1,1.59-1c.65,1.23.07,2.67-.15,4a7.31,7.31,0,0,0,.36,3.71,3.16,3.16,0,0,0,2.31,2.23,1.71,1.71,0,0,1,.75.15c.47.32.22,1,.11,1.54a2.82,2.82,0,0,0,.79,2.31,7.64,7.64,0,0,0,2,1.54,11.4,11.4,0,0,0,3.71,1.8c.29.07.65.15.79.43a.93.93,0,0,1,0,.62c-.11.68-.22,1.36-.33,2a1.52,1.52,0,0,0-.32,1.73,2.72,2.72,0,0,1,.18.72c-.07.72-1,1.15-1.23,1.87a1.1,1.1,0,0,0,.36,1.26c.65.07,1.19-.76,1.84-.65a.9.9,0,0,1,.61,1,2.53,2.53,0,0,1-.61,1.15c-4,5.25-8,10.47-11.73,15.87-.22.32-.43.86-.11,1.08a.82.82,0,0,0,.76,0,27.74,27.74,0,0,0,6.69-4.24q8.58-6.64,17.67-12.6a2.64,2.64,0,0,1,1.58-.61,3.94,3.94,0,0,1-.32,1.69,20.37,20.37,0,0,1-2.63,4.18,12.35,12.35,0,0,0-2.27,4.35v.07A98.65,98.65,0,0,0,219,54.77Zm-26.63,65.64a1.8,1.8,0,0,1-1.76-.75,11,11,0,0,1-2.3-3.78,10,10,0,0,0-1.55-3.46c-.83-.9-2.09-1.26-3-2a2,2,0,0,1-.87-1.72c.11-.69.76-1.12,1.37-1.44l1.58-.94a7.38,7.38,0,0,1,1.95-.9,2.27,2.27,0,0,1,2,.43,2.17,2.17,0,0,1,.4,2.45,14.55,14.55,0,0,0-.87,1.66c-.18.57,0,1.4.65,1.51a1.77,1.77,0,0,0,1.15-.4l1.44-1a1.79,1.79,0,0,1,1.26-.46c.79.14,1,1.22,1.55,1.79-.22.76-1,1.08-1.58,1.62a3.31,3.31,0,0,0-1,2.34,9.12,9.12,0,0,0,.29,2.59,4.22,4.22,0,0,1,.18,1.44A1.46,1.46,0,0,1,192.36,120.41Zm5.51,13.82c-.65,0-1.12-.61-1.48-1.19-.5-.82-1-1.87-.61-2.73a2.9,2.9,0,0,1,.47-.65,18.16,18.16,0,0,0,1.94-3.27,7.87,7.87,0,0,0,.87-5.4.92.92,0,0,1,.61-1.08,6.16,6.16,0,0,1,3.92-.54,1.21,1.21,0,0,1,.32.11,1.36,1.36,0,0,1,.22.39,11.53,11.53,0,0,1,.29,1.12,1.06,1.06,0,0,1,0,.29.6.6,0,0,1-.25.28c-.68.47-1.4.9-2.09,1.37-.18.15-.39.25-.5.47a1.3,1.3,0,0,0-.07.76c.07.61.29,1.18.36,1.79a2.39,2.39,0,0,1-.36,1.77,11.62,11.62,0,0,1-1.26,1,4.07,4.07,0,0,0-1.08,3.09,4.46,4.46,0,0,1-.18,1.55A1.31,1.31,0,0,1,197.87,134.23Zm10.36-6.44c0-.07-.11-.11-.14-.18a4.27,4.27,0,0,0,.36-1.15,6.17,6.17,0,0,1,.14-.86,1.44,1.44,0,0,1,1.37-.9,3.4,3.4,0,0,1,.4.9,8.58,8.58,0,0,1-.51,1.18,2.33,2.33,0,0,1-.43.61A2.59,2.59,0,0,1,208.23,127.79Z"/><path class="cls-2" d="M72.6,59.88a6.61,6.61,0,0,1,.07-2.66c.25-.83.9-1.47,1.08-2.34.25-1.19-.36-2.62.47-3.52.18-.22.43-.36.61-.62.33-.46.15-1.11.36-1.62.33-.75,1.26-.93,2-1.15,1.51-.43,2.45-1.62,3.53-2.77,1.73-1.83,2.52-4.35,3.53-6.66s2.33-4.71,4.64-5.75a7.42,7.42,0,0,0,1.94-.94c1.44-1.19,1-3.56,2.2-5,.86-1.11,2.41-1.51,3.31-2.59-.07-.32-.4-.5-.69-.65-1.76-.75-3.7-.32-5.65-.18-2.88,1.59-5.72,3.31-8.53,5.19A98.64,98.64,0,0,0,40.68,88.31a7.33,7.33,0,0,0,2.2-1.72c1.58-1.88,2.19-4.5,4.1-6.09a1.29,1.29,0,0,1,.83-.39c.57,0,.93.57,1.11,1.11s.4,1.16.9,1.37a1.87,1.87,0,0,0,1.73-.43A25.59,25.59,0,0,0,56.33,78,10.86,10.86,0,0,1,58,76.26a2.63,2.63,0,0,1,1.9-.65,16.1,16.1,0,0,0,6.52-1.15,7.56,7.56,0,0,0,1.65-.9,8.32,8.32,0,0,0,2.48-3.2A19.67,19.67,0,0,0,72.6,59.88Z"/><path class="cls-2" d="M149.11,207.61a6.7,6.7,0,0,0,2.16-.94l.1-.11s0-.07,0-.14-.14-.22-.25-.29a5.82,5.82,0,0,0-2.81-.32,13.25,13.25,0,0,0-1.8.14,4.4,4.4,0,0,1-1.69-.11l-.47-.1a1,1,0,0,1-.43-.29.64.64,0,0,1-.14-.51c.14-.71,1.58-.75,2.12-.79.83-.07,1.69,0,2.52,0a16.15,16.15,0,0,0,2.41,0c.4,0,.76-.14,1.12-.18a1.48,1.48,0,0,0,1.11-.36.26.26,0,0,0,.11-.18s0-.1,0-.14c-.25-.32-1-.11-1.33-.14a111.49,111.49,0,0,1-12.52-.8,17.78,17.78,0,0,1-3.71-.72c-1.22-.39-2.37-1-3.6-1.44-2.73-.93-5.68-.82-8.53-.86a92.76,92.76,0,0,1-16.37-1.69c-.93-.18-2.23-.54-3.09,0-.51.32.07.76.28,1a6.34,6.34,0,0,0,.58.76,9.5,9.5,0,0,0,2.19,1.33c.94.43,1.88.83,2.81,1.26a5,5,0,0,1,2.27,1.66.44.44,0,0,1,.07.21c0,.58-1.37,1.12-1.83,1.26a3.33,3.33,0,0,1-1,.14,100.06,100.06,0,0,0,36.2,3.68,6,6,0,0,1,1.05-.51C147.38,208.26,148.24,207.93,149.11,207.61Z"/></g><path class="cls-3" d="M247.39,188a6.83,6.83,0,0,0-6-3.74,5.81,5.81,0,0,0-.83.07v-.07a11.09,11.09,0,0,0-11.08-11.09,11.28,11.28,0,0,0-3.35.51,16.47,16.47,0,0,0-30.51-2,12.62,12.62,0,0,0-6.63-1.91,12.5,12.5,0,0,0-11.12,18.17l69.57,0Z"/><path class="cls-3" d="M54.21,67.26V67A5.79,5.79,0,0,1,60,61.18a9,9,0,0,1,.94.07v-.07a12.21,12.21,0,0,1,23.9-3.49,7.71,7.71,0,0,1,3-.58,8.25,8.25,0,0,1,8.25,8.24,8.6,8.6,0,0,1-.22,1.91Z"/><path class="cls-4" d="M188.19,162.84l1.44-6.62-1-1.4,2-3.89,5.07,1.76-6.48,12.85A2.94,2.94,0,0,1,188.19,162.84Z"/><path class="cls-5" d="M138.49,136.5q-7.61-6.85-15-13.82l15.8-9.61s1,1.55,2.66,3.85l3.49-1.55a64.44,64.44,0,0,1,5.15,11.7,22.31,22.31,0,0,0,3.16,6.51c.69.9,1.33,1.84,2,2.7.18.22.76,1.19,1.12,1.19.79,0,34.4,13.21,34.4,13.21s0,4-2.19,5.22c0,0-36.42-8.21-38.22-8.82-.58-.18-3.53-2.7-7.3-6.05Z"/><path class="cls-6" d="M139.75,96.3s3.85-4.93,8.21,1.41,6.83,5.83,6.83,5.83-8.35,3-12.95-.8S139.75,96.3,139.75,96.3Z"/><path class="cls-7" d="M165.52,154.74l-4-5.47-1.69-.21L158.28,145,163,142.4l5.25,13.39A3.1,3.1,0,0,1,165.52,154.74Z"/><path class="cls-8" d="M135.79,121.6a65.85,65.85,0,0,1,.22,12.78,48,48,0,0,0,1.26,15.33s5-2.63,21.63-4.83a4.79,4.79,0,0,1,1.33,3.78s-24.29,16.81-28,14.54c-2.78-1.69-8.64-14.5-15.62-41.2Z"/><path class="cls-9" d="M113.62,72a25.52,25.52,0,0,1,14.65-5.68s18.57,19.1,18.14,24.9c0,0-4.39,13.1-12.49,14.93,0,0-12.09-5.79-15.94-11.62S113.62,72,113.62,72Z"/><path class="cls-10" d="M97,93.86l-1.08,6.44,7,0,1.65-5S98.29,91.91,97,93.86Z"/><path class="cls-11" d="M88.51,58.12s-.65,8.49,4.71,12.63a8.28,8.28,0,0,1,3.6,6.62c0,2.27-.72,4.36-.11,6.59a8.74,8.74,0,0,0,5.9,6.08c3.06.76,6.08-.9,8.24-3,9.54-9-4.6-19.25-4.6-19.25l-9.36-7.49Z"/><path class="cls-12" d="M103.08,78.24s-4.57.72-6.41,8.13l-1.33,6.69a19.37,19.37,0,0,0,8.32,2.09C107.87,95.08,103.08,78.24,103.08,78.24Z"/><path class="cls-13" d="M103.08,78.24l11.59-6a8,8,0,0,1,10.94,3.93A113.29,113.29,0,0,1,131,91.52c3,11.4,15.79,20.18,15.79,20.18-3.92,12.89-29.94,16.7-29.94,16.7s-2.16-12-2.66-15.44-1.37-9.82-7.63-12.38-6-7-6.48-10.43a44.08,44.08,0,0,1-.46-6.8C99.55,80.07,103.08,78.24,103.08,78.24Z"/><path class="cls-14" d="M121.18,70.72l2.88.36s-5.51,9.78-.76,16.51S132.59,97,132.59,97l-2.16,3c-.14.18-6.23-5.22-6.77-5.79a17.42,17.42,0,0,1-4.75-8.13C118,82,117,73.45,121.18,70.72Z"/><path class="cls-15" d="M107.65,64.45c1.3.87,4.86,5.51,6.66,7.85a2.15,2.15,0,0,1,2.19.5c.8,1.08-.36,3.28-2.59,4.9s-4.64,2-5.43,1a1.64,1.64,0,0,1-.07-1.66l-3-5.25L99,74.57l-1.72-4.21L96,70.61l-2-8.35C107.25,57.72,105.92,63.27,107.65,64.45Z"/><path class="cls-16" d="M132.81,80.4c1.22,2.16,2.44,4.35,3.63,6.55,2.3,4.21,5.47,8.24,1,12.09q-3.3,2.85-6.7,5.65c-.43.36-3.49,2.23-3.52,2.84,0,0-.15,4.68-1.8,5.54s-5.26,2.48-6.08,1.33,2.05-1.26,2.44-1.87a1,1,0,0,0-1.62-1.26c-1.26.87-3.52.87-.93-1.51s4.24-2.73,4.24-2.73,8.61-11.84,8.61-12.46S125,84.43,125,84.43Z"/><path class="cls-17" d="M117.4,71.47c10.12-3.63,16.27,7.63,16.27,7.63s-1.8,3.53-7.63,7.52C111.83,74.49,117.4,71.47,117.4,71.47Z"/><path class="cls-18" d="M88.87,62.08a12.37,12.37,0,0,1,.21-7c2.66-7.38,14.11-7.56,20.44-6.59,12.27,2,24.47-6,36-2.23,10.33,3.42,18.32,15.87,10.12,25.34-11.81,13.63-24.62,6.51-26.6,4.89s-6.08-5.83-11.58-2.77-11.3-8.21-11.81-9.54-3.35-1.33-3.35-1.33C98.69,64.17,94,62.3,94,62.3S90.85,62.15,88.87,62.08Z"/><polygon class="cls-19" points="95.31 99.97 116.72 100.12 125.75 120.99 103.58 120.81 95.31 99.97"/><path class="cls-20" d="M97.39,109.55s1.37-3.5,3-2.92,2.81,3.28,2.45,5.18a3.22,3.22,0,0,1-2.2,2.41S98.29,113.47,97.39,109.55Z"/><path class="cls-21" d="M121.22,112.1a1.13,1.13,0,0,0-.07-1.4l-.44-2.59a9,9,0,0,1,3.35-1s.79-.69,1.94-1.73l1.91,2.81c-.14.11-.25.21-.25.29s-1.19,4.53-3,5-5.65,1.26-6.22,0S120.68,112.6,121.22,112.1Z"/><path class="cls-22" d="M114.74,147.33c-.32.36-.61.76-.94,1.12"/><path class="cls-23" d="M111.86,150.61c-13,13.56-27.24,13.31-35.84,11.33"/><path class="cls-22" d="M74.62,161.58c-.47-.14-.94-.25-1.37-.39"/><polyline class="cls-22" points="75.62 164.24 73.21 161.22 77.1 159.96"/><path class="cls-24" d="M163,105.44s9.58-25.73,23.07-20.51c4.61,1.76,7.05,4.53,5.18,8.35-2.55,5.15-9.5,2-10.11-4-2.12-21.23,16.45-27.7,29.19-28.17"/><polyline class="cls-22" points="205.39 59.7 208.99 61.18 206.22 64.2"/><path class="cls-25" d="M217,61.58a12,12,0,1,0-4.57-9.43v15Z"/><circle class="cls-3" cx="224.5" cy="52.15" r="8.53"/><path class="cls-26" d="M227.34,60.21V44.12a8.53,8.53,0,0,1,0,16.09Z"/><path class="cls-3" d="M227.34,44.12V60.21a8.32,8.32,0,0,1-5.68,0V44.12a8.32,8.32,0,0,1,5.68,0Z"/><path class="cls-27" d="M221.66,44.12V60.21a8.53,8.53,0,0,1,0-16.09Z"/><path class="cls-28" d="M50.54,67.48a12,12,0,1,1,4.57-9.43V73Z"/><circle class="cls-3" cx="43.02" cy="58.05" r="8.53"/><path class="cls-27" d="M43,49.52a8.52,8.52,0,0,1,8.53,8.53H34.49A8.54,8.54,0,0,1,43,49.52Z"/><path class="cls-29" d="M63,163.09a12,12,0,1,1,4.57-9.43v15Z"/><circle class="cls-3" cx="55.51" cy="153.66" r="8.53"/><path class="cls-26" d="M63.53,150.82H47.45a8.53,8.53,0,0,1,16.08,0Z"/><path class="cls-3" d="M47.45,150.82H63.53a8.19,8.19,0,0,1,0,5.69H47.45a8.18,8.18,0,0,1-.51-2.85A10.79,10.79,0,0,1,47.45,150.82Z"/><path class="cls-27" d="M47.45,156.51H63.53a8.53,8.53,0,0,1-16.08,0Z"/><path class="cls-24" d="M90.92,110.48s-5-11.41-16.7-11.33-25.66-7.63-22.13-25"/><polyline class="cls-22" points="49.32 78.78 51.94 75.93 53.78 79.57"/></g></svg>