<svg id="Ebene_1" data-name="Ebene 1" xmlns="http://www.w3.org/2000/svg" xmlns:xlink="http://www.w3.org/1999/xlink" width="650" height="400" viewBox="0 0 650 400"><defs><style>.cls-1{opacity:0.84;}.cls-2{fill:#f3ecf1;}.cls-3{fill:url(#Unbenannter_Verlauf_3);}.cls-4{fill:#b2b9d9;}.cls-49,.cls-5{fill:none;stroke-miterlimit:10;}.cls-5{stroke:#775daa;}.cls-6{fill:url(#Unbenannter_Verlauf_2);}.cls-7{fill:#d0d0e6;}.cls-8{fill:url(#Unbenannter_Verlauf_4);}.cls-9{fill:url(#Unbenannter_Verlauf_4-2);}.cls-10{fill:url(#Unbenannter_Verlauf_11);}.cls-11{fill:url(#Unbenannter_Verlauf_10);}.cls-12{fill:url(#Unbenannter_Verlauf_10-2);}.cls-13{fill:url(#Unbenannter_Verlauf_8);}.cls-14{fill:url(#Unbenannter_Verlauf_38);}.cls-15{fill:url(#Unbenannter_Verlauf_10-3);}.cls-16{fill:url(#Unbenannter_Verlauf_11-2);}.cls-17{fill:url(#Unbenannter_Verlauf_14);}.cls-18{fill:url(#Unbenannter_Verlauf_38-2);}.cls-19{fill:url(#Unbenannter_Verlauf_14-2);}.cls-20{fill:url(#Unbenannter_Verlauf_38-3);}.cls-21{fill:url(#Unbenannter_Verlauf_41);}.cls-22{fill:url(#Unbenannter_Verlauf_41-2);}.cls-23{fill:#449fbc;}.cls-24{fill:url(#Unbenannter_Verlauf_18);}.cls-25{fill:url(#Unbenannter_Verlauf_25);}.cls-26{fill:url(#Unbenannter_Verlauf_24);}.cls-27{fill:url(#Unbenannter_Verlauf_21);}.cls-28{fill:url(#Unbenannter_Verlauf_22);}.cls-29{fill:url(#Unbenannter_Verlauf_23);}.cls-30{fill:url(#Unbenannter_Verlauf_24-2);}.cls-31{fill:url(#Unbenannter_Verlauf_25-2);}.cls-32{fill:url(#Unbenannter_Verlauf_37);}.cls-33{fill:url(#Unbenannter_Verlauf_27);}.cls-34{fill:url(#Unbenannter_Verlauf_37-2);}.cls-35{fill:url(#Unbenannter_Verlauf_29);}.cls-36{fill:url(#Unbenannter_Verlauf_30);}.cls-37{fill:url(#Unbenannter_Verlauf_37-3);}.cls-38{fill:url(#Unbenannter_Verlauf_34);}.cls-39{fill:url(#Unbenannter_Verlauf_37-4);}.cls-40{fill:url(#Unbenannter_Verlauf_34-2);}.cls-41{fill:url(#Unbenannter_Verlauf_35);}.cls-42{fill:url(#Unbenannter_Verlauf_36);}.cls-43{fill:url(#Unbenannter_Verlauf_37-5);}.cls-44{fill:url(#Unbenannter_Verlauf_38-4);}.cls-45{fill:url(#Unbenannter_Verlauf_39);}.cls-46{fill:url(#Unbenannter_Verlauf_42);}.cls-47{fill:url(#Unbenannter_Verlauf_41-3);}.cls-48{fill:url(#Unbenannter_Verlauf_42-2);}.cls-49{stroke-dasharray:7;stroke:url(#Unbenannter_Verlauf_43);}.cls-50{fill:url(#Unbenannter_Verlauf_46);}.cls-51{fill:url(#Unbenannter_Verlauf_45);}.cls-52{fill:url(#Unbenannter_Verlauf_46-2);}.cls-53{fill:url(#Unbenannter_Verlauf_47);}</style><linearGradient id="Unbenannter_Verlauf_3" x1="458.36" y1="114.31" x2="399.47" y2="18.09" gradientTransform="matrix(1, 0, 0, -1, 0, 114.89)" gradientUnits="userSpaceOnUse"><stop offset="0" stop-color="#e7e7ed"/><stop offset="1" stop-color="#d0d0e6"/></linearGradient><linearGradient id="Unbenannter_Verlauf_2" x1="286.62" y1="-51" x2="321.73" y2="-119" gradientTransform="matrix(1, 0, 0, -1, 0, 114.89)" gradientUnits="userSpaceOnUse"><stop offset="0" stop-color="#b0c3de"/><stop offset="1" stop-color="#a4b6d7"/></linearGradient><linearGradient id="Unbenannter_Verlauf_4" x1="398.67" y1="-135.02" x2="418.08" y2="-135.02" gradientTransform="matrix(1, 0, 0, -1, 0, 114.89)" gradientUnits="userSpaceOnUse"><stop offset="0" stop-color="#6e78b7"/><stop offset="1" stop-color="#336684"/></linearGradient><linearGradient id="Unbenannter_Verlauf_4-2" x1="335.99" y1="-131.88" x2="367.96" y2="-131.88" xlink:href="#Unbenannter_Verlauf_4"/><linearGradient id="Unbenannter_Verlauf_11" x1="377.22" y1="15.39" x2="374.09" y2="-49.06" gradientTransform="matrix(1, 0, 0, -1, 0, 114.89)" gradientUnits="userSpaceOnUse"><stop offset="0" stop-color="#457798"/><stop offset="1" stop-color="#47437c"/></linearGradient><linearGradient id="Unbenannter_Verlauf_10" x1="282.65" y1="-65.86" x2="349.77" y2="-65.86" gradientTransform="matrix(1, 0, 0, -1, 0, 114.89)" gradientUnits="userSpaceOnUse"><stop offset="0" stop-color="#f4ddc4"/><stop offset="1" stop-color="#f6ede1"/></linearGradient><linearGradient id="Unbenannter_Verlauf_10-2" x1="404.81" y1="-65.86" x2="471.94" y2="-65.86" xlink:href="#Unbenannter_Verlauf_10"/><linearGradient id="Unbenannter_Verlauf_8" x1="377.99" y1="-120.95" x2="386.59" y2="-64.72" gradientTransform="matrix(1, 0, 0, -1, -0.31, 112.74)" gradientUnits="userSpaceOnUse"><stop offset="0" stop-color="#f8bb55"/><stop offset="1" stop-color="#f7ec86"/></linearGradient><linearGradient id="Unbenannter_Verlauf_38" x1="363.91" y1="-33.91" x2="381.35" y2="-86.95" gradientTransform="matrix(1, 0, 0, -1, 0, 114.89)" gradientUnits="userSpaceOnUse"><stop offset="0" stop-color="#f2a287"/><stop offset="1" stop-color="#f5897c"/></linearGradient><linearGradient id="Unbenannter_Verlauf_10-3" x1="368.94" y1="-29.95" x2="389.56" y2="-1.41" xlink:href="#Unbenannter_Verlauf_10"/><linearGradient id="Unbenannter_Verlauf_11-2" x1="379.85" y1="15.26" x2="376.72" y2="-49.19" xlink:href="#Unbenannter_Verlauf_11"/><linearGradient id="Unbenannter_Verlauf_14" x1="363.95" y1="-67.55" x2="349.49" y2="-65.81" gradientTransform="matrix(1, 0, 0, -1, 0, 114.89)" gradientUnits="userSpaceOnUse"><stop offset="0" stop-color="#f2a287" stop-opacity="0"/><stop offset="0.52" stop-color="#ec877a" stop-opacity="0.52"/><stop offset="1" stop-color="#e87471"/></linearGradient><linearGradient id="Unbenannter_Verlauf_38-2" x1="342.09" y1="-41.09" x2="359.52" y2="-94.12" xlink:href="#Unbenannter_Verlauf_38"/><linearGradient id="Unbenannter_Verlauf_14-2" x1="392.9" y1="-75.73" x2="406.28" y2="-65.42" xlink:href="#Unbenannter_Verlauf_14"/><linearGradient id="Unbenannter_Verlauf_38-3" x1="396.59" y1="-23.17" x2="414.02" y2="-76.21" xlink:href="#Unbenannter_Verlauf_38"/><linearGradient id="Unbenannter_Verlauf_41" x1="375.28" y1="-115.9" x2="442.59" y2="-115.9" gradientTransform="matrix(1, 0, 0, -1, 0, 114.89)" gradientUnits="userSpaceOnUse"><stop offset="0" stop-color="#f8d774"/><stop offset="1" stop-color="#f7ec86"/></linearGradient><linearGradient id="Unbenannter_Verlauf_41-2" x1="316.19" y1="-118.37" x2="394.11" y2="-118.37" xlink:href="#Unbenannter_Verlauf_41"/><linearGradient id="Unbenannter_Verlauf_18" x1="257.02" y1="-251.28" x2="288.99" y2="-251.28" gradientTransform="matrix(1, 0, 0, -1, 0, 114.89)" gradientUnits="userSpaceOnUse"><stop offset="0" stop-color="#4d64a3"/><stop offset="1" stop-color="#34266f"/></linearGradient><linearGradient id="Unbenannter_Verlauf_25" x1="326.71" y1="-247.87" x2="359.71" y2="-247.87" gradientTransform="matrix(1, 0, 0, -1, 0, 114.89)" gradientUnits="userSpaceOnUse"><stop offset="0" stop-color="#34266f"/><stop offset="1" stop-color="#4d64a3"/></linearGradient><linearGradient id="Unbenannter_Verlauf_24" x1="253.81" y1="-187.51" x2="292.45" y2="-187.51" gradientTransform="matrix(1, 0, 0, -1, 0, 114.89)" gradientUnits="userSpaceOnUse"><stop offset="0" stop-color="#4a77b5"/><stop offset="1" stop-color="#443c99"/></linearGradient><linearGradient id="Unbenannter_Verlauf_21" x1="321.11" y1="-185.67" x2="359.75" y2="-185.67" gradientTransform="matrix(1, 0, 0, -1, 0, 114.89)" gradientUnits="userSpaceOnUse"><stop offset="0" stop-color="#443c99"/><stop offset="1" stop-color="#4a77b5"/></linearGradient><linearGradient id="Unbenannter_Verlauf_22" x1="307.75" y1="-113.39" x2="307.94" y2="-155.01" gradientTransform="matrix(1, 0, 0, -1, 0, 114.89)" gradientUnits="userSpaceOnUse"><stop offset="0" stop-color="#63471f"/><stop offset="1" stop-color="#ce9340"/></linearGradient><linearGradient id="Unbenannter_Verlauf_23" x1="308.91" y1="-236.94" x2="306.33" y2="-291.81" gradientTransform="matrix(1, 0, 0, -1, 0, 114.89)" gradientUnits="userSpaceOnUse"><stop offset="0" stop-color="#59c0cf"/><stop offset="1" stop-color="#4a77b5"/></linearGradient><linearGradient id="Unbenannter_Verlauf_24-2" x1="304.63" y1="-153.12" x2="309.78" y2="-247.03" xlink:href="#Unbenannter_Verlauf_24"/><linearGradient id="Unbenannter_Verlauf_25-2" x1="294.04" y1="-133.69" x2="339.63" y2="-78.09" xlink:href="#Unbenannter_Verlauf_25"/><linearGradient id="Unbenannter_Verlauf_37" x1="476.25" y1="-265.87" x2="507.19" y2="-235.92" gradientTransform="matrix(1, 0, 0, -1, 0, 114.89)" gradientUnits="userSpaceOnUse"><stop offset="0" stop-color="#30adb6"/><stop offset="1" stop-color="#2752a3"/></linearGradient><linearGradient id="Unbenannter_Verlauf_27" x1="433.35" y1="-48.88" x2="503.49" y2="-48.88" gradientTransform="matrix(1, 0, 0, -1, 0, 114.89)" gradientUnits="userSpaceOnUse"><stop offset="0" stop-color="#f7cccc"/><stop offset="1" stop-color="#f5b299"/></linearGradient><linearGradient id="Unbenannter_Verlauf_37-2" x1="490.5" y1="-36.46" x2="505.84" y2="-36.46" xlink:href="#Unbenannter_Verlauf_37"/><linearGradient id="Unbenannter_Verlauf_29" x1="524.16" y1="-177.08" x2="555.72" y2="-177.08" gradientTransform="matrix(1, 0, 0, -1, 0, 114.89)" gradientUnits="userSpaceOnUse"><stop offset="0" stop-color="#6b3f8f"/><stop offset="1" stop-color="#5b2769"/></linearGradient><linearGradient id="Unbenannter_Verlauf_30" x1="489.03" y1="-177.31" x2="533.22" y2="-177.31" gradientTransform="matrix(1, 0, 0, -1, 0, 114.89)" gradientUnits="userSpaceOnUse"><stop offset="0" stop-color="#9257a2"/><stop offset="1" stop-color="#6e3a95"/></linearGradient><linearGradient id="Unbenannter_Verlauf_37-3" x1="531.7" y1="-251.3" x2="549.81" y2="-251.3" xlink:href="#Unbenannter_Verlauf_37"/><linearGradient id="Unbenannter_Verlauf_34" x1="562.42" y1="0.45" x2="612.93" y2="0.45" gradientTransform="matrix(1, 0, 0, -1, 0, 114.89)" gradientUnits="userSpaceOnUse"><stop offset="0" stop-color="#f5b299"/><stop offset="1" stop-color="#f7cccc"/></linearGradient><linearGradient id="Unbenannter_Verlauf_37-4" x1="493.88" y1="-18.92" x2="562.87" y2="-110.75" xlink:href="#Unbenannter_Verlauf_37"/><linearGradient id="Unbenannter_Verlauf_34-2" x1="-888.79" y1="-114.01" x2="-867.59" y2="-77.05" gradientTransform="translate(-379.08 113.34) rotate(173.3)" xlink:href="#Unbenannter_Verlauf_34"/><linearGradient id="Unbenannter_Verlauf_35" x1="-2289.65" y1="-528.64" x2="-2246.22" y2="-528.64" gradientTransform="translate(-1816.52 88.66) rotate(167.09)" gradientUnits="userSpaceOnUse"><stop offset="0" stop-color="#251a88"/><stop offset="1" stop-color="#2752a3"/></linearGradient><linearGradient id="Unbenannter_Verlauf_36" x1="546.01" y1="-43.37" x2="548.22" y2="-27.28" gradientTransform="matrix(1, 0, 0, -1, 0, 114.89)" gradientUnits="userSpaceOnUse"><stop offset="0" stop-color="#30adb6" stop-opacity="0"/><stop offset="1" stop-color="#2752a3"/></linearGradient><linearGradient id="Unbenannter_Verlauf_37-5" x1="532.93" y1="10.41" x2="601.92" y2="-81.42" xlink:href="#Unbenannter_Verlauf_37"/><linearGradient id="Unbenannter_Verlauf_38-4" x1="543.93" y1="55.88" x2="559.2" y2="55.88" xlink:href="#Unbenannter_Verlauf_38"/><linearGradient id="Unbenannter_Verlauf_39" x1="204.21" y1="161.36" x2="247.45" y2="161.36" gradientTransform="matrix(1, 0, 0, -1, 0, 400.11)" gradientUnits="userSpaceOnUse"><stop offset="0" stop-color="#646363"/><stop offset="1" stop-color="#878787"/></linearGradient><linearGradient id="Unbenannter_Verlauf_42" x1="202.88" y1="-139.25" x2="248.7" y2="-139.25" gradientTransform="matrix(1, 0, 0, -1, 0, 114.89)" gradientUnits="userSpaceOnUse"><stop offset="0" stop-color="#f5897c"/><stop offset="1" stop-color="#f2a287"/></linearGradient><linearGradient id="Unbenannter_Verlauf_41-3" x1="204.28" y1="-154.72" x2="247.3" y2="-154.72" xlink:href="#Unbenannter_Verlauf_41"/><linearGradient id="Unbenannter_Verlauf_42-2" x1="307.67" y1="3.57" x2="293.13" y2="30.27" xlink:href="#Unbenannter_Verlauf_42"/><linearGradient id="Unbenannter_Verlauf_43" x1="316.42" y1="-261.73" x2="159.61" y2="-192.59" gradientTransform="translate(476.89 -93.58) rotate(-168.21)" gradientUnits="userSpaceOnUse"><stop offset="0" stop-color="#3ad1ae"/><stop offset="1" stop-color="#1b6151"/></linearGradient><linearGradient id="Unbenannter_Verlauf_46" x1="330.63" y1="852.79" x2="383.82" y2="852.79" gradientTransform="translate(841.18 529.05) rotate(145.61)" gradientUnits="userSpaceOnUse"><stop offset="0" stop-color="#9a5be8" stop-opacity="0.7"/><stop offset="1" stop-color="#bf6cff"/></linearGradient><linearGradient id="Unbenannter_Verlauf_45" x1="363.26" y1="838.14" x2="354.28" y2="867.12" gradientTransform="translate(841.18 529.05) rotate(145.61)" gradientUnits="userSpaceOnUse"><stop offset="0" stop-color="#9041ff"/><stop offset="1" stop-color="#bf6cff"/></linearGradient><linearGradient id="Unbenannter_Verlauf_46-2" x1="349.01" y1="843.95" x2="383.82" y2="843.95" xlink:href="#Unbenannter_Verlauf_46"/><linearGradient id="Unbenannter_Verlauf_47" x1="361.75" y1="-210.02" x2="344.44" y2="-212.05" gradientTransform="translate(476.89 -93.58) rotate(-168.21)" gradientUnits="userSpaceOnUse"><stop offset="0" stop-color="#9a5be8"/><stop offset="1" stop-color="#bf6cff"/></linearGradient></defs><title>news-1</title><g id="Objects"><g class="cls-1"><path class="cls-2" d="M134,234.74a4.24,4.24,0,0,0,2.36-1.84c.07-.22.22-.37.22-.59,0-.66-.81-1-1.47-1-2.29-.22-4.57.66-6.71,1.54-1.54.67-3.17,1.26-4.71,1.92a6.38,6.38,0,0,0-3.17,2.13c0,.37.44.52.81.45a5.92,5.92,0,0,0,1-.45,5.78,5.78,0,0,1,4.42,0c1,.3,2,.67,2.8.23s1.1-1.18,1.76-1.62C132,234.89,133.05,235,134,234.74Z"/><path class="cls-2" d="M163.47,353.7c.08.15.15.37,0,.44,0,.15.23.22.37.22a.6.6,0,0,0,.44-.22,3.45,3.45,0,0,1,.52-.29,2.27,2.27,0,0,0,.66-.52c.45-.51.3-1.32.52-1.91l.22-.67c0-.22,0-.44-.22-.58-.07,0-.07-.08-.15,0a.07.07,0,0,0-.07.07c-.66.66-1.33,1.4-1.92,2.06a1.34,1.34,0,0,0-.29.37A1,1,0,0,0,163.47,353.7Z"/><path class="cls-2" d="M166.2,348.54c0,.08.15.15.22.15a.57.57,0,0,0,.3-.15,1.22,1.22,0,0,0,.44-.44c.07-.22.07-.51-.15-.59l-.74.74C166.27,348.32,166.2,348.47,166.2,348.54Z"/><path class="cls-2" d="M169.22,345.23c-.15-.07-.29.07-.44.15a7.67,7.67,0,0,1-.74.81.44.44,0,0,0,.22.37l.81-.81a.93.93,0,0,0,.22-.3C169.37,345.38,169.29,345.3,169.22,345.23Z"/><path class="cls-2" d="M171.58,343.61c-.08-.07-.22-.15-.3-.07s-.22.14-.29.22a4.5,4.5,0,0,1-.67.59.4.4,0,0,0,.23.36,2.15,2.15,0,0,0,.95-.66C171.58,343.83,171.65,343.68,171.58,343.61Z"/><path class="cls-2" d="M161.63,354.88a3.39,3.39,0,0,1-1.54.74c-.3.07-.52.07-.81.14a3.81,3.81,0,0,0-2.29,1.4c0,.3.37.44.67.3s.44-.3.73-.44a5,5,0,0,1,1.77-.52,5.12,5.12,0,0,0,2.65-1.84.47.47,0,0,0-.59-.15C162,354.58,161.85,354.81,161.63,354.88Z"/><path class="cls-2" d="M78.32,324.16a2.74,2.74,0,0,0-.37-.66,1.48,1.48,0,0,0-.44-.52.46.46,0,0,0-.59-.07c-.29.15-.29.59-.22,1a6.07,6.07,0,0,0,.37,1,1.7,1.7,0,0,1,.37,1.1,1.94,1.94,0,0,1-.3.59c-.22.37-.51.74-.73,1.11s-.3.37-.3.59a.71.71,0,0,0,.15.66.62.62,0,0,0,.52.15,1.16,1.16,0,0,0,.88-.44,2.12,2.12,0,0,0,.44-1.18,10,10,0,0,1,.3-1.4A8.08,8.08,0,0,0,78.32,324.16Z"/><path class="cls-2" d="M80.53,332.78c-.14-.07-.29,0-.44-.07-.44-.08-.81-.67-1.25-.67a.28.28,0,0,0-.15.37.63.63,0,0,0,.22.37,4.64,4.64,0,0,0,1,.74c.15.07.37.22.52.15a.48.48,0,0,0,.44-.45C80.9,333.08,80.75,332.85,80.53,332.78Z"/><path class="cls-2" d="M104.18,342.73c.37.22.73-.15,1-.52a3.7,3.7,0,0,0,0-2.5,1.14,1.14,0,0,0-.59-.89c-.37-.07-.67.15-1,.15s-1-.44-1.47-.22a.55.55,0,0,0-.37.51,1,1,0,0,0,.08.67c.37,1,1.4,1.54,2.06,2.43C104,342.5,104,342.65,104.18,342.73Z"/><path class="cls-2" d="M109.33,330.42a1.48,1.48,0,0,0-.36,1.11c0,.29-.08.59.07.81a1.06,1.06,0,0,0,.81.51c.29.08.66.08,1,.15a3.08,3.08,0,0,0,1.18.22,1.28,1.28,0,0,0,.66-.29c.44-.22.88-.52,1.4-.74.07-.07.22-.15.22-.22s-.07-.37-.15-.51a2.76,2.76,0,0,0-1.25-1,3.74,3.74,0,0,0-1.25,0c-.37,0-.74-.14-1.11-.14A1.22,1.22,0,0,0,109.33,330.42Z"/><path class="cls-2" d="M106.68,325.86a1,1,0,0,0-.15.81c.08.81.37,1.62-.07,2.35s-1.55,1-1.77,1.77a2.15,2.15,0,0,0-.07.67,2.18,2.18,0,0,0,1,1.62,1.28,1.28,0,0,0,.88.22,1.61,1.61,0,0,0,.89-.67,5.41,5.41,0,0,0,.29-1.1,4,4,0,0,0,.15-1,.64.64,0,0,1,.22-.51c.22-.3.59-.3,1-.3a3.88,3.88,0,0,0,2.8-1.18c.07-.07.15-.14.15-.22s-.08-.15-.08-.22a7.83,7.83,0,0,0-1-1.25,1.64,1.64,0,0,0-.44-.37,3.4,3.4,0,0,0-1.18-.29c-.44-.15-.88-.37-1.32-.52A1.1,1.1,0,0,0,106.68,325.86Z"/><path class="cls-2" d="M112.94,310.68a.27.27,0,0,0-.22-.07c-.07,0-.15.07-.22.15l-.88.88c-.15.15-.3.22-.37.44a.64.64,0,0,0-.07.52.39.39,0,0,0,.36.22,1,1,0,0,0,.45-.15.58.58,0,0,1,.29-.15A2.57,2.57,0,0,0,113,312a.67.67,0,0,0,.14-.81A.41.41,0,0,0,112.94,310.68Z"/><path class="cls-2" d="M110.81,307.52c.07.07.14.22.29.22s.08,0,.15-.08a.55.55,0,0,0,.22-.51,1.61,1.61,0,0,0-.15-.59,4.4,4.4,0,0,1-.29-.89c-.08-.36-.15-.88-.44-1.1a.29.29,0,0,0-.22-.07.46.46,0,0,0-.3.07,1.46,1.46,0,0,0-.59.88,1.29,1.29,0,0,0,.3,1,1.64,1.64,0,0,0,.44.37A5.61,5.61,0,0,0,110.81,307.52Z"/><path class="cls-2" d="M104.4,297.57c.22-.07.22-.37.15-.51a1.79,1.79,0,0,0-.89-1c-.22,0-.22.3-.22.45s.22.29.3.44S104.1,297.5,104.4,297.57Z"/><path class="cls-2" d="M98.14,292.49a.35.35,0,0,0,.37,0,.5.5,0,0,0,.29-.59,1.14,1.14,0,0,0-.44-.59l-.15-.15c-.22-.07-.51.15-.66.3s-.22.22-.15.37.07.14.15.22A.74.74,0,0,0,98.14,292.49Z"/><path class="cls-2" d="M80,345.82a72,72,0,0,0,67.32,17.46,8.21,8.21,0,0,1,3.54-2.29,11.93,11.93,0,0,0,4.12-2.28,1.34,1.34,0,0,0-1.32-.29,5.84,5.84,0,0,0-1.25.51,13.94,13.94,0,0,1-3,1,6.73,6.73,0,0,1-1.7.29c-.73,0-1.47-.22-2.21-.22-1.17,0-2.28.52-3.46.37-.59-.07-1.18-.37-1.76-.44-1.4-.3-2.88.07-4.2-.37a.8.8,0,0,1-.45-1.4,3,3,0,0,0,.67-.74,3.25,3.25,0,0,0-2.65-2c-.23,0-.37.14-.59.22s-.3.07-.45.22,0,.66,0,1-.44,1-1,1.18A4,4,0,0,1,130,358a2.57,2.57,0,0,0-1.62.22c-.59-.44-.37-1.4-.81-2-.15-.23-.44-.45-.37-.67a.52.52,0,0,1,.74-.22c.29.15.44.44.66.66a2,2,0,0,0,1.7.3c.88-.3.66-.74.81-1.4a2,2,0,0,1,.73-1.11c.08-.07.23-.22.23-.36.07-.37-.45-.52-.74-.45a5.87,5.87,0,0,0-.89.52c-.58.29-1.39.07-2.06.37-.37.15-.73.44-1.1.59a4.53,4.53,0,0,1-1.4.14c-.89,0-1.7-.07-2.58-.07a1.84,1.84,0,0,0-1.18.44c-.37.3-.59.59-1,.89a3.83,3.83,0,0,1-2.43.37,3.74,3.74,0,0,0-2.72.22,3.35,3.35,0,0,0,.95,1c0,.29-.44.44-.81.37-.58,0-1.17-.08-1.76-.08s-1.18,0-1.4.52a.81.81,0,0,0,.29,1,2.44,2.44,0,0,0,1,.36c1.92.3,4-.22,5.75.81a1.22,1.22,0,0,1-.89.89,2.68,2.68,0,0,1-1.32,0c-1.4-.15-2.8-.3-4.27-.52-2-.22-4.2-.51-5.6-2,.15-.66,1.25-.29,1.77-.73-.15-.45-.59-.59-1-.67a3.42,3.42,0,0,1-1.25-.07,3.13,3.13,0,0,1-1.25-.88.77.77,0,0,1,.74-.59,2.45,2.45,0,0,1,1,.14c1.77.52,3.75,1,5.45.23a2.76,2.76,0,0,0-2.51-.81,3.61,3.61,0,0,1-2.65-.59l.67-.67a2.29,2.29,0,0,0-1.55-.59,20.36,20.36,0,0,0-2.06-.14,34.16,34.16,0,0,0-5.53-.22,8.86,8.86,0,0,1-1.4.07,1.43,1.43,0,0,1-1.18-.59c.3-.07.3-.59,0-.81s-.59-.37-.73-.66A.92.92,0,0,1,97,350a1.84,1.84,0,0,1,1.4,0,54.5,54.5,0,0,1,6,1.4c.74.22,1.4.44,2.13.59a21.25,21.25,0,0,0,5.75.14c.81-.07,2.43-1,2.21-2.06a1.29,1.29,0,0,0-1.33-.81,4.33,4.33,0,0,1-1.69-.07c-.59-.22-1-1-1.62-1.18a8.46,8.46,0,0,0-1.33-.15,3.73,3.73,0,0,1-2.13-1,6.23,6.23,0,0,0-1.18-1.17c-.66-.37-1.47-.23-2.14-.59a9.44,9.44,0,0,1-1.25-1.11,7,7,0,0,0-3-1c-3.31-.51-6.56-1.91-9.87-1.54a2.63,2.63,0,0,0-1.62.66c-.07.15-.22.22-.15.37s.15.29.22.44a16.65,16.65,0,0,1,2.29,3.17,2.12,2.12,0,0,0-1.26.51,15.1,15.1,0,0,0,4.13,4.72,7,7,0,0,1,1.91,1.69c-.14.3-.58.37-1,.3a12.83,12.83,0,0,1-2.88-.74c-.73-.29-2.5-1-2.72-1.84s.88-1.25.59-2.21a17.5,17.5,0,0,1-1.11-3.32c.3-.22.15-.59-.07-.88a7.77,7.77,0,0,0-.81-.74,1.63,1.63,0,0,1-.37-1.69c.07-.22.22-.44.3-.74a2.11,2.11,0,0,0-.3-1.62A3.69,3.69,0,0,0,85,338.45l-2.5-2.06a11.72,11.72,0,0,0-1-.81l-1.55-.88c-.59-.3-1.25-.59-1.84-1a2.17,2.17,0,0,0-1.33-.37,3.55,3.55,0,0,0-1,.37.8.8,0,0,1-.88-.3c-.37-.95-1.55-1.25-2.28-2-.3-.3-.74-.59-1.11-.45a.87.87,0,0,1-.37,1.18,5.71,5.71,0,0,1-1.1-1.91c0,.29-.44.44-.66.29a1.09,1.09,0,0,1-.52-.66c-.29-.59-.52-1.11-.81-1.7l.37-.36c.44.14.81.36,1.18.51a2.4,2.4,0,0,1-.22-.81.63.63,0,0,1,.44-.66c.37-.07.73.29,1,.66.51.89,1.1,1.7,1.62,2.58.44-.22.51-.88.44-1.4-.22-1.84-1-3.76-.3-5.38.37.3,1,.44,1.26.08s0-.52-.08-.74a3.1,3.1,0,0,1,.08-2.43A.93.93,0,0,1,74,320a.48.48,0,0,1,.44.08,6.89,6.89,0,0,1,1.62.88,5.43,5.43,0,0,0,1.47.81,3.32,3.32,0,0,0,.89,0,11.13,11.13,0,0,0,3.83-1c.37-.14.81-.36,1.1-.14a.79.79,0,0,1,.3.66,11.83,11.83,0,0,1,.22,2.21.26.26,0,0,1-.08.22c-.07.15-.29.07-.44.07a11.91,11.91,0,0,1-1.25-.88c-.44-.29-1.11-.37-1.33.07.22.89,1,1.4,1.62,2.14.81,1,1,2.43,1.77,3.54a5.45,5.45,0,0,0,4.35,2,22.57,22.57,0,0,0,4.93-.67,5.23,5.23,0,0,1,1.84-.14,9.86,9.86,0,0,0,2,.29,2.25,2.25,0,0,0,1.33-.66,2.51,2.51,0,0,0,.88-2.36c-.29-1.25-1.32-1-2.13-1.47-1.18-.67-.08-1.85.37-2.58a1.35,1.35,0,0,0,.14-1.47,1.2,1.2,0,0,0-1.54-.08,4.67,4.67,0,0,1-1.48.74,5.78,5.78,0,0,1-1.1,0,1.12,1.12,0,0,0-1,.44,3.28,3.28,0,0,0-.22,1.18c-.15.66-.89,1-1.55,1.32a8,8,0,0,1-2.58.81,1.52,1.52,0,0,1-.59-.07.8.8,0,0,1-.15-1,2.13,2.13,0,0,1,.89-.66,4.74,4.74,0,0,0,1.91-1.25,1.55,1.55,0,0,0-.07-2.06,2.32,2.32,0,0,0-1-.37c-.37-.15-.74-.37-.74-.74a.67.67,0,0,1,.59-.74,1.11,1.11,0,0,1,1,.23c.29.14.59.44.88.29a1.19,1.19,0,0,0,.37-.66,2.13,2.13,0,0,1,.81-1.18.88.88,0,0,1,.52,1.1c.07.3.44.37.73.22a2.23,2.23,0,0,0,.67-.59,1.63,1.63,0,0,1,1.62-.22c1.18.52,1.47,2.36,2.65,2.8l.88.22c.3.15.59.37.52.67a.62.62,0,0,1-.15.37,2.43,2.43,0,0,0-.37,1.17,1.71,1.71,0,0,0,.15.89.76.76,0,0,0,.74.37c.73-.15.66-1.48,1.4-1.62.44-.08.81.36,1.17.66a5.08,5.08,0,0,0,3.39,1.18,19.48,19.48,0,0,1,3.69.22,7.21,7.21,0,0,1,2.35,1.25c.3.22,1.18,1,1.62.74a.46.46,0,0,0,.22-.59,2.57,2.57,0,0,0-.29-.67,2.6,2.6,0,0,1-.37-1.47,1.39,1.39,0,0,1,.89-1.18c.51-.14,1.1.15,1.54-.07s.44-.52.74-.66a1.24,1.24,0,0,1,1,.07,4.08,4.08,0,0,1,.74.81c.22.37.51.66.73,1,.67,1,1.55,2,2.66,1.84.88-.07,1.54-.88,2.35-1.25s2-.37,2.58-1a.74.74,0,0,0,.22-.74,1.2,1.2,0,0,0-.37-.51,9.68,9.68,0,0,1-1.47-3.17,3.7,3.7,0,0,0-2.28-2.5,3.62,3.62,0,0,0-2,.22,10.91,10.91,0,0,0-1.55.59,3.07,3.07,0,0,1-.74.29,2.49,2.49,0,0,1-.81-.15,4,4,0,0,0-2.72-.37,10.09,10.09,0,0,0-1.18.67c-.44.14-1,.07-1.18-.37-.07-.22,0-.44-.07-.59-.15-.52-.81-.66-1.4-.66-1,0-2.29-.15-2.73-1a3.64,3.64,0,0,1-.22-.74c-.66-2.8-1.32-5.82-.22-8.47a4.05,4.05,0,0,0,.37-1,1,1,0,0,0-.44-.89c-.37,0-.44.45-.44.81a2.47,2.47,0,0,1-1,1.55,1.16,1.16,0,0,1-.44-1.4c-.29-.15-.59.07-.73.37a1.77,1.77,0,0,0,.07.88c.29,1,.51,2.07.81,3a9.43,9.43,0,0,1,.44,2.43,2.77,2.77,0,0,1-1,2.21c-.59-.36-.59-1.17-.66-1.84a13.76,13.76,0,0,0-1.1-4.86c-.3-.22-.23-.74,0-1s.58-.52.73-.81c.22-.59-.15-1.18-.22-1.77a5.84,5.84,0,0,1,.74-2.36c.29-.73.22-1.84-.52-2.13-.29.37-.59.73-.88,1.18a1,1,0,0,0-1.62.59c-.08.44.22.81.37,1.25s.07,1-.3,1.1-.74-.14-1-.37L99.32,302a6.29,6.29,0,0,0,1.32-2.72,5.93,5.93,0,0,0-.44-2.73,2,2,0,0,0-.52-1,.89.89,0,0,0-1-.07c-.66-.22-.59-1.25-1.1-1.77a3.31,3.31,0,0,0-1.47-.59c-.52-.15-1.11-.37-1.18-.88a1.18,1.18,0,0,1,.66-1.25,8.06,8.06,0,0,0,1.25-.89c.44-.44.52-1.1,1-1.54a1.93,1.93,0,0,1,1.91-.23,4.44,4.44,0,0,1,1.62,1.18c1,.89,1.92,1.77,2.88,2.73a8.18,8.18,0,0,1,1.77,2.06c.44.74.58,1.62,1,2.36a2.16,2.16,0,0,0,2.06,1.25c1-.15,1.62-1.1,2.58-1.1a1.18,1.18,0,0,1,.81.36c1.1,1,1,2.73,1.4,4.05s1.32,2.14,1.77,3.32a1.77,1.77,0,0,1-.3,1.91c-.52.37-1.33.37-1.62.89s.07,1.25.52,1.77c1.1,1.32,2.28,2.65,3.53,3.9a7,7,0,0,0,3.17,2.06c-.15-.07-.22-.07-.37-.14a6.09,6.09,0,0,1,3.24,1.54,9.14,9.14,0,0,1,1.92,3.1,1.89,1.89,0,0,0,.51.81c.22.22.59.22.89.29a29,29,0,0,0,3.61.22,3.77,3.77,0,0,0,2.94-1c.3-.29.44-.58.74-.88a2.15,2.15,0,0,1,2.21-.15c.74.3,1.32.74,2.06,1.11a9.27,9.27,0,0,0,4.72.44,26.41,26.41,0,0,0,4.19-.74,2.66,2.66,0,0,0,1.7-.88,5.24,5.24,0,0,0,.44-1.11,5.2,5.2,0,0,1,2.21-2.5,22.75,22.75,0,0,1,3-1.47,4.88,4.88,0,0,0,1.55-1c.88-1,.88-2.51.81-3.83-.52-.67,0-1.63.44-2.36a6.89,6.89,0,0,0,1-2.65,8.63,8.63,0,0,0-.07-1.92l-.45-3.76a8.09,8.09,0,0,0-.36-1.84c-.59-1.32-2-2.13-2.95-3.24-.81-.88-1.4-2.06-2.28-2.94a10,10,0,0,0-4.72-2.29c-.88-.22-2-.73-1.91-1.69a3.43,3.43,0,0,1,.44-1.11,2.54,2.54,0,0,0-.37-2.58c-.22-.29-.51-.73-.88-.81s-1,0-1.4-.29a1.82,1.82,0,0,1-.67-1.33,2.42,2.42,0,0,1,.08-1.76c.44-.81,1.47-1,2.28-1.26a7,7,0,0,0,1.7-1.17,2.29,2.29,0,0,0,.81-1,2.12,2.12,0,0,0,.07-.66A7.49,7.49,0,0,0,148,273a15,15,0,0,1,1.69-8.32,5.17,5.17,0,0,1,1.77-2.21c1.62-1,3.83-.45,5.38-1.48a2.17,2.17,0,0,0,.58-.59A11,11,0,0,0,159.2,256a6.83,6.83,0,0,1,.37-2.43c.59-1,2-1.62,2.28-2.72a2.6,2.6,0,0,0,0-1.11c-.14-1.18-.22-2.58.52-3.46.29-.37.74-.66.81-1a1.34,1.34,0,0,0,.07-.52,3.17,3.17,0,0,0-2.13-2.87,9.81,9.81,0,0,1-4-1.84,5.17,5.17,0,0,0-1.18-1,2.13,2.13,0,0,0-1-.15c-1.91-.15-3.83-.37-5.67-.59-.73-.07-1.55-.22-2.06.22l-.66.67a2.11,2.11,0,0,1-1.62,0c-.67-.15-1.33-.37-2.07-.52a1.49,1.49,0,0,0-.81-.07,2.67,2.67,0,0,0-.59.36c-.81.81-1.32,1.77-2.5,2.07a7.52,7.52,0,0,1-2.8-.22l-1.84-.23-1.77-.22a10.34,10.34,0,0,0-1.47-.07,3.91,3.91,0,0,0-2.14,1,19.42,19.42,0,0,0-1.62,1.77c-1.18,1.47-2,3-3.09,4.57a6.72,6.72,0,0,1-.89,1,4.39,4.39,0,0,1-2.28.95c-.81.15-1.69.23-2.5.3-1.77.29-3.39,1-5.16,1.18a44.9,44.9,0,0,0-5.45,1.25l-1,.22a3.92,3.92,0,0,0-1,.37,19.17,19.17,0,0,0-8.18,5.52.86.86,0,0,0,.67.37h.81a5.4,5.4,0,0,1,1.47.22c1.4.37,2.95,1,3.68,2.21.59,1,.3,1.84.08,2.95a4.48,4.48,0,0,0,.07,2.21,16.43,16.43,0,0,1,.81,2.72,6.81,6.81,0,0,1-.52,2.66c-.29.73-.51,1.54-.81,2.28a40.91,40.91,0,0,0-1.54,7.22c-.22,1.32-.22,2.43-1,3.53-.08.08-.15.23-.3.23s-.44-.15-.51-.37c-.81-2,.73-4.2.58-6.34-.07-.88-.44-1.84,0-2.65a6.6,6.6,0,0,1,.59-.81c.59-1,.3-2.21.23-3.31a11.06,11.06,0,0,1,.81-5.6,6.57,6.57,0,0,0,.58-1.7,1.78,1.78,0,0,0-.44-1.62,2.44,2.44,0,0,0-1.47-.44c-1.55-.15-3.09-.22-4.57-.37-1-.07-2.35-.07-2.87.89a1.75,1.75,0,0,1-.29.44,1,1,0,0,1-.45.07c-1-.07-2-1.25-2.94-.88a2.46,2.46,0,0,0-.81.66,9.39,9.39,0,0,1-2.21,1.25A8.41,8.41,0,0,0,85.25,266a3.21,3.21,0,0,0-.52.81,3.11,3.11,0,0,0,.07,1.62,4.46,4.46,0,0,0,.74,1.92,1.76,1.76,0,0,0,1.77.81,3.06,3.06,0,0,1,.81-.22,1.35,1.35,0,0,1,1.1.81,3,3,0,0,1,.23,1.4V277a4.49,4.49,0,0,1-.15,1.4,1.39,1.39,0,0,1-1,.95c-.66-.73-.44-1.91-.51-2.87a5.47,5.47,0,0,0-.89-2.58,2.41,2.41,0,0,0-2-1.25,1.67,1.67,0,0,1-.59,0c-.37-.15-.29-.66-.37-1.1A2.1,2.1,0,0,0,83,270a7.17,7.17,0,0,0-1.7-.81,8.07,8.07,0,0,0-2.94-.66,1,1,0,0,1-.67-.15c-.07-.15-.07-.3-.14-.44,0-.52-.08-1-.08-1.48a1,1,0,0,0-.07-1.25c-.07-.15-.22-.29-.22-.44-.08-.52.51-1,.59-1.55a1,1,0,0,0-.44-.88c-.52.07-.74.73-1.18.73a.64.64,0,0,1-.59-.66,1.91,1.91,0,0,1,.22-.88c2-4.35,4.05-8.69,5.82-13.19a.66.66,0,0,0-.08-.81.49.49,0,0,0-.51.15,20.16,20.16,0,0,0-4.13,4.12c-3.39,4.06-6.92,8-10.6,11.79a1.89,1.89,0,0,1-1,.66,2.51,2.51,0,0,1,0-1.25,14.77,14.77,0,0,1,1.26-3.39,8.36,8.36,0,0,0,.88-3.46V256A72.55,72.55,0,0,0,80,345.82Zm8.62-51c.44-.3,1,0,1.39.29a6.67,6.67,0,0,1,2.21,2.36,6.45,6.45,0,0,0,1.7,2.21,15.37,15.37,0,0,0,2.5,1,1.34,1.34,0,0,1,.89,1.1,1.85,1.85,0,0,1-.74,1.25c-.29.3-.66.59-1,.89a4.1,4.1,0,0,1-1.25.95,1.48,1.48,0,0,1-1.47,0,1.5,1.5,0,0,1-.67-1.69c.08-.44.3-.88.37-1.33a.78.78,0,0,0-.66-.95,1.14,1.14,0,0,0-.74.44c-.29.29-.59.66-.88,1s-.52.51-.81.51c-.59,0-.88-.74-1.4-1,0-.59.59-1,.88-1.4a2.59,2.59,0,0,0,.37-1.84,6.25,6.25,0,0,0-.59-1.77,4.79,4.79,0,0,1-.37-1A.68.68,0,0,1,88.64,294.85Zm-6.12-9c.44-.15.89.29,1.25.59a2.23,2.23,0,0,1,.89,1.84c-.08.22-.15.37-.22.52a10.74,10.74,0,0,0-.89,2.65,7.8,7.8,0,0,0-.22,1.25,8.62,8.62,0,0,0,.44,2.73.84.84,0,0,1,.08.44,1.81,1.81,0,0,1-.3.44,4.35,4.35,0,0,1-2.72,1,.25.25,0,0,1-.22-.08l-.22-.22a3.14,3.14,0,0,1-.37-.73c0-.08-.08-.15-.08-.23s.08-.14.15-.22c.44-.44.81-.88,1.25-1.32a1,1,0,0,0,.3-.44.86.86,0,0,0-.08-.59c-.14-.45-.36-.81-.51-1.26a1.64,1.64,0,0,1,0-1.32c.15-.37.51-.59.73-.89a2.86,2.86,0,0,0,.3-2.35,2.78,2.78,0,0,1-.07-1.11C81.93,286.3,82.15,285.93,82.52,285.86Zm-6.33,6.26c.07,0,.07.07.14.07a3.82,3.82,0,0,0-.07.89,2.09,2.09,0,0,1,0,.66,1.13,1.13,0,0,1-.81.89A3.6,3.6,0,0,1,75,294a3.46,3.46,0,0,1,.15-.89c.07-.15.07-.37.22-.51A1.35,1.35,0,0,1,76.19,292.12Z"/><path class="cls-2" d="M183.58,319.08A4.17,4.17,0,0,1,184,321a13.6,13.6,0,0,0-.37,1.84c0,.88.67,1.84.22,2.58-.07.14-.29.36-.36.51-.15.37.07.81,0,1.25s-.74.89-1.26,1.18a6.22,6.22,0,0,0-2.06,2.51c-1,1.62-1.1,3.46-1.47,5.3s-1,3.76-2.43,4.86a5.66,5.66,0,0,0-1.25,1c-.81,1.1-.23,2.72-.74,3.9-.44,1-1.47,1.48-1.92,2.36.08.22.37.29.59.37,1.4.29,2.73-.37,4-.74a64.91,64.91,0,0,0,5.23-5,72.17,72.17,0,0,0,19.67-49.06,6.78,6.78,0,0,0-1.32,1.55c-.81,1.62-.89,3.54-2,5-.15.15-.3.37-.52.37-.37.07-.74-.3-1-.59s-.44-.74-.88-.81a1.44,1.44,0,0,0-1.18.59,19.07,19.07,0,0,0-2.72,3.76,6.64,6.64,0,0,1-1,1.47,1.75,1.75,0,0,1-1.25.74,12,12,0,0,0-4.5,1.84,5.78,5.78,0,0,0-1,.88,5.91,5.91,0,0,0-1.25,2.65A15.65,15.65,0,0,0,183.58,319.08Z"/><path class="cls-2" d="M105.72,225.83a6.23,6.23,0,0,0-1.4,1l-.07.07V227c0,.08.15.15.22.15a4,4,0,0,0,2.06-.22c.45-.15.89-.22,1.26-.37a3.61,3.61,0,0,1,1.25-.14h.37a.85.85,0,0,1,.37.14.59.59,0,0,1,.14.3c0,.51-1,.81-1.4.88a13.79,13.79,0,0,1-1.76.37,10.85,10.85,0,0,0-1.7.37c-.29.07-.51.22-.81.29a1,1,0,0,0-.74.44c0,.08-.07.08-.07.15s0,.08.07.08c.23.14.74-.08,1-.15a76.68,76.68,0,0,1,9.06-1.4,17.24,17.24,0,0,1,2.8-.08c1,.08,1.84.37,2.8.45a20.33,20.33,0,0,0,6.26-.74,72.72,72.72,0,0,1,11.93-1.4,3.27,3.27,0,0,0,2.21-.52c.3-.29-.14-.51-.36-.66s-.3-.29-.52-.44a7.37,7.37,0,0,0-1.77-.59l-2.21-.44a3.75,3.75,0,0,1-1.91-.81c-.08-.08-.08-.08-.08-.15-.14-.37.81-1,1.11-1.18a2.24,2.24,0,0,1,.74-.29,72.64,72.64,0,0,0-26.37,3.09,4.88,4.88,0,0,1-.67.52A11.08,11.08,0,0,1,105.72,225.83Z"/></g><path class="cls-3" d="M497,10H370.09a7.7,7.7,0,0,0-7.66,7.66V64.44a7.71,7.71,0,0,0,7.66,7.66h51.34A10.17,10.17,0,0,1,418.71,79s8.69-.15,11.78-6.85h66.59a7.71,7.71,0,0,0,7.66-7.66V17.66A7.76,7.76,0,0,0,497,10Z"/><path class="cls-4" d="M414.44,27.46H384.38a1.62,1.62,0,0,0,0,3.24h30.06a1.62,1.62,0,1,0,0-3.24Z"/><path class="cls-4" d="M489.64,38.51H384.31a1.62,1.62,0,0,0,0,3.24H489.64a1.63,1.63,0,0,0,1.62-1.62A1.54,1.54,0,0,0,489.64,38.51Z"/><path class="cls-4" d="M489.64,48.3H384.31a1.62,1.62,0,0,0,0,3.24H489.64a1.63,1.63,0,0,0,1.62-1.62A1.59,1.59,0,0,0,489.64,48.3Z"/><line class="cls-5" x1="453.92" y1="373.44" x2="585.55" y2="373.44"/><line class="cls-5" x1="535.09" y1="381.47" x2="604.7" y2="381.47"/><line class="cls-5" x1="248.92" y1="378.16" x2="375.4" y2="378.16"/><line class="cls-5" x1="360.07" y1="254.33" x2="442.35" y2="254.33"/><line class="cls-5" x1="433.44" y1="264.35" x2="461.06" y2="264.35"/><line class="cls-5" x1="351.97" y1="257.21" x2="377.97" y2="257.21"/><line class="cls-5" x1="235.66" y1="381.47" x2="264.39" y2="381.47"/><line class="cls-5" x1="332.3" y1="389.5" x2="398.01" y2="389.5"/><path class="cls-6" d="M334.81,146.49H246.64a7.15,7.15,0,0,0-7.15,7.15v40.51a7.15,7.15,0,0,0,7.15,7.15h10c3.09,6.7,11.78,6.85,11.78,6.85a10.17,10.17,0,0,1-2.72-6.85h69.16a7.15,7.15,0,0,0,7.15-7.15V153.64A7.22,7.22,0,0,0,334.81,146.49Z"/><path class="cls-7" d="M308.37,160.93H273.08a1.62,1.62,0,0,0,0,3.24h35.29a1.62,1.62,0,0,0,0-3.24Z"/><path class="cls-7" d="M326.56,172.05H254.89a1.62,1.62,0,1,0,0,3.24h71.67a1.62,1.62,0,1,0,0-3.24Z"/><path class="cls-7" d="M331.05,181.85H250.39a1.62,1.62,0,1,0,0,3.24H331a1.64,1.64,0,0,0,1.62-1.62A1.53,1.53,0,0,0,331.05,181.85Z"/><path class="cls-8" d="M398.67,245.64v8.55l14.15-.74a6.71,6.71,0,0,0,5.3-3.83Z"/><path class="cls-9" d="M342.4,256.84l14.14-5.67,3.46,1.62,8-5.82-5.82-10.61L336,255.51A6.75,6.75,0,0,0,342.4,256.84Z"/><path class="cls-10" d="M419.67,143.62a44.09,44.09,0,0,1-14.22-20.55c-6.19-19.15-25.56-20.18-25.56-20.18s-12.15-1.77-20.55,7.66A31.37,31.37,0,0,1,347.55,119c-5.08,2.06-10.9,6.19-11.56,14.51-1.25,14.95,9.5,23.72-7.15,35.5S315.22,218.46,363,205l-17.09-32.93,22.17-1.69s38.09,11,41.47,10.31,16.21-1.77,17.9-19.67C428.36,153,424.38,147.38,419.67,143.62Z"/><path class="cls-11" d="M332,186.86c-13.11-1.47-31.31-11.42-32.63-12.52s-.59-4.13-.59-4.94,1.55-4.64.44-5.6-3,3.91-3,3.91a85.2,85.2,0,0,1-10.68-7.66c-3.76-3.47-3.31,5.6-2.43,8.54s5.67,5.6,9.21,7.44c0,0,33.66,28.95,43.38,26,6.71-2.06,13.93-19.37,13.93-19.37L339,173.9Z"/><path class="cls-12" d="M422.54,186.86c13.11-1.47,31.31-11.42,32.63-12.52s.59-4.13.59-4.94-1.55-4.64-.44-5.6,3,3.91,3,3.91A85.2,85.2,0,0,0,469,160.05c3.76-3.47,3.31,5.6,2.43,8.54s-5.67,5.6-9.21,7.44c0,0-33.66,28.95-43.38,26-6.71-2.06-13.93-19.37-13.93-19.37l10.69-8.76Z"/><path class="cls-13" d="M430.94,207c-5.9-.22-48.32,6.56-48.32,6.56l.07,10.09-2.06-1.47-16.58-2.73-33.44-6.55,1.62,12.37,5.89,8.1,11.72,3.32,20,7.66,15.17-.08.3-2.13,14.66-5.08s16.64-4.28,17.38-4.64S436.83,207.26,430.94,207Z"/><path class="cls-14" d="M402.65,191.87a15.47,15.47,0,0,0,4.42-14.22s-.37-25.26-5.75-26-17.89,0-17.89,0l-5.53,3.68-5.52-3.68s-12.53-.74-17.9,0-5.75,26-5.75,26a15.47,15.47,0,0,0,4.42,14.22c6.48,6.26-1.47,35.94-1.47,35.94s6.63,4.79,26.15,4.79S404,227.81,404,227.81,396.24,198.13,402.65,191.87Z"/><path class="cls-15" d="M392.71,118.35,378,117.1l-14.73,1.25s-2.13,22.91,8.11,29.76a23.92,23.92,0,0,1,0,5.09c-1,.51-1.48,1.18-1.48,1.84,0,1.77,3.61,3.17,8.1,3.17s8.11-1.4,8.11-3.17c0-.66-.52-1.33-1.48-1.84a29.55,29.55,0,0,1,0-5.09C394.84,141.26,392.71,118.35,392.71,118.35Z"/><path class="cls-16" d="M363.1,127.05s6.48-.59,11.63-8.47c0,0,2.21,7.21,8.84,8.47a11.27,11.27,0,0,1,8.55,6.48s9.13-12.38,4.79-19.59-11.86-12.75-21.66-10.69S354,115.11,363.1,127.05Z"/><path class="cls-17" d="M354.85,194.52c3.38-11.79,2.2-26.08,2.2-26.08l-7.95,3.76c-.22,3.17-.22,5.45-.22,5.45a15.47,15.47,0,0,0,4.42,14.22A6.72,6.72,0,0,1,354.85,194.52Z"/><path class="cls-18" d="M334.37,178.46s11.27-26.52,19.3-26.22,2.43,26.81-1.62,33.81C352.05,186,340.26,186,334.37,178.46Z"/><path class="cls-19" d="M407.07,177.73v-.52l-2.06-2.8-6.26.81a71.61,71.61,0,0,0,2,20.26,7.51,7.51,0,0,1,1.84-3.61A15.26,15.26,0,0,0,407.07,177.73Z"/><path class="cls-20" d="M420.18,178.46s-11.27-26.52-19.3-26.22-2.43,26.81,1.62,33.81C402.5,186,414.29,186,420.18,178.46Z"/><path class="cls-21" d="M375.25,247s40-30.2,44.93-33.89,11.27-9.79,18.12-2.43,4.94,12.75-3.68,20.41-36.09,23.35-36.09,23.35H375.18V247Z"/><path class="cls-22" d="M394.11,254.19S343.43,221.7,338.49,218s-11.27-9.8-18.12-2.43-4.93,12.74,3.68,20.4,37.42,18.42,37.42,18.42h28.29Z"/><path class="cls-23" d="M252.9,335.43l32.34,3.39h37.05l10.09-1.69L363,325.64s-7.51,18.34-8.25,18.56S326.71,353,326.71,353s-21.07-2.21-24.75-1.7-30.2-4.64-30.2-4.64l-16.43-6.11Z"/><path class="cls-24" d="M263.43,376.24l14.14-5.67,3.47,1.62,7.95-5.82-5.82-10.61L257,374.92A6.72,6.72,0,0,0,263.43,376.24Z"/><path class="cls-25" d="M353.67,370.79l-15-2.73-3.09,2.29-8.91-4.13,3.61-11.56,29.39,13.63C357.94,370.2,355.73,371.16,353.67,370.79Z"/><path class="cls-26" d="M284.72,271.94s-13.26,5.52-21.36,26.88-11.05,26.52-8.84,29.69a10.44,10.44,0,0,0,10.24,4.2c4.05-.74,18.86-11.79,20-14s7.73-17.38,7.73-17.38Z"/><path class="cls-27" d="M328.84,270.1S342.1,275.62,350.2,297s11.05,26.52,8.84,29.69-10.68,4.93-14.73,4.2-14.36-11.79-15.47-14-7.73-17.38-7.73-17.38Z"/><path class="cls-28" d="M324.57,226.86l-16.79-1.4-16.8,1.4s-2.43,26.07,9.21,33.88a64.73,64.73,0,0,1,.07,9.36h15.1a66.26,66.26,0,0,1,.08-9.36C326.93,252.93,324.57,226.86,324.57,226.86Z"/><path class="cls-29" d="M281.33,343s-28.51-8.1-30.2-7.88-9.35,6.85-7.14,13,41.76,27.47,44.71,28.5,17.46,1.48,21.87,1.48h17.17s3.68-.52,8.84-4.42,32.92-29.25,35.58-33.37,5.67-8.18,0-12.52-8.11-3.69-14.74,1.76S323,341.92,323,341.92Z"/><path class="cls-30" d="M278.61,353.11s5.89-22.61,2-44.71-4.65-36.32,10.53-38.53,41.25-3.83,44,6.05-.22,25.85-2.21,36.16,2.21,35.21,4.42,39.41C337.31,351.49,309.32,368.8,278.61,353.11Z"/><path class="cls-31" d="M293.93,213.52a3.26,3.26,0,0,1-1.77,1.92,8.24,8.24,0,0,1-1.47.22,8.14,8.14,0,0,0-3.17,1c-.07,1.32-.15,2.72-.22,4a3.14,3.14,0,0,1-.52,2c-.73.81-2.21.74-2.94,1.55-1.11,1.25-.59,4.86-.22,6.4.29,1.33.95,2.66.73,4.06-.15,1.1-.88,2.06-1.18,3.16a4.5,4.5,0,0,0,1.48,4.5c.59.44,1.25.73,1.84,1.17,1.84,1.48,2.13,4,3,6a12.06,12.06,0,0,0,4.64,4.79,3.58,3.58,0,0,0,1.25.44c1.25.07,2.21-1.18,3.54-1.47,1.62-.3,3,1.1,4.49,1.91a6,6,0,0,0,6.19-.44,10.15,10.15,0,0,1,2.28-1.62c2.21-.88,4.49,1.18,6.92,1.55,4.72.66,5.53-4.42,8.11-7a11.1,11.1,0,0,0,2.58-3c.66-1.62.14-3.46.88-5,.59-1.18,1.84-2.06,2-3.31.22-1.92-2.06-3.32-2.51-5.23s1-3.69,1.48-5.6a5.76,5.76,0,0,0-2.58-6.19c-1.18-.74-2.65-1-3.76-1.77-2.21-1.54-3.24-4.86-6-5.3-1.18-.22-2.36.22-3.47.15-2.13-.08-4-1.33-6-2s-3.76-.37-5.75-.3c-3.17.08-7.88-1-9.35,2.73C294.22,212.86,294.07,213.16,293.93,213.52Z"/><path class="cls-32" d="M472.78,368.65l14.73-3.83,1.84-3.38h9.87l1.55,12H468.36C469.17,370.94,470.79,369.17,472.78,368.65Z"/><path class="cls-33" d="M484.27,187.45c-2.43-.08-33.22-31.68-34.77-33.07S438,151,434.62,147.16s1.1-6.41,1.1-6.41l11.94,3.75s.44-5.52,1.69-4.19,3,7.29,4,7.58,31.6,23.94,31.6,23.94l7.88-15.1,10.68,16.65S494.14,187.82,484.27,187.45Z"/><path class="cls-34" d="M504.38,129.33s-6.19-.44-13.85,26.81c0,0,1.54,10.32,9.13,16.43s6.12-24.68,6.12-24.68Z"/><path class="cls-35" d="M553.36,220.23s.88,63.57,1.25,73.88c0,0,4,25.41-3.39,51.56l-2.94,16.58s-4,3.31-9.95,0c0,0-1.4-66.3-2.13-70.72s-12.08-69.61-12.08-69.61Z"/><path class="cls-36" d="M533.18,221.33s-14.07,65.27-15.62,75.43c0,0-.74,25.71-12.82,50.09l-6,15.76s-4.57,3.83-9.8-.51c0,0,10.83-66.74,10.9-71.23s1-70.64,1-70.64Z"/><path class="cls-37" d="M548.65,362a4.5,4.5,0,0,0-1.18-1.4c-2.87-2.36-7.66-2.28-9.73,1.33-.07.14-2.79,4.79-3.83,6s-2.21,2.06-2.21,5.52h18c.22-2-.29-4.05-.22-6.11A10.48,10.48,0,0,0,548.65,362Z"/><path class="cls-38" d="M569.79,131.61l9.79,1s16.21-35.13,16.95-35.87-.52-6.85,0-8.62S600,91,600,91l8.84-8.84s5.15.22,3.9,5.15-9.06,11.27-9.8,13.26-13.48,44-15.46,45.45-25.05,0-25.05,0Z"/><path class="cls-39" d="M501.28,132.28c1.7-5.38,17.9-5.9,17.9-5.9h11.57c20.62-2.57,21.8.81,21.87,1.18v.08l-1.47,25c-5.67,26,5.67,70,5.67,70-22.83,13.26-57.89,2.43-57.89,2.43S499.59,137.65,501.28,132.28Z"/><path class="cls-40" d="M498.7,123.07l-.95-9.36-2.73-.29.89-17.61c28.87-1.32,23,8.92,25.78,12.31,1.84,2.28,5.67,11.71,7.95,17.67a4,4,0,0,1,2.29,2.58c.66,2.8-2.8,6-7.67,7.07s-9.28-.29-9.94-3.09a3.8,3.8,0,0,1,.66-2.87L513.22,122Z"/><path class="cls-41" d="M487.66,83a7.88,7.88,0,0,1,6.11-6,13.43,13.43,0,0,1,3.46.07c5.6.52,11.12,1.11,16.72,1.62a23.74,23.74,0,0,1,11.2,4.13c9.43,6,12.37,19.37,6.7,29-.29.44-6.11,6.92-6.33,6.48l-4.72-11.64-2.8,2.07-1.1-.52c-.22-3.24-1.62-6-5-6.41a43.48,43.48,0,0,1-12.08-3.46c-3.39-1.47-7.66-3.09-10-6.19a1.39,1.39,0,0,1-.29-.44A11.64,11.64,0,0,1,487.66,83Z"/><path class="cls-42" d="M552,139.42l-8,2.06v3.1l6.71,11c.14-1,.36-1.91.51-2.87Z"/><path class="cls-43" d="M572.66,130.73s-8.62-3.9-31.09-5.3l2.58,20.62s22.25,1.77,25.56,1.77C569.71,147.89,573,141.19,572.66,130.73Z"/><path class="cls-4" d="M589.75,58.17A23,23,0,0,1,574.5,79.76V36.59A23,23,0,0,1,589.75,58.17Z"/><path class="cls-2" d="M574.43,79.76a23.59,23.59,0,0,1-7.66,1.32,22.43,22.43,0,0,1-7.66-1.32V36.59a23.49,23.49,0,0,1,7.66-1.32,22.14,22.14,0,0,1,7.66,1.32Z"/><path class="cls-44" d="M559.18,36.59V79.76c-1-.37-2-.81-2.95-1.26C551,82.85,546,81.08,546,81.08c2.58-.73,4.2-3.83,5.09-6.33a22.81,22.81,0,0,1-7.15-16.58h0A22.91,22.91,0,0,1,559.18,36.59Z"/><path class="cls-45" d="M247.45,246.45H204.21a22.88,22.88,0,0,1,43.24,0Z"/><path class="cls-46" d="M248.7,254a23.51,23.51,0,0,1-1.4,7.89h-43a23.15,23.15,0,0,1-1.4-7.89,22.72,22.72,0,0,1,1.26-7.51h43.23A21.41,21.41,0,0,1,248.7,254Z"/><path class="cls-47" d="M241.55,270.61c.89,2.43,2.51,5.6,5.09,6.34,0,0-5,1.76-10.24-2.58A23.29,23.29,0,0,1,225.79,277a22.88,22.88,0,0,1-21.51-15h43A23,23,0,0,1,241.55,270.61Z"/><path class="cls-2" d="M300.19,74.53A22.89,22.89,0,0,1,323.1,97.44,22.57,22.57,0,0,1,316,114c.89,2.43,2.51,5.6,5.08,6.33,0,0-5,1.77-10.23-2.57a23.28,23.28,0,0,1-10.61,2.57,22.91,22.91,0,1,1,0-45.81Z"/><circle class="cls-48" cx="300.19" cy="97.58" r="9.35"/><path class="cls-49" d="M98.8,28S157.21,13,173.57,51.4,144.62,95,146.68,79.61c2.36-17.38,40.44-8.77,49.28-4,17.31,9.28,25.19,29.83,41,41,17.09,12,38.67,15.47,59.07,15.76"/><polygon class="cls-50" points="37.07 33.72 88.27 14.35 85.32 25.1 37.07 33.72"/><polygon class="cls-51" points="37.07 33.72 85.32 25.1 95.34 39.69 37.07 33.72"/><polygon class="cls-52" points="37.07 33.72 82.37 38.36 75.3 53.39 37.07 33.72"/><polygon class="cls-53" points="82.37 38.36 80.68 41.9 95.34 39.69 82.37 38.36"/></g></svg>