<svg id="Ebene_1" data-name="Ebene 1" xmlns="http://www.w3.org/2000/svg" xmlns:xlink="http://www.w3.org/1999/xlink" width="650" height="400" viewBox="0 0 650 400"><defs><style>.cls-1{fill:url(#Unbenannter_Verlauf_69);}.cls-2{fill:#79b9cc;}.cls-3{fill:url(#Unbenannter_Verlauf_71);}.cls-4{fill:url(#Unbenannter_Verlauf_95);}.cls-5{fill:url(#Unbenannter_Verlauf_80);}.cls-6{fill:url(#Unbenannter_Verlauf_79);}.cls-7{fill:url(#Unbenannter_Verlauf_78);}.cls-8{fill:url(#Unbenannter_Verlauf_71-2);}.cls-9{fill:url(#Unbenannter_Verlauf_95-2);}.cls-10{fill:url(#Unbenannter_Verlauf_77);}.cls-11{fill:url(#Unbenannter_Verlauf_76);}.cls-12{fill:url(#Unbenannter_Verlauf_75);}.cls-13{fill:url(#Unbenannter_Verlauf_71-3);}.cls-14{fill:url(#Unbenannter_Verlauf_95-3);}.cls-15{fill:url(#Unbenannter_Verlauf_74);}.cls-16{fill:url(#Unbenannter_Verlauf_73);}.cls-17{fill:url(#Unbenannter_Verlauf_72);}.cls-18{fill:url(#Unbenannter_Verlauf_71-4);}.cls-19{fill:url(#Unbenannter_Verlauf_95-4);}.cls-20{fill:url(#Unbenannter_Verlauf_71-5);}.cls-21{fill:url(#Unbenannter_Verlauf_70);}.cls-22{fill:url(#Unbenannter_Verlauf_69-2);}.cls-23{fill:url(#Unbenannter_Verlauf_68);}.cls-24{fill:#b4b7db;}.cls-25{fill:#bcbedf;}.cls-26{fill:#c3c6e2;}.cls-27{fill:#cbcde6;}.cls-28{fill:#d3d5e9;}.cls-29{fill:#dbdced;}.cls-30{fill:#e2e4f0;}.cls-31{fill:#eaebf4;}.cls-32{fill:#fff;}.cls-33{fill:url(#Unbenannter_Verlauf_67);}.cls-34{fill:url(#Unbenannter_Verlauf_95-5);}.cls-35{fill:url(#Unbenannter_Verlauf_66);}.cls-36{fill:url(#Unbenannter_Verlauf_65);}.cls-37{fill:url(#Unbenannter_Verlauf_95-6);}.cls-38{fill:url(#Unbenannter_Verlauf_137);}.cls-39{fill:url(#Unbenannter_Verlauf_98);}.cls-40{fill:url(#Unbenannter_Verlauf_132);}.cls-41{fill:url(#Unbenannter_Verlauf_63);}.cls-42{fill:#f1f2f2;}.cls-43{fill:url(#Unbenannter_Verlauf_63-2);}.cls-44{fill:url(#Unbenannter_Verlauf_76-2);}.cls-45{fill:#282a55;}.cls-46{fill:#ed9d9d;}.cls-47{fill:url(#Unbenannter_Verlauf_132-2);}.cls-48{fill:url(#Unbenannter_Verlauf_132-3);}.cls-49{fill:url(#Unbenannter_Verlauf_63-3);}.cls-50{fill:url(#Unbenannter_Verlauf_61);}.cls-51{fill:url(#Unbenannter_Verlauf_60);}.cls-52{fill:url(#Unbenannter_Verlauf_58);}.cls-53{fill:url(#Unbenannter_Verlauf_56);}.cls-54{fill:url(#Unbenannter_Verlauf_33);}.cls-55{fill:url(#Unbenannter_Verlauf_32);}.cls-56{fill:url(#Unbenannter_Verlauf_31);}.cls-57{fill:url(#Unbenannter_Verlauf_28);}.cls-58{fill:url(#Unbenannter_Verlauf_26);}.cls-59{fill:url(#Unbenannter_Verlauf_20);}.cls-60{fill:url(#Unbenannter_Verlauf_19);}.cls-61{fill:url(#Unbenannter_Verlauf_44);}.cls-62{fill:url(#Unbenannter_Verlauf_17);}.cls-63{fill:url(#Unbenannter_Verlauf_16);}.cls-64{fill:url(#Unbenannter_Verlauf_15);}.cls-65{fill:url(#Unbenannter_Verlauf_48);}.cls-66{fill:url(#Unbenannter_Verlauf_13);}.cls-67{fill:url(#Unbenannter_Verlauf_50);}.cls-68{fill:url(#Unbenannter_Verlauf_51);}.cls-69{fill:url(#Unbenannter_Verlauf_52);}.cls-70{fill:url(#Unbenannter_Verlauf_53);}.cls-71{fill:url(#Unbenannter_Verlauf_54);}.cls-72{fill:url(#Unbenannter_Verlauf_55);}.cls-73{fill:url(#Unbenannter_Verlauf_95-7);}.cls-74{fill:url(#Unbenannter_Verlauf_57);}.cls-75{opacity:0.9;}.cls-76{fill:#f8fffd;}.cls-77{fill:#f1f8f6;}.cls-78{fill:#ebf1ef;}.cls-79{fill:#e4e9e9;}.cls-80{fill:#dde2e2;}.cls-81{fill:#d7dbdb;}.cls-82{fill:#d0d4d4;}.cls-83{fill:#c9ccce;}.cls-84{fill:#c3c5c7;}.cls-85{fill:#bcbec0;}.cls-86{fill:url(#Unbenannter_Verlauf_62);}.cls-87{fill:url(#Unbenannter_Verlauf_59);}.cls-88{fill:url(#Unbenannter_Verlauf_62-2);}.cls-89{fill:url(#Unbenannter_Verlauf_62-3);}.cls-90{fill:url(#Unbenannter_Verlauf_62-4);}.cls-91{opacity:0.8;fill:url(#Unbenannter_Verlauf_83);}.cls-134,.cls-91{isolation:isolate;}.cls-92{fill:url(#Unbenannter_Verlauf_64);}.cls-93{fill:url(#Unbenannter_Verlauf_84);}.cls-94{fill:#0f152b;}.cls-95{fill:#a7a9ac;}.cls-96{fill:url(#Unbenannter_Verlauf_90);}.cls-97{fill:url(#Unbenannter_Verlauf_90-2);}.cls-98{fill:url(#Unbenannter_Verlauf_87);}.cls-99{fill:url(#Unbenannter_Verlauf_88);}.cls-100{fill:#f79a97;}.cls-101{fill:url(#Unbenannter_Verlauf_90-3);}.cls-102{fill:url(#Unbenannter_Verlauf_98-2);}.cls-103{fill:url(#Unbenannter_Verlauf_90-4);}.cls-104{fill:#f9aaaa;}.cls-105{fill:url(#Unbenannter_Verlauf_98-3);}.cls-106{fill:#e6e7e8;}.cls-107{fill:#6a4123;}.cls-108{fill:url(#Unbenannter_Verlauf_98-4);}.cls-109{fill:url(#Unbenannter_Verlauf_84-2);}.cls-110{fill:#10122b;}.cls-111{fill:url(#Unbenannter_Verlauf_90-5);}.cls-112{fill:url(#Unbenannter_Verlauf_90-6);}.cls-113{fill:url(#Unbenannter_Verlauf_87-2);}.cls-114{fill:url(#Unbenannter_Verlauf_88-2);}.cls-115{fill:url(#Unbenannter_Verlauf_90-7);}.cls-116{fill:url(#Unbenannter_Verlauf_90-8);}.cls-117{fill:url(#Unbenannter_Verlauf_82);}.cls-118{fill:url(#Unbenannter_Verlauf_83-2);}.cls-119{fill:url(#Unbenannter_Verlauf_84-3);}.cls-120{fill:url(#Unbenannter_Verlauf_90-9);}.cls-121{fill:url(#Unbenannter_Verlauf_90-10);}.cls-122{fill:url(#Unbenannter_Verlauf_87-3);}.cls-123{fill:url(#Unbenannter_Verlauf_88-3);}.cls-124{fill:url(#Unbenannter_Verlauf_90-11);}.cls-125{fill:url(#Unbenannter_Verlauf_90-12);}.cls-126{fill:url(#Unbenannter_Verlauf_91);}.cls-127{fill:url(#Unbenannter_Verlauf_95-8);}.cls-128{fill:url(#Unbenannter_Verlauf_94);}.cls-129{fill:url(#Unbenannter_Verlauf_94-2);}.cls-130{fill:url(#Unbenannter_Verlauf_95-9);}.cls-131{fill:url(#Unbenannter_Verlauf_98-5);}.cls-132{fill:url(#Unbenannter_Verlauf_98-6);}.cls-133{fill:url(#Unbenannter_Verlauf_98-7);}.cls-134{opacity:0.7;fill:url(#Unbenannter_Verlauf_99);}</style><linearGradient id="Unbenannter_Verlauf_69" x1="267.4" y1="267.75" x2="334.77" y2="151.07" gradientTransform="matrix(1, 0, 0, -1, -11.25, 402)" gradientUnits="userSpaceOnUse"><stop offset="0.02" stop-color="#e3e8f9"/><stop offset="0.1" stop-color="#e5eaf9" stop-opacity="0.95"/><stop offset="0.25" stop-color="#eaeefa" stop-opacity="0.82"/><stop offset="0.45" stop-color="#f2f4fc" stop-opacity="0.6"/><stop offset="0.69" stop-color="#fdfdff" stop-opacity="0.31"/><stop offset="0.74" stop-color="#fff" stop-opacity="0.25"/><stop offset="1" stop-color="#fff" stop-opacity="0"/></linearGradient><linearGradient id="Unbenannter_Verlauf_71" x1="170.71" y1="335.05" x2="170.72" y2="335.05" gradientTransform="matrix(1, 0, 0, -1, 0, 402)" gradientUnits="userSpaceOnUse"><stop offset="0" stop-color="#2f90d6"/><stop offset="1" stop-color="#33d1ea"/></linearGradient><linearGradient id="Unbenannter_Verlauf_95" x1="157.44" y1="260.93" x2="245.6" y2="349.09" gradientTransform="matrix(1, 0, 0, -1, 0, 402)" gradientUnits="userSpaceOnUse"><stop offset="0" stop-color="#fff"/><stop offset="1" stop-color="#daf3fd"/></linearGradient><linearGradient id="Unbenannter_Verlauf_80" x1="170.76" y1="303.18" x2="246.57" y2="303.18" gradientTransform="matrix(1, 0, 0, -1, 0, 402)" gradientUnits="userSpaceOnUse"><stop offset="0" stop-color="#b0d6e0"/><stop offset="1" stop-color="#bfe9f6"/></linearGradient><linearGradient id="Unbenannter_Verlauf_79" x1="170.73" y1="297.3" x2="248.02" y2="297.3" gradientTransform="matrix(1, 0, 0, -1, 0, 402)" gradientUnits="userSpaceOnUse"><stop offset="0" stop-color="#daf3fd"/><stop offset="0.17" stop-color="#daf3fd"/><stop offset="0.33" stop-color="#daf3fd"/><stop offset="1" stop-color="#fff"/></linearGradient><linearGradient id="Unbenannter_Verlauf_78" x1="181.59" y1="288.76" x2="240.38" y2="288.76" gradientTransform="matrix(1, 0, 0, -1, 0, 402)" gradientUnits="userSpaceOnUse"><stop offset="0" stop-color="#e4a31e"/><stop offset="1" stop-color="#f5c43d"/></linearGradient><linearGradient id="Unbenannter_Verlauf_71-2" x1="180.09" y1="316.54" x2="180.1" y2="316.54" xlink:href="#Unbenannter_Verlauf_71"/><linearGradient id="Unbenannter_Verlauf_95-2" x1="166.81" y1="242.43" x2="254.97" y2="330.59" xlink:href="#Unbenannter_Verlauf_95"/><linearGradient id="Unbenannter_Verlauf_77" x1="180.15" y1="284.65" x2="256" y2="284.65" gradientTransform="matrix(1, 0, 0, -1, 0, 402)" gradientUnits="userSpaceOnUse"><stop offset="0" stop-color="#f5c139"/><stop offset="1" stop-color="#fcd24a"/></linearGradient><linearGradient id="Unbenannter_Verlauf_76" x1="180.14" y1="278.77" x2="257.44" y2="278.77" gradientTransform="matrix(1, 0, 0, -1, 0, 402)" gradientUnits="userSpaceOnUse"><stop offset="0" stop-color="#fcd24a"/><stop offset="0.18" stop-color="#fcd24a"/><stop offset="0.38" stop-color="#ffe957"/><stop offset="1" stop-color="#ffe957"/></linearGradient><linearGradient id="Unbenannter_Verlauf_75" x1="211.29" y1="284.76" x2="270.09" y2="284.76" gradientTransform="matrix(1, 0, 0, -1, 0, 402)" gradientUnits="userSpaceOnUse"><stop offset="0" stop-color="#19ab53"/><stop offset="1" stop-color="#25bc6c"/></linearGradient><linearGradient id="Unbenannter_Verlauf_71-3" x1="209.82" y1="312.55" x2="209.83" y2="312.55" xlink:href="#Unbenannter_Verlauf_71"/><linearGradient id="Unbenannter_Verlauf_95-3" x1="196.53" y1="238.42" x2="284.71" y2="326.59" xlink:href="#Unbenannter_Verlauf_95"/><linearGradient id="Unbenannter_Verlauf_74" x1="209.84" y1="280.65" x2="285.62" y2="280.65" gradientTransform="matrix(1, 0, 0, -1, 0, 402)" gradientUnits="userSpaceOnUse"><stop offset="0" stop-color="#25bc6c"/><stop offset="1" stop-color="#30e695"/></linearGradient><linearGradient id="Unbenannter_Verlauf_73" x1="209.84" y1="274.79" x2="287.12" y2="274.79" gradientTransform="matrix(1, 0, 0, -1, 0, 402)" gradientUnits="userSpaceOnUse"><stop offset="0" stop-color="#30e695"/><stop offset="0.18" stop-color="#30e695"/><stop offset="0.7" stop-color="#80f3c8"/><stop offset="1" stop-color="#80f3c8"/></linearGradient><linearGradient id="Unbenannter_Verlauf_72" x1="228.92" y1="273.55" x2="287.72" y2="273.55" gradientTransform="matrix(1, 0, 0, -1, 0, 402)" gradientUnits="userSpaceOnUse"><stop offset="0" stop-color="#1d2047"/><stop offset="1" stop-color="#282a55"/></linearGradient><linearGradient id="Unbenannter_Verlauf_71-4" x1="227.45" y1="301.35" x2="227.46" y2="301.35" xlink:href="#Unbenannter_Verlauf_71"/><linearGradient id="Unbenannter_Verlauf_95-4" x1="214.17" y1="227.24" x2="302.34" y2="315.41" xlink:href="#Unbenannter_Verlauf_95"/><linearGradient id="Unbenannter_Verlauf_71-5" x1="227.48" y1="269.47" x2="303.28" y2="269.47" xlink:href="#Unbenannter_Verlauf_71"/><linearGradient id="Unbenannter_Verlauf_70" x1="227.49" y1="263.61" x2="304.75" y2="263.61" gradientTransform="matrix(1, 0, 0, -1, 0, 402)" gradientUnits="userSpaceOnUse"><stop offset="0.02" stop-color="#206197"/><stop offset="0.2" stop-color="#206197"/><stop offset="0.48" stop-color="#0e8dc9"/><stop offset="1" stop-color="#0e8dc9"/></linearGradient><linearGradient id="Unbenannter_Verlauf_69-2" x1="456.08" y1="175.5" x2="499.36" y2="100.53" xlink:href="#Unbenannter_Verlauf_69"/><linearGradient id="Unbenannter_Verlauf_68" x1="326.35" y1="262.03" x2="518.65" y2="262.03" gradientTransform="matrix(1, 0, 0, -1, -11.25, 402)" gradientUnits="userSpaceOnUse"><stop offset="0" stop-color="#daf3fd"/><stop offset="1" stop-color="#bfe9f6"/></linearGradient><linearGradient id="Unbenannter_Verlauf_67" x1="388.16" y1="187.48" x2="435.21" y2="158.67" gradientTransform="matrix(1, 0, 0, -1, -11.25, 402)" gradientUnits="userSpaceOnUse"><stop offset="0" stop-color="#fff"/><stop offset="1" stop-color="#f4f8ff"/></linearGradient><linearGradient id="Unbenannter_Verlauf_95-5" x1="388.17" y1="187.49" x2="435.22" y2="158.69" gradientTransform="matrix(1, 0, 0, -1, -11.25, 402)" xlink:href="#Unbenannter_Verlauf_95"/><linearGradient id="Unbenannter_Verlauf_66" x1="411.24" y1="162.64" x2="458.55" y2="162.64" gradientTransform="matrix(1, 0, 0, -1, -11.25, 402)" gradientUnits="userSpaceOnUse"><stop offset="0.02" stop-color="#e3e8f9"/><stop offset="0.39" stop-color="#eff2fc"/><stop offset="0.74" stop-color="#fff"/><stop offset="1" stop-color="#fff"/></linearGradient><linearGradient id="Unbenannter_Verlauf_65" x1="405.19" y1="226.79" x2="435.58" y2="226.79" gradientTransform="matrix(1, 0, 0, -1, -11.25, 402)" gradientUnits="userSpaceOnUse"><stop offset="0" stop-color="#fff"/><stop offset="0.25" stop-color="#fff"/><stop offset="0.59" stop-color="#daf3fd"/><stop offset="1" stop-color="#daf3fd"/></linearGradient><linearGradient id="Unbenannter_Verlauf_95-6" x1="326.35" y1="260.63" x2="514.42" y2="260.63" gradientTransform="matrix(1, 0, 0, -1, -11.25, 402)" xlink:href="#Unbenannter_Verlauf_95"/><linearGradient id="Unbenannter_Verlauf_137" x1="334.05" y1="260.92" x2="505.11" y2="260.92" gradientTransform="matrix(1, 0, 0, -1, -11.25, 402)" gradientUnits="userSpaceOnUse"><stop offset="0" stop-color="#6e46ae" stop-opacity="0.5"/><stop offset="1" stop-color="#6e46ae"/></linearGradient><linearGradient id="Unbenannter_Verlauf_98" x1="345.84" y1="205.56" x2="352.36" y2="205.56" gradientTransform="matrix(1, 0, 0, -1, 0, 402)" gradientUnits="userSpaceOnUse"><stop offset="0" stop-color="#33d1ea"/><stop offset="1" stop-color="#2f90d6"/></linearGradient><linearGradient id="Unbenannter_Verlauf_132" x1="330" y1="201.86" x2="353.05" y2="201.86" gradientUnits="userSpaceOnUse"><stop offset="0" stop-color="#f9beb8"/><stop offset="1" stop-color="#eaa5a1"/></linearGradient><linearGradient id="Unbenannter_Verlauf_63" x1="346.23" y1="239" x2="386.59" y2="239" gradientTransform="matrix(1, 0, 0, -1, 0, 402)" gradientUnits="userSpaceOnUse"><stop offset="0" stop-color="#fcd24a"/><stop offset="0.44" stop-color="#fcd24a"/><stop offset="1" stop-color="#ffe957"/></linearGradient><linearGradient id="Unbenannter_Verlauf_63-2" x1="378.73" y1="229.76" x2="429.6" y2="229.76" xlink:href="#Unbenannter_Verlauf_63"/><linearGradient id="Unbenannter_Verlauf_76-2" x1="397.46" y1="180.13" x2="429.55" y2="180.13" gradientTransform="matrix(1, 0, 0, 1, 0, 0)" xlink:href="#Unbenannter_Verlauf_76"/><linearGradient id="Unbenannter_Verlauf_132-2" x1="386.89" y1="108.21" x2="418.76" y2="108.21" xlink:href="#Unbenannter_Verlauf_132"/><linearGradient id="Unbenannter_Verlauf_132-3" x1="360.12" y1="220.49" x2="386.47" y2="220.49" xlink:href="#Unbenannter_Verlauf_132"/><linearGradient id="Unbenannter_Verlauf_63-3" x1="378.35" y1="222.64" x2="431.11" y2="222.64" xlink:href="#Unbenannter_Verlauf_63"/><linearGradient id="Unbenannter_Verlauf_61" x1="392.52" y1="273.64" x2="398.22" y2="273.64" gradientTransform="matrix(1, 0, 0, -1, 0, 402)" gradientUnits="userSpaceOnUse"><stop offset="0" stop-color="#1a2587"/><stop offset="1" stop-color="#3a52be"/></linearGradient><linearGradient id="Unbenannter_Verlauf_60" x1="396.99" y1="279.43" x2="413.95" y2="279.43" gradientTransform="matrix(1, 0, 0, -1, 0, 402)" gradientUnits="userSpaceOnUse"><stop offset="0" stop-color="#2d64c9"/><stop offset="1" stop-color="#33d1ea"/></linearGradient><linearGradient id="Unbenannter_Verlauf_58" x1="111.71" y1="167.81" x2="199.77" y2="167.81" gradientTransform="matrix(1, 0, 0, -1, 0, 402)" gradientUnits="userSpaceOnUse"><stop offset="0" stop-color="#2f90d6"/><stop offset="0.19" stop-color="#2f90d6"/><stop offset="0.75" stop-color="#33d1ea"/><stop offset="1" stop-color="#3d7cdb"/></linearGradient><linearGradient id="Unbenannter_Verlauf_56" x1="119.34" y1="167.79" x2="192.08" y2="167.79" gradientTransform="matrix(1, 0, 0, -1, 0, 402)" gradientUnits="userSpaceOnUse"><stop offset="0" stop-color="#c6c9e3"/><stop offset="1" stop-color="#c5c8e3"/></linearGradient><linearGradient id="Unbenannter_Verlauf_33" x1="119.39" y1="168.02" x2="192.08" y2="168.02" gradientTransform="matrix(1, 0, 0, -1, 0, 402)" gradientUnits="userSpaceOnUse"><stop offset="0" stop-color="#c9cbe5"/><stop offset="1" stop-color="#c8cbe5"/></linearGradient><linearGradient id="Unbenannter_Verlauf_32" x1="119.56" y1="168.22" x2="191.88" y2="168.22" gradientTransform="matrix(1, 0, 0, -1, 0, 402)" gradientUnits="userSpaceOnUse"><stop offset="0" stop-color="#cccee6"/><stop offset="1" stop-color="#cacde6"/></linearGradient><linearGradient id="Unbenannter_Verlauf_31" x1="119.52" y1="168.45" x2="191.91" y2="168.45" gradientTransform="matrix(1, 0, 0, -1, 0, 402)" gradientUnits="userSpaceOnUse"><stop offset="0" stop-color="#ced1e8"/><stop offset="1" stop-color="#ccd0e8"/></linearGradient><linearGradient id="Unbenannter_Verlauf_28" x1="119.68" y1="168.68" x2="191.79" y2="168.68" gradientTransform="matrix(1, 0, 0, -1, 0, 402)" gradientUnits="userSpaceOnUse"><stop offset="0" stop-color="#d1d4e9"/><stop offset="1" stop-color="#cfd2e9"/></linearGradient><linearGradient id="Unbenannter_Verlauf_26" x1="119.55" y1="168.89" x2="191.79" y2="168.89" gradientTransform="matrix(1, 0, 0, -1, 0, 402)" gradientUnits="userSpaceOnUse"><stop offset="0" stop-color="#d4d6ea"/><stop offset="1" stop-color="#d1d4ea"/></linearGradient><linearGradient id="Unbenannter_Verlauf_20" x1="119.71" y1="169.1" x2="191.75" y2="169.1" gradientTransform="matrix(1, 0, 0, -1, 0, 402)" gradientUnits="userSpaceOnUse"><stop offset="0" stop-color="#d7d9ec"/><stop offset="1" stop-color="#d3d7ec"/></linearGradient><linearGradient id="Unbenannter_Verlauf_19" x1="119.9" y1="169.31" x2="191.62" y2="169.31" gradientTransform="matrix(1, 0, 0, -1, 0, 402)" gradientUnits="userSpaceOnUse"><stop offset="0" stop-color="#dadced"/><stop offset="1" stop-color="#d6d9ed"/></linearGradient><linearGradient id="Unbenannter_Verlauf_44" x1="119.88" y1="169.53" x2="191.62" y2="169.53" gradientTransform="matrix(1, 0, 0, -1, 0, 402)" gradientUnits="userSpaceOnUse"><stop offset="0" stop-color="#dddeee"/><stop offset="1" stop-color="#d8dbee"/></linearGradient><linearGradient id="Unbenannter_Verlauf_17" x1="119.8" y1="169.75" x2="191.62" y2="169.75" gradientTransform="matrix(1, 0, 0, -1, 0, 402)" gradientUnits="userSpaceOnUse"><stop offset="0" stop-color="#e0e1f0"/><stop offset="1" stop-color="#dadef0"/></linearGradient><linearGradient id="Unbenannter_Verlauf_16" x1="120.01" y1="169.96" x2="191.43" y2="169.96" gradientTransform="matrix(1, 0, 0, -1, 0, 402)" gradientUnits="userSpaceOnUse"><stop offset="0" stop-color="#e2e4f1"/><stop offset="1" stop-color="#dde0f1"/></linearGradient><linearGradient id="Unbenannter_Verlauf_15" x1="120.17" y1="170.19" x2="191.3" y2="170.19" gradientTransform="matrix(1, 0, 0, -1, 0, 402)" gradientUnits="userSpaceOnUse"><stop offset="0" stop-color="#e5e7f3"/><stop offset="1" stop-color="#dfe3f3"/></linearGradient><linearGradient id="Unbenannter_Verlauf_48" x1="120.1" y1="170.4" x2="191.32" y2="170.4" gradientTransform="matrix(1, 0, 0, -1, 0, 402)" gradientUnits="userSpaceOnUse"><stop offset="0" stop-color="#e8e9f4"/><stop offset="1" stop-color="#e1e5f4"/></linearGradient><linearGradient id="Unbenannter_Verlauf_13" x1="120.2" y1="170.64" x2="191.38" y2="170.64" gradientTransform="matrix(1, 0, 0, -1, 0, 402)" gradientUnits="userSpaceOnUse"><stop offset="0" stop-color="#ebecf5"/><stop offset="1" stop-color="#e4e7f5"/></linearGradient><linearGradient id="Unbenannter_Verlauf_50" x1="120.19" y1="170.82" x2="191.25" y2="170.82" gradientTransform="matrix(1, 0, 0, -1, 0, 402)" gradientUnits="userSpaceOnUse"><stop offset="0" stop-color="#eeeff7"/><stop offset="1" stop-color="#e6eaf7"/></linearGradient><linearGradient id="Unbenannter_Verlauf_51" x1="120.36" y1="171.01" x2="191.1" y2="171.01" gradientTransform="matrix(1, 0, 0, -1, 0, 402)" gradientUnits="userSpaceOnUse"><stop offset="0" stop-color="#f1f1f8"/><stop offset="1" stop-color="#e8ecf8"/></linearGradient><linearGradient id="Unbenannter_Verlauf_52" x1="120.24" y1="171.25" x2="191.1" y2="171.25" gradientTransform="matrix(1, 0, 0, -1, 0, 402)" gradientUnits="userSpaceOnUse"><stop offset="0" stop-color="#f4f4f9"/><stop offset="1" stop-color="#ebeef9"/></linearGradient><linearGradient id="Unbenannter_Verlauf_53" x1="120.4" y1="171.47" x2="191.06" y2="171.47" gradientTransform="matrix(1, 0, 0, -1, 0, 402)" gradientUnits="userSpaceOnUse"><stop offset="0" stop-color="#f6f7fb"/><stop offset="1" stop-color="#edf1fb"/></linearGradient><linearGradient id="Unbenannter_Verlauf_54" x1="120.53" y1="171.68" x2="190.91" y2="171.68" gradientTransform="matrix(1, 0, 0, -1, 0, 402)" gradientUnits="userSpaceOnUse"><stop offset="0" stop-color="#f9fafc"/><stop offset="1" stop-color="#eff3fc"/></linearGradient><linearGradient id="Unbenannter_Verlauf_55" x1="120.57" y1="171.9" x2="190.91" y2="171.9" gradientTransform="matrix(1, 0, 0, -1, 0, 402)" gradientUnits="userSpaceOnUse"><stop offset="0" stop-color="#fcfcfe"/><stop offset="1" stop-color="#f2f6fe"/></linearGradient><linearGradient id="Unbenannter_Verlauf_95-7" x1="121.02" y1="176.64" x2="190.42" y2="176.64" xlink:href="#Unbenannter_Verlauf_95"/><linearGradient id="Unbenannter_Verlauf_57" x1="156.72" y1="162.82" x2="156.72" y2="248.66" gradientTransform="matrix(1, 0, 0, -1, 0, 402)" gradientUnits="userSpaceOnUse"><stop offset="0" stop-color="#16f7d6"/><stop offset="0.04" stop-color="#28f8d9"/><stop offset="0.19" stop-color="#61fae3"/><stop offset="0.33" stop-color="#91fbec"/><stop offset="0.48" stop-color="#b9fdf3"/><stop offset="0.62" stop-color="#d7fef8"/><stop offset="0.75" stop-color="#edfefc"/><stop offset="0.88" stop-color="#fbfffe"/><stop offset="1" stop-color="#fff"/></linearGradient><linearGradient id="Unbenannter_Verlauf_62" x1="147.21" y1="180.26" x2="164.08" y2="180.26" gradientTransform="matrix(1, 0, 0, -1, 0, 402)" gradientUnits="userSpaceOnUse"><stop offset="0" stop-color="#3e7ae8"/><stop offset="1" stop-color="#154baf"/></linearGradient><linearGradient id="Unbenannter_Verlauf_59" x1="143.92" y1="185.12" x2="167.38" y2="185.12" gradientTransform="matrix(1, 0, 0, -1, 0, 402)" gradientUnits="userSpaceOnUse"><stop offset="0" stop-color="#154baf"/><stop offset="1" stop-color="#3e7ae8"/></linearGradient><linearGradient id="Unbenannter_Verlauf_62-2" x1="143.92" y1="194.74" x2="167.38" y2="194.74" xlink:href="#Unbenannter_Verlauf_62"/><linearGradient id="Unbenannter_Verlauf_62-3" x1="143.92" y1="182.12" x2="167.37" y2="182.12" xlink:href="#Unbenannter_Verlauf_62"/><linearGradient id="Unbenannter_Verlauf_62-4" x1="143.92" y1="186.59" x2="167.37" y2="186.59" xlink:href="#Unbenannter_Verlauf_62"/><linearGradient id="Unbenannter_Verlauf_83" x1="135.67" y1="215.74" x2="175.64" y2="215.74" gradientTransform="matrix(1, 0, 0, -1, 0, 402)" gradientUnits="userSpaceOnUse"><stop offset="0" stop-color="#ffe957"/><stop offset="1" stop-color="#fcd24a"/></linearGradient><linearGradient id="Unbenannter_Verlauf_64" x1="149.95" y1="207.44" x2="161.33" y2="207.44" gradientTransform="matrix(1, 0, 0, -1, 0, 402)" gradientUnits="userSpaceOnUse"><stop offset="0" stop-color="#3a4983"/><stop offset="1" stop-color="#282a55"/></linearGradient><linearGradient id="Unbenannter_Verlauf_84" x1="217.12" y1="110.98" x2="272.09" y2="78.97" gradientTransform="matrix(1, 0, 0, -1, 0, 402)" gradientUnits="userSpaceOnUse"><stop offset="0.02" stop-color="#e3e8f9"/><stop offset="0.17" stop-color="#e9edfa" stop-opacity="0.79"/><stop offset="0.4" stop-color="#f1f3fc" stop-opacity="0.51"/><stop offset="0.6" stop-color="#f7f8fd" stop-opacity="0.29"/><stop offset="0.78" stop-color="#fbfcfe" stop-opacity="0.13"/><stop offset="0.92" stop-color="#fefeff" stop-opacity="0.04"/><stop offset="1" stop-color="#fff" stop-opacity="0"/></linearGradient><linearGradient id="Unbenannter_Verlauf_90" x1="233.26" y1="109.29" x2="233.26" y2="142.95" gradientTransform="matrix(1, 0, 0, -1, 0, 402)" gradientUnits="userSpaceOnUse"><stop offset="0" stop-color="#284c80"/><stop offset="1" stop-color="#0e8dc9"/></linearGradient><linearGradient id="Unbenannter_Verlauf_90-2" x1="222.33" y1="117.12" x2="222.33" y2="149.77" xlink:href="#Unbenannter_Verlauf_90"/><linearGradient id="Unbenannter_Verlauf_87" x1="188.12" y1="109.27" x2="234.66" y2="109.27" gradientTransform="matrix(1, 0, 0, -1, 0, 402)" gradientUnits="userSpaceOnUse"><stop offset="0" stop-color="#f6fcff"/><stop offset="0.44" stop-color="#eef9fe"/><stop offset="0.55" stop-color="#daf3fd"/><stop offset="1" stop-color="#daf3fd"/></linearGradient><linearGradient id="Unbenannter_Verlauf_88" x1="-1002.94" y1="-859.31" x2="-976.28" y2="-836.22" gradientTransform="matrix(0.87, -0.5, -1, -0.58, 224.59, -712.49)" gradientUnits="userSpaceOnUse"><stop offset="0" stop-color="#daf3fd"/><stop offset="1" stop-color="#fff"/></linearGradient><linearGradient id="Unbenannter_Verlauf_90-3" x1="180.05" y1="-39.67" x2="180.05" y2="-21.33" gradientTransform="matrix(1, -0.08, -0.08, -1, 34.92, 245.88)" xlink:href="#Unbenannter_Verlauf_90"/><linearGradient id="Unbenannter_Verlauf_98-2" x1="-3877.97" y1="242.74" x2="-3877.97" y2="259.17" gradientTransform="matrix(-0.96, -0.28, -0.28, 0.96, -3448.66, -1096.85)" xlink:href="#Unbenannter_Verlauf_98"/><linearGradient id="Unbenannter_Verlauf_90-4" x1="220.87" y1="124.78" x2="220.87" y2="144.67" xlink:href="#Unbenannter_Verlauf_90"/><linearGradient id="Unbenannter_Verlauf_98-3" x1="212.27" y1="131.58" x2="212.27" y2="179.48" xlink:href="#Unbenannter_Verlauf_98"/><linearGradient id="Unbenannter_Verlauf_98-4" x1="197.72" y1="58.69" x2="197.72" y2="75.06" gradientTransform="matrix(1, -0.05, -0.05, -1, 26.75, 312.38)" xlink:href="#Unbenannter_Verlauf_98"/><linearGradient id="Unbenannter_Verlauf_84-2" x1="264.12" y1="83.49" x2="319.09" y2="51.48" xlink:href="#Unbenannter_Verlauf_84"/><linearGradient id="Unbenannter_Verlauf_90-5" x1="280.28" y1="82.66" x2="280.28" y2="115.43" xlink:href="#Unbenannter_Verlauf_90"/><linearGradient id="Unbenannter_Verlauf_90-6" x1="269.32" y1="89.63" x2="269.32" y2="122.27" xlink:href="#Unbenannter_Verlauf_90"/><linearGradient id="Unbenannter_Verlauf_87-2" x1="235.12" y1="81.78" x2="281.66" y2="81.78" xlink:href="#Unbenannter_Verlauf_87"/><linearGradient id="Unbenannter_Verlauf_88-2" x1="-1003.31" y1="-906.63" x2="-976.65" y2="-883.55" xlink:href="#Unbenannter_Verlauf_88"/><linearGradient id="Unbenannter_Verlauf_90-7" x1="224.58" y1="-71.05" x2="224.58" y2="-52.72" gradientTransform="matrix(1, -0.08, -0.08, -1, 34.92, 245.88)" xlink:href="#Unbenannter_Verlauf_90"/><linearGradient id="Unbenannter_Verlauf_90-8" x1="268.11" y1="97.27" x2="268.11" y2="116.86" xlink:href="#Unbenannter_Verlauf_90"/><linearGradient id="Unbenannter_Verlauf_82" x1="246.38" y1="129.25" x2="268.54" y2="129.25" gradientTransform="matrix(1, 0, 0, -1, 0, 402)" gradientUnits="userSpaceOnUse"><stop offset="0" stop-color="#fcd24a"/><stop offset="1" stop-color="#ffe957"/></linearGradient><linearGradient id="Unbenannter_Verlauf_83-2" x1="-4636.42" y1="1396.42" x2="-4596.05" y2="1396.42" gradientTransform="matrix(-0.29, -0.96, 0.96, -0.29, -2410.37, -3744.86)" xlink:href="#Unbenannter_Verlauf_83"/><linearGradient id="Unbenannter_Verlauf_84-3" x1="318.2" y1="57.49" x2="373.17" y2="25.47" xlink:href="#Unbenannter_Verlauf_84"/><linearGradient id="Unbenannter_Verlauf_90-9" x1="334.37" y1="55.81" x2="334.37" y2="89.46" xlink:href="#Unbenannter_Verlauf_90"/><linearGradient id="Unbenannter_Verlauf_90-10" x1="323.41" y1="63.65" x2="323.41" y2="96.3" xlink:href="#Unbenannter_Verlauf_90"/><linearGradient id="Unbenannter_Verlauf_87-3" x1="289.21" y1="55.79" x2="335.74" y2="55.79" xlink:href="#Unbenannter_Verlauf_87"/><linearGradient id="Unbenannter_Verlauf_88-3" x1="-998.06" y1="-956.16" x2="-971.41" y2="-933.07" xlink:href="#Unbenannter_Verlauf_88"/><linearGradient id="Unbenannter_Verlauf_90-11" x1="276.26" y1="-101.51" x2="276.26" y2="-83.17" gradientTransform="matrix(1, -0.08, -0.08, -1, 34.92, 245.88)" xlink:href="#Unbenannter_Verlauf_90"/><linearGradient id="Unbenannter_Verlauf_90-12" x1="321.96" y1="71.3" x2="321.96" y2="91.19" xlink:href="#Unbenannter_Verlauf_90"/><linearGradient id="Unbenannter_Verlauf_91" x1="2729.21" y1="95.72" x2="2762.44" y2="95.72" gradientTransform="matrix(1, 0, 0, -1, -2418.72, 402)" gradientUnits="userSpaceOnUse"><stop offset="0" stop-color="#0e7384"/><stop offset="1" stop-color="#14808a"/></linearGradient><linearGradient id="Unbenannter_Verlauf_95-8" x1="-3818.54" y1="95.92" x2="-3785.31" y2="95.92" gradientTransform="translate(-3474.82 402) rotate(180)" xlink:href="#Unbenannter_Verlauf_95"/><linearGradient id="Unbenannter_Verlauf_94" x1="2735.47" y1="97.03" x2="2758.43" y2="97.03" gradientTransform="matrix(1, 0, 0, -1, -2418.72, 402)" gradientUnits="userSpaceOnUse"><stop offset="0" stop-color="#284c80"/><stop offset="1" stop-color="#1678b1"/></linearGradient><linearGradient id="Unbenannter_Verlauf_94-2" x1="2737.01" y1="93.49" x2="2743.77" y2="93.49" xlink:href="#Unbenannter_Verlauf_94"/><linearGradient id="Unbenannter_Verlauf_95-9" x1="-3821.6" y1="2034.86" x2="-3799.87" y2="2034.86" gradientTransform="matrix(-1, -0.58, 0, -1, -3474.82, 119.16)" xlink:href="#Unbenannter_Verlauf_95"/><linearGradient id="Unbenannter_Verlauf_98-5" x1="326" y1="107.47" x2="345.83" y2="107.47" xlink:href="#Unbenannter_Verlauf_98"/><linearGradient id="Unbenannter_Verlauf_98-6" x1="313.25" y1="78.09" x2="313.25" y2="126" xlink:href="#Unbenannter_Verlauf_98"/><linearGradient id="Unbenannter_Verlauf_98-7" x1="294.63" y1="-2.89" x2="294.63" y2="13.47" gradientTransform="matrix(1, -0.05, -0.05, -1, 26.75, 312.38)" xlink:href="#Unbenannter_Verlauf_98"/><linearGradient id="Unbenannter_Verlauf_99" x1="-3798.75" y1="1285.57" x2="-3703.52" y2="1285.57" gradientTransform="matrix(-1, -0.58, 0, -1, -3278.77, -789.73)" gradientUnits="userSpaceOnUse"><stop offset="0" stop-color="#80f3c8"/><stop offset="1" stop-color="#30e695"/></linearGradient></defs><title>news-3</title><g id="Ebene_2" data-name="Ebene 2"><g id="illustration"><polygon class="cls-1" points="396.42 208.84 299.25 252.96 183.25 176.34 264.79 138.74 396.42 208.84"/><path class="cls-2" d="M231,40.36v72.32a12.55,12.55,0,0,1-5.67,9.82l-53.13,30.66V67.76l53.14-30.67a4.13,4.13,0,0,1,3.81-.51l.12.07C230.31,37.22,231,38.51,231,40.36Z"/><path class="cls-3" d="M170.71,66.93h0v0Z"/><path class="cls-4" d="M242.83,50.14,228.75,42h0l-.43-.24a4.12,4.12,0,0,0-3.76.52l-12.86,7.4L171.42,72.93h0l.77,82.89,52.37-28.15a12.52,12.52,0,0,0,5.66-9.81V57.76Z"/><path class="cls-5" d="M243.41,45.32a5.17,5.17,0,0,0-2.53.77l-11.37,6.56-41.44,24a2.46,2.46,0,0,1-.69.24,14.75,14.75,0,0,1-9.16-2c-4.43-2.49-5.48-5.34-5.76-6.54a.94.94,0,0,1,.41-.94l52.45-30.29a4.13,4.13,0,0,1,3.81-.51l-1.22-.68-.14-.08-.11-.06a4.13,4.13,0,0,0-3.8.5l-52.6,30.36a1,1,0,0,0-.5.76,3.73,3.73,0,0,0,0,.44c.23,1.55,1.21,4.7,5.44,7.45,4.94,3.21,4.59,4.88,6.79,4.5l4.75,82.39,1.47-.84L240.9,131.5a12.52,12.52,0,0,0,5.67-9.82V49.36a5.11,5.11,0,0,0-.54-2.43l.54-.28-.43-.24-1.22-.69A2.87,2.87,0,0,0,243.41,45.32Z"/><path class="cls-6" d="M246.12,46.41a4.08,4.08,0,0,0-3.77.52l-12.84,7.41s-39.06,23.43-41.66,23.88c-2.21.39-6.7.26-11.64-3-4.23-2.74-5.21-5.9-5.43-7.43a3.57,3.57,0,0,1,0-.46v84.93c0,.43-.5,4.41,4.79,7.84a19.4,19.4,0,0,0,13.23,2.92,2.9,2.9,0,0,0,.89-.33c5-2.86,52.7-30.42,52.7-30.42a12.51,12.51,0,0,0,5.67-9.8V50.19a4.11,4.11,0,0,0-1.47-3.54Z"/><path class="cls-7" d="M240.38,58.86v72.32a12.52,12.52,0,0,1-5.67,9.82l-53.12,30.66V86.26l53.12-30.67a4.17,4.17,0,0,1,3.82-.5l.11.06A4,4,0,0,1,240.38,58.86Z"/><path class="cls-8" d="M180.09,85.43h0v0Z"/><path class="cls-9" d="M252.21,68.64l-14.09-8.16h0l-.42-.24a4.17,4.17,0,0,0-3.77.52l-12.84,7.41L180.8,91.44h0l.76,82.89,52.37-28.15a12.55,12.55,0,0,0,5.66-9.82V76.29Z"/><path class="cls-10" d="M252.8,63.82a5.08,5.08,0,0,0-2.54.78l-11.37,6.56-41.44,24a2.12,2.12,0,0,1-.69.25,14.69,14.69,0,0,1-9.16-2c-4.43-2.5-5.47-5.35-5.76-6.55a1,1,0,0,1,.42-.94l52.41-30.27a4.15,4.15,0,0,1,3.81-.5l-1.21-.68-.14-.07L237,54.3a4.16,4.16,0,0,0-3.8.5l-52.6,30.36a.94.94,0,0,0-.46.71v.45c.24,1.55,1.22,4.7,5.48,7.45,4.94,3.21,4.6,4.88,6.79,4.5l4.79,82.39,1.46-.85L250.34,150a12.55,12.55,0,0,0,5.66-9.82V67.87a5.19,5.19,0,0,0-.54-2.45l.54-.27-.43-.24-1.22-.68A2.93,2.93,0,0,0,252.8,63.82Z"/><path class="cls-11" d="M255.5,64.91a4.16,4.16,0,0,0-3.77.51l-12.84,7.45s-39.06,23.44-41.67,23.89c-2.19.39-6.69.26-11.63-3-4.23-2.74-5.21-5.9-5.44-7.43a3.53,3.53,0,0,1,0-.46v84.93c0,.42-.5,4.41,4.79,7.84a19.41,19.41,0,0,0,13.23,2.92,3,3,0,0,0,.89-.33c5-2.86,52.7-30.42,52.7-30.42a12.5,12.5,0,0,0,5.68-9.81V68.7A4.13,4.13,0,0,0,256,65.15Z"/><path class="cls-12" d="M270.09,62.86v72.32a12.51,12.51,0,0,1-5.67,9.81l-53.13,30.67V90.26l53.13-30.67a4.15,4.15,0,0,1,3.81-.5l.12.06C269.42,59.72,270.09,61,270.09,62.86Z"/><path class="cls-13" d="M209.82,89.43h0v0Z"/><path class="cls-14" d="M281.94,72.64l-14.08-8.16h0l-.43-.24a4.18,4.18,0,0,0-3.76.52l-12.85,7.43L210.53,95.46h0l.77,82.88,52.35-28.18a12.52,12.52,0,0,0,5.66-9.81V80.26Z"/><path class="cls-15" d="M282.53,67.82a5.17,5.17,0,0,0-2.54.77l-11.36,6.56L227.18,99.1a2.12,2.12,0,0,1-.69.25,14.69,14.69,0,0,1-9.16-2c-4.43-2.5-5.47-5.35-5.76-6.55a1,1,0,0,1,.42-.94l52.42-30.26a4.11,4.11,0,0,1,3.8-.51L267,58.43l-.14-.07-.12-.07a4.11,4.11,0,0,0-3.79.5L210.34,89.15a1,1,0,0,0-.5.75v.44c.23,1.55,1.21,4.71,5.44,7.45,4.94,3.21,4.59,4.88,6.79,4.5l4.75,82.39,1.47-.84L280,154a12.5,12.5,0,0,0,5.67-9.81V71.86a5.29,5.29,0,0,0-.53-2.44l.53-.27-.43-.24L284,68.22A3.06,3.06,0,0,0,282.53,67.82Z"/><path class="cls-16" d="M285.23,68.91a4.16,4.16,0,0,0-3.77.51l-12.83,7.41s-39.07,23.42-41.68,23.9c-2.19.38-6.69.25-11.63-3-4.23-2.74-5.21-5.9-5.44-7.43a3.55,3.55,0,0,1,0-.46V174.8c0,.44-.5,4.42,4.79,7.85a19.35,19.35,0,0,0,13.23,2.92,3.22,3.22,0,0,0,.9-.32l52.69-30.42a12.52,12.52,0,0,0,5.66-9.82V72.69a4.1,4.1,0,0,0-1.46-3.54Z"/><path class="cls-17" d="M287.72,74.05v72.32a12.51,12.51,0,0,1-5.67,9.82l-53.13,30.66v-85.4l53.13-30.63a4.14,4.14,0,0,1,3.8-.51.35.35,0,0,1,.12.07C287.05,70.91,287.72,72.19,287.72,74.05Z"/><path class="cls-18" d="M227.45,100.62h0v0Z"/><path class="cls-19" d="M299.57,83.82l-14.09-8.15h0l-.42-.23a4.16,4.16,0,0,0-3.77.51l-12.85,7.41-40.28,23.27h0l.76,82.88,52.37-28.15a12.51,12.51,0,0,0,5.66-9.82V91.45Z"/><path class="cls-20" d="M300.15,79a5.24,5.24,0,0,0-2.53.77l-11.38,6.55-41.44,24a2.85,2.85,0,0,1-.69.25,14.75,14.75,0,0,1-9.16-2c-4.43-2.5-5.44-5.35-5.76-6.55a1,1,0,0,1,.41-.94l52.45-30.25a4.14,4.14,0,0,1,3.8-.51l-1.21-.68-.14-.08-.12-.06a4.1,4.1,0,0,0-3.79.49L228,100.32a1,1,0,0,0-.5.75v.45c.23,1.54,1.21,4.69,5.44,7.44,4.94,3.22,4.59,4.89,6.8,4.5l4.77,82.39L246,195l51.67-29.82a12.55,12.55,0,0,0,5.66-9.82V83.05a5.23,5.23,0,0,0-.53-2.43l.53-.28-.43-.24-1.22-.69A2.94,2.94,0,0,0,300.15,79Z"/><path class="cls-21" d="M302.86,80.1a4.14,4.14,0,0,0-3.77.52L286.24,88s-39.06,23.43-41.67,23.89c-2.2.38-6.69.26-11.64-3-4.23-2.74-5.2-5.9-5.43-7.43a3.53,3.53,0,0,1,0-.46V186c0,.44-.5,4.42,4.79,7.85a19.37,19.37,0,0,0,13.18,2.91,3.07,3.07,0,0,0,.89-.33c5-2.86,52.73-30.42,52.73-30.42a12.5,12.5,0,0,0,5.66-9.8V83.88a4.08,4.08,0,0,0-1.47-3.54Z"/><polygon class="cls-22" points="539 272.08 470.08 310.83 393.94 255.88 443.1 230.63 539 272.08"/><path class="cls-23" d="M498.4,271.46,325.25,166.63a13.12,13.12,0,0,1-5.95-10.26L315.1,15.24c0-7.44,5.64-8.45,8.93-6.55L501.44,111a13.13,13.13,0,0,1,6,10.27V266.07C507.4,269.86,502.34,273.58,498.4,271.46Z"/><path class="cls-24" d="M447.32,244.26l-31.1,18.91a15.27,15.27,0,0,1-13.75,0l-41.57-24a7.48,7.48,0,0,1-4-8.17,6.81,6.81,0,0,1,3.09-4.65l32-14a15.29,15.29,0,0,1,13.73,0l42.43,19a7.19,7.19,0,0,1,3.24,4.59C452.06,238.78,451.13,242.11,447.32,244.26Z"/><path class="cls-25" d="M447.31,243.83l-31.09,18.91a15.3,15.3,0,0,1-13.75-.05l-41.58-24.05a7.35,7.35,0,0,1-4-7.72,6.86,6.86,0,0,1,3.1-4.65l32-14a15.29,15.29,0,0,1,13.73,0l42.43,19a7.19,7.19,0,0,1,3.24,4.59C451.91,238.65,450.93,241.77,447.31,243.83Z"/><path class="cls-26" d="M447.31,243.38l-31.1,18.91a15.24,15.24,0,0,1-13.75,0l-41.58-24a7.29,7.29,0,0,1-4-7.29,6.86,6.86,0,0,1,3.1-4.65l32-14a15.29,15.29,0,0,1,13.73,0l42.43,19a7.19,7.19,0,0,1,3.24,4.59C451.76,238.53,450.73,241.44,447.31,243.38Z"/><path class="cls-27" d="M447.31,242.94l-31.12,18.91a15.25,15.25,0,0,1-13.74,0l-41.57-24.05a7.19,7.19,0,0,1-4-6.84,6.83,6.83,0,0,1,3.09-4.66l32-14a15.29,15.29,0,0,1,13.73,0l42.43,19.05a7.14,7.14,0,0,1,3.24,4.59C451.61,238.4,450.53,241.11,447.31,242.94Z"/><path class="cls-28" d="M447.29,242.5l-31.1,18.91a15.27,15.27,0,0,1-13.75,0l-41.57-24.05a7.2,7.2,0,0,1-4-6.4,6.86,6.86,0,0,1,3.1-4.65l32-14a15.29,15.29,0,0,1,13.73,0l42.43,19a7.19,7.19,0,0,1,3.24,4.59A7.37,7.37,0,0,1,447.29,242.5Z"/><path class="cls-29" d="M447.29,242.07,416.18,261a15.24,15.24,0,0,1-13.75,0l-41.6-24a7.26,7.26,0,0,1-4-6,6.81,6.81,0,0,1,3.09-4.65l32.05-14a15.29,15.29,0,0,1,13.73,0l42.43,19a7.19,7.19,0,0,1,3.24,4.59A7.41,7.41,0,0,1,447.29,242.07Z"/><path class="cls-30" d="M447.29,241.63l-31.12,18.91a15.34,15.34,0,0,1-13.75-.05l-41.59-24.05a7.4,7.4,0,0,1-4-5.52,6.87,6.87,0,0,1,3.09-4.66l32.05-14a15.29,15.29,0,0,1,13.73,0l42.44,19.05a7.17,7.17,0,0,1,3.23,4.59A7.57,7.57,0,0,1,447.29,241.63Z"/><path class="cls-31" d="M451.4,236a7.93,7.93,0,0,1-4.11,5.22l-31.12,18.91a15.24,15.24,0,0,1-13.75,0l-41.59-24a7.61,7.61,0,0,1-3.95-5.09,6.85,6.85,0,0,1,3.09-4.65l32-14a15.29,15.29,0,0,1,13.73,0l42.43,19A7.17,7.17,0,0,1,451.4,236Z"/><path class="cls-32" d="M449.28,237.13a6.75,6.75,0,0,1-2,1.6L429.4,249.9l-13.18,7.74a15.37,15.37,0,0,1-13.75,0l-41.57-24c-2.35-1.37-3.26-3.25-2.66-5a5.4,5.4,0,0,1,2.67-2.91L392,206.78a15.23,15.23,0,0,1,13.73.05l41.57,24a5.31,5.31,0,0,1,2.74,3A3.54,3.54,0,0,1,449.28,237.13Z"/><path class="cls-33" d="M450.06,233.84a5.54,5.54,0,0,1-2.69,2.89l-31.1,18.92a15.35,15.35,0,0,1-13.74,0l-41.59-24.06a5.38,5.38,0,0,1-2.69-3,5.4,5.4,0,0,1,2.67-2.91L392,206.74a15.24,15.24,0,0,1,13.72,0l41.58,24.06A5.38,5.38,0,0,1,450.06,233.84Z"/><path class="cls-34" d="M450.06,233.83a5.51,5.51,0,0,1-2.68,2.9l-.08.05-23.88,14.5-7.15,4.32a15.28,15.28,0,0,1-13.74,0L361,231.54a5.34,5.34,0,0,1-2.69-3,5.35,5.35,0,0,1,2.65-2.92L392,206.72a15.29,15.29,0,0,1,13.73.05l41.58,24A5.52,5.52,0,0,1,450.06,233.83Z"/><polygon class="cls-35" points="447.3 236.78 423.42 251.28 399.99 234.37 423.99 227.43 447.3 236.78"/><path class="cls-36" d="M409.73,236.24c-8.39,0-15.79-3.06-15.79-11.47V129.05a15.2,15.2,0,0,1,30.39,0v95.76C424.33,233.18,418.13,236.24,409.73,236.24Z"/><path class="cls-37" d="M497.23,270.93,321,169.21a13.15,13.15,0,0,1-5.94-10.27V15.24c0-3.79,2.66-5.33,5.94-3.42L497.23,113.54a13.12,13.12,0,0,1,5.94,10.26V267.5C503.19,271.29,500.51,272.82,497.23,270.93Z"/><path class="cls-38" d="M493.86,126.94v128a4.52,4.52,0,0,1-.58,2.44,2.61,2.61,0,0,1-.51.63,4.22,4.22,0,0,1-3.15-.61L328.11,164.45a11.67,11.67,0,0,1-5.3-9.16V27.3a4.1,4.1,0,0,1,1.07-3.09,2.72,2.72,0,0,1,.8-.12h0a4.7,4.7,0,0,1,2.35.73l161.52,92.91A11.71,11.71,0,0,1,493.86,126.94Z"/><path class="cls-39" d="M345.84,193.53c0,1.25.46,4.48,4.67,6.33a1,1,0,0,0,.88-.1,3.74,3.74,0,0,0,.94-1.08c.33-.69-3-5.86-6-5.73A.6.6,0,0,0,345.84,193.53Z"/><path class="cls-40" d="M348.88,191.77c-3.37,2.85-4.9,2.95-4.9,2.95h0a5.81,5.81,0,0,0-2.68.29c-2,.83-6.84,1-6.07,2.84s4.59.51,4,1.22-9.87,6.77-9.22,7.94,2.14.6,2.14.6-2.18,2-1.62,3,1.73.83,2.89.11c0,0-.38,2.37,2.88.61,0,0,0,1.08,2.4,0,2.11-1,7.77-4.1,10.44-9.31a.24.24,0,0,0,.06-.11,49.27,49.27,0,0,1,3.82-4.79Z"/><path class="cls-41" d="M346.23,193s4.5,2.19,5.16,6.78c0,0,23.6-14.74,26.9-19.9a97.37,97.37,0,0,0,4.86-9.89c.56-1.18,1.1-2.41,1.64-3.67a8.53,8.53,0,0,0-.23-3.22,23.15,23.15,0,0,1-1.28-19.52c3-8,.56-14.43,3.31-17.32-.48.2-1,.43-1.43.68v0c-6.93,3.93-9.61,16.8-10.32,21.85,0,.18-3.56,17.84-6.07,22.72C366.31,176.21,348,191.52,346.23,193Z"/><path class="cls-42" d="M384.56,163.07a9,9,0,0,1,.23,3.23c-.54,1.26-1.08,2.48-1.62,3.67.37-3.06.41-5.33,0-6.25,0,0-7.53-9.17-3.38-20.16,3-8,2.64-13.69,5.31-16.63l0,0a10.82,10.82,0,0,1,1.43-.65c-2.74,2.88-.54,10-3.56,18C378.89,155.29,384.56,163.07,384.56,163.07Z"/><path class="cls-43" d="M429.59,143.89a2,2,0,0,1-.06.34,2.17,2.17,0,0,1-.07.35c-.07.25-.15.52-.21.8-.83,3-3.06,8.3-5.26,14.23-.79,2.12-1.59,4.33-2.31,6.54-.2.72-.42,1.45-.64,2.21h0c0,.14-.08.29-.12.44a18.13,18.13,0,0,0-.52,1.82h0c-.11.43-.22.86-.34,1.28-.32,1.27-.61,2.51-.81,3.75,0,.15-.06.32-.08.5-.07.43-.12.86-.17,1.29a12.16,12.16,0,0,0-.13,1.47,17.83,17.83,0,0,0,0,4,3,3,0,0,1,.06.42c0,.23.08.47.11.73a3.12,3.12,0,0,0,.06.41,2.21,2.21,0,0,1,0,.29c.06.34.11.68.18,1.07s.12.77.2,1.18.18.83.24,1.27a2.49,2.49,0,0,0,.09.37c0,.12,0,.24.05.36.13.61.25,1.27.4,1.94.09.45.17.91.26,1.37.07.29.11.6.18.9.17.92.36,1.9.54,2.9.13.62.24,1.22.33,1.85v0c0,.19.06.4.1.59.27,1.55.57,3.18.87,4.9s.62,3.82.93,5.87c.2,1.26.39,2.54.58,3.87.13.93.24,1.9.37,2.89.17,1.2.31,2.41.47,3.67l-10.8-6.22-35.41-20.32c3.52-9.88,5.8-21.22,6.06-26.94a9.14,9.14,0,0,0-.23-3.25s-6.34-9-3.76-19.52c2.06-8.32,3-14.44,5.77-17.29a4.85,4.85,0,0,1,4-1.55c6.34.35,19.39,2.05,22,3.66,0,0,12.92,7.7,16.23,13.08v0A3.57,3.57,0,0,1,429.59,143.89Z"/><path class="cls-44" d="M424.74,218c.08.61.15,1.23.23,1.86l-10.8-6.23a2.81,2.81,0,0,1-.08-.31,61.17,61.17,0,0,1-1.71-11.1l-.31.33-14.61-8.45a27.06,27.06,0,0,0,4.35-5c2.27-4.36,5.64-20.42,6.16-23.21.57-4.15,4.1-25.45,17-25.45a13.52,13.52,0,0,1,2.38.24l.18,0,.13.07a7.89,7.89,0,0,1,1.15.68v0a3.69,3.69,0,0,1,.68,2.4,1.86,1.86,0,0,1-.06.34c0,.12,0,.24-.07.35l.14.1C428.29,149,424.32,158,421.44,167c-.16.46-.3.93-.45,1.4h0c0,.14-.09.29-.12.44a16.42,16.42,0,0,0-.52,1.82h0c-.12.43-.23.86-.34,1.29a37.77,37.77,0,0,0-.8,3.73c0,.17-.07.34-.09.51s0,.33-.06.49-.07.54-.11.8a10.42,10.42,0,0,0-.13,1.47,16.73,16.73,0,0,0,0,4c0,.14.05.28.06.43s.07.46.11.72a2,2,0,0,0,.06.41c0,.14,0,.19.05.29.06.35.11.68.17,1.07s.15.76.22,1.17.17.83.25,1.3a2.33,2.33,0,0,0,.06.35c.14.69.3,1.49.45,2.3.09.45.17.91.27,1.37.06.29.11.6.17.9.17.92.35,1.9.53,2.91.12.61.24,1.21.35,1.84v0l.1.59c.28,1.55.57,3.18.86,4.9.32,1.87.63,3.82.94,5.88.2,1.24.4,2.54.6,3.85.13,1,.22,1.91.36,2.89Z"/><path class="cls-45" d="M386.84,108.68s-.12,27.5,3.15,27.37c3.46-.11,12.38-2.38,14.15-6.72s3.65-14.33.93-17.63-22.34-11-21.77-9.86S386.84,107.15,386.84,108.68Z"/><path class="cls-46" d="M399.06,129.07s1.09,7.07,1.95,8.07c2.17,2.54,12.49,1.47,14.63-3.9l-1.62-15Z"/><path class="cls-47" d="M399.39,84.72c-6.84,1.81-14.16,13.58-12.17,27,2.5,16.87,5.32,25.47,17.79,17,7.17-4.85,16-8.82,13.23-30.7C416.89,87.16,405.08,83.23,399.39,84.72Z"/><path class="cls-48" d="M383.1,209.38a16.75,16.75,0,0,1-7.53,3.69,6.61,6.61,0,0,0-3.3.27c-2.16.89-7.4,1.1-6.54,3.06s4.95.55,4.34,1.32-10.6,7.28-9.92,8.54,2.31.65,2.31.65-2.34,2.15-1.75,3.21,1.87.89,3.12.11c0,0-.4,2.56,3.1.68,0,0,0,1.16,2.58,0,2.16-1,7.76-4,10.78-9.15a1.27,1.27,0,0,0,.23-.41h0c.11-.18.21-.38.31-.57,1.19-1.88,4.1-2.92,5.36-4.8C387.61,213.9,383.1,209.38,383.1,209.38Z"/><path class="cls-49" d="M409.73,164.7c.89-6.63,5.27-27.92,17.21-24.29,2.55.78,4.33,2.78,4.15,10.34-.11,4.67-2.12,10.63-3.77,14.88a.3.3,0,0,1,0,.08c-.26.68-.5,1.27-.73,1.84-2.42,6-9.94,24.39-13.21,29.53-3.52,5.52-24.73,18.64-29.24,21.4a1.88,1.88,0,0,1-1.71.06,7.39,7.39,0,0,1-4-5.72,2.17,2.17,0,0,1,.76-1.61C383,208,401,192.93,403.4,188.38,406,183.29,409.7,164.88,409.73,164.7Z"/><path class="cls-50" d="M396.54,130.21h-.28l-2.32-.38a1.68,1.68,0,0,1,.54-3.32l2.33.38a1.69,1.69,0,0,1-.27,3.35Z"/><path class="cls-51" d="M399.16,129.28a14.89,14.89,0,0,1-1.64-.08.56.56,0,0,1-.5-.61.58.58,0,0,1,.63-.5c.07,0,6.88.72,11.34-3,2.35-2,3.65-4.89,3.86-8.63a.57.57,0,0,1,.55-.58.57.57,0,0,1,.58.55.34.34,0,0,1,0,.1c-.23,4-1.66,7.22-4.26,9.42C406.2,128.85,401.56,129.28,399.16,129.28Z"/><path class="cls-45" d="M390.54,86.63c-2.48,2.73-6.55,7.44-7.44,12.82-.61,3.56,2.69,7.58,10.95,6.61,2.88-.34,5,.44,10.5-1.88,2.3-1,2.8,8.21,2.8,11.11,0,6.21-6.28,28.32,2,25.69,7.85-2.49,15.29-.62,16.95-15.91s1.86-38.11-13-40.65C413.27,84.42,402.58,73.27,390.54,86.63Z"/><path class="cls-52" d="M199.77,234.2c0,3.73-1.81,7.15-5.08,10.13-5.89,5.38-16.48,9.24-29.54,10.5-.5,0-1,.1-1.52.13l-1.53.11c-2,.14-4.19.2-6.35.2-1.1,0-2.2,0-3.29-.06s-2.05-.07-3.06-.14-2.06-.14-3.05-.24c-13-1.26-23.62-5.1-29.52-10.47h0c-3.29-3-5.12-6.43-5.12-10.16,0-12,18.94-21.09,44-21.09S199.77,222.17,199.77,234.2Z"/><path class="cls-26" d="M189.13,238.36h0c-3.85,5.93-16,12.35-33.4,12.35s-29.54-6.42-33.4-12.35h0a12.94,12.94,0,0,1-2.94-9.13.08.08,0,0,1,0-.07h0a10,10,0,0,1,.23-1.63h0a1.91,1.91,0,0,1,.07-.36c0-.12,0-.11,0-.15s0-.05,0-.08a2.2,2.2,0,0,1,.07-.28c0-.09,0-.18.08-.28h0a.45.45,0,0,1,0-.2l0-.15c0-.12.07-.22.1-.34v-.08a.26.26,0,0,0,0-.12v0a.77.77,0,0,0,.07-.16c0-.09.07-.18.11-.27V225c0-.11.09-.22.14-.33h0a.13.13,0,0,1,0-.12,15.9,15.9,0,0,1,2.84-4.36c3.08-3.3,10.13-2.1,16.85.17a65,65,0,0,1,30.88,0c6.7-2.25,13.69-3.47,16.82-.23l.05.06a15.8,15.8,0,0,1,2.84,4.34.54.54,0,0,1,.05.11h0a3.49,3.49,0,0,1,.15.34l.07.17v0l.12.3h0l0,.15v.06a1.15,1.15,0,0,1,.06.17.16.16,0,0,0,0,.14c0,.15.11.32.15.5v.12s.06.21.08.31,0,0,0,.05h0v.12c0,.14.07.28.1.42a12.79,12.79,0,0,1,.23,1.63h0v.07A13.09,13.09,0,0,1,189.13,238.36Z"/><path class="cls-53" d="M192.08,229.56a12.82,12.82,0,0,1-3,8.43h0c-3.86,5.92-16,12.32-33.36,12.32s-29.5-6.38-33.34-12.32h0a12.86,12.86,0,0,1-3-8.43v-.4h0a11.22,11.22,0,0,1,.23-1.63h0a1.9,1.9,0,0,1,.08-.36c0-.12,0-.11,0-.15s0-.05,0-.08,0-.18.07-.28,0-.18.09-.28h0a.5.5,0,0,1,.08-.2l0-.15c0-.12.07-.22.1-.34v-.08a.26.26,0,0,0,0-.12v0a.77.77,0,0,0,.07-.16c0-.09.07-.18.11-.27V225c0-.11.09-.22.14-.33h0a.13.13,0,0,1,0-.12,15.9,15.9,0,0,1,2.84-4.36c3.08-3.3,10.13-2.1,16.85.17a65,65,0,0,1,30.88,0c6.7-2.25,13.69-3.47,16.82-.23l.05.06a15.8,15.8,0,0,1,2.84,4.34.54.54,0,0,1,.05.11h0a3.49,3.49,0,0,1,.15.34l.07.17v0l.12.3h0l0,.15v.06a1.15,1.15,0,0,1,.06.17.16.16,0,0,0,0,.14c0,.15.11.32.15.5v.12s.06.21.08.31,0,0,0,.05h0v.12c0,.14.07.28.1.42a12.79,12.79,0,0,1,.23,1.63h0v.07A.42.42,0,0,1,192.08,229.56Z"/><path class="cls-54" d="M192.08,229.56a12.51,12.51,0,0,1-3,8h0c-3.84,5.89-16,12.26-33.3,12.26s-29.43-6.37-33.3-12.26h0a12.54,12.54,0,0,1-3.06-8v-.4h0a11.24,11.24,0,0,1,.24-1.63h0a1.91,1.91,0,0,1,.07-.36c0-.12,0-.11,0-.15s0-.05,0-.08a2.83,2.83,0,0,1,.08-.28c0-.09.05-.18.08-.28h0a.64.64,0,0,1,0-.2l0-.15c0-.12.07-.22.1-.34v-.08a.26.26,0,0,0,0-.12v0a.77.77,0,0,0,.07-.16c0-.09.07-.18.11-.27V225c0-.11.09-.22.14-.33h0a.13.13,0,0,1,0-.12,15.9,15.9,0,0,1,2.84-4.36c3.08-3.3,10.13-2.1,16.85.17a65,65,0,0,1,30.88,0c6.7-2.25,13.69-3.47,16.82-.23l.05.06a15.8,15.8,0,0,1,2.84,4.34.54.54,0,0,1,.05.11h0a3.49,3.49,0,0,1,.15.34l.07.17v0l.12.3h0l0,.15v.06a1.15,1.15,0,0,1,.06.17.16.16,0,0,0,0,.14c0,.15.11.32.15.5v.12s.06.21.08.31,0,0,0,.05h0v.12c0,.14.07.28.1.42a12.79,12.79,0,0,1,.23,1.63h0v.07A.42.42,0,0,1,192.08,229.56Z"/><path class="cls-55" d="M191.88,229.49v.26a13.31,13.31,0,0,1-2.89,7.48h0c-3.87,5.87-16,12.21-33.28,12.21s-29.43-6.33-33.25-12.19h0a13.41,13.41,0,0,1-2.9-7.43v-.74a7.26,7.26,0,0,1,.06-1.15,4,4,0,0,1,.1-.78.19.19,0,0,1,0-.15s0-.05,0-.08a2.2,2.2,0,0,1,.07-.28l.08-.28h0a.55.55,0,0,1,0-.18l0-.15c0-.12.07-.22.1-.34v-.08a.26.26,0,0,0,0-.12v0a.77.77,0,0,0,.07-.16c0-.09.07-.18.11-.27V225c0-.11.09-.22.14-.33h0a.13.13,0,0,1,0-.12,15.9,15.9,0,0,1,2.84-4.36c3.08-3.3,10.13-2.1,16.85.17a65,65,0,0,1,30.88,0c6.7-2.25,13.69-3.47,16.82-.23l.05.06a15.8,15.8,0,0,1,2.84,4.34.54.54,0,0,1,.05.11h0a3.49,3.49,0,0,1,.15.34l.07.17v0l.12.3h0l0,.15v.06a1.15,1.15,0,0,1,.06.17.16.16,0,0,0,0,.14c0,.15.11.32.15.5v.12s.06.21.08.31,0,0,0,.05h0v.12a.2.2,0,0,1,0,.11A13.1,13.1,0,0,1,191.88,229.49Z"/><path class="cls-56" d="M191.88,229.49v.26a12.87,12.87,0,0,1-2.93,7.09h0C185.12,242.68,173,249,155.75,249s-29.37-6.31-33.19-12.15h0a12.91,12.91,0,0,1-2.94-7v-.46a1.31,1.31,0,0,1,0-.28,9.06,9.06,0,0,1,.07-1.56h0a2.09,2.09,0,0,1,.08-.36c0-.12,0-.11,0-.15s0-.05,0-.08,0-.18.08-.28a1.72,1.72,0,0,1,.08-.28h0a.47.47,0,0,1,0-.17l0-.15c0-.12.07-.22.1-.34v-.08a.26.26,0,0,0,0-.12v0a.77.77,0,0,0,.07-.16c0-.09.07-.18.11-.27V225c0-.11.09-.22.14-.33h0a.13.13,0,0,1,0-.12,15.9,15.9,0,0,1,2.84-4.36c3.08-3.3,10.13-2.1,16.85.17a65,65,0,0,1,30.88,0c6.7-2.25,13.69-3.47,16.82-.23l.05.06a15.8,15.8,0,0,1,2.84,4.34.54.54,0,0,1,.05.11h0a3.49,3.49,0,0,1,.15.34l.07.17v0l.12.3h0l0,.15v.06a1.15,1.15,0,0,1,.06.17.16.16,0,0,0,0,.14c0,.15.11.32.15.5v.12s.06.21.08.31,0,0,0,.05h0v.12c0,.14.07.28.1.42A10.5,10.5,0,0,1,191.88,229.49Z"/><path class="cls-57" d="M191.79,228.27v.08a13.24,13.24,0,0,1-2.92,8.09h0c-3.82,5.8-15.93,12.08-33.15,12.08s-29.32-6.28-33.14-12.08h0A14,14,0,0,1,120,231a1.27,1.27,0,0,1-.06-.28,12.28,12.28,0,0,1-.18-3.63v-.25a1.09,1.09,0,0,1,.08-.28c0-.09.05-.18.08-.28h0a.31.31,0,0,1,0-.13l0-.15c0-.12.07-.22.1-.34v-.08a.26.26,0,0,0,0-.12v0a.77.77,0,0,0,.07-.16c0-.09.07-.18.11-.27V225c0-.11.09-.22.14-.33h0a.13.13,0,0,1,0-.12,15.9,15.9,0,0,1,2.84-4.36c3.08-3.3,10.13-2.1,16.85.17a65,65,0,0,1,30.88,0c6.7-2.25,13.69-3.47,16.82-.23l.05.06a15.8,15.8,0,0,1,2.84,4.34.54.54,0,0,1,.05.11h0a3.49,3.49,0,0,1,.15.34l.07.17v0l.12.3h0l0,.15v.06a1.15,1.15,0,0,1,.06.17.16.16,0,0,0,0,.14c0,.15.11.32.15.5v.12s.06.21.08.31,0,0,0,.05V227A2.75,2.75,0,0,1,191.79,228.27Z"/><path class="cls-58" d="M191.79,228.27v.08a12.77,12.77,0,0,1-3,7.74h0c-3.82,5.78-15.91,12-33.1,12s-29.31-6.2-33.12-12h0a13.18,13.18,0,0,1-2.68-5.05.67.67,0,0,1-.06-.28,10.71,10.71,0,0,1-.31-2.87,2.81,2.81,0,0,1,0-.41h0a2.09,2.09,0,0,1,.07-.36c0-.12,0-.11,0-.15s0-.05,0-.08,0-.18.08-.28,0-.18.08-.28h0a.59.59,0,0,1,.1-.17l0-.15c0-.12.07-.22.1-.34v-.08a.26.26,0,0,0,0-.12v0a.77.77,0,0,0,.07-.16c0-.09.07-.18.11-.27V225c0-.11.09-.22.14-.33h0a.13.13,0,0,1,0-.12,15.9,15.9,0,0,1,2.84-4.36c3.08-3.3,10.13-2.1,16.85.17a65,65,0,0,1,30.88,0c6.7-2.25,13.69-3.47,16.82-.23l.05.06a15.8,15.8,0,0,1,2.84,4.34.54.54,0,0,1,.05.11h0a3.49,3.49,0,0,1,.15.34l.07.17v0l.12.3h0l0,.15v.06a1.15,1.15,0,0,1,.06.17.16.16,0,0,0,0,.14c0,.15.11.32.15.5v.12s.06.21.08.31,0,0,0,.05h0v.12a.2.2,0,0,1,0,.11A1.86,1.86,0,0,1,191.79,228.27Z"/><path class="cls-59" d="M188.77,235.72h0c-3.81,5.75-15.89,12-33.06,12s-29.24-6.21-33-11.93h0a12.53,12.53,0,0,1-3-8.57v-.25a2.83,2.83,0,0,1,.08-.28c0-.09,0-.18.08-.28h0a.46.46,0,0,1,.05-.2l0-.15c0-.12.07-.22.1-.34v-.08a.26.26,0,0,0,0-.12v0a.77.77,0,0,0,.07-.16c0-.09.07-.18.11-.27V225c0-.11.09-.22.14-.33h0a.13.13,0,0,1,0-.12,15.9,15.9,0,0,1,2.84-4.36c3.08-3.3,10.13-2.1,16.85.17a65,65,0,0,1,30.88,0c6.7-2.25,13.69-3.47,16.82-.23l.05.06a15.8,15.8,0,0,1,2.84,4.34.54.54,0,0,1,.05.11h0a3.49,3.49,0,0,1,.15.34l.07.17v0l.12.3h0l0,.15v.06a1.15,1.15,0,0,1,.06.17.16.16,0,0,0,0,.14c0,.15.11.32.15.5v.12s.06.21.08.31,0,0,0,.05V227A12.57,12.57,0,0,1,188.77,235.72Z"/><path class="cls-60" d="M191.61,227.24v.1a1,1,0,0,1,0,.25,13,13,0,0,1-2.87,7.74h0c-3.8,5.74-15.85,11.93-33,11.93s-29.19-6.19-33-11.93h0a14,14,0,0,1-2.74-6.48,7,7,0,0,1-.09-.92v-.24a12.68,12.68,0,0,1,0-1.51l0-.15c0-.12.07-.22.1-.34v-.08a.26.26,0,0,0,0-.12v0a.77.77,0,0,0,.07-.16c0-.09.07-.18.11-.27V225c0-.11.09-.22.14-.33h0a.13.13,0,0,1,0-.12,15.9,15.9,0,0,1,2.84-4.36c3.08-3.3,10.13-2.1,16.85.17a65,65,0,0,1,30.88,0c6.7-2.25,13.69-3.47,16.82-.23l.05.06a15.8,15.8,0,0,1,2.84,4.34.54.54,0,0,1,.05.11h0a3.49,3.49,0,0,1,.15.34l.07.17v0l.12.3h0l0,.15v.06a1.15,1.15,0,0,1,.06.17.16.16,0,0,0,0,.14c0,.15.11.32.15.5A3.78,3.78,0,0,1,191.61,227.24Z"/><path class="cls-61" d="M191.62,227v.63A12.57,12.57,0,0,1,188.7,235h0c-3.8,5.71-15.84,11.87-32.95,11.87S126.6,240.67,122.8,235h0a14.07,14.07,0,0,1-2.63-5.36,2.1,2.1,0,0,1-.06-.24,14,14,0,0,1-.2-1.45v-.24a10.44,10.44,0,0,1,0-1.37h0a.5.5,0,0,1,0-.12l0-.15c0-.12.07-.22.1-.34v-.08a.26.26,0,0,0,0-.12v0a.77.77,0,0,0,.07-.16c0-.09.07-.18.11-.27V225c0-.11.09-.22.14-.33h0a.13.13,0,0,1,0-.12,15.9,15.9,0,0,1,2.84-4.36c3.08-3.3,10.13-2.1,16.85.17a65,65,0,0,1,30.88,0c6.7-2.25,13.69-3.47,16.82-.23l.05.06a15.8,15.8,0,0,1,2.84,4.34.54.54,0,0,1,.05.11h0a3.49,3.49,0,0,1,.15.34l.07.17v0l.12.3h0l0,.15v.06a1.15,1.15,0,0,1,.06.17.16.16,0,0,0,0,.14c0,.15.11.32.15.5v.08Z"/><path class="cls-62" d="M191.62,227v.31a12.1,12.1,0,0,1-3,7.3h0c-3.79,5.69-15.82,11.82-32.91,11.82s-29.1-6.16-32.89-11.82h0a13,13,0,0,1-2.66-5,2.1,2.1,0,0,1-.06-.24,3,3,0,0,1-.11-.54,10.4,10.4,0,0,1-.2-2.23.83.83,0,0,1,.09-.28h0a.28.28,0,0,1,0-.13l0-.15c0-.12.07-.22.1-.34v-.08a.26.26,0,0,0,0-.12v0a.77.77,0,0,0,.07-.16c0-.09.07-.18.11-.27V225c0-.11.09-.22.14-.33h0a.13.13,0,0,1,0-.12,15.9,15.9,0,0,1,2.84-4.36c3.08-3.3,10.13-2.1,16.85.17a65,65,0,0,1,30.88,0c6.7-2.25,13.69-3.47,16.82-.23l.05.06a15.8,15.8,0,0,1,2.84,4.34.54.54,0,0,1,.05.11h0a3.49,3.49,0,0,1,.15.34l.07.17v0l.12.3h0l0,.15v.06a1.15,1.15,0,0,1,.06.17.16.16,0,0,0,0,.14c0,.15.11.32.15.5v.12A.44.44,0,0,1,191.62,227Z"/><path class="cls-63" d="M191.43,226a12.69,12.69,0,0,1-2.86,8.25h0c-3.78,5.66-15.78,11.77-32.85,11.77s-29-6.11-32.85-11.77h0A12.7,12.7,0,0,1,120,226c0-.12.07-.22.11-.34v-.08a.43.43,0,0,0,0-.12v0s0-.1.07-.16.06-.18.1-.27V225l.14-.33h0a.13.13,0,0,1,0-.12,15.9,15.9,0,0,1,2.84-4.36c3.09-3.3,10.14-2.1,16.86.17a65,65,0,0,1,30.88,0c6.69-2.25,13.68-3.47,16.81-.23l.06.06a16.27,16.27,0,0,1,2.84,4.34.49.49,0,0,1,0,.11h0a3.54,3.54,0,0,1,.16.34l.06.17v0c0,.09.09.21.12.3h0l.05.15v.06a1.09,1.09,0,0,1,.05.17A.2.2,0,0,1,191.43,226Z"/><path class="cls-64" d="M191.3,225.58v.93a3.12,3.12,0,0,1-.05.68v.05a13.77,13.77,0,0,1-2.73,6.57h0c-3.79,5.64-15.74,11.71-32.81,11.71s-29-6.07-32.8-11.71h0a13.45,13.45,0,0,1-2.74-7.27v-.94a.31.31,0,0,0,0-.12v0a1.11,1.11,0,0,0,.07-.16c0-.09.07-.19.11-.28V225c0-.11.09-.23.14-.34h0a.14.14,0,0,1,0-.11,16.19,16.19,0,0,1,2.84-4.37c3.09-3.3,10.14-2.09,16.86.18a65,65,0,0,1,30.88,0c6.69-2.26,13.69-3.47,16.82-.23l.05,0a16.24,16.24,0,0,1,2.84,4.35.37.37,0,0,1,0,.11h0l.15.34.07.16v0a2.65,2.65,0,0,1,.11.3h0Z"/><path class="cls-65" d="M191.32,225.65v.89a9.71,9.71,0,0,1-.2,1.42.86.86,0,0,1-.06.23,13.29,13.29,0,0,1-2.55,5.26h0c-3.78,5.6-15.74,11.63-32.75,11.63s-29-6.05-32.75-11.63h0a12.86,12.86,0,0,1-2.81-6.9,1,1,0,0,1,0-.25v-.69a.43.43,0,0,0,0-.12v0a.77.77,0,0,0,.07-.16c0-.09.07-.18.11-.27a.06.06,0,0,1,0-.06l.13-.33h0a.13.13,0,0,1,0-.12,15.9,15.9,0,0,1,2.84-4.36c3.09-3.3,10.14-2.1,16.86.17a65,65,0,0,1,30.88,0c6.69-2.25,13.69-3.47,16.81-.23l.06.06a16.27,16.27,0,0,1,2.84,4.34l0,.11h0l.15.34.07.17v0c0,.09.08.21.11.3h0l.05.15Z"/><path class="cls-66" d="M191.32,225.65l.06.16a10.42,10.42,0,0,1-.14,1.37v0c0,.23-.09.46-.15.68a2,2,0,0,1-.05.24,12.65,12.65,0,0,1-2.61,4.87h0c-3.77,5.58-15.74,11.63-32.7,11.63s-28.92-6-32.7-11.63h0a12.91,12.91,0,0,1-2.79-7,2.78,2.78,0,0,0,0-.58.77.77,0,0,0,.07-.16c0-.09.07-.18.11-.27a0,0,0,0,1,0-.05c0-.11.09-.23.14-.34h0a.17.17,0,0,1,0-.12,15.9,15.9,0,0,1,2.84-4.36c3.09-3.3,10.14-2.1,16.86.18a64.68,64.68,0,0,1,30.88,0c6.69-2.26,13.69-3.47,16.82-.24l0,.06a16,16,0,0,1,2.84,4.34l.05.11h0c0,.11.1.22.15.35l.07.16v0c0,.09.08.21.11.3h0l.05.15Z"/><path class="cls-67" d="M191.14,225.13a2.83,2.83,0,0,1,.11.31h0a12.33,12.33,0,0,1-2.88,7.25h0c-3.77,5.55-15.69,11.55-32.66,11.55s-28.88-6-32.64-11.55h0a12.38,12.38,0,0,1-2.84-6.67,3.08,3.08,0,0,1,0-.53v0s0-.1.07-.16a1.53,1.53,0,0,1,.11-.27.06.06,0,0,1,0-.06c0-.11.08-.22.13-.33h0a.13.13,0,0,1,0-.12,15.9,15.9,0,0,1,2.84-4.36c3.09-3.3,10.14-2.1,16.86.17a65,65,0,0,1,30.88,0c6.69-2.25,13.68-3.47,16.81-.23l.06.06a16.27,16.27,0,0,1,2.84,4.34l0,.11h0l.15.34.06.17Z"/><path class="cls-68" d="M191.1,225.1v0a12.45,12.45,0,0,1-2.77,7.2h0c-3.76,5.53-15.68,11.5-32.61,11.5s-28.85-6-32.61-11.5h0a14.34,14.34,0,0,1-2-3.64,11.64,11.64,0,0,1-.75-3.64.06.06,0,0,1,0-.06c0-.11.09-.22.14-.33h0a.15.15,0,0,1,0-.12,16,16,0,0,1,2.84-4.37c3.09-3.3,10.14-2.09,16.86.18a65,65,0,0,1,30.88,0c6.69-2.26,13.69-3.47,16.82-.23l.05,0a16.48,16.48,0,0,1,2.84,4.35.37.37,0,0,1,0,.11h0l.15.34Z"/><path class="cls-69" d="M191.1,225.1a12.25,12.25,0,0,1-2.84,6.84h0c-3.76,5.48-15.65,11.45-32.56,11.45s-28.79-5.95-32.54-11.45h0a12.8,12.8,0,0,1-2.06-3.27,10.66,10.66,0,0,1-.86-3.37,2.18,2.18,0,0,1,.11-.27V225a3.27,3.27,0,0,1,.14-.33h0a.13.13,0,0,1,.05-.12,16,16,0,0,1,2.84-4.37c3.08-3.3,10.13-2.09,16.85.18a65,65,0,0,1,30.88,0c6.7-2.26,13.69-3.47,16.82-.23l0,.05a16,16,0,0,1,2.84,4.35.37.37,0,0,1,.05.11h0a3.49,3.49,0,0,1,.15.34Z"/><path class="cls-70" d="M190.91,224.59c.05.11.1.22.15.35a12.33,12.33,0,0,1-2.84,6.62h0C184.47,237,172.6,243,155.71,243S127,237,123.22,231.56h0a12.32,12.32,0,0,1-2.82-6.6c0-.11.09-.22.14-.33h0a.15.15,0,0,1,0-.12,16.14,16.14,0,0,1,2.84-4.36c3.09-3.3,10.14-2.1,16.86.17a65,65,0,0,1,30.88,0c6.69-2.25,13.69-3.47,16.82-.23l.05.06a16,16,0,0,1,2.84,4.34.54.54,0,0,1,0,.11Z"/><path class="cls-71" d="M190.91,224.59a12.76,12.76,0,0,1-2.74,6.59h0c-3.75,5.48-15.6,11.34-32.46,11.34s-28.69-5.89-32.44-11.34h0a12.67,12.67,0,0,1-2.74-6.55h0a.13.13,0,0,1,0-.12,15.9,15.9,0,0,1,2.84-4.36c3.08-3.3,10.13-2.1,16.85.17a65,65,0,0,1,30.88,0c6.7-2.25,13.69-3.47,16.82-.23l.05.06a15.8,15.8,0,0,1,2.84,4.34.54.54,0,0,1,0,.11Z"/><path class="cls-72" d="M190.91,224.57a12.4,12.4,0,0,1-2.78,6.23h0c-3.75,5.42-15.58,11.29-32.41,11.29s-28.67-5.85-32.37-11.27h0a12.34,12.34,0,0,1-2.78-6.2h0a.12.12,0,0,1,.05-.11,15.8,15.8,0,0,1,2.84-4.37c3.09-3.3,10.13-2.1,16.86.18a65,65,0,0,1,30.88,0c6.72-2.28,13.77-3.48,16.87-.18a16.43,16.43,0,0,1,2.84,4.34Z"/><path class="cls-73" d="M190.42,225.36a6.32,6.32,0,0,1-.65,2.66c-1,2.15-3.2,4.42-6.37,6.47a37.68,37.68,0,0,1-8,3.84,52,52,0,0,1-9.26,2.35,65.48,65.48,0,0,1-10.46.83c-21.21,0-34.7-9.59-34.7-16.15s13.51-16.14,34.7-16.14S190.42,218.78,190.42,225.36Z"/><path class="cls-74" d="M156.73,153.34c-16.5,0-29.86,6.2-29.86,13.85v58.14c0,7.69,13.36,13.85,29.86,13.85s29.85-6.21,29.85-13.87V167.19C186.58,159.54,173.21,153.34,156.73,153.34Z"/><g class="cls-75"><path class="cls-76" d="M176,226.5c0,4.11-9,7.5-20.2,7.5s-20.2-3.36-20.2-7.5,9-7.52,20.2-7.52S176,222.36,176,226.5Z"/><path class="cls-77" d="M174.05,226.35c0,3.75-8.17,6.78-18.25,6.78s-18.26-3-18.26-6.78,8.17-6.77,18.26-6.77S174.05,222.61,174.05,226.35Z"/><path class="cls-78" d="M172.12,226.21c0,3.35-7.3,6-16.31,6s-16.31-2.7-16.31-6,7.3-6.06,16.31-6.06S172.12,222.86,172.12,226.21Z"/><path class="cls-79" d="M170.19,226.07c0,2.94-6.43,5.33-14.37,5.33s-14.38-2.39-14.38-5.33,6.44-5.34,14.38-5.34S170.19,223.12,170.19,226.07Z"/><path class="cls-80" d="M168.26,225.92c0,2.55-5.56,4.61-12.42,4.61s-12.42-2.06-12.42-4.61,5.56-4.61,12.42-4.61S168.26,223.38,168.26,225.92Z"/><path class="cls-81" d="M166.33,225.77c0,2.15-4.69,3.89-10.47,3.89s-10.48-1.74-10.48-3.89,4.69-3.88,10.48-3.88S166.33,223.63,166.33,225.77Z"/><path class="cls-82" d="M164.41,225.63c0,1.74-3.82,3.17-8.52,3.17s-8.53-1.43-8.53-3.17,3.81-3.16,8.53-3.16S164.41,223.88,164.41,225.63Z"/><path class="cls-83" d="M162.47,225.49c0,1.37-2.95,2.44-6.58,2.44s-6.58-1.07-6.58-2.44,2.94-2.44,6.58-2.44S162.47,224.12,162.47,225.49Z"/><path class="cls-84" d="M160.53,225.34c0,.95-2.05,1.72-4.63,1.72s-4.63-.77-4.63-1.72,2-1.72,4.63-1.72S160.53,224.39,160.53,225.34Z"/><path class="cls-85" d="M158.6,225.19c0,.55-1.2,1-2.69,1s-2.69-.45-2.69-1,1.21-1,2.69-1S158.6,224.64,158.6,225.19Z"/><path class="cls-86" d="M147.23,214.83v8.94c0,2.73,3.71,4.88,8.44,4.88s8.44-2.15,8.44-4.88v-8.94Z"/><path class="cls-87" d="M144,207.26v12c0,.16,0,.31,0,.47,0,3.81,5.14,6.79,11.72,6.79s11.74-3,11.74-6.79V207.26Z"/><path class="cls-88" d="M155.64,214.05c-6.58,0-11.72-3-11.72-6.79s5.14-6.8,11.72-6.8,11.74,3,11.74,6.8S162.22,214.05,155.64,214.05Z"/><path class="cls-89" d="M167.37,215.4v2.17c0,3.8-5.15,6.78-11.73,6.78s-11.72-3-11.72-6.78a1.78,1.78,0,0,1,0-.46v-1.2c.46,3.54,5.43,6.26,11.69,6.26C162.22,222.2,167.37,219.21,167.37,215.4Z"/><path class="cls-90" d="M167.37,210.93v2.17c0,3.79-5.15,6.79-11.73,6.79s-11.72-3-11.72-6.79a1.83,1.83,0,0,1,0-.47v-1.17c.46,3.54,5.43,6.26,11.69,6.26C162.22,217.72,167.37,214.73,167.37,210.93Z"/><path class="cls-91" d="M175.64,180.32a20.87,20.87,0,0,0-5.84-14.52,19.66,19.66,0,0,0-14.09-6.1h-.13a19.69,19.69,0,0,0-14.1,6.1,20.84,20.84,0,0,0-5.81,14.52h0a18.87,18.87,0,0,0,1.69,7.58,42.07,42.07,0,0,0,3.59,6.38c2.6,4,3.05,5.48,3.68,9.35.13.81.28,1.65.37,2.21l.22,1.43h0c0,3.06,4.69,5.55,10.48,5.55s10.49-2.49,10.49-5.55h0l.15-1.43c.1-.56.23-1.37.37-2.21.64-3.9,1.08-5.32,3.68-9.35A41.17,41.17,0,0,0,174,187.9a18.68,18.68,0,0,0,1.67-7.58Z"/><path class="cls-92" d="M160.72,208.1a.63.63,0,0,1-.63-.62h0V183.06L156,187a.63.63,0,0,1-.87,0l-4-3.95v24.4a.61.61,0,0,1-.55.68.62.62,0,0,1-.69-.55v-26a.62.62,0,0,1,.64-.61.63.63,0,0,1,.42.17l4.59,4.54,4.71-4.54a.62.62,0,0,1,1.06.44v25.89a.61.61,0,0,1-.61.62Z"/></g><path class="cls-93" d="M290.45,307.5l-55.91-23.95c-2.52,2.77-7.8,8.43-13.41,9.05-1.62.17-2.44,2-2.83,3.37l-1.63-.61a24.13,24.13,0,0,1-13.68,6.9c-2.63.28-3.16,4.91-3.16,4.91l49.08,27.18c8.21-3,19.36-7.36,24.46-12.32C281.68,318.16,289.27,312.78,290.45,307.5Z"/><path class="cls-94" d="M248.06,292h0a4.59,4.59,0,0,1-.24.5,7.81,7.81,0,0,1-3.42,2.61l-.54.22c-2,.73-5.85.39-5.85.39l-.19.51c-3.89.36-4.54-.72-4.54-.72l.2-1.13.31-1.77.68-1.71s4.11-.6,8.07-.85c1.78-.11,5.32-1,5.65.58A2.37,2.37,0,0,1,248.06,292Z"/><path class="cls-94" d="M231,284.7a8.34,8.34,0,0,1-1,2.35c-1.07,1.82-4.4,3.1-4.4,3.1v.44s-.14.47-2.16.94a2.63,2.63,0,0,1-2.89-.82l.07-.75h0l.27-3.49,3.77-1.49s4.19-3.42,5.66-3C231.2,282.3,231.29,283.44,231,284.7Z"/><path class="cls-95" d="M231,284.7a8.34,8.34,0,0,1-1,2.35c-1.07,1.82-4.4,3.1-4.4,3.1v.44s-.14.47-2.16.94a2.63,2.63,0,0,1-2.89-.82l.07-.75a2.46,2.46,0,0,0,2.15,1,3.15,3.15,0,0,0,2.83-1.24C228.06,288.49,229.49,288,231,284.7Z"/><path class="cls-96" d="M240.38,262.78c.3,7.83-.15,28.85-.15,28.85s-1.15,1.94-5.92.62c0,0-1.65-22.7-2.53-24.07L226,261.8S240.11,255,240.38,262.78Z"/><path class="cls-97" d="M229.3,255.6c2.44,6.85-.68,28.2-.68,28.2s-1.16,1.94-5.93.62c0,0-.95-21.53-1.84-22.9l-6.43-6.33S226.69,248.27,229.3,255.6Z"/><path class="cls-98" d="M188.12,271.74v27.37h0a3.93,3.93,0,0,0,2.29,3.27l17.35,10a12.31,12.31,0,0,0,11.09,0l13.54-7.82a4.05,4.05,0,0,0,2.27-2.91h0V273.93Z"/><path class="cls-99" d="M232.39,277.13l-13.54,7.81a12.24,12.24,0,0,1-11.09,0l-17.34-10c-3.07-1.76-3.07-4.63,0-6.4L204,260.72a12.24,12.24,0,0,1,11.09,0l17.35,10C235.45,272.49,235.45,275.36,232.39,277.13Z"/><path class="cls-100" d="M209.3,192.49c.2.68.47,2.24.87,2.55s.2,1,.14,1.37h0c-.49,2.33-4.11,16.52-5.31,19.85s-6.75,15.6-1.36,15.74c2.1.07,5-8.21,6.89-17,1.77-8.35,2.87-16.42,3-18.19h0a4,4,0,0,1,.51-1.21,20.79,20.79,0,0,0,1.37-7c-.17-1.88-2.31-2.91-3.36-2.87s-1.72,5.76-1.72,5.76-.31-1.53-1.2-1.51C208.49,190,209.1,191.79,209.3,192.49Z"/><path class="cls-101" d="M207.73,270.89c5-2.31,20.63-12.67,21.1-14.14,1-3-2.05-6.55-8.15-5.07A110.89,110.89,0,0,0,205.06,257C205.48,256.94,202.89,273.14,207.73,270.89Z"/><path class="cls-102" d="M203.77,218.55l.3-.76h0c4.25-.77,5.86.37,6.44,1.1-1.57,6.84-1.5,13.68-4.74,14.18a8.89,8.89,0,0,1-3,.09c-2.49-.38-2-5.31-1.37-7.65h0A58.8,58.8,0,0,1,203.77,218.55Z"/><path class="cls-103" d="M201.45,257.33s-.63,9.4,1.68,13.22,10.42,8.1,15.58,6.22,19.26-10.69,20.46-11.64c3-2.44-.1-8.15-4.85-7.36a105.44,105.44,0,0,0-17.11,4.92C217.63,262.69,201.45,257.33,201.45,257.33Z"/><path class="cls-104" d="M212.92,218.11a18.1,18.1,0,0,1-1.28-3.12l1.42-5.53,6.84-2.24s1.46,10.19-.08,12.08c-.81,1-2.54.87-3.3,1.15l-.52,5.16-6.64-1,.41-6.47Z"/><path class="cls-105" d="M223,251.05v.17c0,6.75.05,7.85.05,10.47V266h0a8.49,8.49,0,0,1-3.94,3.55,1.3,1.3,0,0,1-.25.1h0a16.15,16.15,0,0,1-3.62.79c-7.48.37-14.49-6.26-14.24-10.06.16-2.47.18-6.59.19-9.73.08-13.59-1.06-18.89.81-24.86.87-2.77,5.57-3.16,5.93-3.17h0l1.45-.07s.25.47,1.91.95c1.33.39,5.37,1.33,5.37,1.33h.06a24.6,24.6,0,0,1,5.12,2c2.68,1.15,1.53,11,1.53,11.06,0,5.27-.25,10.78-.35,12.61C223,250.81,223,250.94,223,251.05Z"/><path class="cls-106" d="M223,245.55v.11c0,1.61,0,3.27,0,4.91V266h0a8.51,8.51,0,0,1-3.93,3.55,1.39,1.39,0,0,1-.26.1h0c.11-6.28,1.16-16.82,1.06-19.68-.13-4.2-1.88-12.16-1.88-14.37v-1.14c.35.74,1.31.82,2.09.9a11.34,11.34,0,0,0,3.24-.23V238C223.33,241.49,223.06,244.91,223,245.55Z"/><path class="cls-107" d="M220.25,205.36c-1.11-3.3-6.92-2.17-8.57-1.89-7.7,1.26-5.33,9.94-4.92,10.89a43.62,43.62,0,0,0,2.62,4.31c.52,1,.59,1.09,3.63,1,2.7-.09,2.88-3.67,3-5,.06-.58-.32-2.06.76-2.21s1.45,1.5,1.82.92a8.52,8.52,0,0,0,.39-3,8.77,8.77,0,0,0-.21-1.61C218.74,208.3,221.26,208.38,220.25,205.36Z"/><path class="cls-100" d="M227.92,267.17c-.42-.59-1.18-2-1.66-2.13s-.5-.82-.57-1.21h0c-.32-2.37-1.6-16.94-1.56-20.48s1.72-14.59-3.42-13c-2,.63-3.15,5.59-2,14.51,1.09,8.46,3.33,17.89,3.76,19.64h0a3.85,3.85,0,0,1-.08,1.31,20.65,20.65,0,0,0,1,7.06,3.55,3.55,0,0,0,4.11,1.59c1-.39-.28-6-.28-6s.8,1.37,1.63,1C229.5,269.24,228.34,267.77,227.92,267.17Z"/><path class="cls-108" d="M224.52,240.75v.81h0c-3.76,2.14-5.66,1.59-6.44,1.1-.79-7-.33-15.06,2.09-15.86a2.48,2.48,0,0,1,2.74.83c1.07,1,1.37,3.35,1.61,5.76h0A60.24,60.24,0,0,1,224.52,240.75Z"/><path class="cls-109" d="M337.46,335,281.53,311c-2.52,2.74-7.79,8.43-13.4,9-1.62.18-2.44,2-2.84,3.38l-1.61-.61a24,24,0,0,1-13.69,6.9c-2.62.28-3.16,4.92-3.16,4.92l49.08,27.17c8.22-3,19.37-7.36,24.46-12.32C328.67,345.66,336.27,340.28,337.46,335Z"/><path class="cls-110" d="M281.72,317.68s-.46-.08-.68,2.94c-.1,1.45-.12,1.27.45,5.4,0,0,.69.31,1,0l.91-3.46s2.67,3.8,4.46,4.07,8.33.34,8.36-.83-4.1-2.52-5.44-3.56a36.49,36.49,0,0,1-4.06-4.93S282.52,317.05,281.72,317.68Z"/><path class="cls-111" d="M287.41,290.3c.28,7.82-.13,27.78-.13,27.78s-1.52,2.14-6.29.83c0,0-1.3-21.85-2.19-23.21l-5.74-6.38S287.12,282.53,287.41,290.3Z"/><path class="cls-112" d="M276.29,283.1c2.45,6.84-.68,28.19-.68,28.19s-1.15,1.94-5.92.62c0,0-.95-21.54-1.83-22.91l-6.44-6.32S273.69,275.77,276.29,283.1Z"/><path class="cls-113" d="M235.12,299.24v27.38h0a3.91,3.91,0,0,0,2.29,3.26l17.34,10a12.27,12.27,0,0,0,11.1,0l13.54-7.82a4.09,4.09,0,0,0,2.27-2.9h0v-27.7Z"/><path class="cls-114" d="M279.39,304.63l-13.53,7.82a12.24,12.24,0,0,1-11.09,0l-17.35-10c-3.06-1.78-3.06-4.64,0-6.41L251,288.22a12.31,12.31,0,0,1,11.09,0l17.34,10C282.44,300,282.44,302.87,279.39,304.63Z"/><path class="cls-115" d="M254.75,298.39c5-2.31,20.64-12.67,21.12-14.14,1-3-2.06-6.53-8.17-5.06a108.25,108.25,0,0,0-15.61,5.29C252.52,284.44,249.89,300.64,254.75,298.39Z"/><path class="cls-116" d="M249.39,285.14s-1.58,9.09.74,12.92,10.41,8.09,15.57,6.21,19.27-10.68,20.47-11.63c3-2.44-.1-8.15-4.86-7.36a105,105,0,0,0-17.11,4.92C264.61,290.2,249.39,285.14,249.39,285.14Z"/><path class="cls-100" d="M272.55,293.54s3.21,1.85,2.83,2.42-1.17.17-1.17.17a37,37,0,0,1,2.23,4.9c.08.8-.68,2.41-1.55,2.3s-3.77-3.43-4.65-5.38a6.22,6.22,0,0,1-.64-3.34S271.64,293,272.55,293.54Z"/><path class="cls-100" d="M260.73,235.89l-1.25.73c0-.26-1.5.39-1.5.39l-5.48-.15-2.23,15.6-.89,5.77c1.58,2.56,8.08,2.84,8.32,2.89s1.71-6.6,1.8-7.21l-.24-1.91c4.21-.73,4.88.09,4.74-8.35C263.85,233.58,260.73,235.89,260.73,235.89Z"/><path class="cls-117" d="M268.54,289.82a3.49,3.49,0,0,1-.28.38,8,8,0,0,1-4,2.67c-1.18.25-2.28.55-3.42.72a11.39,11.39,0,0,1-2.26.13h-.39c-4.86-.37-9.66-3.07-9.9-4.92,0,0,1-9.52.68-14.09s-4.71-14.62-1.21-21.49c1.64-3.21,10.33-.1,10.33-.1s6,1.18,7.77,3.1a7.07,7.07,0,0,1,1.16,2.35c1.22,3.58,2,9.83.63,12.22s-2.31,2.15-2.31,2.15v0a2.42,2.42,0,0,0,.06.54C265.7,276.14,267.14,286.33,268.54,289.82Z"/><path class="cls-42" d="M265.39,273.53c.3,2.52,1.56,12.48,2.87,16.7a8,8,0,0,1-4,2.67c-1.18.25-2.28.55-3.42.72,2.42-1.62,3-10,2.11-15-.88-4.79-1.74-11.63-1.95-14.91s2-6.5,2-6.5l4,1.37c1.22,3.59,2,9.84.63,12.22s-2.31,2.15-2.31,2.15v0A4.54,4.54,0,0,0,265.39,273.53Z"/><path class="cls-118" d="M260.67,257s5.12-3.42,6.54,1.33c.86,2.86.59,18.84.94,19.44,1.12,1.92,4.25,15.94,4.25,15.94s0,2.73-2.92,1.88c0,0-5.41-8.39-6.34-16.39C262.92,277.38,256.74,259.09,260.67,257Z"/><path class="cls-45" d="M262.64,253.92c.07.93-2.88,3.07-6.06,3.07-3,0-8.52-.92-8.09-4a62.37,62.37,0,0,0-.12-10.49c-.17-3,.69-9.74,8.12-9.74,5,0,7.34,3.26,7.93,7.47a0,0,0,0,1,0,.05c0,2.27-1.37,2.22-1.84,3.42C262.09,246.71,262.5,251.85,262.64,253.92Z"/><path class="cls-119" d="M391.55,361l-55.93-23.95c-2.5,2.77-7.79,8.43-13.41,9-1.6.18-2.43,2-2.82,3.39l-1.62-.63a23.93,23.93,0,0,1-13.69,6.91c-2.62.29-3.16,4.91-3.16,4.91L350,387.86c8.21-3,19.36-7.37,24.45-12.32C382.78,371.64,390.36,366.26,391.55,361Z"/><path class="cls-94" d="M349.15,345.48h0a3.23,3.23,0,0,1-.25.49,7.64,7.64,0,0,1-3.42,2.62,4.33,4.33,0,0,1-.54.21c-2,.74-5.84.4-5.84.4l-.19.5c-3.88.37-4.54-.68-4.54-.68l.2-1.14.32-1.76.68-1.71s4.11-.61,8.07-.85c1.77-.11,5.31-1,5.64.58A2.28,2.28,0,0,1,349.15,345.48Z"/><path class="cls-94" d="M332.09,338.18a8.86,8.86,0,0,1-1,2.36c-1.06,1.81-4.39,3.09-4.39,3.09v.44s-.15.47-2.17.95a2.63,2.63,0,0,1-2.88-.83l.06-.74h0L322,340l3.78-1.49s4.19-3.42,5.65-3C332.29,335.78,332.38,336.92,332.09,338.18Z"/><path class="cls-95" d="M332.09,338.18a8.86,8.86,0,0,1-1,2.36c-1.06,1.81-4.39,3.09-4.39,3.09v.44s-.15.47-2.17.95a2.63,2.63,0,0,1-2.88-.83l.06-.74a2.49,2.49,0,0,0,2.15,1,3.13,3.13,0,0,0,2.8-1.21C329.14,342,330.57,341.51,332.09,338.18Z"/><path class="cls-120" d="M341.49,316.26c.3,7.82-.14,28.85-.14,28.85s-1.16,1.94-5.93.61c0,0-1.65-22.69-2.53-24.06l-5.74-6.37S341.21,308.49,341.49,316.26Z"/><path class="cls-121" d="M330.39,309.07c2.45,6.88-.69,28.2-.69,28.2s-1.16,1.94-5.93.62c0,0-.94-21.54-1.82-22.91l-6.44-6.32S327.78,301.75,330.39,309.07Z"/><path class="cls-122" d="M289.21,325.22V352.6h0c0,1.17.73,2.36,2.29,3.25l17.35,10a12.22,12.22,0,0,0,11.08,0L333.46,358a4.07,4.07,0,0,0,2.28-2.9h0V327.41Z"/><path class="cls-123" d="M333.46,330.61l-13.52,7.81a12.31,12.31,0,0,1-11.09,0l-17.34-10c-3.06-1.77-3.06-4.63,0-6.4L305,314.18a12.31,12.31,0,0,1,11.09,0l17.33,10C336.54,326,336.54,328.83,333.46,330.61Z"/><path class="cls-124" d="M308.82,324.37c5-2.31,20.63-12.67,21.11-14.14,1-3-2.06-6.54-8.16-5.07a108.89,108.89,0,0,0-15.62,5.3C306.58,310.43,304,326.62,308.82,324.37Z"/><path class="cls-125" d="M302.54,310.81s-.63,9.4,1.68,13.22,10.42,8.1,15.58,6.21,19.26-10.67,20.46-11.63c3-2.44-.1-8.15-4.85-7.36a105.44,105.44,0,0,0-17.11,4.92C318.71,316.17,302.54,310.81,302.54,310.81Z"/><path class="cls-126" d="M343.72,307.45h0a.79.79,0,0,1-.39.68l-13.07,7.5a1.57,1.57,0,0,1-1.43,0l-18-10.37a.75.75,0,0,1-.37-.69.83.83,0,0,1,.32-.72l13.06-6.92a1.63,1.63,0,0,1,1.43,0l18.08,9.85A.74.74,0,0,1,343.72,307.45Z"/><path class="cls-127" d="M343.72,307.45h0a.73.73,0,0,1-.29.26l-13.05,7.48a1.69,1.69,0,0,1-1.63,0l-18-10.36a.81.81,0,0,1-.28-.24.83.83,0,0,1,.32-.72l13.06-6.94a1.63,1.63,0,0,1,1.43,0l18.08,9.85A.74.74,0,0,1,343.72,307.45Z"/><path class="cls-128" d="M331.29,311.48,317,303.24a.34.34,0,0,1-.27-.41.35.35,0,0,1,.27-.28l7.05-4.1a1.21,1.21,0,0,1,1.14,0l14.3,8.24a.35.35,0,0,1,0,.69l-7,4.1A1.29,1.29,0,0,1,331.29,311.48Z"/><path class="cls-129" d="M322.56,310.42,318.35,308a.11.11,0,0,1-.05-.14.12.12,0,0,1,.05-.05l2.06-1.2a.33.33,0,0,1,.33,0L325,309c.09.05.09.13,0,.19l-2.06,1.2A.4.4,0,0,1,322.56,310.42Z"/><path class="cls-130" d="M325.7,297.29l17,9.84a.7.7,0,0,0,.95-.22,1,1,0,0,0,.09-.24l3-13.49a1.37,1.37,0,0,0-.62-1.41l-17-9.83a.68.68,0,0,0-.94.22.65.65,0,0,0-.09.23l-3,13.5A1.38,1.38,0,0,0,325.7,297.29Z"/><path class="cls-131" d="M345.83,293a.45.45,0,0,0-.17-.37l-16.73-9.66L326,296.09a.44.44,0,0,0,.16.37l16.73,9.67Z"/><path class="cls-104" d="M314.75,272.71a17.22,17.22,0,0,1-.24-3.36l3.08-4.79h7.21S323,274.68,320.93,276c-1.08.68-2.68,0-3.49.07l-1.19,4.73-5.77-1.93,1.27-7.16Z"/><path class="cls-132" d="M324.09,304.53v.17c0,6.75.05,7.85.05,10.47v4.28h0a8.51,8.51,0,0,1-3.95,3.57,1,1,0,0,1-.24.09h0a16.12,16.12,0,0,1-3.63.79c-7.48.37-14.47-6.26-14.23-10.07.16-2.46.18-6.58.19-9.72.07-13.6-1.06-18.9.81-24.85.87-2.78,4.32-3.53,6-3.18.52.11,1.82.6,1.82.6.39,1.49,3.36,2.17,5.67,3,.23.07,4.23,2.73,4.94,3.27,2.68,1.14,3,8.48,3,8.5,0,5.27-.24,10.79-.34,12.62A3,3,0,0,0,324.09,304.53Z"/><path class="cls-106" d="M324.09,299c0,.05,0,.09,0,.11,0,1.62,0,3.27,0,4.92v15.39h0a8.53,8.53,0,0,1-3.94,3.57,1.06,1.06,0,0,1-.25.09h0c.11-6.28,0-16.87-.12-19.74-.14-4.2-.68-12.1-.68-14.33v-1.13c.35.74,1.3.82,2.08.89a11.06,11.06,0,0,0,3.25-.23v2.85C324.43,295,324.14,298.39,324.09,299Z"/><path class="cls-107" d="M325.7,262.9c0-3.48-5.9-4.23-7.52-4.5-7.71-1.21-8.18,7.78-8.08,8.82a42.56,42.56,0,0,0,1.14,4.91c.18,1.1.21,1.21,3.14,2.06,2.59.75,3.88-2.58,4.4-3.77.24-.53.35-2.05,1.41-1.85s.92,1.87,1.44,1.44a8.38,8.38,0,0,0,1.32-2.74,7.2,7.2,0,0,0,.3-1.59C323.34,265.19,325.72,266.05,325.7,262.9Z"/><path class="cls-104" d="M325.07,306.56c-.06-.24,4.53.63,7-.11a2.71,2.71,0,0,1,1.11-1c.8-.29,2.23-1.53,2.49-.8s-1.18,1.37-.83,1.42,4.6-.69,4.72-.2-.44.74-.44.74,1.15,0,1.24.41-.26.69-.79.8c0,0,.74.57-.65.94,0,0,.28.31-.69.64a8.42,8.42,0,0,1-5.94-.11c-1.63.5-8.15,3.2-10,2.11-3.14-1.8-5-16.5-3.94-19.2,0,0,4.51-1.18,5.72.74C324,293,325.29,307.46,325.07,306.56Z"/><path class="cls-133" d="M324.7,297v.82h0c-3.76,2.13-5.92,1.54-6.7,1-1.25-7.09-.51-14.7,2.36-15.81,1.43-.56,2.15.33,2.74.83,1.07,1,1.41,3.35,1.61,5.76h0A62.32,62.32,0,0,1,324.7,297Z"/><path class="cls-32" d="M374,117.29a4.54,4.54,0,0,1-2.26-.69L336.2,96.07a10.06,10.06,0,0,1-4.65-8V65.21c0-2.21,1.17-3.64,3-3.64a4.53,4.53,0,0,1,2.25.69l35.59,20.53a10.1,10.1,0,0,1,4.66,8v22.85C377,115.86,375.89,117.29,374,117.29ZM334.5,62.74c-1.14,0-1.82.92-1.82,2.47V88.05a9,9,0,0,0,4.07,7l35.59,20.53a3.43,3.43,0,0,0,1.68.53c1.13,0,1.81-.93,1.81-2.48V90.8a8.94,8.94,0,0,0-4.05-7L336.2,63.29A3.46,3.46,0,0,0,334.5,62.74Z"/><path class="cls-32" d="M360,91.45a.47.47,0,0,1-.42.26L349,92h0a.54.54,0,0,1-.32-.13.47.47,0,0,1-.13-.34V78.78a.42.42,0,0,1,.3-.43.45.45,0,0,1,.51.13L359.94,91A.46.46,0,0,1,360,91.45Z"/><path class="cls-32" d="M371.87,111.66a.39.39,0,0,1-.23-.07l-35.2-20.32a.45.45,0,0,1-.17-.62h0a.48.48,0,0,1,.63-.17l35.2,20.32a.46.46,0,0,1,.19.62.48.48,0,0,1-.42.25Z"/><path class="cls-32" d="M342.46,94.22c0,.73-.52,1-1.15.68a2.52,2.52,0,0,1-1.16-2c0-.72.52-1,1.16-.68A2.5,2.5,0,0,1,342.46,94.22Z"/><path class="cls-32" d="M335.4,139.82l-2.57-1.49a4.23,4.23,0,0,1-1.92-3.34v-4.51c0-1.22.85-1.72,1.92-1.11l2.57,1.49a4.24,4.24,0,0,1,1.93,3.33v4.51C337.33,139.94,336.47,140.43,335.4,139.82Z"/><path class="cls-32" d="M345.48,145.64l-2.58-1.49a4.26,4.26,0,0,1-1.92-3.34V130.54c0-1.22.86-1.72,1.92-1.1l2.58,1.48a4.3,4.3,0,0,1,1.93,3.34v10.27C347.41,145.75,346.54,146.25,345.48,145.64Z"/><path class="cls-32" d="M355.56,151.45,353,150a4.3,4.3,0,0,1-1.93-3.34v-14c0-1.23.87-1.72,1.93-1.11l2.58,1.49a4.27,4.27,0,0,1,1.93,3.33v14C357.49,151.58,356.62,152.07,355.56,151.45Z"/><path class="cls-32" d="M365.62,157.27,363,155.79a4.29,4.29,0,0,1-1.92-3.34V132.29c0-1.23.86-1.72,1.92-1.11l2.58,1.49a4.24,4.24,0,0,1,1.93,3.34v20.15C367.56,157.39,366.7,157.89,365.62,157.27Z"/><path class="cls-32" d="M367.84,161.06a.59.59,0,0,1-.26-.07l-38.32-22.12a.51.51,0,0,1,.5-.88l38.32,22.13a.5.5,0,0,1-.24.94Z"/><path class="cls-134" d="M424.75,108.84l33.82-21.42-4.52-3a9.31,9.31,0,0,1-4.11-7.34V56.4c0-2.73,1.84-3.91,4.11-2.6l61.82,35.69A9.34,9.34,0,0,1,520,96.84v20.69c0,2.74-1.85,3.91-4.11,2.61l-45.94-26Z"/><path class="cls-32" d="M459.69,66.82,510.22,96c.63.36,1.13.15,1.13-.48a2.32,2.32,0,0,0-1.13-1.78L459.69,64.56c-.62-.36-1.12-.15-1.12.48A2.34,2.34,0,0,0,459.69,66.82Z"/><path class="cls-32" d="M459.69,74l50.53,29.16c.63.37,1.13.16,1.13-.47a2.32,2.32,0,0,0-1.13-1.78L459.69,71.71c-.62-.37-1.12-.15-1.12.48A2.37,2.37,0,0,0,459.69,74Z"/><path class="cls-32" d="M470.93,87.46l39.29,22.69c.56.32,1,.13,1-.42a2,2,0,0,0-1-1.57L470.93,85.47c-.56-.31-1-.13-1,.42A2,2,0,0,0,470.93,87.46Z"/><path class="cls-32" d="M442,134.21c.09-3.34,1.17-5.94,3.13-7.53A43.86,43.86,0,0,0,449.5,131a22.73,22.73,0,0,0-1.17,6.84Z"/><path class="cls-32" d="M449.55,148.22a16.49,16.49,0,0,0-3.82-.63,28.19,28.19,0,0,1-3.73-12.1l6.31,3.65A38.06,38.06,0,0,0,449.55,148.22Z"/><path class="cls-32" d="M449.94,129.9A40.91,40.91,0,0,1,446,126a8.62,8.62,0,0,1,4.41-1.12,14.1,14.1,0,0,1,3.77.57A7.72,7.72,0,0,0,449.94,129.9Z"/><path class="cls-32" d="M453.43,157.55a39.54,39.54,0,0,1-7.05-8.78,18.25,18.25,0,0,1,3.51.73A34,34,0,0,0,453.43,157.55Z"/><path class="cls-32" d="M458.57,136.15a59.28,59.28,0,0,1-7.69-5.48c1.16-2.77,2.94-4.31,5.05-4.31a5.35,5.35,0,0,1,1,.11c.55.26,1.11.54,1.66.84Z"/><path class="cls-32" d="M449.51,138.57a23.32,23.32,0,0,1,1-6.74,60.5,60.5,0,0,0,8.1,5.65v6.32Z"/><path class="cls-32" d="M458.57,152.07a44.3,44.3,0,0,0-7.68-3.42,36.77,36.77,0,0,1-1.37-8.78l9,5.22Z"/><path class="cls-32" d="M458.57,161.51l-.94-.6c-2.53-2.28-4.84-6.27-6.35-10.95a46.55,46.55,0,0,1,7.29,3.42Z"/><path class="cls-32" d="M467.16,140.28a45.5,45.5,0,0,1-7.53-3.49V128c.32.19.63.39.94.6C463.27,131,465.67,135.25,467.16,140.28Z"/><path class="cls-32" d="M462.28,163.07a4.75,4.75,0,0,1-1-.1c-.54-.25-1.1-.53-1.64-.83V154a62.63,62.63,0,0,1,7.46,5.26C466,161.73,464.25,163.07,462.28,163.07Z"/><path class="cls-32" d="M467.78,164.58A13.47,13.47,0,0,1,464,164a7.25,7.25,0,0,0,4-3.93,42.62,42.62,0,0,1,3.74,3.62A8.77,8.77,0,0,1,467.78,164.58Z"/><path class="cls-32" d="M459.65,144.41v-6.33a43.64,43.64,0,0,0,7.87,3.51,37.69,37.69,0,0,1,1.17,8Z"/><path class="cls-32" d="M467.6,158.18a63.34,63.34,0,0,0-7.92-5.47v-7l9,5.21A22.24,22.24,0,0,1,467.6,158.18Z"/><path class="cls-32" d="M472.22,141.41a17.32,17.32,0,0,1-3.71-.68,34.83,34.83,0,0,0-3.73-8.8A40.43,40.43,0,0,1,472.22,141.41Z"/><path class="cls-32" d="M472.74,163.08a46.77,46.77,0,0,0-4.22-4.11,22.39,22.39,0,0,0,1.37-7.39l6.35,3.66C476.13,158.81,474.93,161.51,472.74,163.08Z"/><path class="cls-32" d="M469.89,150.33a37.21,37.21,0,0,0-1.05-8.34,15.68,15.68,0,0,0,3.91.59h.09A27.79,27.79,0,0,1,476.22,154Z"/><path class="cls-32" d="M479.23,216.32v13.74c0,.31-.2.3-.45,0l-6.16-7.9a1.32,1.32,0,0,0-.91-.54l-6.57.59a.48.48,0,0,1-.46-.52V207.92c0-.31.1-.27.26.08a5.59,5.59,0,0,0,.87,1.37,5.08,5.08,0,0,0,1.29,1.06c.34.18.68.35,1,.5a7.15,7.15,0,0,1,.72.33l.1.06a4.51,4.51,0,0,1,.47.51l.34.47a7.66,7.66,0,0,0,2.18,2.25,2.69,2.69,0,0,0,2.18.26l.34-.07a1.06,1.06,0,0,1,.47,0l.1.05c.23.16.46.32.68.5s.69.48,1,.68a2.75,2.75,0,0,0,1.3.43,1.1,1.1,0,0,0,.86-.37C479.12,215.91,479.23,216,479.23,216.32Z"/><path class="cls-32" d="M481.66,210.5c.24-.74,1.45-.81,1.45-1.76s-1.21-2.44-1.45-3.43.41-1.94,0-3-1.91-2-2.56-3-.73-2.52-1.54-3.43-2-1-3-1.76-1.65-2.4-2.61-3-1.73.22-2.6,0-2.19-1.67-3-1.67-.87,1.4-1.52,1.67-2.1-.48-2.57,0,.2,2.19,0,3-1.45.82-1.45,1.77,1.21,2.43,1.45,3.42-.41,1.95,0,3,1.71,1.84,2.41,2.78c.05.08.11.15.16.22.65,1,.68,2.52,1.52,3.42s2.06,1,3,1.77,1.65,2.4,2.6,3,1.73-.21,2.61.06,2.19,1.67,3,1.68.88-1.41,1.54-1.69l.15,0c.69-.13,2,.5,2.41,0S481.42,211.27,481.66,210.5Zm-9.72-1.07c-3.95-2.28-7.15-7.33-7.15-11.27s3.2-5.31,7.15-3,7.15,7.33,7.15,11.28-3.2,5.3-7.15,3Z"/><path class="cls-32" d="M478,205.77c0,3.34-2.69,4.47-6,2.55s-6-6.16-6-9.52,2.74-4.48,6-2.55S478,202.43,478,205.77Z"/><path class="cls-32" d="M448.44,183.87a.48.48,0,0,1-.26-.07L429.9,173.29a.51.51,0,0,1-.15-.7.5.5,0,0,1,.66-.18l18.28,10.53a.48.48,0,0,1,.18.67h0A.48.48,0,0,1,448.44,183.87Z"/><path class="cls-32" d="M455,193.24a.42.42,0,0,1-.24-.07L429.87,178.8a.5.5,0,0,1,.51-.87l24.85,14.37a.49.49,0,0,1,.18.68h0A.51.51,0,0,1,455,193.24Z"/><path class="cls-32" d="M455,198.8a.5.5,0,0,1-.24-.06l-24.86-14.37a.51.51,0,0,1-.18-.69h0a.48.48,0,0,1,.67-.18h0l24.85,14.38a.49.49,0,0,1,.19.66v0A.51.51,0,0,1,455,198.8Z"/><path class="cls-32" d="M455,204.27a.5.5,0,0,1-.24-.06l-24.86-14.38a.5.5,0,0,1-.16-.7.52.52,0,0,1,.67-.17l24.85,14.37a.49.49,0,0,1,.18.68h0A.51.51,0,0,1,455,204.27Z"/><path class="cls-32" d="M455,209.83a.42.42,0,0,1-.24-.07l-24.86-14.37a.5.5,0,0,1,.51-.87l24.85,14.37a.51.51,0,0,1,.18.7.52.52,0,0,1-.44.25Z"/><path class="cls-32" d="M455,215.36a.42.42,0,0,1-.24-.07l-24.86-14.37a.5.5,0,0,1,.51-.87l24.85,14.37a.51.51,0,0,1,.19.67v0A.5.5,0,0,1,455,215.36Z"/></g></g></svg>