<svg xmlns="http://www.w3.org/2000/svg" xmlns:xlink="http://www.w3.org/1999/xlink" width="512" height="516.5" viewBox="0 0 512 516.5"><defs><style>.cls-1{fill:none;}.cls-2{clip-path:url(#clip-path);}.cls-3{fill:url(#gelv);}.cls-4{fill:url(#Unbenannter_Verlauf_63);}.cls-5{fill:url(#Unbenannter_Verlauf_41);}</style><clipPath id="clip-path" transform="translate(2.4 0.98)"><path class="cls-1" d="M491.68,340.79h.07c9.79-27.73,15.5-56.27,15.5-87.26a238.34,238.34,0,0,0-14.68-83.18h-.22C458.07,71.72,364.31,0,253.44,0A253.33,253.33,0,0,0,13.68,170.44h.15a255,255,0,0,0,1.66,170.35h.07C50.68,437.74,144.41,507,253.62,507a257.43,257.43,0,0,0,117.44-28.55C429,526.54,484.41,507,484.41,507c-28.54-8.16-46.48-43.23-56.27-70.14C456.64,410,477.81,377.41,491.68,340.79Z"/></clipPath><linearGradient id="gelv" x1="13.52" y1="418.66" x2="505.42" y2="418.66" gradientUnits="userSpaceOnUse"><stop offset="0" stop-color="#f8d774"/><stop offset="1" stop-color="#f7ec86"/></linearGradient><linearGradient id="Unbenannter_Verlauf_63" x1="13.52" y1="93.62" x2="493.68" y2="93.62" gradientUnits="userSpaceOnUse"><stop offset="0" stop-color="#646363"/><stop offset="1" stop-color="#878787"/></linearGradient><linearGradient id="Unbenannter_Verlauf_41" x1="-2.4" y1="255.02" x2="509.6" y2="255.02" gradientUnits="userSpaceOnUse"><stop offset="0" stop-color="#f5897c"/><stop offset="1" stop-color="#f2a287"/></linearGradient></defs><title>deutsch</title><g id="Ebene_2" data-name="Ebene 2"><g id="Layer_1" data-name="Layer 1"><g class="cls-2"><path class="cls-3" d="M13.52,344.06C49.69,441.54,135.78,513,245.85,513c36.1,0,93.39-16.73,125.58-33.23,26.15,27.92,92.63,46,113.77,29.5,23.76-18.54,26.58-71.68,8.48-165.16L253.6,321.8Z" transform="translate(2.4 0.98)"/><path class="cls-4" d="M253.6-1C143.53-1,49.69,68.49,13.52,166L253.6,188.23,493.68,166C457.51,68.49,363.67-1,253.6-1Z" transform="translate(2.4 0.98)"/><path class="cls-5" d="M13.52,166a257,257,0,0,0,0,178.09H493.68a257,257,0,0,0,0-178.09Z" transform="translate(2.4 0.98)"/></g></g></g></svg>