<svg xmlns="http://www.w3.org/2000/svg" xmlns:xlink="http://www.w3.org/1999/xlink" width="512" height="521.33" viewBox="0 0 512 521.33"><defs><style>.cls-1{fill:none;}.cls-2{clip-path:url(#clip-path);}.cls-3{fill:url(#gelv);}.cls-4{fill:url(#Unbenannter_Verlauf_41);}.cls-5{fill:url(#Unbenannter_Verlauf_41-2);}</style><clipPath id="clip-path" transform="translate(0.42 3.95)"><path class="cls-1" d="M491.68,340.79h.07c9.79-27.73,15.5-56.27,15.5-87.26a238.34,238.34,0,0,0-14.68-83.18h-.22C458.07,71.72,364.31,0,253.44,0A253.33,253.33,0,0,0,13.68,170.44h.15a255,255,0,0,0,1.66,170.35h.07C50.68,437.74,144.41,507,253.62,507a257.43,257.43,0,0,0,117.44-28.55C429,526.54,484.41,507,484.41,507c-28.54-8.16-46.48-43.23-56.27-70.14C456.64,410,477.81,377.41,491.68,340.79Z"/></clipPath><linearGradient id="gelv" y1="256" x2="512" y2="256" gradientUnits="userSpaceOnUse"><stop offset="0" stop-color="#f8d774"/><stop offset="1" stop-color="#f7ec86"/></linearGradient><linearGradient id="Unbenannter_Verlauf_41" y1="86.89" x2="512" y2="86.89" gradientUnits="userSpaceOnUse"><stop offset="0" stop-color="#f5897c"/><stop offset="1" stop-color="#f2a287"/></linearGradient><linearGradient id="Unbenannter_Verlauf_41-2" y1="434.44" y2="434.44" xlink:href="#Unbenannter_Verlauf_41"/></defs><title>spanisch</title><g id="Ebene_2" data-name="Ebene 2"><g id="Layer_1" data-name="Layer 1"><g class="cls-2"><rect class="cls-3" width="512" height="512"/><rect class="cls-4" width="512" height="173.77"/><rect class="cls-5" y="347.55" width="512" height="173.77"/></g></g></g></svg>