<svg xmlns="http://www.w3.org/2000/svg" xmlns:xlink="http://www.w3.org/1999/xlink" width="512" height="527.01" viewBox="0 0 512 527.01"><defs><style>.cls-1{fill:none;}.cls-2{clip-path:url(#clip-path);}.cls-3{fill:#f0f0f0;}.cls-4{fill:#6da544;}.cls-5{fill:url(#Unbenannter_Verlauf_41);}</style><clipPath id="clip-path" transform="translate(5.47 5.06)"><path class="cls-1" d="M491.68,340.79h.07c9.79-27.73,15.5-56.27,15.5-87.26a238.34,238.34,0,0,0-14.68-83.18h-.22C458.07,71.72,364.31,0,253.44,0A253.33,253.33,0,0,0,13.68,170.44h.15a255,255,0,0,0,1.66,170.35h.07C50.68,437.74,144.41,507,253.62,507a257.43,257.43,0,0,0,117.44-28.55C429,526.54,484.41,507,484.41,507c-28.54-8.16-46.48-43.23-56.27-70.14C456.64,410,477.81,377.41,491.68,340.79Z"/></clipPath><linearGradient id="Unbenannter_Verlauf_41" x1="341.34" y1="263.51" x2="512" y2="263.51" gradientUnits="userSpaceOnUse"><stop offset="0" stop-color="#f5897c"/><stop offset="1" stop-color="#f2a287"/></linearGradient></defs><title>italienisch</title><g id="Ebene_2" data-name="Ebene 2"><g id="Layer_1" data-name="Layer 1"><g class="cls-2"><polygon class="cls-3" points="341.33 0 170.67 0 0 0 0 527.01 170.67 527.01 341.33 527.01 512 527.01 512 0 341.33 0"/><rect class="cls-4" width="170.66" height="527.01"/><rect class="cls-5" x="341.34" width="170.66" height="527.01"/></g></g></g></svg>