<svg version="1.1" id="Ebene_1" xmlns="http://www.w3.org/2000/svg" x="0" y="0" viewBox="0 0 220 35" xml:space="preserve"><path d="M32.8 17.5c0 10.8-6.3 17.5-16.3 17.5S.2 28.3.2 17.5 6.5 0 16.5 0s16.3 6.7 16.3 17.5zm-25.4 0c0 7.1 3.5 11.6 9.1 11.6 5.5 0 9.1-4.5 9.1-11.6S22.1 5.9 16.5 5.9s-9.1 4.5-9.1 11.6zM51.1.6c6.9 0 11.7 4.6 11.7 11.6 0 6.9-4.9 11.6-12.1 11.6h-6.3v10.7h-7.1V.6h13.8zm-6.6 17.6h4.8c4.1 0 6.4-2.2 6.4-6s-2.3-6-6.4-6h-4.8v12zm30.6 16.2v-28h-9.8V.6H92v5.8h-9.8v28h-7.1zm20.8 0V.6h7.1v33.8h-7.1zm42.2 0V11.6h-.1l-9.2 22.5h-4.5l-9.2-22.5h-.2v22.8h-6.3V.6h8.2l9.6 24h.2l9.6-24h8.2v33.8h-6.3zm12 0V.6h7.1v33.8h-7.1zm18.2-9.6c.3 2.8 3.2 4.6 7 4.6s6.4-1.8 6.4-4.3c0-2.2-1.6-3.4-5.7-4.3l-4.4-1c-6.2-1.3-9.3-4.5-9.3-9.4 0-6.2 5.4-10.4 12.9-10.4 7.9 0 12.8 4.1 12.9 10.2h-6.6c-.2-2.9-2.7-4.6-6.3-4.6-3.5 0-5.8 1.7-5.8 4.2 0 2.1 1.6 3.3 5.5 4.1l4.1.9c6.8 1.5 9.7 4.4 9.7 9.5 0 6.6-5.3 10.7-13.7 10.7-8.1 0-13.3-3.9-13.5-10.2h6.8zm32.9 9.6v-28h-9.8V.6h26.7v5.8h-9.8v28h-7.1z" fill="#9a5be8"/></svg>