<?xml version="1.0" encoding="utf-8"?>
<!-- Generator: Adobe Illustrator 24.0.3, SVG Export Plug-In . SVG Version: 6.00 Build 0)  -->
<svg version="1.1" id="Ebene_1" xmlns="http://www.w3.org/2000/svg" xmlns:xlink="http://www.w3.org/1999/xlink" x="0px" y="0px"
	 viewBox="0 0 220 35" style="enable-background:new 0 0 220 35;" xml:space="preserve">
<style type="text/css">
	.st0{fill:#9A5BE8;}
</style>
<g>
	<path class="st0" d="M32.8,17.5c0,10.8-6.3,17.5-16.3,17.5c-10,0-16.3-6.7-16.3-17.5C0.2,6.7,6.5,0,16.5,0
		C26.5,0,32.8,6.7,32.8,17.5z M7.4,17.5c0,7.1,3.5,11.6,9.1,11.6c5.5,0,9.1-4.5,9.1-11.6c0-7.1-3.5-11.6-9.1-11.6S7.4,10.4,7.4,17.5
		z"/>
	<path class="st0" d="M51.1,0.6c6.9,0,11.7,4.6,11.7,11.6c0,6.9-4.9,11.6-12.1,11.6h-6.3v10.7h-7.1V0.6H51.1z M44.5,18.2h4.8
		c4.1,0,6.4-2.2,6.4-6c0-3.8-2.3-6-6.4-6h-4.8V18.2z"/>
	<path class="st0" d="M75.1,34.4v-28h-9.8V0.6H92v5.8h-9.8v28H75.1z"/>
	<path class="st0" d="M95.9,34.4V0.6h7.1v33.8H95.9z"/>
	<path class="st0" d="M138.1,34.4V11.6H138l-9.2,22.5h-4.5l-9.2-22.5h-0.2v22.8h-6.3V0.6h8.2l9.6,24h0.2l9.6-24h8.2v33.8H138.1z"/>
	<path class="st0" d="M150.1,34.4V0.6h7.1v33.8H150.1z"/>
	<path class="st0" d="M168.3,24.8c0.3,2.8,3.2,4.6,7,4.6c3.8,0,6.4-1.8,6.4-4.3c0-2.2-1.6-3.4-5.7-4.3l-4.4-1
		c-6.2-1.3-9.3-4.5-9.3-9.4c0-6.2,5.4-10.4,12.9-10.4c7.9,0,12.8,4.1,12.9,10.2h-6.6c-0.2-2.9-2.7-4.6-6.3-4.6
		c-3.5,0-5.8,1.7-5.8,4.2c0,2.1,1.6,3.3,5.5,4.1l4.1,0.9c6.8,1.5,9.7,4.4,9.7,9.5c0,6.6-5.3,10.7-13.7,10.7
		c-8.1,0-13.3-3.9-13.5-10.2H168.3z"/>
	<path class="st0" d="M201.2,34.4v-28h-9.8V0.6h26.7v5.8h-9.8v28H201.2z"/>
</g>
</svg>
